<svg width="93" height="26" viewBox="0 0 93 26" fill="none" xmlns="http://www.w3.org/2000/svg">
<g clip-path="url(#clip0_6441_85507)">
<path fill-rule="evenodd" clip-rule="evenodd" d="M0.31563 5.75805C0.210674 5.51427 0.10632 5.27189 0 5.03258C3.68213 3.06604 8.12602 3.97468 10.5671 7.19417C10.8043 8.95334 10.4681 10.7421 9.60851 12.2952C3.04166 12.0897 1.63128 8.81389 0.31563 5.75805ZM1.7376 16.5577C2.98816 14.6381 4.99276 13.0819 9.26004 12.8714C10.184 12.8256 11.2119 12.842 12.3636 12.933C11.8617 19.9708 5.17651 22.8858 0 20.1212C0.107881 19.8788 0.213678 19.6333 0.320078 19.3864C0.731559 18.4316 1.15266 17.4554 1.7376 16.5577ZM25.012 9.76881H27.7783L30.1986 16.8803L32.4464 9.76881H35.1271L31.4093 19.9708H28.9237L25.012 9.76881ZM34.7037 14.8912C34.7037 11.7794 36.8653 9.57495 39.9558 9.57495C43.0254 9.57495 45.187 11.7794 45.187 14.8912C45.187 17.9608 42.982 20.1652 39.8916 20.1652C36.8213 20.1652 34.7037 18.0037 34.7037 14.8912ZM42.4623 14.956V14.8698C42.4623 12.9253 41.5108 11.7574 39.9552 11.7574C38.3775 11.7574 37.4261 12.9253 37.4261 14.8698V14.956C37.4261 16.8577 38.3549 17.9822 39.9118 17.9822C41.4894 17.9822 42.4623 16.8589 42.4623 14.956ZM46.4043 5.42482H49.1064V19.9708H46.4043V5.42482ZM50.6483 15.8861V9.76881H53.3285V15.7344C53.3285 17.0962 53.9767 17.896 55.1874 17.896C56.592 17.896 57.1765 16.7073 57.1765 14.9566V9.77H59.8567V19.972H57.1765V18.524C56.636 19.5831 55.7059 20.1676 54.3882 20.1676C52.0743 20.1652 50.6483 18.5222 50.6483 15.8861ZM62.3061 17.2687V11.9304H60.8575V9.76881H62.3061V7.84568L64.9208 6.37509V9.76881H66.9313V11.9304H64.8994V17.01C64.8994 17.5071 65.1366 17.7236 65.6338 17.7444H66.8231V19.9708H64.7483C62.7806 19.8626 62.3489 18.9551 62.3061 17.2687ZM68.1486 5.66209H70.9363V8.2774H68.1486V5.66209ZM68.1926 9.76881H70.8947V19.9708H68.1926V9.76881ZM72.112 14.8912C72.112 11.7794 74.2736 9.57495 77.3646 9.57495C80.4337 9.57495 82.5952 11.7794 82.5952 14.8912C82.5952 17.9608 80.3908 20.1652 77.2998 20.1652C74.2308 20.1652 72.112 18.0037 72.112 14.8912ZM79.8723 14.9554V14.8698C79.8723 12.9253 78.9208 11.7574 77.3646 11.7574C75.787 11.7574 74.8355 12.9253 74.8355 14.8698V14.956C74.8355 16.8577 75.7644 17.9822 77.3206 17.9822C78.8988 17.9822 79.8723 16.8583 79.8723 14.9554ZM83.7917 9.76881H86.4718V11.4339C87.0124 10.2445 88.0067 9.55295 89.4552 9.55295C91.6816 9.55295 93 11.0444 93 13.8541V19.9708H90.3199V14.0052C90.3199 12.5792 89.7793 11.8436 88.5264 11.8436C87.2502 11.8436 86.473 12.8813 86.473 14.783V19.9702H83.7923L83.7917 9.76881ZM9.60851 12.2952C10.441 12.3213 11.355 12.2997 12.3636 12.22C12.2185 10.1892 11.5578 8.50218 10.5677 7.19512C10.8049 8.95429 10.4687 10.7431 9.60911 12.2961L9.60851 12.2952ZM15.1263 5.61883H25.5222V7.97487H17.8279V11.4114H22.9503V13.7674H17.8279V17.6149H25.7606V19.9715H15.1263V5.61883Z" fill="white"/>
</g>
<defs>
<clipPath id="clip0_6441_85507">
<rect width="93" height="26" fill="white"/>
</clipPath>
</defs>
</svg>
