<svg width="93" height="26" viewBox="0 0 93 26" fill="none" xmlns="http://www.w3.org/2000/svg">
<path d="M87.0945 5.9165C87.017 4.53087 86.5365 3.12968 85.591 2.08656C84.5525 0.918898 83.0645 0.280576 81.5455 0.09375H58.249C54.839 0.482972 51.7545 2.80273 50.2665 5.90093V5.9165C35.681 5.9165 21.08 5.9165 6.4945 5.9165C4.1385 5.9165 1.984 7.80033 1.519 10.1045C1.0075 12.144 0.434 14.1369 0 16.192V17.2195C0.1085 17.9824 0.434 18.7452 0.9765 19.2746C1.7205 20.0063 2.7745 20.271 3.7975 20.271C17.9335 20.271 32.0695 20.271 46.2055 20.271C46.283 21.6878 46.81 23.0578 47.7865 24.0854C48.7785 25.1596 50.2355 25.7824 51.6925 25.9381H74.71C78.1975 25.6578 81.3905 23.3536 83.0025 20.2554L87.0945 5.9165Z" fill="#2185C7"/>
<path d="M88.1799 4.14034C88.3659 4.26489 88.5674 4.37387 88.7844 4.43615C89.0014 4.49842 89.2184 4.51399 89.4509 4.49842C89.7454 4.46729 90.0399 4.35831 90.2724 4.17148C90.4739 4.03136 90.6289 3.84453 90.7374 3.64214C90.9079 3.34633 90.9854 3.01938 90.9699 2.69244C90.9699 2.4589 90.8924 2.19423 90.7839 1.97627C90.6909 1.77387 90.5514 1.58705 90.3809 1.44693C90.1639 1.2601 89.9159 1.11998 89.6369 1.05771C89.4509 1.02657 89.2804 0.995432 89.0944 1.02657C88.8154 1.04214 88.5674 1.13555 88.3349 1.2601C88.1024 1.40022 87.8854 1.60262 87.7304 1.85172C87.5909 2.08525 87.4979 2.38106 87.4824 2.67687C87.4669 3.00381 87.5444 3.3619 87.6994 3.64214C87.8389 3.81339 87.9939 3.98465 88.1799 4.14034ZM87.8699 2.58346C87.9009 2.33435 87.9939 2.08525 88.1489 1.89842C88.3194 1.69603 88.5054 1.52477 88.7534 1.44693C88.8774 1.38465 89.0014 1.36908 89.1409 1.35351C89.3269 1.33795 89.5284 1.35351 89.6834 1.43136C89.9159 1.5092 90.1174 1.64932 90.2879 1.83615C90.4739 2.03855 90.5824 2.27208 90.6134 2.53675C90.6444 2.77028 90.6289 3.03495 90.5359 3.25291C90.4584 3.43974 90.3654 3.59543 90.2259 3.73555C90.1019 3.8601 89.9469 3.96908 89.7919 4.04693C89.5749 4.14034 89.3269 4.17148 89.0634 4.15591C88.7689 4.12477 88.5054 3.98465 88.3039 3.78226C88.1179 3.611 87.9939 3.39304 87.9164 3.1595C87.8544 2.95711 87.8389 2.75471 87.8699 2.58346ZM88.9394 3.62657C88.9394 3.39304 88.9394 3.17507 88.9394 2.92597C89.0014 2.92597 89.0479 2.92597 89.1254 2.92597C89.1564 2.92597 89.2184 2.94154 89.2494 2.95711C89.2804 2.97268 89.3269 3.01938 89.3424 3.06609C89.3734 3.12836 89.4044 3.17507 89.4354 3.23735C89.4974 3.3619 89.5594 3.48645 89.6214 3.62657C89.7919 3.62657 89.9469 3.62657 90.1174 3.62657C90.0244 3.45531 89.9469 3.29962 89.8694 3.12837C89.8384 3.03495 89.7764 2.94154 89.6989 2.87926C89.6369 2.81699 89.5904 2.80142 89.5284 2.78585C89.5594 2.77028 89.5904 2.77028 89.6214 2.75471C89.7144 2.72357 89.7919 2.64573 89.8229 2.56789C89.8539 2.49004 89.8849 2.42777 89.8849 2.34992C89.8849 2.27208 89.8849 2.2098 89.8539 2.13196C89.8384 2.06968 89.7919 2.02298 89.7609 1.99184C89.6834 1.91399 89.5749 1.88286 89.4664 1.85172C89.3734 1.83615 89.2804 1.83615 89.1719 1.83615C88.9394 1.83615 88.7069 1.83615 88.4589 1.83615C88.4589 2.44334 88.4589 3.06609 88.4589 3.67328C88.6294 3.62657 88.7999 3.62657 88.9394 3.62657ZM88.9394 2.11639C89.0014 2.11639 89.0479 2.11639 89.1254 2.11639C89.2029 2.11639 89.2649 2.11639 89.3269 2.14753C89.3579 2.1631 89.4044 2.2098 89.4199 2.24094C89.4354 2.30321 89.4354 2.34992 89.4354 2.38106C89.4354 2.44334 89.4199 2.49004 89.3579 2.50561C89.2959 2.53675 89.2494 2.56789 89.1719 2.56789C89.0944 2.56789 89.0324 2.56789 88.9549 2.56789C88.9394 2.42777 88.9394 2.28765 88.9394 2.11639Z" fill="#2185C7"/>
<path d="M83.002 20.2399C84.5985 20.1621 86.2725 20.4579 87.838 19.9597C89.5895 19.3681 90.969 17.8579 91.403 16.0363C91.9145 14.0435 92.5345 12.0818 92.9995 10.0734V9.03032C92.829 7.90936 92.178 6.86625 91.1705 6.35248C89.915 5.66745 88.458 5.97882 87.094 5.91655L83.002 20.2399Z" fill="#2185C7"/>
<path d="M9.93546 14.8055C9.22246 14.8678 8.49396 14.821 7.79646 14.821C7.57946 15.5216 7.36246 16.2378 7.14546 16.9228C6.41696 16.9228 5.68846 16.9228 4.95996 16.9228C5.82796 14.0737 6.74246 11.2091 7.62596 8.35996C9.11396 8.37553 10.5865 8.34439 12.0745 8.35996C12.896 8.37553 13.5625 9.15398 13.454 9.97913C13.33 10.8821 12.958 11.7073 12.7255 12.5636C12.369 13.8091 11.2065 14.7588 9.93546 14.8055ZM12.2605 16.9384C13.1285 14.0893 14.043 11.2402 14.911 8.3911C15.6395 8.37553 16.368 8.37553 17.112 8.3911C16.461 10.5396 15.779 12.657 15.1125 14.8055C15.81 14.8055 16.4765 14.8055 17.1585 14.8055C17.391 14.0737 17.608 13.3576 17.825 12.6414C18.5535 12.6414 19.282 12.6414 20.0105 12.6414C19.5765 14.0737 19.127 15.5216 18.662 16.9384C16.5385 16.9384 14.415 16.9384 12.2605 16.9384ZM27.9465 10.5863C27.2955 12.7037 26.6135 14.821 25.9625 16.9384C25.234 16.9384 24.5055 16.9384 23.777 16.9384C23.994 16.2378 24.211 15.5216 24.428 14.8366C23.7305 14.8366 23.064 14.8366 22.382 14.8366C22.165 15.5372 21.948 16.2534 21.731 16.9384C21.0025 16.9384 20.274 16.9384 19.5455 16.9384C20.1965 14.8522 20.8475 12.766 21.514 10.6797C21.8705 9.40308 23.1105 8.35996 24.459 8.3911C25.234 8.3911 26.04 8.35996 26.815 8.42224C27.8225 8.51565 28.334 9.69889 27.9465 10.5863ZM34.7665 12.6258C34.3635 13.8558 33.201 14.7121 31.9455 14.8366C31.7285 15.5372 31.5115 16.2222 31.2945 16.9228C30.566 16.9228 29.8375 16.9228 29.109 16.9228C29.326 16.2222 29.543 15.5528 29.76 14.8522C29.3105 14.7276 28.768 14.6342 28.489 14.1983C28.1325 13.6845 28.1945 13.0306 28.3805 12.4546C28.799 11.1001 29.233 9.74559 29.6515 8.37553C30.38 8.35996 31.1085 8.35996 31.8525 8.35996C31.403 9.7923 30.938 11.2091 30.504 12.657C31.1705 12.657 31.868 12.657 32.55 12.657C32.9995 11.2246 33.4335 9.77673 33.8985 8.35996C34.627 8.35996 35.3555 8.35996 36.084 8.35996C35.65 9.7923 35.216 11.2091 34.7665 12.6258ZM37.262 8.60907C38.2075 8.60907 39.153 8.60907 40.114 8.60907C39.835 9.44978 39.525 10.2749 39.2615 11.1157C38.316 11.1157 37.3705 11.1157 36.425 11.1157C36.704 10.2749 36.983 9.43422 37.262 8.60907ZM45.1825 13.2953C44.8415 14.5097 44.4695 15.7085 44.1285 16.9384C43.4 16.9384 42.6715 16.9384 41.943 16.9384C42.2995 15.6306 42.7025 14.354 43.0745 13.0618C42.377 13.0618 41.7105 13.0618 41.0285 13.0618C40.641 14.3384 40.2845 15.6462 39.897 16.9384C39.1685 16.9384 38.44 16.9384 37.7115 16.9384C38.068 15.7085 38.4245 14.463 38.781 13.2174C39.122 11.9097 40.3775 10.8977 41.726 10.9133C42.47 10.8977 43.214 10.8821 43.958 10.9288C44.454 10.96 44.9345 11.2091 45.1515 11.6606C45.446 12.1588 45.3375 12.766 45.1825 13.2953Z" fill="white"/>
<path d="M57.9232 23.6029C56.0477 23.634 54.1567 23.6184 52.2967 23.6184C51.0567 23.634 49.7702 23.0891 49.0727 21.9993C48.3597 20.925 48.3442 19.5238 48.7317 18.325C49.7857 14.931 50.8552 11.5526 51.9092 8.14299C52.7927 4.81125 56.0942 2.19568 59.5662 2.36694C62.6972 2.38251 65.8127 2.36694 68.9437 2.38251C68.4167 4.14179 67.8587 5.8855 67.3007 7.64478C64.0147 7.64478 60.6977 7.66035 57.4117 7.64478C56.2802 11.2101 55.1642 14.7909 54.0482 18.3562C55.7997 18.3562 57.5202 18.3562 59.2562 18.3562C59.5352 17.4376 59.8142 16.519 60.1087 15.616C59.2407 15.616 58.3417 15.616 57.4737 15.616C58.0007 13.8723 58.5587 12.1442 59.0857 10.4005C61.6277 10.4005 64.1542 10.4005 66.6962 10.4005C65.8437 13.0939 65.0222 15.8029 64.1542 18.5118C63.2552 21.1741 60.7907 23.4316 57.9232 23.6029ZM81.4987 17.7645C80.5687 21.1586 77.2517 23.7586 73.7332 23.6496C72.1677 23.634 70.5867 23.6807 69.0212 23.6184C67.8277 23.5562 66.6342 23.0112 65.9677 21.9993C65.2237 20.8939 65.1617 19.4771 65.5492 18.2316C66.6342 14.7598 67.7192 11.2723 68.8042 7.80047C69.5792 5.06035 71.9662 2.88071 74.7097 2.21125C76.3682 1.91544 78.0577 2.1334 79.7317 2.0867C81.0182 2.05556 82.4597 2.02442 83.5292 2.91185C84.8622 3.92382 85.1877 5.80766 84.7227 7.34897C83.6687 10.8053 82.5682 14.2771 81.4987 17.7645Z" fill="#ED1F24"/>
<path d="M74.369 7.69051C73.284 11.2558 72.168 14.821 71.0675 18.3552C72.664 18.3552 74.2605 18.3552 75.857 18.3552C76.973 14.8055 78.0735 11.2558 79.1585 7.69051C77.5775 7.69051 75.9655 7.67494 74.369 7.69051ZM8.47852 12.6725C9.17602 12.6725 9.84252 12.6725 10.5245 12.6725C10.7415 11.9564 10.974 11.2402 11.191 10.524C10.4935 10.524 9.81152 10.524 9.11402 10.524C8.89702 11.2402 8.68002 11.9564 8.47852 12.6725ZM23.0795 12.6725C23.746 12.6725 24.4435 12.6725 25.1255 12.6725C25.3425 11.9564 25.575 11.2402 25.792 10.524C25.1255 10.524 24.428 10.524 23.746 10.524C23.5135 11.2402 23.281 11.9564 23.0795 12.6725Z" fill="#2185C7"/>
</svg>
