<svg width="93" height="26" viewBox="0 0 93 26" fill="none" xmlns="http://www.w3.org/2000/svg">
<g clip-path="url(#clip0_20908_333486)">
<path fill-rule="evenodd" clip-rule="evenodd" d="M27.9036 6H32.8477C32.646 6.15685 32.4818 6.35531 32.3895 6.637C31.7091 6.66581 31.0253 6.75544 30.3449 6.91229C29.5824 7.08835 28.9191 7.51408 28.9191 8.24712C28.9191 8.484 28.9875 8.70807 29.1038 8.90333L29.0969 8.74968L29.1995 8.70166C29.2918 8.65685 29.3909 8.61844 29.4867 8.58003C29.7329 8.484 29.9893 8.40397 30.2457 8.33675C31.7501 7.93982 33.9657 7.93982 35.4701 8.33675C35.7266 8.40397 35.983 8.48719 36.2292 8.58003C36.3249 8.61524 36.4241 8.65685 36.5164 8.70166L36.619 8.74968L36.6122 8.90333C36.7284 8.70807 36.7968 8.484 36.7968 8.24712C36.7968 7.51408 36.1334 7.08195 35.371 6.91229C34.6461 6.75224 33.9213 6.65621 33.1964 6.6338C33.3469 6.45454 33.5794 6.33931 33.8119 6.22727C33.9589 6.15365 34.1059 6.08323 34.2393 6H37.8122C38.2978 6 38.6944 6.37132 38.6944 6.82586V20.1709C38.6944 20.6255 38.2978 20.9968 37.8122 20.9968H27.9036C27.4181 20.9968 27.0215 20.6255 27.0215 20.1709V6.82586C27.0181 6.37132 27.4147 6 27.9036 6ZM33.5965 12.4981C34.8513 11.8291 35.4257 11.0576 35.4975 9.78041C34.9881 11.3425 34.2427 12.0979 33.5965 12.4981ZM29.3636 10.5006C29.5414 12.7414 32.1263 12.9302 32.858 14.1978C33.5897 12.9302 36.1745 12.7381 36.3523 10.5006L36.4343 8.84891C34.6666 7.98784 31.0526 7.98784 29.2849 8.84891L29.3636 10.5006Z" fill="#F89500"/>
<path fill-rule="evenodd" clip-rule="evenodd" d="M14.3909 6H24.2995C24.785 6 25.1816 6.37132 25.1816 6.82586V20.1709C25.1816 20.6255 24.785 20.9968 24.2995 20.9968H14.3909C13.9054 20.9968 13.5088 20.6255 13.5088 20.1709V6.82586C13.5088 6.37132 13.9054 6 14.3909 6ZM20.1385 16.2657C21.3933 15.5967 21.9677 14.8252 22.0395 13.548C21.53 15.1101 20.7847 15.8656 20.1385 16.2657ZM15.8543 14.3899C16.0321 16.6306 18.617 16.8226 19.3487 18.0871C20.0804 16.8195 22.6652 16.6274 22.843 14.3899L22.925 12.7381C21.1574 11.8771 17.5433 11.8771 15.7757 12.7381L15.8543 14.3899ZM18.8802 10.5262C18.1998 10.555 17.516 10.6447 16.8356 10.8015C16.0731 10.9776 15.4098 11.4033 15.4098 12.1363C15.4098 12.3732 15.4782 12.5973 15.5945 12.7926L15.5876 12.6389L15.6902 12.5909C15.7825 12.5461 15.8816 12.5077 15.9774 12.4693C16.2236 12.3732 16.48 12.2932 16.7365 12.226C18.2408 11.8291 20.4565 11.8291 21.9608 12.226C22.2173 12.2932 22.4737 12.3764 22.7199 12.4693C22.8156 12.5045 22.9148 12.5461 23.0071 12.5909L23.1097 12.6389L23.1029 12.7926C23.2191 12.5973 23.2875 12.3732 23.2875 12.1363C23.2875 11.4033 22.6241 10.9712 21.8617 10.8015C21.1368 10.6415 20.412 10.5454 19.6872 10.5231C19.8376 10.3438 20.0701 10.2285 20.3026 10.1165C20.8155 9.86362 21.3147 9.61716 21.3762 8.90973C20.4257 9.02177 20.9043 8.98015 19.9675 9.52113C19.5162 9.7452 19.0546 9.97249 18.8802 10.5262Z" fill="#F89500"/>
<path fill-rule="evenodd" clip-rule="evenodd" d="M0.882134 6H2.30791L2.34209 6.70103C2.51989 8.94174 5.10475 9.1306 5.83645 10.3982C6.5681 9.1306 9.15297 8.93854 9.33078 6.70103L9.36498 6H10.7907C11.2763 6 11.6729 6.37132 11.6729 6.82586V20.1709C11.6729 20.6255 11.2763 20.9968 10.7907 20.9968H9.36839L9.41284 20.1101C7.64514 19.249 4.03114 19.249 2.26346 20.1101L2.30791 20.9968H0.882134C0.396617 21 0 20.6255 0 20.1709V6.82586C0 6.37132 0.396617 6 0.882134 6ZM8.54436 6C8.04178 7.33483 7.36136 8.01024 6.76303 8.37836C7.90159 7.77016 8.47942 7.07554 8.62987 6H8.54436ZM5.37145 17.9014C4.69103 17.9302 4.00721 18.0198 3.3268 18.1767C2.56434 18.3528 1.90103 18.7785 1.90103 19.5115C1.90103 19.7484 1.96941 19.9725 2.08566 20.1677L2.07882 20.0141L2.1814 19.9661C2.27371 19.9212 2.37287 19.8828 2.4686 19.8444C2.71478 19.7484 2.97121 19.6684 3.22765 19.6011C4.73205 19.2042 6.94764 19.2042 8.45205 19.6011C8.7085 19.6684 8.96491 19.7516 9.21112 19.8444C9.30683 19.8796 9.406 19.9212 9.4983 19.9661L9.60089 20.0141L9.59406 20.1677C9.71031 19.9725 9.77866 19.7484 9.77866 19.5115C9.77866 18.7785 9.11536 18.3463 8.35292 18.1767C7.62806 18.0166 6.90319 17.9206 6.17833 17.8982C6.32877 17.7189 6.56127 17.6037 6.79377 17.4917C7.30667 17.2388 7.80583 16.9923 7.86739 16.2849C6.9169 16.3969 7.39556 16.3553 6.45873 16.8963C6.00739 17.1172 5.5458 17.3444 5.37145 17.9014Z" fill="#F89500"/>
<path fill-rule="evenodd" clip-rule="evenodd" d="M48.2645 14.6267C50.2513 14.6267 51.4718 13.4712 51.4718 11.8995V11.8771C51.4718 10.3278 50.2887 9.73239 49.0785 9.54033L51.3319 7.52689V6.14404H45.3107V7.71575H48.8118L46.6852 9.71638L46.9893 10.8848H47.8032C48.8974 10.8848 49.5468 11.2657 49.5468 11.9443V11.9667C49.5468 12.5877 49.0237 12.9782 48.2851 12.9782C47.3827 12.9782 46.7465 12.6197 46.1346 11.9763L44.791 13.1863C45.5535 14.0314 46.6613 14.6267 48.2645 14.6267Z" fill="white"/>
<path fill-rule="evenodd" clip-rule="evenodd" d="M61.4242 14.6268C64.173 14.6268 66.17 12.6837 66.17 10.3118V10.2894C66.17 7.91741 64.1969 6 61.448 6C58.6992 6 56.7021 7.94302 56.7021 10.3118V10.3342C56.7021 12.7094 58.6753 14.6268 61.4242 14.6268ZM61.448 12.9334C59.8683 12.9334 58.7502 11.7426 58.7502 10.3118V10.2894C58.7502 8.85852 59.8444 7.69334 61.4242 7.69334C63.0039 7.69334 64.122 8.88412 64.122 10.315V10.3374C64.122 11.7682 63.0278 12.9334 61.448 12.9334Z" fill="white"/>
<path fill-rule="evenodd" clip-rule="evenodd" d="M66.5771 14.483H68.5738L69.3873 12.6136H73.1555L73.969 14.483H76.0171L72.2049 6.0835H70.3963L66.5771 14.483ZM70.0918 10.9939L71.2749 8.289L72.458 10.9939H70.0918Z" fill="white"/>
<path fill-rule="evenodd" clip-rule="evenodd" d="M77.3955 14.4827H79.358V11.9347L80.3871 10.9328L83.1496 14.4827H85.5021L81.7101 9.68118L85.338 6.14404H82.9718L79.358 9.79003V6.14404H77.3955V14.4827Z" fill="white"/>
<path fill-rule="evenodd" clip-rule="evenodd" d="M89.7272 14.6046C91.649 14.6046 92.9995 13.6763 92.9995 12.0182V11.9958C92.9995 10.5425 91.9806 9.93433 90.1754 9.49259C88.6367 9.12447 88.2536 8.94521 88.2536 8.39784V8.37223C88.2536 7.9657 88.647 7.6456 89.3993 7.6456C90.1515 7.6456 90.9276 7.9561 91.714 8.46826L92.7329 7.08542C91.83 6.4068 90.7223 6.02588 89.4231 6.02588C87.6043 6.02588 86.3048 7.0278 86.3048 8.53868V8.56109C86.3048 10.216 87.464 10.6834 89.2589 11.1123C90.7498 11.4708 91.0539 11.7077 91.0539 12.1718V12.1943C91.0539 12.684 90.5721 12.9817 89.7684 12.9817C88.7495 12.9817 87.9117 12.588 87.1084 11.9702L85.9492 13.2698C87.0162 14.1629 88.3804 14.6046 89.7272 14.6046Z" fill="white"/>
<path fill-rule="evenodd" clip-rule="evenodd" d="M46.7461 20.9999C47.4268 20.9999 47.9531 20.7502 48.3362 20.4461V18.9352H46.719V19.5978H47.5428V20.094C47.3342 20.2348 47.0712 20.302 46.7737 20.302C46.1137 20.302 45.6487 19.8347 45.6487 19.1977V19.1881C45.6487 18.5959 46.1206 18.1029 46.7157 18.1029C47.1465 18.1029 47.4029 18.231 47.6864 18.455L48.2029 17.8725C47.8165 17.5652 47.4095 17.3955 46.7428 17.3955C45.6178 17.3955 44.794 18.2054 44.794 19.1977V19.2073C44.7907 20.238 45.5873 20.9999 46.7461 20.9999Z" fill="white"/>
<path fill-rule="evenodd" clip-rule="evenodd" d="M53.9062 20.939H54.7404L55.079 20.1579H56.6518L56.9905 20.939H57.8452L56.2518 17.4307H55.4963L53.9062 20.939ZM55.3733 19.4825L55.8687 18.3526L56.3646 19.4825H55.3733Z" fill="white"/>
<path fill-rule="evenodd" clip-rule="evenodd" d="M63.5303 20.9392H64.3302V18.6793L65.3664 20.155H65.3903L66.4367 18.6665V20.9392H67.2503V17.4565H66.3684L65.3903 18.929L64.4125 17.4565H63.5303V20.9392Z" fill="white"/>
<path d="M74.1024 17.4565H73.2852V20.9392H74.1024V17.4565Z" fill="white"/>
<path fill-rule="evenodd" clip-rule="evenodd" d="M80.1367 20.9392H80.947V18.7242L82.7489 20.9392H83.4432V17.4565H82.6362V19.6012L80.8922 17.4565H80.1367V20.9392Z" fill="white"/>
<path fill-rule="evenodd" clip-rule="evenodd" d="M91.2323 20.9999C91.9125 20.9999 92.4392 20.7502 92.8219 20.4461V18.9352H91.2047V19.5978H92.0289V20.094C91.8203 20.2348 91.5569 20.302 91.2594 20.302C90.5998 20.302 90.1311 19.8347 90.1311 19.1977V19.1881C90.1311 18.5959 90.6031 18.1029 91.1981 18.1029C91.6289 18.1029 91.8853 18.231 92.1688 18.455L92.6853 17.8725C92.2989 17.5652 91.8919 17.3955 91.2253 17.3955C90.1006 17.3955 89.2764 18.2054 89.2764 19.1977V19.2073C89.2764 20.238 90.0763 20.9999 91.2323 20.9999Z" fill="white"/>
</g>
<defs>
<clipPath id="clip0_20908_333486">
<rect width="93" height="15" fill="white" transform="translate(0 6)"/>
</clipPath>
</defs>
</svg>
