<svg width="93" height="26" viewBox="0 0 93 26" fill="none" xmlns="http://www.w3.org/2000/svg">
<g clip-path="url(#clip0_6441_86101)">
<path d="M20.5083 2H18.5029V3.93301H20.5083V2Z" fill="#FF6E00"/>
<path d="M2.00536 4.22852H0V6.16153H2.00536V4.22852Z" fill="#6414E6"/>
<path d="M4.31688 22.0669H2.31152V23.9999H4.31688V22.0669Z" fill="#19BEE6"/>
<path d="M15.8843 17.6064H13.8789V19.5395H15.8843V17.6064Z" fill="#E619DC"/>
<path fill-rule="evenodd" clip-rule="evenodd" d="M6.62914 1.9999H4.62747V3.92935H6.62914V1.9999ZM4.31725 1.9999H2.31189V3.92935H4.31725V1.9999ZM6.93936 3.92935H8.94472V1.9999H6.93936V3.92935ZM11.2566 1.99634H9.25125V3.92935H11.2566V1.99634ZM13.5685 1.99634H11.5668V3.92935H13.5685V1.99634ZM18.196 1.99634H16.1906V3.92935H18.196V1.99634ZM2.31558 6.15783H4.32094V4.22838H2.31189L2.31558 6.15783ZM0.0036932 8.38631H2.00167V6.46042H0L0.0036932 8.38631ZM2.31558 8.38631H4.32094V6.46042H2.31189L2.31558 8.38631ZM0 10.6219H2.00167V8.68889H0V10.6219ZM2.31189 10.6219H4.31725V8.68889H2.31189V10.6219ZM0 12.8504H2.00167V10.9174H0V12.8504ZM2.31189 12.8504H4.31725V10.9174H2.31189V12.8504ZM0 15.0789H2.00167V13.1494H0V15.0789ZM2.31189 15.0789H4.31725V13.1494H2.31189V15.0789ZM0 17.3109H2.00167V15.3779H0V17.3109ZM2.31189 17.3109H4.31725V15.3779H2.31189V17.3109ZM0 19.5394H2.00167V17.6064H0V19.5394ZM2.31189 19.5394H4.31725V17.6064H2.31189V19.5394ZM4.62747 17.3109H6.62914V15.3779H4.62747V17.3109ZM4.62747 19.5394H6.62914V17.6064H4.62747V19.5394ZM6.93936 17.3109H8.94472V15.3779H6.93936V17.3109ZM6.93936 19.5394H8.94472V17.6064H6.93936V19.5394ZM9.25125 17.3109H11.2566V15.3779H9.25125V17.3109ZM9.25125 19.5394H11.2566V17.6064H9.25125V19.5394ZM11.5631 17.3109H13.5685V15.3779H11.5631V17.3109ZM11.5631 19.5394H13.5685V17.6064H11.5631V19.5394ZM16.1906 17.3109H18.196V15.3779H16.1906V17.3109ZM0 21.7679H2.00167V19.8349H0V21.7679ZM0 23.9963H2.00167V22.0847H0V23.9963ZM2.31189 21.7679H4.31725V19.8349H2.31189V21.7679ZM4.62747 6.16139H6.62914V4.22838H4.62747V6.16139ZM6.93936 6.16139H8.94472V4.22838H6.93936V6.16139ZM9.25125 6.16139H11.2566V4.22838H9.25125V6.16139ZM11.5631 6.16139H13.5685V4.22838H11.5631V6.16139ZM13.8787 3.92935H15.8841V1.9999H13.8787V3.92935ZM13.8787 17.3073H15.8841V15.3779H13.8787V17.3073ZM13.8787 6.15783H15.8841V4.22838H13.8787V6.15783ZM16.1906 6.15783H18.196V4.22838H16.1906V6.15783ZM18.5025 6.15783H20.5079V4.22838H18.5025V6.15783ZM16.1906 8.38631H18.196V6.46042H16.1906V8.38631ZM18.5025 8.38631H20.5079V6.46042H18.5025V8.38631ZM20.8365 6.46042V8.38987H22.8382V6.46042H20.8365ZM18.5025 10.6219H20.5079V8.68889H18.5025V10.6219ZM20.8181 10.6219H22.8198V8.68889H20.8365L20.8181 10.6219ZM18.5025 12.8504H20.5079V10.9174H18.5025V12.8504ZM20.8181 12.8504H22.8198V10.9174H20.8365L20.8181 12.8504ZM18.5025 15.0789H20.5079V13.1459H18.5025V15.0789ZM18.5025 17.3109H20.5079V15.3779H18.5025V17.3109ZM16.1906 15.0789H18.196V13.1459H16.1906V15.0789ZM20.8181 15.0789H22.8198V13.1459H20.8365L20.8181 15.0789Z" fill="white"/>
<path fill-rule="evenodd" clip-rule="evenodd" d="M27.3848 10.6219H29.3901V8.68889H27.3848V10.6219ZM27.3848 12.8504H29.3901V10.9174H27.3848V12.8504ZM27.3848 15.0789H29.3901V13.1494H27.3848V15.0789ZM27.3848 17.3109H29.3901V15.3779H27.3848V17.3109ZM27.3848 19.5394H29.3901V17.6064H27.3848V19.5394ZM29.7003 8.38987H31.702V6.46042H29.7003V8.38987ZM29.7003 6.16139H31.702V4.22838H29.7003V6.16139ZM32.0122 8.38987H34.0176V6.46042H32.0122V8.38987ZM32.0122 6.16139H34.0176V4.22838H32.0122V6.16139ZM36.348 4.22838H34.3426V6.16139H36.348V4.22838ZM34.3241 3.92935H36.348V1.9999H34.3426L34.3241 3.92935ZM36.6397 6.15783H38.6414V4.22838H36.6397V6.15783ZM36.6397 3.92935H38.6414V1.9999H36.6397V3.92935ZM38.9516 6.15783H40.957V4.22838H38.9516V6.15783ZM40.957 1.99634H38.9516V3.92935H40.957V1.99634ZM43.2689 4.22482H41.2635V6.15783H43.2689V4.22482ZM41.2635 3.92935H43.2689V1.9999H41.2635V3.92935ZM29.7003 10.6219H31.702V8.68889H29.7003V10.6219ZM29.7003 12.8504H31.702V10.9174H29.7003V12.8504ZM29.7003 15.0789H31.702V13.1459H29.7003V15.0789ZM38.9331 12.8504H40.9385V10.9174H38.9331V12.8504ZM38.9331 15.0789H40.9385V13.1459H38.9331V15.0789ZM43.2504 10.9174H41.245V12.8504H43.2504V10.9174ZM43.2504 13.1459H41.245V15.0789H43.2504V13.1459ZM43.5569 12.8504H45.5807V10.9174H43.5754L43.5569 12.8504ZM43.5569 15.0789H45.5807V13.1459H43.5754L43.5569 15.0789ZM43.5569 19.5394H45.5807V17.6064H43.5754L43.5569 19.5394ZM45.8725 12.8504H47.8779V10.9174H45.8725V12.8504ZM45.8725 15.0789H47.8779V13.1494H45.8725V15.0789ZM43.5569 6.17919H45.5807V4.22838H43.5754L43.5569 6.17919ZM43.5569 8.40767H45.5807V6.46042H43.5754L43.5569 8.40767ZM45.8725 6.17919H47.8779V4.22838H45.8725V6.17919ZM45.8725 8.40767H47.8779V6.46042H45.8725V8.40767ZM29.7003 17.3109H31.702V15.3779H29.7003V17.3109ZM29.7003 19.5394H31.702V17.6064H29.7003V19.5394ZM32.0122 19.5394H34.0176V17.6064H32.0122V19.5394ZM32.0122 21.7679H34.0176V19.8349H32.0122V21.7679ZM32.0122 23.9963H34.0176V22.0847H32.0122V23.9963ZM36.348 19.8349H34.3426V21.7679H36.348V19.8349ZM34.3426 23.9963H36.348V22.0847H34.3426V23.9963ZM36.6582 21.7679H38.6598V19.8349H36.6582V21.7679ZM36.6582 23.9963H38.6598V22.0847H36.6582V23.9963ZM38.9701 21.7679H40.9754V19.8349H38.9701V21.7679ZM38.9701 23.9963H40.9754V22.0847H38.9701V23.9963ZM43.2873 19.8349H41.282V21.7679H43.2873V19.8349ZM41.282 23.9963H43.2873V22.0847H41.282V23.9963ZM43.5938 21.7679H45.5807V19.8349H43.5754L43.5938 21.7679ZM45.9094 21.7679H47.9148V19.8349H45.9094V21.7679ZM45.9094 17.3109H47.9148V15.3779H45.9094V17.3109ZM45.9094 19.5394H47.9148V17.6064H45.9094V19.5394ZM48.2029 13.1494V15.0789H50.2082V13.1494H48.2029ZM48.2029 17.3109H50.2082V15.3779H48.2029V17.3109Z" fill="white"/>
<path d="M29.3901 6.46045H27.3848V8.39346H29.3901V6.46045Z" fill="#E61973"/>
<path d="M34.0171 2H32.0117V3.93301H34.0171V2Z" fill="#FFB919"/>
<path d="M31.7056 19.835H29.7002V21.768H31.7056V19.835Z" fill="#1987E6"/>
<path d="M45.5845 22.0669H43.5791V23.9999H45.5845V22.0669Z" fill="#FF4B00"/>
<path d="M50.2075 10.9175H48.2021V12.8505H50.2075V10.9175Z" fill="#14E691"/>
<path d="M50.2075 17.6064H48.2021V19.5395H50.2075V17.6064Z" fill="#FF1928"/>
<path d="M58.6724 2H54.7725V8.01618H56.331V5.75922H58.6724V4.99741H59.4516V2.75113H58.6724V2ZM57.8931 4.25696H56.331V3.50227H57.8931V4.25696ZM61.0138 8.01618H64.1308V7.26505H64.9138V2.75113H64.1308V2H61.0138V2.75113H60.2309V7.26505H61.0138V8.01618ZM61.7931 3.50227H63.3516V6.51392H61.7931V3.50227ZM66.4722 8.01618H69.5855V7.26505H70.3685V5.75922H68.8063V6.51392H67.2441V3.50227H68.8063V4.25696H70.3685V2.75113H69.5855V2H66.4649V2.75113H65.6856V7.26505H66.4649L66.4722 8.01618ZM72.7136 5.75922H74.2758V8.01618H75.8343V5.75922H75.055V4.25696H75.8343V2H74.2758V4.25696H72.7136V2H71.1551V8.01618H72.7136V5.75922ZM81.2964 6.51392H78.1757V5.75922H80.5135V4.25696H78.1757V3.50227H81.2964V2H76.6025V8.01618H81.2853L81.2964 6.51392ZM82.0757 2V3.50227H83.6194V8.01618H85.1816V3.50227H86.7438V2H82.0757ZM57.1139 13.7476H57.8931V14.5023H56.331V11.4942H58.6724V9.98123H55.5517V10.7324H54.7725V15.257H55.5517V16.0081H58.6724V15.257H59.4516V12.2489H57.1139V13.7476ZM64.1308 9.98835H61.0138V10.7395H60.2346V16.0081H61.7931V14.5023H63.3516V16.0081H64.9138V10.743H64.1308V9.98835ZM63.3516 12.9964H61.7931V11.4942H63.3516V12.9964ZM69.5855 11.4942H68.8063V12.2489H68.0344V11.4942H67.2515V10.743H66.4722V9.98123H65.693V15.9974H67.2515V13.7511H68.0344V14.5023H68.8137V13.7511H69.5855V16.0081H71.1477V9.98123H70.3685V10.7324H69.5855V11.4942ZM71.927 16.0081H76.6025V14.5023H73.4818V13.7511H75.8232V12.2489H73.4818V11.4942H76.6025V9.98123H71.9344L71.927 16.0081ZM78.1683 10.743H77.3854V13H78.1683V13.7511H80.5061V14.5023H77.3854V16.0081H81.2927V15.257H82.0757V13H81.2927V12.2489H78.955V11.4942H82.0757V9.98123H78.1757L78.1683 10.743ZM55.5517 18.7349H54.7725V20.9919H55.5517V21.7288H57.8931V22.4799H54.7725V23.9822H58.6724V23.2453H59.4516V20.9919H58.6724V20.2408H56.331V19.4861H59.4516V17.9838H55.5517V18.7349ZM64.1308 17.9838H61.0138V18.7349H60.2309V23.2453H61.0138V23.9964H64.1308V23.2453H64.9138V18.7349H64.1308V17.9838ZM63.3516 22.4942H61.7931V19.4861H63.3516V22.4942ZM65.693 23.9964H67.2515V21.7288H69.5855V20.2408H67.2441V19.4861H70.3685V17.9838H65.693V23.9964ZM71.1551 19.4861H72.7136V23.9964H74.2758V19.4861H75.8343V17.9838H71.1551V19.4861Z" fill="white"/>
<path d="M88.9895 4.55243V2.38803H88.3174V2H90.0531V2.38803H89.3958V4.55243H88.9895ZM90.4077 4.55243V2H90.8545L91.7187 3.6411L92.5534 2H93.0002V4.55243H92.5903V2.81165L91.9588 4.05761H91.5008L90.8176 2.76181V4.54175L90.4077 4.55243Z" fill="white"/>
</g>
<defs>
<clipPath id="clip0_6441_86101">
<rect width="93" height="22" fill="white" transform="translate(0 2)"/>
</clipPath>
</defs>
</svg>
