<svg width="93" height="26" viewBox="0 0 93 26" fill="none" xmlns="http://www.w3.org/2000/svg">
<path fill-rule="evenodd" clip-rule="evenodd" d="M15 19.2457L17.8437 4.21173L32.8281 0.011055L32.2812 22.341L15 19.2457ZM22.4375 5.20663C22.3281 6.09099 22.2187 6.97534 22.1094 7.97024C22 8.85459 22 9.73895 21.8906 10.7338C22.4375 10.6233 23.0937 10.6233 23.6406 10.6233C24.2969 10.5128 24.8437 10.5128 25.5 10.5128C26.375 10.4022 27.0312 10.2917 27.3594 9.96003C27.7969 9.6284 28.0156 8.96514 28.125 7.97024C28.3437 7.97024 28.4531 7.97024 28.5625 7.97024C28.5625 8.85459 28.4531 9.84949 28.4531 10.8444C28.3437 11.7287 28.3437 12.7236 28.2344 13.7185C28.125 13.7185 28.0156 13.7185 27.7969 13.608C27.7969 12.8342 27.6875 12.392 27.5781 12.1709C27.4687 11.8393 27.25 11.6182 26.9219 11.5077C26.5937 11.3971 26.0469 11.2866 25.3906 11.2866C24.8437 11.3971 24.1875 11.3971 23.6406 11.3971C22.9844 11.3971 22.4375 11.3971 21.7812 11.5077C21.6719 12.2815 21.6719 13.0553 21.5625 13.8291C21.4531 14.4923 21.4531 15.2662 21.3437 16.04C21.2344 16.7032 21.2344 17.0349 21.3437 17.256C21.3437 17.3665 21.4531 17.477 21.6719 17.5876C21.7812 17.6981 22.1094 17.8087 22.5469 17.8087C23.5312 17.9192 24.5156 18.0298 25.3906 18.1403C26.375 18.2508 27.0312 18.3614 27.4687 18.2508C27.9062 18.1403 28.3437 17.9192 28.7812 17.5876C29.3281 17.1454 29.875 16.3716 30.4219 15.3767C30.6406 15.3767 30.8594 15.3767 30.9687 15.3767C30.75 16.1505 30.4219 16.8138 30.2031 17.477C29.875 18.2508 29.6562 18.9141 29.3281 19.5774C27.1406 19.2457 24.9531 18.9141 22.7656 18.693C20.6875 18.3614 18.5 18.0298 16.3125 17.6981C16.3125 17.5876 16.3125 17.477 16.3125 17.3665C16.5312 17.477 16.75 17.477 16.9687 17.477C17.2969 17.477 17.7344 17.477 18.0625 17.3665C18.3906 17.3665 18.6094 17.256 18.7187 17.0349C18.8281 16.8138 18.9375 16.3716 18.9375 15.7083C19.1562 14.3818 19.2656 12.9447 19.4844 11.5077C19.5937 10.0706 19.8125 8.6335 19.9219 7.19643C20.0312 6.42262 20.0312 5.8699 19.8125 5.75935C19.5937 5.53827 19.1562 5.53827 18.5 5.64881C18.2812 5.75935 18.0625 5.75935 17.9531 5.75935C17.9531 5.64881 17.9531 5.53827 17.9531 5.42772C20.0312 4.98554 22 4.54337 24.0781 3.99065C26.1562 3.54847 28.125 3.10629 30.2031 2.66412C30.2031 3.8801 30.2031 5.09609 30.2031 6.31207C29.9844 6.31207 29.875 6.42262 29.6562 6.42262C29.5469 5.53827 29.4375 4.98554 29.2187 4.65391C29.1094 4.32228 28.7812 4.21173 28.4531 4.10119C28.125 3.99065 27.5781 4.10119 26.8125 4.21173C26.0469 4.43282 25.2812 4.54337 24.625 4.65391C23.8594 4.875 23.0937 4.98554 22.4375 5.20663Z" fill="white"/>
<path d="M46.8281 17.256L46.7188 20.6828H37.0938V20.2407L44.4219 10.4022H40.7031C40.0469 10.4022 39.5 10.5128 39.2813 10.6233C39.0625 10.7338 38.8438 10.8444 38.7344 11.176C38.5156 11.6182 38.2969 12.0604 38.2969 12.7236H37.8594V9.6284H47.0469V10.0706L39.7188 19.909H43.6563C44.5313 19.909 45.0781 19.7985 45.4063 19.6879C45.625 19.4668 45.9531 19.2458 46.0625 18.9141C46.1719 18.693 46.2813 18.1403 46.3906 17.256H46.8281ZM57.7656 9.6284V16.3716C57.7656 17.5876 57.7656 18.3614 57.875 18.693C57.875 18.9141 57.9844 19.1352 58.0938 19.2458C58.3125 19.3563 58.4219 19.3563 58.6406 19.3563C58.8594 19.3563 59.0781 19.3563 59.4063 19.2458L59.625 19.6879L56.3438 21.0145H55.7969V18.693C54.8125 19.6879 54.1563 20.3512 53.6094 20.5723C53.1719 20.9039 52.625 21.0145 52.0781 21.0145C51.5313 21.0145 50.9844 20.7934 50.5469 20.4617C50 20.1301 49.7813 19.6879 49.5625 19.1352C49.3438 18.4719 49.3438 17.6981 49.3438 16.7032V11.7287C49.3438 11.2866 49.2344 10.8444 49.125 10.7338C49.0156 10.5128 48.9063 10.2917 48.6875 10.1811C48.4688 10.0706 48.0313 10.0706 47.4844 10.0706V9.6284H51.3125V17.0349C51.3125 18.0298 51.4219 18.693 51.8594 19.0247C52.1875 19.3563 52.625 19.5774 53.0625 19.5774C53.3906 19.5774 53.8281 19.4668 54.2656 19.2458C54.7031 19.0247 55.25 18.5825 55.7969 17.9192V11.7287C55.7969 11.0655 55.6875 10.6233 55.4688 10.4022C55.25 10.1811 54.7031 10.0706 54.0469 10.0706V9.6284H57.7656ZM63.3438 16.5927C62.5781 16.2611 62.1406 15.8189 61.8125 15.2662C61.375 14.7134 61.2656 14.0502 61.2656 13.2764C61.2656 12.1709 61.5938 11.2866 62.4688 10.5128C63.2344 9.73895 64.3281 9.29677 65.5313 9.29677C66.625 9.29677 67.5 9.51786 68.2656 10.0706H70.5625C70.8906 10.0706 71.1094 10.0706 71.1094 10.0706C71.2188 10.1811 71.2188 10.1811 71.2188 10.1811C71.3281 10.2917 71.3281 10.4022 71.3281 10.6233C71.3281 10.8444 71.3281 10.9549 71.3281 11.0655C71.2188 11.0655 71.2188 11.0655 71.1094 11.176C71.1094 11.176 70.8906 11.176 70.5625 11.176H69.1406C69.5781 11.7287 69.7969 12.5026 69.7969 13.3869C69.7969 14.3818 69.4688 15.2662 68.5938 16.04C67.8281 16.7032 66.8438 17.1454 65.5313 17.1454C64.9844 17.1454 64.4375 17.0349 63.8906 16.8138C63.5625 17.1454 63.3438 17.477 63.125 17.6981C63.0156 17.9192 63.0156 18.1403 63.0156 18.2509C63.0156 18.3614 63.0156 18.4719 63.125 18.693C63.3438 18.8036 63.5625 18.9141 63.8906 18.9141C64.2188 18.9141 64.7656 19.0247 65.6406 19.0247C67.2813 19.0247 68.2656 19.1352 68.8125 19.2458C69.5781 19.2458 70.125 19.5774 70.5625 20.0196C71 20.4617 71.2188 21.0145 71.2188 21.6777C71.2188 22.5621 70.7813 23.4464 70.0156 24.2202C68.7031 25.4362 67.0625 25.989 65.0938 25.989C63.5625 25.989 62.25 25.6573 61.2656 24.9941C60.6094 24.5519 60.3906 24.1097 60.3906 23.6675C60.3906 23.557 60.3906 23.3359 60.5 23.1148C60.6094 22.7832 60.9375 22.4515 61.2656 21.8988C61.375 21.7883 61.8125 21.3461 62.5781 20.5723C62.1406 20.3512 61.8125 20.1301 61.7031 19.909C61.4844 19.6879 61.375 19.4668 61.375 19.2458C61.375 18.9141 61.4844 18.5825 61.7031 18.2509C61.9219 17.8087 62.4688 17.3665 63.3438 16.5927ZM65.3125 9.96003C64.7656 9.96003 64.3281 10.1811 63.8906 10.6233C63.4531 11.0655 63.3438 11.8393 63.3438 12.8342C63.3438 14.0502 63.5625 15.0451 64.1094 15.7083C64.5469 16.2611 64.9844 16.4821 65.6406 16.4821C66.2969 16.4821 66.7344 16.2611 67.1719 15.8189C67.5 15.3767 67.7188 14.7134 67.7188 13.7185C67.7188 12.392 67.5 11.3971 66.9531 10.7338C66.5156 10.1811 65.9688 9.96003 65.3125 9.96003ZM63.2344 20.6828C62.7969 21.125 62.5781 21.4566 62.3594 21.7883C62.1406 22.1199 62.0313 22.4515 62.0313 22.7832C62.0313 23.2253 62.25 23.557 62.7969 23.7781C63.5625 24.3308 64.6563 24.5519 66.1875 24.5519C67.6094 24.5519 68.7031 24.3308 69.3594 23.7781C70.0156 23.2253 70.3438 22.7832 70.3438 22.1199C70.3438 21.6777 70.125 21.4566 69.6875 21.2355C69.3594 21.125 68.4844 21.0145 67.2813 20.9039C65.5313 20.9039 64.1094 20.7934 63.2344 20.6828ZM76.3594 9.29677V18.1403C76.3594 18.9141 76.3594 19.3563 76.4688 19.5774C76.5781 19.7985 76.6875 19.909 76.9063 20.0196C77.125 20.1301 77.4531 20.2407 78 20.2407V20.6828H72.75V20.2407C73.1875 20.2407 73.625 20.1301 73.7344 20.1301C73.9531 20.0196 74.0625 19.7985 74.1719 19.5774C74.2813 19.3563 74.3906 18.9141 74.3906 18.1403V13.9396C74.3906 12.7236 74.2813 11.9498 74.2813 11.6182C74.1719 11.3971 74.1719 11.176 73.9531 11.0655C73.8438 10.9549 73.7344 10.9549 73.5156 10.9549C73.2969 10.9549 72.9688 10.9549 72.75 11.0655L72.5313 10.6233L75.8125 9.29677H76.3594Z" fill="white"/>
<path fill-rule="evenodd" clip-rule="evenodd" d="M22.7656 5.42772C22.6563 6.42262 22.5469 7.30697 22.4375 8.19133C22.3281 9.07568 22.3281 9.84949 22.2188 10.7338H21.8906C22 9.73895 22 8.85459 22.1094 7.97024C22.2188 6.97534 22.3281 6.09099 22.4375 5.20663C23.0938 4.98554 23.8594 4.875 24.625 4.65391C25.2813 4.54337 26.0469 4.43282 26.8125 4.21174C27.5781 4.10119 28.125 3.99065 28.4531 4.10119C28.7813 4.21174 29 4.32228 29.2188 4.54337C29 4.43282 28.8906 4.43282 28.7813 4.32228C28.4531 4.32228 27.9063 4.32228 27.0313 4.54337C26.375 4.65391 25.6094 4.875 24.9531 4.98554C24.1875 5.09609 23.4219 5.31718 22.7656 5.42772ZM28.5625 8.30187C28.6719 8.19133 28.7813 8.19133 28.8906 8.19133C28.8906 9.18622 28.7813 10.1811 28.7813 11.0655C28.6719 12.0604 28.6719 12.9447 28.5625 13.9396C28.4531 13.9396 28.3438 13.9396 28.125 13.9396C28.125 13.8291 28.125 13.7185 28.125 13.7185H28.2344C28.3438 12.7236 28.3438 11.7287 28.4531 10.8444C28.4531 9.96003 28.5625 9.07568 28.5625 8.30187ZM27.4688 11.9498C27.3594 11.8393 27.25 11.8393 27.25 11.8393C26.9219 11.6182 26.375 11.6182 25.7188 11.6182C25.1719 11.6182 24.5156 11.6182 23.9688 11.7287C23.3125 11.7287 22.7656 11.7287 22.1094 11.7287C22 12.5026 22 13.2764 21.8906 14.0502C21.7813 14.824 21.7813 15.5978 21.6719 16.3716C21.5625 17.0349 21.5625 17.3665 21.6719 17.477C21.6719 17.5876 21.6719 17.5876 21.6719 17.5876C21.4531 17.477 21.3438 17.3665 21.3438 17.256C21.2344 17.0349 21.2344 16.7032 21.3438 16.04C21.4531 15.2662 21.4531 14.4923 21.5625 13.8291C21.6719 13.0553 21.6719 12.2815 21.7813 11.5077C22.4375 11.3971 22.9844 11.3971 23.6406 11.3971C24.1875 11.3971 24.8438 11.3971 25.3906 11.2866C26.0469 11.2866 26.5938 11.3971 26.9219 11.5077C27.1406 11.6182 27.3594 11.7287 27.4688 11.9498ZM30.8594 15.7083C30.9688 15.7083 31.1875 15.7083 31.2969 15.7083C30.9688 16.3716 30.75 17.1454 30.4219 17.8087C30.2031 18.4719 29.875 19.1352 29.6563 19.909C27.4688 19.5774 25.2813 19.2457 23.0938 18.9141C21.0156 18.5825 18.8281 18.3614 16.6406 18.0298C16.6406 17.9192 16.6406 17.8087 16.6406 17.8087C18.7188 18.0298 20.7969 18.3614 22.7656 18.693C24.9531 18.9141 27.1406 19.2457 29.3281 19.5774C29.6563 18.9141 29.875 18.2509 30.2031 17.477C30.4219 16.9243 30.6406 16.2611 30.8594 15.7083ZM19.9219 5.8699C19.7031 5.8699 19.2656 5.8699 18.8281 5.98044C18.6094 5.98044 18.3906 6.09099 18.2813 6.09099C18.2813 5.98044 18.2813 5.8699 18.2813 5.75935L18.9375 5.64881C19.375 5.53827 19.7031 5.64881 19.8125 5.75935C19.9219 5.75935 19.9219 5.8699 19.9219 5.8699ZM30.2031 2.99575L30.5313 2.8852C30.5313 4.10119 30.5313 5.31718 30.5313 6.64371C30.3125 6.64371 30.2031 6.64371 29.9844 6.64371C29.9844 6.53316 29.9844 6.42262 29.9844 6.31208H30.2031V2.99575Z" fill="#999999"/>
<path d="M75.1854 7.69002C76.388 7.57373 77.293 6.74045 77.2067 5.82884C77.1204 4.91722 76.0755 4.27248 74.8729 4.38877C73.6702 4.50506 72.7653 5.33834 72.8516 6.24995C72.9379 7.16157 73.9827 7.80631 75.1854 7.69002Z" fill="white"/>
<path fill-rule="evenodd" clip-rule="evenodd" d="M32.2812 22.341L32.8281 0.011055L34.7969 2.8852L34.5781 21.0145L32.2812 22.341Z" fill="#E6E6E6"/>
</svg>
