<svg width="93" height="26" viewBox="0 0 93 26" fill="none" xmlns="http://www.w3.org/2000/svg">
<path d="M1 17.3291V20.5003H9.91707L11.2666 17.3291H1Z" fill="#0099FA"/>
<path d="M1 13.4937V16.7153L12.2063 15.1447L13.6658 11.7119L1 13.4937Z" fill="#0099FA"/>
<path d="M1 9.53689V12.859L14.6855 9.33554L16.315 5.49996L1 9.53689Z" fill="#0099FA"/>
<path d="M9.24742 15.3252C9.34387 15.3099 9.43177 15.2604 9.49517 15.1857C9.55862 15.1109 9.59347 15.0158 9.59347 14.9175C9.59347 14.8191 9.55862 14.724 9.49517 14.6493C9.43177 14.5745 9.34387 14.5251 9.24742 14.5098C9.15097 14.5251 9.06312 14.5745 8.99967 14.6493C8.93627 14.724 8.90137 14.8191 8.90137 14.9175C8.90137 15.0158 8.93627 15.1109 8.99967 15.1857C9.06312 15.2604 9.15097 15.3099 9.24742 15.3252Z" fill="#0099FA"/>
<path d="M22.973 14.7618H25.972L26.9517 12.4061H22.973V10.7752H27.6415L28.7011 8.25839L28.7111 8.23825H20.0439V19.0101H28.7211V16.4732H22.973V14.7618Z" fill="white"/>
<path d="M57.0914 8.23863H52.5029V19.0105H55.5019V15.9299H56.9814C58.1729 15.9915 59.3494 15.6358 60.3104 14.9232C60.7319 14.5822 61.0669 14.1451 61.2879 13.648C61.5084 13.1508 61.6085 12.6079 61.58 12.0641C61.607 11.5347 61.5125 11.0062 61.3045 10.5192C61.0965 10.0323 60.7804 9.5999 60.3804 9.25541C59.4419 8.52717 58.2734 8.16595 57.0914 8.23863ZM58.0909 13.2118C57.7389 13.463 57.3119 13.5839 56.8814 13.5541H55.4719V10.7453H56.8614C57.3099 10.7203 57.7534 10.8479 58.1209 11.1077C58.2659 11.231 58.3814 11.3855 58.4594 11.5597C58.5374 11.7339 58.5754 11.9235 58.5709 12.1145C58.5869 12.3201 58.5549 12.5267 58.4764 12.7174C58.3984 12.9081 58.2764 13.0775 58.1209 13.2118H58.0909Z" fill="white"/>
<path d="M65.5383 8.23825H62.5693V19.0101H69.1269L70.2269 16.3926H65.5383V8.23825Z" fill="white"/>
<path d="M75.2751 8.15817L71.4466 17.279L70.7266 19.0106H73.8456L74.6056 17.0877H78.7341L79.5136 19.0106H82.6926L78.1341 8.15817H75.2751ZM75.4751 14.7622L76.6846 11.7421L77.8741 14.7622H75.4751Z" fill="white"/>
<path d="M88.6808 8.23825L86.4618 12.1645L84.2623 8.23825H80.8838L84.9523 14.9732V19.0101H87.9313V14.9329L91.9998 8.23825H88.6808Z" fill="white"/>
<path d="M37.4781 8.23825L35.0489 15.0537L32.6197 8.23825H29.3008L33.6393 19.0906H36.3884L40.737 8.23825H37.4781Z" fill="white"/>
<path d="M45.7447 8.04684C44.6454 8.04684 43.5708 8.37512 42.6568 8.99017C41.7427 9.60521 41.0303 10.4794 40.6096 11.5022C40.189 12.5249 40.0789 13.6504 40.2933 14.7361C40.5078 15.8219 41.0372 16.8193 41.8145 17.6021C42.5918 18.3849 43.5822 18.918 44.6604 19.1339C45.7386 19.3499 46.8561 19.2391 47.8717 18.8154C48.8874 18.3918 49.7554 17.6743 50.3662 16.7539C50.9769 15.8334 51.303 14.7512 51.303 13.6442C51.303 12.1597 50.7173 10.736 49.6749 9.68626C48.6326 8.63656 47.2188 8.04684 45.7447 8.04684ZM45.7447 16.5838C45.1674 16.5838 44.603 16.4114 44.123 16.0884C43.643 15.7653 43.2688 15.3062 43.0479 14.7691C42.8269 14.232 42.7691 13.6409 42.8818 13.0707C42.9944 12.5005 43.2724 11.9767 43.6806 11.5656C44.0889 11.1544 44.609 10.8745 45.1752 10.7611C45.7415 10.6476 46.3284 10.7058 46.8618 10.9283C47.3952 11.1508 47.8511 11.5276 48.1718 12.011C48.4926 12.4944 48.6638 13.0628 48.6638 13.6442C48.6611 14.422 48.3524 15.1672 47.8053 15.7163C47.2581 16.2654 46.5172 16.5737 45.7447 16.5737V16.5838Z" fill="white"/>
</svg>
