<?xml version="1.0" encoding="UTF-8"?>
<svg id="Layer_2" data-name="Layer 2" xmlns="http://www.w3.org/2000/svg" viewBox="0 0 320 87">
  <defs>
    <style>
      .cls-1 {
        fill: #020202;
      }

      .cls-1, .cls-2 {
        stroke-width: 0px;
      }

      .cls-2 {
        fill: #fff;
      }
    </style>
  </defs>
  <g id="Layer_1-2" data-name="Layer 1">
    <g id="Layer_1-3" data-name="Layer 1">
      <g>
        <g>
          <rect class="cls-1" x="231.85" y="45.29" width="41.71" height="41.71" rx="8.83" ry="8.83"/>
          <polygon class="cls-2" points="257.78 53.82 257.78 71.22 247.64 53.82 243.64 53.82 243.64 78.48 247.64 78.48 247.64 61.12 257.78 78.48 261.77 78.48 261.77 53.82 257.78 53.82"/>
        </g>
        <g>
          <rect class="cls-1" x="278.29" y="45.29" width="41.71" height="41.71" rx="8.83" ry="8.83"/>
          <path class="cls-2" d="M300.3,65.07v3.53h5.07v5.84c-1.08.35-2.3.54-3.73.54-6.57,0-9.06-3.96-9.06-8.83s3.38-8.83,9.06-8.83c2.3,0,4.3.46,5.92,1.34l1.23-3.38c-2.15-1.11-4.38-1.46-7.14-1.46-8.34,0-13.37,5.53-13.37,12.33s3.69,12.33,13.37,12.33c3.19,0,5.72-.61,7.72-1.65v-11.75s-9.06,0-9.06,0Z"/>
        </g>
        <g>
          <g>
            <rect class="cls-1" x="92.72" y="0" width="41.71" height="41.71" rx="8.83" ry="8.83"/>
            <path class="cls-2" d="M121.99,27.77c-.92-3.61-1.69-5.42-3.3-6.22.81-.38,3.99-1.88,3.99-6.03,0-3.19-1.84-4.99-4.03-5.95-2.38-1.04-4.84-1.04-6.3-1.04-2.88,0-6.3.35-7.45.54v24.12h3.99v-10.14h4.11c1.5,0,2.73.42,3.42,1.27s1.08,2.07,1.38,3.5c.42,2.07,1.23,4.61,1.88,5.42h4.53c-.92-1.27-1.77-3.5-2.27-5.38h0l.04-.08ZM113.39,19.59h-4.49v-7.26c.81-.12,1.65-.27,3.11-.27,1.65,0,6.61-.04,6.61,3.8,0,3.46-4.3,3.69-5.26,3.69l.04.04Z"/>
          </g>
          <g>
            <rect class="cls-1" x="46.36" y="0" width="41.71" height="41.71" rx="8.83" ry="8.83"/>
            <path class="cls-2" d="M74.02,33.15h4.26l-9.18-24.66h-3.84l-9.18,24.66h4.26l2.69-7.68h8.26l2.69,7.68h.04ZM64.26,22.05l2.88-8.14h0l2.88,8.14h-5.8.04Z"/>
          </g>
          <g>
            <rect class="cls-1" y="0" width="41.71" height="41.71" rx="8.83" ry="8.83"/>
            <path class="cls-2" d="M26.5,20.09c.38-.23,3.07-1.77,3.07-4.95,0-2.27-1-4.03-3.03-5.26-1.77-1.08-4.3-1.38-7.41-1.38-4.61,0-7.18.61-7.18.61v23.58s1.73.42,6.11.42c2.5,0,6.03-.08,7.99-.92,2.46-1.08,4.57-3,4.57-6.41,0-4.49-3.76-5.61-4.11-5.72h0v.04ZM15.94,12.1c1.46-.12,2.15-.19,3.42-.19,1.69,0,6.15,0,6.15,3.34s-4.46,3.5-5.45,3.5h-4.11v-6.61h0v-.04ZM18.94,29.65c-1.42,0-3-.08-3-.08v-7.37h4.11c1.08,0,6.38,0,6.38,3.53,0,3.76-5.26,3.92-7.53,3.92h.04Z"/>
          </g>
          <g>
            <rect class="cls-1" x="231.85" width="41.71" height="41.71" rx="8.83" ry="8.83"/>
            <path class="cls-2" d="M261.12,27.77c-.92-3.61-1.69-5.42-3.3-6.22.81-.38,3.99-1.88,3.99-6.03,0-3.19-1.84-4.99-4.03-5.95-2.38-1.04-4.84-1.04-6.3-1.04-2.88,0-6.3.35-7.45.54v24.12h3.99v-10.14h4.11c1.5,0,2.73.42,3.42,1.27s1.08,2.07,1.38,3.5c.42,2.07,1.23,4.61,1.88,5.42h4.53c-.92-1.27-1.77-3.5-2.27-5.38h0l.04-.08ZM252.51,19.55h-4.49v-7.26c.81-.12,1.65-.27,3.11-.27,1.65,0,6.61-.04,6.61,3.8,0,3.46-4.3,3.69-5.26,3.69l.04.04Z"/>
          </g>
          <g>
            <rect class="cls-1" x="185.49" width="41.71" height="41.71" rx="8.83" ry="8.83"/>
            <path class="cls-2" d="M213.14,33.19h4.26l-9.18-24.66h-3.84l-9.18,24.66h4.26l2.69-7.68h8.26l2.69,7.68h.04ZM203.39,22.09l2.88-8.14h0l2.88,8.14h-5.8.04Z"/>
          </g>
          <g>
            <rect class="cls-1" x="278.29" width="41.71" height="41.71" rx="8.83" ry="8.83"/>
            <path class="cls-2" d="M305.94,33.19h4.26l-9.18-24.66h-3.84l-9.18,24.66h4.26l2.69-7.68h8.26l2.69,7.68h.04ZM296.19,22.09l2.88-8.14h0l2.88,8.14h-5.8.04Z"/>
          </g>
          <g>
            <rect class="cls-1" x="139.13" width="41.71" height="41.71" rx="8.83" ry="8.83"/>
            <path class="cls-2" d="M165.63,20.09c.38-.23,3.07-1.77,3.07-4.95,0-2.27-1-4.03-3.03-5.26-1.77-1.08-4.3-1.38-7.41-1.38-4.61,0-7.18.61-7.18.61v23.62s1.73.42,6.11.42c2.5,0,6.03-.08,7.99-.92,2.46-1.08,4.57-3,4.57-6.41,0-4.49-3.76-5.61-4.11-5.72h0ZM155.07,12.1c1.46-.12,2.15-.19,3.42-.19,1.69,0,6.15,0,6.15,3.34s-4.46,3.5-5.45,3.5h-4.11v-6.61h0v-.04ZM158.06,29.65c-1.42,0-3-.08-3-.08v-7.37h4.11c1.08,0,6.38,0,6.38,3.53,0,3.76-5.26,3.92-7.53,3.92h.04Z"/>
          </g>
        </g>
        <g>
          <rect class="cls-1" x="185.49" y="45.29" width="41.71" height="41.71" rx="8.83" ry="8.83"/>
          <path class="cls-2" d="M213.14,78.48h4.26l-9.18-24.66h-3.84l-9.18,24.66h4.26l2.69-7.68h8.26l2.69,7.68h.04ZM203.39,67.38l2.88-8.14h0l2.88,8.14h-5.8.04Z"/>
        </g>
        <g>
          <rect class="cls-1" x="139.13" y="45.29" width="41.71" height="41.71" rx="8.83" ry="8.83"/>
          <path class="cls-2" d="M165.63,65.42c.38-.23,3.07-1.77,3.07-4.95,0-2.27-1-4.03-3.03-5.26-1.77-1.08-4.3-1.38-7.41-1.38-4.61,0-7.18.61-7.18.61v23.62s1.73.42,6.11.42c2.5,0,6.03-.08,7.99-.92,2.46-1.08,4.57-3,4.57-6.41,0-4.49-3.76-5.61-4.11-5.72h0ZM155.07,57.43c1.46-.12,2.15-.19,3.42-.19,1.69,0,6.15,0,6.15,3.34s-4.46,3.5-5.45,3.5h-4.11v-6.61h0v-.04ZM158.06,74.98c-1.42,0-3-.08-3-.08v-7.37h4.11c1.08,0,6.38,0,6.38,3.53,0,3.76-5.26,3.92-7.53,3.92h.04Z"/>
        </g>
      </g>
    </g>
  </g>
</svg>