<?xml version="1.0" encoding="UTF-8"?>
<svg id="Layer_2" data-name="Layer 2" xmlns="http://www.w3.org/2000/svg" viewBox="0 0 319.23 85.63">
  <defs>
    <style>
      .cls-1 {
        fill-rule: evenodd;
      }

      .cls-1, .cls-2 {
        fill: #fff;
        stroke-width: 0px;
      }
    </style>
  </defs>
  <g id="Layer_1-2" data-name="Layer 1">
    <g>
      <path class="cls-2" d="M77.5,25.84c-.05-.12-.08-.24-.14-.37-3.23-7.52-15.47-9.81-29.59-6.36l-2.32-1.38c6.95-2.85,13.87-4.34,19.67-3.94,8.65.61,12.88,5.3,12.37,12.04ZM64.95,41.65c-9.04,10.98-25.43,18.58-36.54,17.79-11.11-.78-12.8-10.35-3.75-21.32.18-.23.38-.44.57-.67v13.77c-.06,1.47.67,2.86,1.91,3.64,1.25.78,2.82.82,4.1.11l33.31-19.33c1.16-.7,1.86-1.97,1.84-3.32-.02-1.36-.77-2.6-1.96-3.25l-13.49-7.42c3.32-1.02,6.79-1.46,10.26-1.3,11.11.8,12.79,10.33,3.75,21.31ZM22.63,65.35c-10.21-.73-14.28-7.15-11.64-15.89-.04,1.42.23,2.84.79,4.15,3.99,9.34,21.91,10.59,40.02,2.86.38-.16.75-.33,1.11-.49-10.18,6.26-21.5,10-30.31,9.38,0,0,.02,0,.02,0ZM34.41,16.47l22.34,13.41c1.26.71,1.7,2.3.99,3.56-.22.38-.52.7-.89.93l-22.57,13.11c-.88.48-1.95.45-2.8-.09-.85-.53-1.34-1.48-1.3-2.48l-.11-26.03c.04-1.01.6-1.93,1.48-2.42.88-.49,1.96-.49,2.83.01,0,0,.02,0,.02,0ZM86.1,21.33c-4.68-10.96-24.13-13.38-45.17-6.28l-9.35-5.6c-1.3-.75-2.89-.77-4.2-.04-1.31.73-2.14,2.09-2.19,3.59v9.05C7.07,32.4-3.45,47.29,1.03,57.79c5.19,12.11,28.43,13.77,51.92,3.71,23.48-10.06,38.33-28.07,33.15-40.16ZM104.77,37.1l-2.03,7.12c-.3,1.06-.53,2.07-.72,2.92-.15.63-.24,1.28-.27,1.93-.04.66.2,1.31.66,1.79.51.45,1.17.68,1.84.65,1.2,0,2.43-.64,3.7-1.92,1.52-1.63,2.77-3.49,3.7-5.51,1.39-2.95,2.55-6,3.49-9.12.87-2.99,1.33-5.34,1.33-7.01.05-1.03-.23-2.05-.78-2.92-.41-.68-1.15-1.11-1.95-1.12-1.77,0-3.38,1.09-4.86,3.23-1.48,2.15-2.85,5.48-4.11,9.97h0ZM92.02,20.57c3.17-.23,6.14-.53,8.99-.9,2.85-.37,5.61-.76,8.26-1.26l-2.24,7.63c2.23-2.95,4.36-5.12,6.4-6.45,1.83-1.32,4.02-2.03,6.27-2.03,2.97,0,5.29.89,6.88,2.68s2.43,4.35,2.43,7.67c-.03,3-.58,5.98-1.63,8.79-1.13,3.08-2.7,5.98-4.66,8.6-2.31,3.09-4.76,5.41-7.35,6.94-2.51,1.52-5.39,2.33-8.32,2.33-1.15,0-2.3-.18-3.4-.53-1.03-.34-1.99-.84-2.86-1.49l-2.28,8.27c-.17.5-.28,1.02-.34,1.54-.08.51-.12,1.02-.11,1.54,0,.99.3,1.71.92,2.12.62.41,1.87.65,3.76.76v1.93h-21.32v-2.02c.1,0,.21-.01.31-.03.1-.02.2-.04.3-.04,1.33,0,2.32-.32,2.97-.99s1.35-2.38,2.06-5.19l8.46-32.93c.15-.53.26-1.06.35-1.59.07-.39.12-.78.13-1.17.08-.72-.24-1.43-.84-1.84-.57-.37-1.63-.53-3.17-.53l.02-1.81h0Z"/>
      <path class="cls-1" d="M131.15,2.4c3.17-.24,6.23-.58,9.19-.98,2.96-.4,5.73-.86,8.35-1.42l-11.71,44.15c-.07.24-.16.53-.26.92-.11.37-.18.75-.21,1.13-.03.43.08.86.31,1.22.23.29.59.46.96.44.57-.08,1.09-.38,1.44-.84,1.16-1.39,2.22-2.85,3.17-4.39l1.87,1.35c-2.35,3.75-4.62,6.47-6.74,8.16-1.86,1.59-4.21,2.48-6.66,2.52-2.04,0-3.63-.53-4.73-1.63-1.1-1.1-1.66-2.65-1.66-4.71,0-1,.57-3.67,1.7-7.97l.11-.43,7.77-28.74c.07-.26.16-.66.29-1.18.36-1.18.6-2.4.71-3.63.04-.63-.26-1.24-.78-1.59-.75-.4-1.6-.59-2.44-.53h-.67l-.02-1.85h0Z"/>
      <path class="cls-2" d="M167.81,25.27c.05-.9-.2-1.79-.72-2.53-.44-.6-1.15-.95-1.9-.93-1.25.06-2.42.64-3.23,1.59-1.41,1.6-2.62,3.37-3.59,5.27-1.52,2.73-2.77,5.59-3.74,8.55-.83,2.32-1.3,4.76-1.38,7.23-.05,1.01.21,2,.76,2.85.48.65,1.24,1.03,2.05,1.01,1.25,0,2.54-.71,3.87-2.17,1.56-1.83,2.84-3.89,3.77-6.11,1.18-2.76,2.18-5.6,2.99-8.5.75-2.72,1.13-4.81,1.13-6.25h0ZM181.94,18.79l-6.25,21.84v.07c-.95,3.37-1.43,5.33-1.43,5.89-.03.44.08.88.31,1.26.17.3.49.48.83.47,1.01,0,2.33-1.16,3.91-3.49.48-.66.85-1.19,1.1-1.56l1.82,1.36c-2.04,3.41-4.07,5.93-6.15,7.54-1.89,1.54-4.26,2.39-6.7,2.41-1.99,0-3.5-.42-4.53-1.26s-1.59-2.09-1.59-3.71c0-.62.06-1.23.15-1.84.1-.75.25-1.72.48-2.9-1.89,3.29-3.95,5.74-6.17,7.32-2.14,1.58-4.74,2.42-7.4,2.4-2.82,0-5.03-.84-6.66-2.51-1.63-1.67-2.45-3.99-2.45-6.91.06-3.67.86-7.3,2.36-10.65,1.51-3.63,3.64-6.96,6.31-9.85,1.86-2.11,4.06-3.9,6.5-5.3,1.98-1.15,4.22-1.78,6.52-1.83,1.99,0,3.53.46,4.68,1.38s1.9,2.34,2.26,4.24l1.15-4.37h10.94,0Z"/>
      <path class="cls-1" d="M178.3,21.81v-2.02c3.04-.32,6.12-.73,9.27-1.18,3.14-.45,4.81-.67,5.05-.67,1.25,0,2.9,5.25,4.89,15.78.81,4.19,1.47,7.57,1.99,10.1,2.37-4.59,3.99-7.93,4.86-10.01.87-2.08,1.3-3.62,1.3-4.61,0-.77-.72-1.7-2.18-2.75-1.46-1.06-2.19-2.3-2.19-3.66-.06-1.43.49-2.82,1.53-3.81,1.1-.99,2.55-1.5,4.03-1.42,1.44-.08,2.86.44,3.91,1.42.98,1.1,1.49,2.55,1.41,4.03,0,2.15-1.09,5.63-3.24,10.4-2.6,5.56-5.55,10.95-8.84,16.14-4.23,6.84-8.08,11.82-11.54,14.95-3.46,3.13-6.8,4.69-10,4.71-2.12,0-3.8-.45-5.02-1.36-1.19-.86-1.88-2.26-1.82-3.73-.03-1.36.55-2.67,1.59-3.56,1.11-.95,2.54-1.46,4-1.4,1.47.07,2.89.57,4.08,1.44,1.45.97,2.43,1.42,2.91,1.42.87,0,1.86-.7,2.97-2.09,1.14-1.4,1.71-2.73,1.71-4.01-.02-1.19-.11-2.37-.26-3.55-.17-1.45-.45-3.21-.8-5.3-.67-4.1-1.41-8.19-2.23-12.26-.74-3.68-1.45-6.58-2.05-8.7-.53-1.82-1.06-3-1.62-3.57-.57-.56-1.43-.83-2.69-.83h-.1c-.29.06-.59.09-.89.11Z"/>
      <path class="cls-1" d="M227.02,44.71c-1.94,2.74-4.27,5.18-6.92,7.26-2.23,1.7-4.27,2.54-6.12,2.54-1.32.06-2.6-.44-3.52-1.38-.9-1.03-1.37-2.37-1.3-3.73,0-.62.07-1.23.17-1.84.12-.76.29-1.52.5-2.26l6.72-25.01h-7.08l.66-2.15c3.02-.62,5.81-2.06,8.08-4.15,2.33-2.12,4.45-5.11,6.31-8.9h2.42l-3.17,12.55h6.46l-.66,2.65h-6.64l-6.45,24.15c-.14.53-.26,1.03-.34,1.48-.06.39-.09.79-.11,1.19-.05.66.16,1.32.57,1.84.38.44.95.67,1.53.64.85,0,1.84-.47,3.01-1.45,1.62-1.44,3.1-3.02,4.43-4.72l1.44,1.3h0Z"/>
      <path class="cls-2" d="M233.62,36.48c5.2-.24,9.58-1.59,13.09-4.04,3.51-2.45,5.29-5.27,5.29-8.43.07-.88-.24-1.75-.85-2.39-.71-.57-1.62-.85-2.53-.78-3.17,0-6.08,1.36-8.76,4.13-2.68,2.78-4.75,6.62-6.25,11.51h0ZM233,39.13c-.23.85-.41,1.71-.53,2.59-.12.74-.17,1.49-.17,2.24,0,2.09.53,3.71,1.63,4.79,1.25,1.27,2.98,1.97,4.76,1.92,2.04,0,4.39-.93,6.97-2.26,3.14-1.68,6.09-3.7,8.8-6.02l1.71,2.47c-3.86,3.32-7.5,5.77-10.93,7.34-3.13,1.53-6.56,2.34-10.05,2.38-3.22,0-5.74-.93-7.51-2.75s-2.64-4.43-2.64-7.8c.03-3.38.74-6.71,2.08-9.81,1.35-3.26,3.28-6.26,5.68-8.85,2.17-2.33,4.76-4.24,7.64-5.62,2.68-1.28,5.6-1.95,8.57-1.97,2.7,0,4.81.6,6.35,1.8,1.54,1.15,2.42,2.98,2.35,4.9,0,3.75-2.3,7-6.84,9.74-4.54,2.74-10.49,4.34-17.87,4.91Z"/>
      <path class="cls-1" d="M283.8,39.64l-.1,4.74c-2.44,3.41-5.1,5.95-7.99,7.65-2.87,1.68-6.13,2.55-9.46,2.52-3.74,0-6.8-1.19-9.14-3.6-2.34-2.41-3.51-5.54-3.51-9.47.04-3.05.71-6.06,1.99-8.84,1.31-3.01,3.17-5.75,5.49-8.07,2.07-2.11,4.52-3.8,7.22-4.98,2.56-1.16,5.34-1.77,8.16-1.77,2.92,0,5.24.65,6.97,1.92,1.67,1.15,2.64,3.07,2.59,5.09.02,1.23-.47,2.41-1.35,3.26-.82.88-1.97,1.37-3.17,1.36-.91.04-1.8-.3-2.45-.94-.64-.66-.98-1.55-.94-2.47.04-.87.3-1.72.76-2.47.34-.54.59-1.13.74-1.75-.02-.47-.32-.89-.77-1.06-.65-.3-1.36-.44-2.08-.41-1.94.03-3.84.58-5.5,1.59-1.91,1.14-3.58,2.65-4.89,4.45-1.67,2.21-2.99,4.65-3.94,7.25-.88,2.4-1.35,4.93-1.36,7.49,0,2.77.73,4.98,2.21,6.61,1.51,1.73,3.7,2.73,6,2.74,2,0,3.97-.89,5.9-2.08s5.16-3.63,8.64-8.75h0Z"/>
      <path class="cls-1" d="M279.39,54.59l13.22-45.66c.08-.28.13-.57.16-.86.04-.27.06-.54.06-.81.07-.63-.17-1.26-.63-1.69-.42-.28-1.62-.43-3.58-.43h-3.01l.47-2.09c2.29-.09,4.56-.34,6.81-.76,2.03-.39,4.02-.95,5.96-1.66h2.39l-9.16,31.53c3.96-3.94,8.29-7.49,12.94-10.59,3.92-2.49,7.05-3.76,9.38-3.76,1.23,0,2.12.28,2.72.84.64.73.96,1.68.89,2.65-.01.45-.07.89-.17,1.32-.11.53-.25,1.13-.42,1.77l-6.69,21.48c-.13.45-.23.91-.31,1.38-.09.48-.14.97-.14,1.46.01.29.15.56.38.74.24.21.53.59.85.59.65,0,1.59-.69,2.71-1.53,1.33-1.02,2.55-2.19,3.64-3.47l1.36,1.11c-1.92,2.37-4.15,4.47-6.64,6.24-2.14,1.44-4.11,2.16-5.91,2.17-.99.05-1.98-.23-2.78-.82-.68-.54-1.06-1.37-1.02-2.24,0-.37.04-.73.11-1.09.09-.43.21-.85.36-1.26l6.88-22.22c.13-.49.21-.86.25-1.11.03-.23.05-.46.05-.69.03-.49-.17-.97-.53-1.31-.41-.31-.92-.46-1.44-.42-.98,0-2.42.58-4.32,1.75-2.34,1.5-4.55,3.18-6.62,5.02-1.81,1.47-3.46,3.11-4.95,4.91-1,1.27-1.77,2.71-2.28,4.24l-4.55,15.32c-.53-.08-2.36-.13-2.89-.17-.53-.04.24-.03-.31-.03s-1.12,0-1.65.03c-.53.03-1.05.03-1.61.11h0Z"/>
      <path class="cls-1" d="M270.05,58.21v27.4h-4.9v-27.4M281.12,85.63l-6.65-27.52h0s5.08,0,5.08,0l6.09,24.05,7.22-24.05h5.97l-9.21,27.52h-8.49ZM302.97,58.14h15.94v3.08h-11.08v8.69h10.4v3.06h-10.4v9.53h11.41v3.09h-16.32l.05-27.46ZM280.77,51.78h0M249.3,58.14v24.36h11.41v3.09h-16.32l.03-27.46"/>
    </g>
  </g>
</svg>