<svg width="93" height="26" viewBox="0 0 93 26" fill="none" xmlns="http://www.w3.org/2000/svg">
<path fill-rule="evenodd" clip-rule="evenodd" d="M14.0934 16.5078V15.1946H17.6361V16.7228C17.6361 18.1215 18.1886 18.8212 19.2927 18.8212H19.3067C20.4008 18.8212 20.9486 18.1238 20.9486 16.7296C20.9486 15.933 20.7128 15.1863 20.2397 14.4889C19.7674 13.7914 19.2025 13.1538 18.545 12.576L16.7693 10.7835C16.0355 10.1565 15.4216 9.37954 14.9275 8.45341C14.4326 7.52653 14.1852 6.50041 14.1852 5.37511C14.1852 3.64324 14.652 2.31496 15.5858 1.38883C16.5187 0.462691 17.7871 0 19.3892 0C20.9913 0 22.2216 0.462691 23.0806 1.38807C23.9396 2.31348 24.3691 3.64172 24.3691 5.37283V6.05967H21.1018V5.1646C21.1018 3.76138 20.5245 3.05939 19.369 3.05939C18.2135 3.05939 17.6361 3.76214 17.6361 5.16612C17.6361 5.75374 17.7622 6.31414 18.0135 6.84726C18.2649 7.38037 18.5909 7.86047 18.9916 8.28907C19.3923 8.71695 19.8343 9.14026 20.3167 9.55828C20.7992 9.97706 21.2762 10.4155 21.7461 10.8737C22.2161 11.3318 22.6511 11.8217 23.0503 12.345C23.4486 12.8675 23.7731 13.4855 24.0237 14.1973C24.2742 14.9099 24.3995 15.6838 24.3995 16.5206C24.3995 18.248 23.9599 19.5732 23.0806 20.4963C22.2013 21.4194 20.9603 21.8814 19.3573 21.8814C17.7544 21.8814 16.4759 21.4186 15.5228 20.4933C14.5696 19.5679 14.0934 18.2389 14.0934 16.5078Z" fill="white"/>
<path fill-rule="evenodd" clip-rule="evenodd" d="M29.8133 10.5521H31.4543C32.0161 10.5521 32.4379 10.3976 32.7196 10.0894C33.0005 9.78119 33.1413 9.25865 33.1413 8.52184V5.31329C33.1413 4.57647 33.0005 4.05698 32.7196 3.7533C32.4379 3.44965 32.0161 3.29817 31.4543 3.29817H29.8133V10.5521ZM26.3624 21.6416V0.238811H31.4466C34.8765 0.238811 36.5922 2.00704 36.5922 5.54272V8.32266C36.5922 11.8485 34.8781 13.6122 31.4505 13.6122H29.8133V21.6416H26.3624Z" fill="white"/>
<path fill-rule="evenodd" clip-rule="evenodd" d="M41.6529 9.87984H43.0022C43.6978 9.87984 44.2168 9.70564 44.5592 9.35731C44.9016 9.00898 45.0728 8.42737 45.0728 7.61105V5.5066C45.0829 4.03445 44.5001 3.29764 43.3243 3.29764H41.6529V9.87984ZM38.202 21.641V0.237495H43.4092C45.1848 0.237495 46.4819 0.64112 47.2982 1.44763C48.1152 2.25409 48.5237 3.49376 48.5237 5.16657V6.85375C48.5237 9.05442 47.7705 10.503 46.264 11.1997C47.7907 11.8275 48.5541 13.3459 48.5541 15.7555V19.1829C48.5541 20.2756 48.677 21.095 48.9221 21.641H45.4237C45.2206 21.0352 45.114 20.1613 45.1039 19.0186V15.6661C45.1039 14.693 44.9273 13.9948 44.5748 13.5731C44.2215 13.1505 43.6465 12.9399 42.8489 12.9399H41.6529V21.641H38.202Z" fill="white"/>
<path fill-rule="evenodd" clip-rule="evenodd" d="M50.8244 21.6417H54.2754V0.238153H50.8244V21.6417Z" fill="white"/>
<path fill-rule="evenodd" clip-rule="evenodd" d="M60.2409 18.5822H62.2197C62.8227 18.5822 63.2725 18.4254 63.5692 18.1119C63.8654 17.7984 64.0141 17.2539 64.0141 16.4777V14.6118C64.0141 13.6365 63.8428 12.9602 63.4999 12.5823C63.1574 12.2037 62.588 12.0151 61.7903 12.0151H60.2409V18.5822ZM60.2409 8.955H61.5966C62.2946 8.955 62.8158 8.78084 63.1599 8.43247C63.5044 8.08414 63.6765 7.5071 63.6765 6.70136V5.50713C63.6863 4.03502 63.1013 3.29817 61.9202 3.29817H60.2409V8.955ZM56.7902 21.6423V0.238811H62.005C63.7838 0.238811 65.0825 0.641679 65.9002 1.44739C66.7179 2.25314 67.1272 3.49205 67.1272 5.16409V5.92515C67.1272 8.12425 66.3936 9.56234 64.9004 10.2386C66.6185 10.8951 67.4644 12.4233 67.4644 14.8208V16.5671C67.4644 18.2187 67.0199 19.478 66.1305 20.3436C65.2402 21.2092 63.937 21.6423 62.2197 21.6423H56.7902Z" fill="white"/>
<path fill-rule="evenodd" clip-rule="evenodd" d="M69.5351 21.6417V0.238153H78.9516V3.2983H72.9859V9.25346H77.7246V12.3128H72.9859V18.5815H78.9516V21.6417H69.5351Z" fill="white"/>
<path fill-rule="evenodd" clip-rule="evenodd" d="M14 26H79V23.0285H14V26Z" fill="white"/>
</svg>
