<svg width="93" height="26" viewBox="0 0 93 26" fill="none" xmlns="http://www.w3.org/2000/svg">
<g clip-path="url(#clip0_22378_13)">
<path d="M51.4836 8.24405C50.8435 7.90755 50.1414 7.71826 49.336 7.71826H42.1084V19.7903H44.9789V15.9205H48.985C49.8523 15.9205 50.6163 15.7312 51.2978 15.3737C51.9792 15.0162 52.5368 14.4904 52.9498 13.8594C53.3629 13.2075 53.5693 12.4924 53.5693 11.6722C53.5693 10.915 53.3835 10.242 52.9912 9.65316C52.6401 9.04324 52.1238 8.58055 51.4836 8.24405ZM50.2653 12.5555C50.0795 12.7868 49.811 12.9972 49.5012 13.1444C49.1914 13.2916 48.8404 13.3547 48.4481 13.3547H44.9375V10.3051H48.4481C48.8404 10.3051 49.1914 10.3682 49.5012 10.4734C49.811 10.5785 50.0795 10.7468 50.2653 10.9571C50.4512 11.1674 50.5544 11.4198 50.5544 11.7142C50.5544 12.0297 50.4512 12.3031 50.2653 12.5555Z" fill="white"/>
<path d="M57.9749 7.71826H55.1045V19.7903H65.6362V17.2034H57.9749V7.71826Z" fill="white"/>
<path d="M72.9722 7.71826L67.0869 19.7903H69.9986L71.0518 17.6451H77.5359L78.5891 19.7903H81.5628L75.6774 7.71826H72.9722ZM72.1049 15.4368L73.4678 12.6396C73.5711 12.4083 73.695 12.1769 73.7982 11.9666C73.9014 11.7353 74.0047 11.5039 74.0873 11.2936C74.1492 11.1464 74.2112 10.9992 74.2732 10.873C74.3145 10.9992 74.3764 11.1254 74.4384 11.2726C74.521 11.4829 74.6242 11.6932 74.7275 11.9246C74.8307 12.1349 74.934 12.3872 75.0579 12.6396L76.4414 15.4578H72.1049V15.4368Z" fill="white"/>
<path d="M92.7816 7.71826H89.4361L85.6572 12.8289L81.775 7.71826H78.1611L84.1911 15.2896V19.7903H87.0824V15.1424L92.7816 7.71826Z" fill="white"/>
<path d="M27.7502 7.7207H24.7504L19.3457 19.789H29.9377V17.2018H23.5069L27.7502 7.7207Z" fill="white"/>
<path d="M13.3566 14.8397H19.8977L20.9558 12.4595H14.4289L15.4372 10.2207H21.9569L23.0791 7.7207H13.5169L8.10156 19.789H17.6638L18.7896 17.2889H12.2556L13.3566 14.8397Z" fill="white"/>
<path d="M8.70009 7.7207L4.48185 17.2671H2.77888V7.73522H0.0605469V19.789H6.28101L11.6999 7.7207H8.70009Z" fill="white"/>
<path d="M37.4585 17.2012V10.3071L34.5799 12.2375V17.2012H31.3984V19.7883H40.6543V17.2012H37.4585Z" fill="white"/>
<path d="M30.9785 9.46936C34.2491 10.6704 37.8296 10.6704 41.1037 9.46936L40.2415 7.03467C37.5268 8.02886 34.5555 8.02886 31.8371 7.03467L30.9785 9.46936Z" fill="#FF87C8"/>
</g>
<defs>
<clipPath id="clip0_22378_13">
<rect width="92.8431" height="12.84" fill="white" transform="translate(0 7)"/>
</clipPath>
</defs>
</svg>
