<svg width="93" height="26" viewBox="0 0 93 26" fill="none" xmlns="http://www.w3.org/2000/svg">
<path d="M15.4116 25.5622C22.2663 25.5622 27.8231 19.8399 27.8231 12.7811C27.8231 5.7223 22.2663 0 15.4116 0C8.55685 0 3 5.7223 3 12.7811C3 19.8399 8.55685 25.5622 15.4116 25.5622Z" fill="white"/>
<path d="M24.6315 16.7491L20.6599 12.6591L24.6315 8.56913C25.1281 8.05789 25.1281 7.25451 24.6315 6.74326L21.109 3.11586C20.6126 2.60461 19.8324 2.60461 19.336 3.11586L15.3643 7.20582L11.3926 3.11586C10.8961 2.60461 10.1159 2.60461 9.61948 3.11586L6.09696 6.74326C5.60049 7.25451 5.60049 8.05789 6.09696 8.56913L10.0687 12.6591L6.09696 16.7491C5.60049 17.2603 5.60049 18.0636 6.09696 18.5749L9.61948 22.2023C10.1159 22.7135 10.8961 22.7135 11.3926 22.2023L15.3643 18.1124L19.336 22.2023C19.8324 22.7135 20.6126 22.7135 21.109 22.2023L24.6315 18.5749C25.1281 18.0636 25.1281 17.2603 24.6315 16.7491Z" fill="#FF003A"/>
<path d="M84.0891 0C80.8266 0 78.1789 2.72664 78.1789 6.08625C78.1789 9.44586 80.8266 12.1725 84.0891 12.1725C87.3518 12.1725 89.9996 9.44586 89.9996 6.08625C89.9996 2.72664 87.3518 0 84.0891 0ZM86.8078 7.30349C86.9497 7.44957 86.9497 7.69301 86.8078 7.83909L85.7676 8.91024C85.6258 9.05631 85.3893 9.05631 85.2475 8.91024L84.0891 7.71736L82.9307 8.91024C82.7888 9.05631 82.5525 9.05631 82.4106 8.91024L81.3704 7.83909C81.2286 7.69301 81.2286 7.44957 81.3704 7.30349L82.5287 6.11059L81.3704 4.91769C81.2286 4.77162 81.2286 4.52817 81.3704 4.3821L82.4106 3.31092C82.5525 3.16485 82.7888 3.16485 82.9307 3.31092L84.0891 4.50382L85.2475 3.31092C85.3893 3.16485 85.6258 3.16485 85.7676 3.31092L86.8078 4.3821C86.9497 4.52817 86.9497 4.77162 86.8078 4.91769L85.6494 6.11059L86.8078 7.30349Z" fill="white"/>
<path d="M47.067 15.0927H50.3767C50.5186 15.0927 50.6604 15.1901 50.7077 15.3362L54.3957 25.4881C54.4902 25.7315 54.3011 25.9749 54.0648 25.9749H50.9914C50.8496 25.9749 50.7077 25.8775 50.6604 25.7315L50.3531 24.855C50.3058 24.709 50.164 24.6116 50.0221 24.6116H47.4216C47.2797 24.6116 47.1379 24.709 47.0906 24.855L46.7833 25.7315C46.736 25.8775 46.5941 25.9749 46.4523 25.9749H43.4026C43.1662 25.9749 42.9771 25.7315 43.0716 25.4881L46.736 15.3118C46.7833 15.1901 46.9252 15.0927 47.067 15.0927ZM49.4311 22.1284C49.6675 22.1284 49.833 21.885 49.7621 21.6659L48.7455 18.428H48.6746L47.6817 21.6659C47.6107 21.9093 47.7762 22.1284 48.0126 22.1284H49.4311Z" fill="white"/>
<path d="M55.9561 15.0927H58.3911C58.5094 15.0927 58.604 15.1414 58.6748 15.2388L61.5827 19.28C61.7245 19.4748 62.0082 19.4748 62.1501 19.28L65.0579 15.2388C65.1288 15.1414 65.2234 15.0927 65.3416 15.0927H67.753C67.9422 15.0927 68.1077 15.2631 68.1077 15.4579V25.6097C68.1077 25.8045 67.9422 25.9749 67.753 25.9749H64.8925C64.7033 25.9749 64.5378 25.8045 64.5378 25.6097V23.4674L64.5614 21.2276H64.5142L62.9538 23.4187C62.883 23.5161 62.7884 23.5648 62.6701 23.5648H61.0153C60.8971 23.5648 60.8026 23.5161 60.7316 23.4187L59.1713 21.2033L59.124 21.2276L59.1476 23.4674V25.6097C59.1476 25.8045 58.9822 25.9749 58.7931 25.9749H55.9561C55.767 25.9749 55.6015 25.8045 55.6015 25.6097V15.4579C55.6015 15.2388 55.7434 15.0927 55.9561 15.0927Z" fill="white"/>
<path d="M86.5243 19.4041H83.1435C83.1435 19.4041 82.4106 19.4528 82.4106 18.7955C82.4106 18.1382 83.1435 18.1382 83.1435 18.1382H89.6449C89.8341 18.1382 89.9998 17.9677 89.9998 17.773V15.4359C89.9998 15.2411 89.8341 15.0707 89.6449 15.0707H82.9308C81.205 15.0707 79.4319 15.0707 79.4319 18.6738C79.4319 21.936 81.1341 21.6439 82.8835 21.6439H86.2642C86.2642 21.6439 87.0207 21.6439 87.0207 22.2525C87.0207 22.8611 86.2878 22.8854 86.2878 22.8854H77.8007C77.8007 22.8854 77.8007 22.8854 77.7771 22.8854H72.2687V22.009C72.2687 21.8143 72.4341 21.6439 72.6232 21.6439H76.0276C76.2167 21.6439 76.3822 21.4735 76.3822 21.2787V19.7206C76.3822 19.5259 76.2167 19.3555 76.0276 19.3555H72.2687V18.5034C72.2687 18.3086 72.4341 18.1382 72.6232 18.1382H77.7771C77.9662 18.1382 78.1316 17.9677 78.1316 17.773V15.4359C78.1316 15.2411 77.9662 15.0707 77.7771 15.0707H69.6681C69.479 15.0707 69.3135 15.2411 69.3135 15.4359V25.5877C69.3135 25.7825 69.479 25.953 69.6681 25.953H86.5006C88.2971 25.953 89.9762 25.953 89.9762 22.3499C89.9998 19.112 88.2029 19.4041 86.5243 19.4041Z" fill="white"/>
<path d="M62.4809 11.9041L60.495 8.49588C60.4005 8.34981 60.2586 8.25242 60.0932 8.25242H59.0292C58.7693 8.25242 58.5564 8.47153 58.5564 8.73929V11.6364C58.5564 11.9041 58.3437 12.1233 58.0836 12.1233H55.3649C55.1048 12.1233 54.8921 11.9041 54.8921 11.6364V0.510717C54.8921 0.242922 55.1048 0.0238171 55.3649 0.0238171H62.1263C64.845 0.0238171 66.2162 2.09314 66.2162 4.13812C66.2162 5.55013 65.5778 6.96214 64.3012 7.71684C64.2776 7.74118 64.2539 7.78987 64.2776 7.81421L66.2871 11.4173C66.4762 11.7337 66.2398 12.1476 65.8615 12.1476H62.8828C62.7173 12.1476 62.5755 12.0746 62.4809 11.9041ZM58.5564 5.40407C58.5564 5.4284 58.5801 5.45275 58.6037 5.45275H61.2752C62.1735 5.45275 62.6227 4.79544 62.6227 4.13812C62.6227 3.4808 62.1735 2.82349 61.2752 2.82349H59.0292C58.7693 2.82349 58.5564 3.04259 58.5564 3.31039V5.40407Z" fill="white"/>
<path d="M76.3821 5.91583C76.3584 5.89149 76.3584 5.89149 76.3584 5.86715C76.3584 5.8428 76.3584 5.8428 76.3821 5.81846C76.9495 5.20983 77.2804 4.23603 77.2804 3.26223C77.2804 0.998141 75.8619 0 74.4435 0H67.9422C67.6112 0 67.3512 0.267795 67.3512 0.608625V11.5639C67.3512 11.9047 67.6112 12.1725 67.9422 12.1725H74.4435C76.5948 12.1725 77.5641 10.371 77.5641 8.7155C77.5641 7.57129 77.115 6.5488 76.3821 5.91583ZM73.1669 5.11245H70.6136V3.1405C70.6136 2.94574 70.7791 2.77533 70.9682 2.77533H73.1669C73.9943 2.77533 74.3726 3.35961 74.3726 3.94389C74.3726 4.52817 73.9943 5.11245 73.1669 5.11245ZM70.9682 7.25481H73.1669C73.9943 7.25481 74.3726 7.83909 74.3726 8.42337C74.3726 8.98332 73.9943 9.59194 73.1669 9.59194H70.6136V7.61998C70.6136 7.42523 70.7791 7.25481 70.9682 7.25481Z" fill="white"/>
<path d="M42.0548 19.4512H38.225C37.9177 19.4512 37.6812 19.6946 37.6812 20.0111V21.3744C37.6812 21.6909 37.9177 21.9344 38.225 21.9344H39.5016C39.5489 21.9344 39.5962 21.9831 39.5962 22.0318V22.7377C39.5962 22.7622 39.5725 22.8108 39.5489 22.8352C39.1943 23.0299 38.7924 23.1273 38.2723 23.1273H38.2014C37.0902 23.1273 36.5228 23.103 36.0028 23.0786C34.9152 23.0056 34.1115 21.9587 34.1115 20.5954V20.5711C34.1115 19.4025 34.8207 18.4287 35.9082 18.1123C36.1682 18.0392 40.3527 18.0149 41.9366 18.0392C42.1967 18.0392 42.3858 17.8201 42.3858 17.5766C42.3858 16.8706 42.3858 15.6047 42.3858 15.6047C42.3858 15.3369 42.1731 15.1422 41.9366 15.1422C40.329 15.1422 35.9791 15.1422 35.8845 15.1665C33.0003 15.3856 30.9199 17.6741 30.9199 20.5711V20.5954C30.9199 23.7846 32.4802 25.7565 35.1989 25.9757C35.3172 25.9757 36.2155 26 37.5866 26C38.1304 26 38.556 26 38.6269 26C38.6742 26 38.7214 26 38.7924 26C40.2345 26 42.4568 24.5149 42.6222 24.0767C42.6459 24.0281 42.6222 20.0599 42.6222 20.0599C42.5986 19.6946 42.3622 19.4512 42.0548 19.4512Z" fill="white"/>
<path d="M40.589 0H31.5818C31.3217 0 31.109 0.219105 31.109 0.4869V3.26223C31.109 3.53002 31.3217 3.74913 31.5818 3.74913H33.7804C34.0404 3.74913 34.2532 3.96823 34.2532 4.23603V11.6856C34.2532 11.9534 34.466 12.1725 34.7261 12.1725H37.4211C37.6812 12.1725 37.8939 11.9534 37.8939 11.6856V4.26038C37.8939 3.99258 38.1067 3.77347 38.3668 3.77347H40.5654C40.8254 3.77347 41.0382 3.55437 41.0382 3.28658V0.4869C41.0618 0.219105 40.8491 0 40.589 0Z" fill="white"/>
<path d="M50.4474 0.0238171C50.1873 0.0238171 49.9746 0.242922 49.9746 0.510717V7.96029C49.9746 8.47153 49.7854 8.6663 49.2653 8.6663H46.6884C46.1683 8.6663 45.9792 8.47153 45.9792 7.96029V0.510717C45.9792 0.242922 45.7665 0.0238171 45.5064 0.0238171H42.7168C42.4567 0.0238171 42.244 0.242922 42.244 0.510717V8.44718C42.244 9.73747 42.5513 10.6869 43.1423 11.2712C43.7333 11.8798 44.7026 12.1719 45.9792 12.1719H49.9272C51.2039 12.1719 52.1732 11.8555 52.7642 11.2712C53.3552 10.6626 53.6626 9.71314 53.6626 8.44718V0.510717C53.6626 0.242922 53.4498 0.0238171 53.1898 0.0238171H50.4474Z" fill="white"/>
</svg>
