<svg width="93" height="26" viewBox="0 0 93 26" fill="none" xmlns="http://www.w3.org/2000/svg">
<g clip-path="url(#clip0_20784_333120)">
<path d="M37.9486 9.25853C37.9486 9.6715 38.438 9.87654 38.9334 9.87654C39.396 9.87654 39.8854 9.6715 39.8854 9.31051C39.8854 8.73581 39.1931 8.70982 38.7394 8.68383C37.6024 8.61452 36.4653 8.17556 36.4653 6.9222C36.4653 5.66884 37.6113 4.95264 38.8827 4.95264C40.0824 4.95264 41.3 5.61397 41.2732 6.9222H39.7541C39.7452 6.50923 39.3453 6.33884 38.9095 6.33884C38.5454 6.33884 38.065 6.43414 38.065 6.89043C38.065 7.29474 38.4201 7.39004 39.017 7.45069C40.3421 7.56332 41.497 7.86366 41.497 9.32495C41.497 10.5899 40.2257 11.2512 38.9573 11.2512C37.6889 11.2512 36.3818 10.6158 36.4086 9.2643H37.9545L37.9486 9.25853Z" fill="white"/>
<path d="M47.9858 5.07129H48.5647V11.107H46.9382V8.32886L45.6132 9.66886H45.4281L44.1031 8.32886V11.107H42.4766V5.07129H43.0555L45.5266 7.67619L47.9888 5.07129H47.9858Z" fill="white"/>
<path d="M51.1753 10.359L50.8202 11.1069H49.1221V10.8932L51.9752 5.03076H52.7213L55.5475 10.8932V11.1069H53.8673L53.5032 10.359H51.1753V10.359ZM51.7006 9.04208H52.9899L52.3422 7.58946L51.7036 9.04208H51.7006Z" fill="white"/>
<path d="M61.3906 10.8761V11.0985H59.6656L58.6002 9.21553H57.7466V11.0985H56.1201V5.08002C57.0453 5.08002 57.9406 5.07136 58.8568 5.08002C60.358 5.08002 61.0951 6.15433 61.0951 7.21131C61.0862 7.89863 60.7847 8.55997 60.17 8.96428L61.3876 10.8732L61.3906 10.8761ZM58.8508 7.93618C59.3045 7.93618 59.5253 7.55786 59.5253 7.17954C59.5253 6.80122 59.3134 6.4489 58.8508 6.4489H57.7227V7.93618H58.8508Z" fill="white"/>
<path d="M61.71 6.46352V5.08887H66.3298V6.46352H64.8108V11.1073H63.238V6.46352H61.71V6.46352Z" fill="white"/>
<path d="M68.4007 9.25853C68.4007 9.6715 68.8902 9.87654 69.3856 9.87654C69.8481 9.87654 70.3376 9.6715 70.3376 9.31051C70.3376 8.73581 69.6452 8.70982 69.1916 8.68383C68.0545 8.61452 66.9175 8.17556 66.9175 6.9222C66.9175 5.66884 68.0635 4.95264 69.3348 4.95264C70.5346 4.95264 71.7522 5.61397 71.7253 6.9222H70.2063C70.1973 6.50923 69.7974 6.33884 69.3617 6.33884C68.9976 6.33884 68.5171 6.43414 68.5171 6.89043C68.5171 7.29474 68.8722 7.39004 69.4691 7.45069C70.7942 7.56332 71.9492 7.86366 71.9492 9.32495C71.9492 10.5899 70.6778 11.2512 69.4094 11.2512C68.1411 11.2512 66.8339 10.6158 66.8608 9.2643H68.4067L68.4007 9.25853Z" fill="white"/>
<path d="M75.781 11.2196C74.1366 11.2196 72.5996 10.1886 72.5996 8.09779C72.5996 6.00694 74.1903 4.96729 75.8078 4.96729C77.4254 4.96729 78.9803 6.0156 78.9803 8.09779C78.9803 9.9374 77.6641 11.2196 75.781 11.2196ZM75.7899 9.73236C76.5629 9.73236 77.3538 9.1721 77.3538 8.09779C77.3538 7.02349 76.5808 6.46323 75.8078 6.46323C75.0349 6.46323 74.2261 6.99749 74.2261 8.09779C74.2261 9.19809 74.9901 9.73236 75.7899 9.73236V9.73236Z" fill="white"/>
<path d="M83.6005 9.16372H81.6099V11.1073H79.9834V5.08887H83.8661V6.45485H81.6099V7.78619H83.6005V9.16084V9.16372Z" fill="white"/>
<path d="M84.3379 6.46352V5.08887H88.9578V6.46352H87.4387V11.1073H85.8659V6.46352H84.3379V6.46352Z" fill="white"/>
<path d="M39.59 14.4828C40.8076 14.4828 41.9984 15.0344 42.3536 16.2878H41.6254C41.2971 15.4185 40.5241 15.1355 39.59 15.1355C38.1426 15.1355 37.2353 16.2011 37.2353 17.5671C37.2353 18.9331 38.1426 19.9988 39.59 19.9988C40.8703 19.9988 41.7835 19.3374 41.8999 18.0292H39.6885V17.4198H42.5863C42.6132 17.9714 42.5505 18.5028 42.3476 18.9851C41.885 20.0941 40.8464 20.6688 39.593 20.6688C37.8352 20.6688 36.4922 19.4298 36.4922 17.5642C36.4922 15.6986 37.859 14.4771 39.593 14.4771L39.59 14.4828Z" fill="white"/>
<path d="M44.3713 19.1011L43.6431 20.5884H42.8701V20.4931L45.768 14.5439H46.1052L48.9762 20.4931V20.5884H48.2122L47.484 19.1011H44.3743H44.3713ZM44.619 18.4831H47.2303L45.9232 15.6731L44.616 18.4831H44.619Z" fill="white"/>
<path d="M55.2965 14.561H55.58V20.5881H54.8339V16.2476L52.7896 18.9651H52.6732L50.6289 16.2476V20.5881H49.8828V14.561H50.1753L52.7329 17.9226L55.2906 14.561H55.2965Z" fill="white"/>
<path d="M59.6332 20.0107V20.5854H56.7354V20.0107H57.8097V15.1359H56.807V14.5698H59.5616V15.1359H58.5588V20.0107H59.6332V20.0107Z" fill="white"/>
<path d="M61.4635 16.04L61.5262 17.6919V20.5885H60.7891V14.5527H61.0457L65.0985 19.1099L65.018 17.3829V14.5643H65.7641V20.6H65.5253L61.4665 16.0429L61.4635 16.04Z" fill="white"/>
<path d="M70.132 14.4828C71.3496 14.4828 72.5404 15.0344 72.8955 16.2878H72.1674C71.8391 15.4185 71.0661 15.1355 70.132 15.1355C68.6846 15.1355 67.7773 16.2011 67.7773 17.5671C67.7773 18.9331 68.6846 19.9988 70.132 19.9988C71.4123 19.9988 72.3255 19.3374 72.4419 18.0292H70.2305V17.4198H73.1283C73.1552 17.9714 73.0925 18.5028 72.8896 18.9851C72.427 20.0941 71.3884 20.6688 70.135 20.6688C68.3772 20.6688 67.0342 19.4298 67.0342 17.5642C67.0342 15.6986 68.401 14.4771 70.135 14.4771L70.132 14.4828Z" fill="white"/>
<path d="M16.2017 11.6209C15.2012 11.2145 14.4461 10.2988 14.4461 9.17993C14.4461 7.74365 15.6495 6.5791 17.1338 6.5791C17.5043 6.5791 17.8582 6.64304 18.1768 6.78233C20.3265 7.72538 26.6671 10.7806 26.6671 10.7806C27.7572 11.3903 28.4298 12.516 28.4298 13.7354V17.9803C28.4298 18.9279 27.9083 19.8025 27.0588 20.2774L17.7261 25.269C16.8789 25.7417 15.8336 25.7417 14.9865 25.269L5.6986 19.9828C5.47679 19.8687 5.32812 19.6449 5.32812 19.3846C5.32812 19.2384 5.37768 19.1014 5.45791 18.9895L5.43903 19.0169C6.13987 17.9894 7.39052 17.3615 8.745 17.4939C9.27121 17.5441 9.7644 17.6971 10.1844 17.9483C11.0717 18.4803 13.6225 20.2477 16.2937 20.2477C18.7762 20.2477 20.3737 18.9005 20.3737 18.9005C21.2775 18.2223 21.8603 16.9185 21.8603 15.7265V15.7311C21.8603 14.6099 21.15 13.6509 20.1401 13.2513L16.2017 11.6186V11.6209Z" fill="#F0013A"/>
<path d="M14.9798 9.07938C14.9798 9.07938 14.9798 9.08607 14.9775 9.09498C14.9775 9.09052 14.9775 9.08607 14.9798 9.08161C14.9798 9.08161 14.9798 9.07938 14.9798 9.07715V9.07938Z" fill="url(#paint0_linear_20784_333120)"/>
<path d="M14.9418 9.05643C14.9418 9.05643 14.9418 9.06312 14.9395 9.07203C14.9395 9.06757 14.9395 9.06312 14.9418 9.05866C14.9418 9.05866 14.9418 9.05643 14.9418 9.0542V9.05643Z" fill="url(#paint1_linear_20784_333120)"/>
<path d="M17.7237 25.2669C16.8766 25.7396 15.8312 25.7396 14.9841 25.2669L5.6986 19.9831C5.47679 19.8689 5.32812 19.6451 5.32812 19.3848C5.32812 19.2387 5.37768 19.1017 5.45791 18.9898L5.43903 19.0172C6.13987 17.9896 7.39052 17.3617 8.745 17.4941C9.27121 17.5444 9.7644 17.6973 10.1844 17.9485C11.0717 18.4806 13.6225 20.2479 16.2937 20.2479C18.7762 20.2479 20.3737 18.9007 20.3737 18.9007C21.2775 18.2225 21.8603 16.9187 21.8603 15.7267V15.7313C21.8603 14.6101 21.15 13.6511 20.1401 13.2515L16.2017 11.6188C15.2012 11.2124 14.4461 10.2967 14.4461 9.17786C14.4461 8.45401 14.7505 7.80095 15.2413 7.33057C14.8354 7.72332 14.5853 8.27134 14.5853 8.8696C14.5853 9.80352 15.1941 10.6004 16.0483 10.9087L21.6338 12.9547C23.7575 13.7242 25.2701 15.7085 25.2701 18.033C25.2701 20.0744 24.1044 21.8532 22.3794 22.778L17.7237 25.2646V25.2669Z" fill="url(#paint2_linear_20784_333120)"/>
<path d="M27.0119 5.25475C27.2172 5.38719 27.3517 5.61324 27.3517 5.86899C27.3517 5.96946 27.3305 6.06536 27.2928 6.15442C26.8468 7.26645 25.8722 7.75967 25.8439 7.77337C25.143 8.11817 24.3077 8.1547 23.5738 7.91266C23.3355 7.83502 23.083 7.70943 22.8801 7.56558C22.1486 7.04952 19.534 5.32782 16.9359 5.32782C14.4936 5.32782 12.9197 6.60882 12.9197 6.60882C12.0702 7.22306 11.5133 8.38076 11.4638 9.46996L11.459 9.6983C11.459 10.7624 12.1599 11.6758 13.1533 12.0548L17.0752 13.6121C18.0592 14.0003 18.8048 14.868 18.8048 15.9321C18.8048 17.2976 17.6203 18.4027 16.1596 18.4027C15.7962 18.4027 15.4446 18.3411 15.1331 18.2109C13.0165 17.3158 6.775 14.4113 6.775 14.4113C5.70369 13.8336 5.04297 12.7627 5.04297 11.605V7.64093C5.04297 6.69331 5.56447 5.81875 6.41397 5.3438L15.7467 0.354503C16.5938 -0.118168 17.6391 -0.118168 18.4863 0.354503L27.0119 5.25475Z" fill="#E90531"/>
<path d="M27.0119 5.25475C27.2172 5.38719 27.3517 5.61324 27.3517 5.86899C27.3517 5.96946 27.3305 6.06536 27.2928 6.15442C26.8468 7.26645 25.8722 7.75967 25.8439 7.77337C25.143 8.11817 24.3077 8.1547 23.5738 7.91266C23.3355 7.83502 23.083 7.70943 22.8801 7.56558C22.1486 7.04952 19.534 5.32782 16.9359 5.32782C14.4936 5.32782 12.9197 6.60882 12.9197 6.60882C12.0702 7.22306 11.5133 8.38076 11.4638 9.46996L11.459 9.6983C11.459 10.7624 12.1599 11.6758 13.1533 12.0548L17.0752 13.6121C18.0592 14.0003 18.8048 14.868 18.8048 15.9321C18.8048 17.2976 17.6203 18.4027 16.1596 18.4027C15.7962 18.4027 15.4446 18.3411 15.1331 18.2109C13.0165 17.3158 6.775 14.4113 6.775 14.4113C5.70369 13.8336 5.04297 12.7627 5.04297 11.605V7.64093C5.04297 6.69331 5.56447 5.81875 6.41397 5.3438L15.7467 0.354503C16.5938 -0.118168 17.6391 -0.118168 18.4863 0.354503L27.0119 5.25475Z" fill="url(#paint3_linear_20784_333120)"/>
<path d="M27.2715 6.20699C26.7665 7.00619 25.858 7.54051 24.8198 7.54051C24.159 7.54051 23.5502 7.3213 23.0665 6.95824C21.2094 5.59046 18.7199 4.51953 16.1761 4.51953H16.1714C12.4572 4.51953 9.34473 7.88759 9.34473 11.4817C9.34473 13.5985 10.7039 15.9915 12.3982 17.003C12.3982 17.003 12.3982 17.003 12.4006 17.003C13.4955 17.4986 14.4984 17.9461 15.1331 18.2156C15.4446 18.348 15.7962 18.4074 16.1596 18.4074C17.6203 18.4074 18.8048 17.2999 18.8048 15.9367C18.8048 15.0735 18.3305 14.3383 17.6203 13.8862C17.5636 13.8542 17.5094 13.8222 17.4551 13.7925C17.3395 13.7286 17.2167 13.6715 17.094 13.6236L16.0746 13.2217L13.1557 12.0549C12.1622 11.6758 11.4614 10.7693 11.4614 9.70292L11.4661 9.47458C11.5157 8.38538 12.0726 7.22768 12.9221 6.61344C12.9221 6.61344 14.496 5.33243 16.9383 5.33243C17.3442 5.33243 17.75 5.37353 18.1512 5.4466C20.3103 5.83935 22.2736 7.13406 22.8919 7.5702C23.0948 7.71405 23.3473 7.83736 23.5856 7.91728C23.7225 7.96295 23.8617 7.9972 24.0033 8.02231C24.6215 8.13192 25.2775 8.05428 25.8462 7.7757C25.8722 7.762 26.8208 7.28477 27.2739 6.2047L27.2715 6.20699Z" fill="url(#paint4_linear_20784_333120)"/>
<path d="M27.2715 6.20699C26.7665 7.00619 25.858 7.54051 24.8198 7.54051C24.159 7.54051 23.5502 7.3213 23.0665 6.95824C21.2094 5.59046 18.7199 4.51953 16.1761 4.51953H16.1714C12.4572 4.51953 9.34473 7.88759 9.34473 11.4817C9.34473 13.5985 10.7039 15.9915 12.3982 17.003C12.3982 17.003 12.3982 17.003 12.4006 17.003C13.4955 17.4986 14.4984 17.9461 15.1331 18.2156C15.4446 18.348 15.7962 18.4074 16.1596 18.4074C17.6203 18.4074 18.8048 17.2999 18.8048 15.9367C18.8048 15.0735 18.3305 14.3383 17.6203 13.8862C17.5636 13.8542 17.5094 13.8222 17.4551 13.7925C17.3395 13.7286 17.2167 13.6715 17.094 13.6236L16.0746 13.2217L13.1557 12.0549C12.1622 11.6758 11.4614 10.7693 11.4614 9.70292L11.4661 9.47458C11.5157 8.38538 12.0726 7.22768 12.9221 6.61344C12.9221 6.61344 14.496 5.33243 16.9383 5.33243C17.3442 5.33243 17.75 5.37353 18.1512 5.4466C20.3103 5.83935 22.2736 7.13406 22.8919 7.5702C23.0948 7.71405 23.3473 7.83736 23.5856 7.91728C23.7225 7.96295 23.8617 7.9972 24.0033 8.02231C24.6215 8.13192 25.2775 8.05428 25.8462 7.7757C25.8722 7.762 26.8208 7.28477 27.2739 6.2047L27.2715 6.20699Z" fill="url(#paint5_linear_20784_333120)"/>
<path d="M27.2715 6.20699C26.7665 7.00619 25.858 7.54051 24.8198 7.54051C24.159 7.54051 23.5502 7.3213 23.0665 6.95824C21.2094 5.59046 18.7199 4.51953 16.1761 4.51953H16.1714C12.4572 4.51953 9.34473 7.88759 9.34473 11.4817C9.34473 13.5985 10.7039 15.9915 12.3982 17.003C12.3982 17.003 12.3982 17.003 12.4006 17.003C13.4955 17.4986 14.4984 17.9461 15.1331 18.2156C15.4446 18.348 15.7962 18.4074 16.1596 18.4074C17.6203 18.4074 18.8048 17.2999 18.8048 15.9367C18.8048 15.0735 18.3305 14.3383 17.6203 13.8862C17.5636 13.8542 17.5094 13.8222 17.4551 13.7925C17.3395 13.7286 17.2167 13.6715 17.094 13.6236L16.0746 13.2217L13.1557 12.0549C12.1622 11.6758 11.4614 10.7693 11.4614 9.70292L11.4661 9.47458C11.5157 8.38538 12.0726 7.22768 12.9221 6.61344C12.9221 6.61344 14.496 5.33243 16.9383 5.33243C17.3442 5.33243 17.75 5.37353 18.1512 5.4466C20.3103 5.83935 22.2736 7.13406 22.8919 7.5702C23.0948 7.71405 23.3473 7.83736 23.5856 7.91728C23.7225 7.96295 23.8617 7.9972 24.0033 8.02231C24.6215 8.13192 25.2775 8.05428 25.8462 7.7757C25.8722 7.762 26.8208 7.28477 27.2739 6.2047L27.2715 6.20699Z" fill="url(#paint6_linear_20784_333120)"/>
</g>
<defs>
<linearGradient id="paint0_linear_20784_333120" x1="15.9772" y1="20.3839" x2="15.0319" y2="8.91994" gradientUnits="userSpaceOnUse">
<stop stop-color="#067993" stop-opacity="0"/>
<stop offset="0.34" stop-color="#096675" stop-opacity="0.23"/>
<stop offset="0.91" stop-color="#133325" stop-opacity="0.84"/>
<stop offset="1" stop-color="#152B17" stop-opacity="0.95"/>
</linearGradient>
<linearGradient id="paint1_linear_20784_333120" x1="15.9392" y1="20.3609" x2="14.9938" y2="8.89699" gradientUnits="userSpaceOnUse">
<stop stop-color="#067993" stop-opacity="0"/>
<stop offset="0.34" stop-color="#096675" stop-opacity="0.23"/>
<stop offset="0.91" stop-color="#133325" stop-opacity="0.84"/>
<stop offset="1" stop-color="#152B17" stop-opacity="0.95"/>
</linearGradient>
<linearGradient id="paint2_linear_20784_333120" x1="8.82995" y1="29.2241" x2="17.3521" y2="15.4043" gradientUnits="userSpaceOnUse">
<stop stop-color="#F0002F" stop-opacity="0"/>
<stop offset="0.46" stop-color="#EA042D" stop-opacity="0.9"/>
<stop offset="0.59" stop-color="#DC0426" stop-opacity="0.92"/>
<stop offset="0.82" stop-color="#B80513" stop-opacity="0.96"/>
<stop offset="1" stop-color="#940701"/>
</linearGradient>
<linearGradient id="paint3_linear_20784_333120" x1="16.1974" y1="-2.87655" x2="16.1974" y2="20.3071" gradientUnits="userSpaceOnUse">
<stop stop-color="#E90531" stop-opacity="0"/>
<stop offset="0.51" stop-color="#E7042B" stop-opacity="0"/>
<stop offset="0.64" stop-color="#D30420" stop-opacity="0.24"/>
<stop offset="0.93" stop-color="#A10607" stop-opacity="0.84"/>
<stop offset="1" stop-color="#940701"/>
</linearGradient>
<linearGradient id="paint4_linear_20784_333120" x1="10.8361" y1="22.1019" x2="18.9068" y2="5.87935" gradientUnits="userSpaceOnUse">
<stop stop-color="#F0002F" stop-opacity="0"/>
<stop offset="0.31" stop-color="#EA042D" stop-opacity="0.9"/>
<stop offset="0.51" stop-color="#E7042B" stop-opacity="0.94"/>
<stop offset="0.77" stop-color="#BC0515" stop-opacity="0.97"/>
<stop offset="1" stop-color="#940701"/>
</linearGradient>
<linearGradient id="paint5_linear_20784_333120" x1="18.406" y1="28.7445" x2="18.3221" y2="10.2578" gradientUnits="userSpaceOnUse">
<stop stop-color="#F0002F" stop-opacity="0"/>
<stop offset="0.46" stop-color="#EA042D" stop-opacity="0.9"/>
<stop offset="0.59" stop-color="#DC0426" stop-opacity="0.92"/>
<stop offset="0.82" stop-color="#B80513" stop-opacity="0.96"/>
<stop offset="1" stop-color="#940701"/>
</linearGradient>
<linearGradient id="paint6_linear_20784_333120" x1="17.1436" y1="10.1847" x2="0.901385" y2="1.04791" gradientUnits="userSpaceOnUse">
<stop stop-color="#F0002F" stop-opacity="0"/>
<stop offset="0.51" stop-color="#E7042B" stop-opacity="0"/>
<stop offset="0.66" stop-color="#C70724" stop-opacity="0.29"/>
<stop offset="1" stop-color="#7A0F14"/>
</linearGradient>
<clipPath id="clip0_20784_333120">
<rect width="93" height="26" fill="white"/>
</clipPath>
</defs>
</svg>
