<svg width="93" height="26" viewBox="0 0 93 26" fill="none" xmlns="http://www.w3.org/2000/svg">
<g clip-path="url(#clip0_6441_85323)">
<path fill-rule="evenodd" clip-rule="evenodd" d="M13.625 4H0V21.1251H13.625V4ZM3.29986 7.10018V18.525L7.12489 18.4998C8.27481 18.4998 9.17472 18.2 9.80001 17.6502C10.4247 17.1004 10.7251 16.2749 10.7251 15.1748C10.7479 14.595 10.6001 14.0214 10.3 13.5248C10.1576 13.2853 9.96581 13.0789 9.73733 12.9194C9.50885 12.7598 9.24897 12.6509 8.97504 12.5998C9.4242 12.4037 9.80027 12.0712 10.05 11.6495C10.2749 11.1998 10.4001 10.6998 10.4001 10.1998C10.4001 9.17517 10.05 8.39999 9.40011 7.87482C8.7502 7.35019 7.82513 7.10018 6.65004 7.10018H3.29986ZM5.37485 16.7497V13.4751H7.10027C7.47501 13.4499 7.82513 13.6249 8.04997 13.9247C8.27173 14.3024 8.37627 14.7375 8.3503 15.1748C8.37743 15.5958 8.25327 16.0128 8.00018 16.3504C7.86386 16.4881 7.69963 16.5949 7.51855 16.6638C7.33747 16.7327 7.14373 16.762 6.95038 16.7497H5.37485ZM6.60026 11.9252H5.37485V8.87484H6.50015C6.90005 8.85022 7.32511 8.97495 7.6249 9.25012C7.90007 9.57507 8.0248 10.0001 8.00018 10.4252C8.04997 10.8246 7.90007 11.225 7.65007 11.5248C7.51384 11.6627 7.34965 11.7697 7.16857 11.8388C6.98748 11.9079 6.7937 11.9373 6.60026 11.9252ZM26.7004 21.1H27.5002V4H26.7004V21.1ZM40.6001 21.1H41.3999V4H40.6001V21.1ZM54.4751 21.1H55.2749V4H54.4751V21.1ZM68.4 21.1H69.1752V4H68.4V21.1ZM82.3002 21.1H83.1V4H82.3002V21.1ZM22.3754 17.875C22.9006 17.5747 23.3502 17.1502 23.65 16.625H23.7004V12.5002H20.15V13.6501H22.1002V16.2749C21.9503 16.5501 21.7003 16.8001 21.4251 16.9751C21.0252 17.1748 20.6002 17.2749 20.1505 17.2498C19.8193 17.2601 19.49 17.1959 19.187 17.0618C18.884 16.9277 18.615 16.7272 18.3999 16.4751C17.9754 15.9751 17.75 15.2251 17.75 14.2502V10.8497C17.75 9.90003 17.9502 9.17517 18.3501 8.67461C18.548 8.43008 18.8001 8.23502 19.0865 8.10492C19.3729 7.97483 19.6857 7.91327 20.0001 7.92514C20.6751 7.92514 21.1998 8.12482 21.5499 8.47494C21.9 8.82506 22.0751 9.37485 22.1002 10.0997H23.6003L23.6254 10.0499C23.5751 8.9755 23.2501 8.14999 22.6254 7.57503C22.0001 7.00007 21.1254 6.69973 19.9503 6.69973C18.8004 6.67512 17.8753 7.04985 17.1756 7.77525C16.4754 8.5001 16.1252 9.52529 16.1252 10.8497V14.2251C16.1252 15.5747 16.5 16.5999 17.2254 17.3253C17.9502 18.0501 18.9251 18.4248 20.1253 18.4248C20.9 18.45 21.7003 18.2749 22.3754 17.875ZM34.0004 9.35023L35.3998 14.3503H32.5004L33.9501 9.35023H34.0004ZM35.7747 15.5998H32.1508L31.3247 18.4752H29.7L33.1995 7.07447H34.7499L38.2248 18.4746H36.6L35.7747 15.5998ZM47.9252 16.375L45.2501 7.07502V7.07447H43.1997V18.4752H44.7752V14.0998L44.65 9.72497H44.6751L47.4252 18.4746H48.4756L51.1999 9.6998L51.2502 9.72497L51.125 14.0998V18.4752H52.6999V7.07502H50.6501L47.975 16.375H47.9252ZM60.9999 18.4752H62.5749V7.07447H60.9999V18.4752ZM78.0999 18.4752H79.7V7.07502H78.0999V15.5243H78.0501L73.7251 7.07447H72.1501V18.4752H73.7251V10.0001H73.7754L78.0999 18.4752ZM91.7249 17.95C92.2501 17.6502 92.6752 17.2251 93.0001 16.7V12.5505H89.4749V13.6999H91.4251V16.2995C91.2752 16.5752 91.0252 16.8247 90.7501 16.9998C90.3502 17.2 89.9251 17.3001 89.4749 17.2749C89.1438 17.2852 88.8146 17.2208 88.5118 17.0867C88.209 16.9525 87.9402 16.7519 87.7254 16.4997C87.3003 16.0003 87.0749 15.2497 87.0749 14.2749V10.8749C87.0749 9.92519 87.2751 9.19979 87.675 8.69978C87.8728 8.45514 88.125 8.25998 88.4114 8.12979C88.6978 7.99959 89.0106 7.93795 89.325 7.94976C90 7.94976 90.5252 8.12482 90.8753 8.5001C91.2249 8.87484 91.4 9.40001 91.4251 10.1249H92.9252L92.9503 10.0751C92.9 9.00011 92.575 8.1746 91.9503 7.60019C91.325 7.02523 90.4503 6.72545 89.2752 6.72545C88.1499 6.72545 87.2254 7.10018 86.5251 7.82503C85.8249 8.54989 85.4753 9.57507 85.4753 10.9V14.3252C85.4753 15.6748 85.8501 16.7 86.5749 17.4248C87.3249 18.1497 88.2752 18.4998 89.4749 18.4998C90.25 18.525 91.0498 18.3499 91.7249 17.95Z" fill="#FFCD00"/>
</g>
<defs>
<clipPath id="clip0_6441_85323">
<rect width="93" height="26" fill="white"/>
</clipPath>
</defs>
</svg>
