<?xml version="1.0" encoding="UTF-8"?>
<svg id="Layer_2" xmlns="http://www.w3.org/2000/svg" viewBox="0 0 300 66.01">
  <defs>
    <style>
      .cls-1 {
        fill: #fff;
      }

      .cls-2 {
        fill: #21b3e0;
      }
    </style>
  </defs>
  <g id="Layer_1-2" data-name="Layer_1">
    <g>
      <g>
        <path class="cls-1" d="M41.3,1.36h13.6l-21.35,62.63h-12.36L0,1.36h13.98l13.6,47.55L41.3,1.36Z"/>
        <path class="cls-1" d="M97.73,58.32c-3.91,4.83-9.84,7.24-17.8,7.24s-13.89-2.41-17.8-7.24-5.86-10.63-5.86-17.43,1.95-12.47,5.86-17.36c3.91-4.9,9.84-7.35,17.8-7.35s13.89,2.45,17.8,7.35c3.91,4.9,5.86,10.68,5.86,17.36s-1.95,12.6-5.86,17.43ZM88.04,51.63c1.9-2.52,2.85-6.09,2.85-10.73s-.95-8.21-2.85-10.71c-1.9-2.5-4.62-3.75-8.16-3.75s-6.27,1.25-8.18,3.75-2.87,6.07-2.87,10.71.96,8.22,2.87,10.73,4.64,3.78,8.18,3.78,6.26-1.26,8.16-3.78Z"/>
        <path class="cls-1" d="M125.06,63.99h-12.11V1.36h12.11v62.63Z"/>
        <path class="cls-1" d="M134.03,26.73v-8.63h6.46V5.18h11.98v12.92h7.52v8.63h-7.52v24.47c0,1.9.24,3.08.72,3.55.48.47,1.95.7,4.42.7.37,0,.76,0,1.17-.02.41-.01.81-.03,1.21-.06v9.05l-5.74.21c-5.72.2-9.63-.79-11.73-2.97-1.36-1.39-2.04-3.53-2.04-6.42v-28.51h-6.46Z"/>
      </g>
      <g>
        <path class="cls-2" d="M219.05,65.35h-49.5V0h47.97v13.81h-32.46v10.58h29.74v13.6h-29.74v13.38h33.99v13.98ZM172.27,62.63h44.06v-8.54h-33.99v-18.82h29.74v-8.16h-29.74V11.09h32.46V2.72h-42.53v59.91Z"/>
        <path class="cls-2" d="M268.24,65.35h-15.13v-29.53c0-2.21-.28-3.9-.83-5-.94-1.89-2.75-2.81-5.53-2.81-3.52,0-5.85,1.44-7.15,4.41-.71,1.65-1.07,3.85-1.07,6.51v26.43h-14.83V16.4h14.45v4.01c.75-.86,1.49-1.56,2.22-2.12,2.71-2.04,6.16-3.08,10.26-3.08,5.07,0,9.3,1.37,12.56,4.07,3.35,2.77,5.04,7.31,5.04,13.52v32.55ZM255.83,62.63h9.69v-29.83c0-5.35-1.36-9.2-4.06-11.42-2.77-2.29-6.41-3.45-10.83-3.45-3.49,0-6.39.85-8.62,2.53-1.17.89-2.45,2.36-3.8,4.38-.38.56-1.07.8-1.71.61-.64-.19-1.07-.77-1.07-1.44v-4.88h-9.01v43.51h9.39v-23.71c0-3.03.43-5.59,1.29-7.59,1.75-4.02,4.99-6.05,9.64-6.05,3.86,0,6.54,1.46,7.97,4.32.75,1.51,1.11,3.54,1.11,6.21v26.81Z"/>
        <path class="cls-2" d="M291.5,66.01c-5.39,0-9.09-1.12-11.3-3.42-1.6-1.64-2.42-4.11-2.42-7.36v-27.15h-6.46v-11.34h6.46V3.82h14.7v12.92h7.52v11.34h-7.52v23.11c0,2.11.32,2.58.33,2.6-.03-.03.6.29,3.45.29.35,0,.73,0,1.12-.02.4-.01.78-.03,1.16-.06l1.46-.11v11.82l-7.05.26c-.5.02-.99.03-1.46.03ZM274.04,25.37h6.46v29.87c0,2.51.56,4.35,1.65,5.46,1.82,1.89,5.41,2.75,10.71,2.57l4.42-.16v-6.31c-3.66.11-5.51-.22-6.39-1.07-.78-.76-1.14-2.16-1.14-4.52v-25.83h7.52v-5.91h-7.52V6.54h-9.26v12.92h-6.46v5.91Z"/>
      </g>
    </g>
  </g>
</svg>