<svg width="25" height="25" viewBox="0 0 25 25" fill="none" xmlns="http://www.w3.org/2000/svg">
<path fill-rule="evenodd" clip-rule="evenodd" d="M25 8.12504C25 12.2001 22.0001 15.5626 18.1002 16.1501V16.0751C18.0167 15.03 17.7684 14.0274 17.3812 13.0934L20.625 8.8854L16.8751 10.9256L15.5558 10.2078C13.8806 8.34916 11.5222 7.1089 8.88788 6.90003H8.85038C9.43786 3.00001 12.8003 0 16.8752 0C21.3626 0 25 3.63752 25 8.12504ZM13.1252 8.23038L16.8751 2.50001V2.50012L16.8751 2.50001L20.6228 8.23036L20.6228 8.23039L16.8752 10.2705V10.2705L16.8751 10.2705L16.8751 10.2705V10.2705L13.1252 8.23038ZM16.2246 16.225C15.9121 12.2624 12.7372 9.08742 8.7748 8.77492C8.5623 8.76242 8.3373 8.74992 8.12481 8.74992C3.63742 8.74992 0 12.3874 0 16.875C0 21.3625 3.63742 25 8.12481 25C12.6122 25 16.2496 21.3625 16.2496 16.875C16.2496 16.6625 16.2371 16.4375 16.2246 16.225ZM11.8131 14.6976C11.6786 13.4687 10.5445 13.0638 9.10336 12.9548V11.2499H7.98954V12.9075C7.69776 12.9075 7.40092 12.9075 7.10407 12.9241V11.2523H5.99278V12.9548L5.2849 12.9691H3.74991V14.0772C3.74991 14.0772 4.57196 14.0583 4.55673 14.0772C4.70564 14.0583 4.85656 14.0949 4.97673 14.1791C5.0969 14.2633 5.17664 14.3884 5.19864 14.5272L5.21132 16.4689L5.22908 19.1896C5.22617 19.2378 5.21309 19.2851 5.19059 19.3286C5.16808 19.3721 5.13659 19.411 5.09794 19.4431C5.05928 19.4752 5.01421 19.4999 4.96532 19.5157C4.91642 19.5316 4.86465 19.5382 4.81299 19.5353H4.00363L3.79051 20.7761H5.2367H6.03083L6.04352 22.5H7.1548V20.7951H8.04536V22.4929H9.15918V20.7714C11.0265 20.6601 12.3332 20.2149 12.4854 18.5763C12.6072 17.255 11.9399 16.6701 10.8769 16.4452C11.5188 16.135 11.9196 15.5951 11.8207 14.6953L11.8131 14.6976ZM10.2781 18.3916C10.2781 19.574 8.29428 19.5594 7.38579 19.5527C7.30454 19.5521 7.23189 19.5515 7.17003 19.5519L7.1548 17.2669C7.23555 17.2669 7.33422 17.2644 7.44613 17.2616C8.38909 17.2382 10.2713 17.1914 10.2781 18.3916ZM9.74273 15.1712C9.74273 16.2493 8.11252 16.2319 7.34773 16.2237H7.34762C7.27252 16.2229 7.20577 16.2222 7.14973 16.2226L7.13705 14.1507C7.19932 14.1502 7.27488 14.1478 7.36046 14.1451C8.13614 14.1209 9.73588 14.0708 9.74273 15.1712Z" fill="#A2B7D8"/>
</svg>
