<svg width="42" height="42" viewBox="0 0 42 42" fill="none" xmlns="http://www.w3.org/2000/svg">
<path d="M7.23176 30.1719C6.13143 30.1719 5 31.0529 5 32.595C5 34.0048 5.99479 35.0006 7.23176 35.0006C8.2528 35.0006 8.70787 34.3158 8.70787 34.3158V34.6143C8.70787 34.7554 8.84137 34.9128 9.00661 34.9128H9.74467V30.2772H8.70787V30.8655C8.70787 30.8655 8.24899 30.1719 7.23176 30.1719V30.1719ZM7.41644 31.1198C8.32224 31.1198 8.79738 31.9158 8.79738 32.5947C8.79738 33.3509 8.23325 34.0691 7.41837 34.0691C6.73718 34.0691 6.05482 33.5178 6.05482 32.5847C6.05482 31.7424 6.64203 31.1198 7.41644 31.1198Z" fill="white"/>
<path d="M11.1855 34.9123C11.0262 34.9123 10.8867 34.7981 10.8867 34.6138V30.2767H11.9235V30.8503C12.1585 30.4975 12.6174 30.1699 13.322 30.1699C14.4735 30.1699 15.0866 31.0871 15.0866 31.9448V34.9123H14.3661C14.1772 34.9123 14.0498 34.7542 14.0498 34.5962V32.1731C14.0498 31.6977 13.7583 31.1203 13.0841 31.1203C12.3567 31.1203 11.9235 31.8072 11.9235 32.454V34.9123L11.1855 34.9123Z" fill="white"/>
<path d="M18.1097 30.1714C17.0093 30.1714 15.8779 31.0525 15.8779 32.5946C15.8779 34.0044 16.8727 35.0002 18.1097 35.0002C19.1307 35.0002 19.5858 34.3154 19.5858 34.3154V34.6139C19.5858 34.7549 19.7193 34.9124 19.8845 34.9124H20.6226V27.959H19.5858V30.865C19.5858 30.865 19.1269 30.1714 18.1097 30.1714V30.1714ZM18.2944 31.1193C19.2002 31.1193 19.6753 31.9153 19.6753 32.5942C19.6753 33.3505 19.1112 34.0686 18.2963 34.0686C17.6151 34.0686 16.9327 33.5174 16.9327 32.5843C16.9327 31.7419 17.5199 31.1193 18.2944 31.1193Z" fill="white"/>
<path d="M22.0634 34.9129C21.9041 34.9129 21.7646 34.7987 21.7646 34.6144V30.2773H22.8014V31.0499C22.9799 30.6171 23.365 30.2246 24.0491 30.2246C24.2398 30.2246 24.4181 30.2597 24.4181 30.2597V31.3308C24.4181 31.3308 24.1955 31.243 23.9261 31.243C23.1986 31.243 22.8014 31.93 22.8014 32.5768V34.9129H22.0634Z" fill="white"/>
<path d="M30.7089 34.9149C30.5496 34.9149 30.4102 34.8007 30.4102 34.6164V30.2793H31.447V34.9149L30.7089 34.9149Z" fill="white"/>
<path d="M34.4876 30.1714C33.3873 30.1714 32.2559 31.0525 32.2559 32.5946C32.2559 34.0044 33.2506 35.0002 34.4876 35.0002C35.5087 35.0002 35.9637 34.3154 35.9637 34.3154V34.6139C35.9637 34.7549 36.0972 34.9124 36.2625 34.9124H37.0005V27.959H35.9637V30.865C35.9637 30.865 35.5048 30.1714 34.4876 30.1714V30.1714ZM34.6723 31.1193C35.5781 31.1193 36.0532 31.9153 36.0532 32.5942C36.0532 33.3505 35.4891 34.0686 34.6742 34.0686C33.993 34.0686 33.3107 33.5174 33.3107 32.5843C33.3107 31.7419 33.8979 31.1193 34.6723 31.1193Z" fill="white"/>
<path d="M30.9219 29.2782C31.3005 29.2782 31.6074 28.9715 31.6074 28.5932C31.6074 28.2149 31.3005 27.9082 30.9219 27.9082C30.5433 27.9082 30.2363 28.2149 30.2363 28.5932C30.2363 28.9715 30.5433 29.2782 30.9219 29.2782Z" fill="white"/>
<path d="M27.1527 30.1699C26.0004 30.1699 24.7344 31.0294 24.7344 32.5864C24.7344 34.0052 25.8127 35.0004 27.1502 35.0004C28.7985 35.0004 29.6034 33.6763 29.6034 32.5954C29.6034 31.2689 28.567 30.1699 27.1527 30.1699ZM27.1565 31.1374C27.9534 31.1374 28.5478 31.7791 28.5478 32.5893C28.5478 33.4135 27.9168 34.0495 27.1589 34.0495C26.4553 34.0495 25.7714 33.4774 25.7714 32.6032C25.7714 31.7143 26.4219 31.1374 27.1565 31.1374Z" fill="white"/>
<path d="M28.8094 12.3988L31.4622 7.80715C31.6118 7.54974 31.5213 7.22276 31.2672 7.07318C31.0131 6.9236 30.6823 7.01056 30.5361 7.26798L27.8486 11.9188C25.7981 10.983 23.4901 10.4612 21.0079 10.4612C18.5258 10.4612 16.2177 10.983 14.1673 11.9188L11.4798 7.26798C11.3301 7.01056 11.0028 6.9236 10.7452 7.07318C10.4876 7.22276 10.4006 7.54974 10.5503 7.80715L13.203 12.3988C8.62861 14.8755 5.53029 19.5019 5.01855 24.9179H36.9974C36.4856 19.5019 33.3873 14.8755 28.8095 12.3988H28.8094ZM13.666 20.4307C12.9245 20.4307 12.3257 19.8289 12.3257 19.0915C12.3257 18.3505 12.928 17.7522 13.666 17.7522C14.4075 17.7522 15.0063 18.354 15.0063 19.0915C15.0098 19.8289 14.4075 20.4307 13.666 20.4307ZM28.3465 20.4307C27.605 20.4307 27.0062 19.8289 27.0062 19.0915C27.0062 18.3505 27.6084 17.7522 28.3465 17.7522C29.088 17.7522 29.6867 18.354 29.6867 19.0915C29.6902 19.8289 29.088 20.4307 28.3465 20.4307Z" fill="#3DDC84"/>
</svg>
