<svg width="44" height="44" viewBox="0 0 44 44" fill="none" xmlns="http://www.w3.org/2000/svg">
<path d="M27.7042 5.28955C27.8426 7.09723 27.2709 8.88767 26.1106 10.2807C25.5549 10.9717 24.8497 11.5277 24.048 11.9068C23.2464 12.2858 22.3692 12.478 21.4825 12.4689C21.4259 11.5996 21.5412 10.7277 21.8218 9.90296C22.1024 9.07826 22.5428 8.31695 23.1178 7.66255C24.2938 6.32302 25.9314 5.47575 27.7042 5.28955Z" fill="white"/>
<path d="M30.9379 18.4463C30.3488 19.4843 30.0318 20.6544 30.0164 21.8479C30.0179 23.1903 30.4144 24.5027 31.1567 25.6213C31.899 26.7398 32.9541 27.6152 34.1905 28.1381C33.7044 29.7173 32.9717 31.2097 32.0194 32.56C30.7405 34.473 29.3997 36.3419 27.2715 36.3764C26.2594 36.3998 25.5762 36.1088 24.8642 35.8055C24.1216 35.4891 23.3478 35.1595 22.1369 35.1595C20.8527 35.1595 20.0442 35.4997 19.2645 35.8279C18.5906 36.1115 17.9383 36.386 17.0189 36.4242C14.9921 36.4992 13.4432 34.3824 12.1179 32.4873C9.46891 28.6173 7.40626 21.5808 10.1715 16.7931C10.8099 15.6459 11.7346 14.6837 12.8554 14.0001C13.9762 13.3166 15.255 12.935 16.5672 12.8926C17.7167 12.869 18.8197 13.312 19.7867 13.7005C20.5263 13.9975 21.1863 14.2626 21.7268 14.2626C22.2019 14.2626 22.8436 14.008 23.5913 13.7112C24.7692 13.2437 26.2105 12.6717 27.6792 12.8259C28.8048 12.8611 29.9066 13.1583 30.8973 13.6938C31.8879 14.2294 32.7401 14.9886 33.386 15.911C32.3692 16.5361 31.5271 17.4083 30.9379 18.4463Z" fill="white"/>
</svg>
