<svg width="25" height="25" viewBox="0 0 25 25" fill="none" xmlns="http://www.w3.org/2000/svg">
<path fill-rule="evenodd" clip-rule="evenodd" d="M17.1597 17.1608C17.7189 17.1608 18.0917 16.788 18.0917 16.2288C18.0917 15.6696 17.7189 15.2968 17.1597 15.2968C16.6005 15.2968 16.2277 15.6696 16.2277 16.2288C16.2277 16.788 16.6005 17.1608 17.1597 17.1608ZM19.9558 14.3648C19.9558 14.924 19.583 15.2968 19.0238 15.2968C18.4646 15.2968 18.0917 14.924 18.0917 14.3648C18.0917 13.8056 18.4646 13.4327 19.0238 13.4327C19.583 13.4327 19.9558 13.8056 19.9558 14.3648ZM15.2957 15.2968C15.8549 15.2968 16.2277 14.924 16.2277 14.3648C16.2277 13.8056 15.8549 13.4327 15.2957 13.4327C14.7365 13.4327 14.3637 13.8056 14.3637 14.3648C14.3637 14.924 14.7365 15.2968 15.2957 15.2968ZM17.1597 13.4327C17.7189 13.4327 18.0917 13.0599 18.0917 12.5007C18.0917 11.9415 17.7189 11.5687 17.1597 11.5687C16.6005 11.5687 16.2277 11.9415 16.2277 12.5007C16.2277 13.0599 16.6005 13.4327 17.1597 13.4327ZM7.83955 11.5687C8.39876 11.5687 8.77157 11.9415 8.77157 12.5007C8.77157 13.0599 9.14438 13.4327 9.70359 13.4327C10.2628 13.4327 10.6356 13.8056 10.6356 14.3648C10.6356 14.924 10.2628 15.2968 9.70359 15.2968C9.14438 15.2968 8.77157 15.6696 8.77157 16.2288C8.77157 16.788 8.39876 17.1608 7.83955 17.1608C7.28034 17.1608 6.90754 16.788 6.90754 16.2288C6.90754 15.6696 6.53473 15.2968 5.97552 15.2968C5.41631 15.2968 5.0435 14.924 5.0435 14.3648C5.0435 13.8056 5.41631 13.4327 5.97552 13.4327C6.53473 13.4327 6.90754 13.0599 6.90754 12.5007C6.90754 11.9415 7.28034 11.5687 7.83955 11.5687ZM19.0238 3.18055C19.0238 2.62134 18.651 2.24854 18.0917 2.24854C17.5325 2.24854 17.1597 2.62134 17.1597 3.18055C17.1597 3.73976 16.7869 4.11257 16.2277 4.11257H14.3637C12.7792 4.11257 11.5676 5.32419 11.5676 6.90862V7.84064H7.83955C4.20468 7.84064 1.31543 10.7299 1.31543 14.3648C1.31543 17.9996 4.20468 20.8889 7.83955 20.8889C8.77157 20.8889 9.70359 20.7025 10.5424 20.3297C10.822 20.2365 10.9152 20.1433 11.1016 20.0501C11.1948 19.9569 11.288 19.9569 11.288 19.9569C11.3812 19.9569 11.3812 19.9569 11.3812 19.9569C11.3812 19.9569 11.3812 19.9569 11.4744 19.9569C11.4744 19.9569 11.5676 19.9569 11.9404 19.9569H13.2453C13.5249 19.9569 13.6181 19.9569 13.7113 19.9569C13.8045 19.9569 13.8045 19.9569 13.8045 19.9569C13.8045 19.9569 13.8045 19.9569 13.8977 19.9569C13.8977 19.9569 13.9909 19.9569 14.0841 20.0501C14.1773 20.1433 14.3637 20.1433 14.6433 20.3297C15.2957 20.7025 16.2277 20.8889 17.1597 20.8889C20.7946 20.8889 23.6839 17.9996 23.6839 14.3648C23.6839 10.7299 20.7946 7.84064 17.1597 7.84064H13.4317V6.90862C13.4317 6.34941 13.8045 5.97661 14.3637 5.97661H16.2277C17.8121 5.97661 19.0238 4.76498 19.0238 3.18055Z" fill="#A2B7D8"/>
</svg>
