<svg width="33" height="16" viewBox="0 0 33 16" fill="none" xmlns="http://www.w3.org/2000/svg">
<path d="M33 9.66764V8.00098L30 8.83431V13.001L33 10.001V9.66764Z" fill="#BB6410"/>
<path opacity="0.2" d="M30 2.15113C30 1.54357 29.4627 1.07639 28.861 1.16083L2.36101 4.88013C1.86727 4.94943 1.5 5.37184 1.5 5.87043V13.4094C1.5 13.9962 2.00286 14.4569 2.58738 14.4056L30 12.001V2.15113Z" fill="#111315"/>
<path d="M33 10L1.09053 12.9009C0.504917 12.9541 0 12.493 0 11.905V3.91321C0 3.39601 0.394386 2.96415 0.909466 2.91732L31.9095 0.0991392C32.4951 0.0459013 33 0.507002 33 1.09503V10Z" fill="url(#paint0_linear_9592_29526)"/>
<path d="M6.34874 8.53481C6.35877 8.20156 6.29712 7.90216 6.16377 7.63662C6.0299 7.36578 5.84313 7.15642 5.60348 7.00854C5.36913 6.86014 5.09272 6.80163 4.77427 6.83301C4.61504 6.8487 4.46029 6.88271 4.31003 6.93503C4.15925 6.98204 4.01534 7.04445 3.87831 7.12227L4.29876 5.92326L6.4165 5.71458L6.47845 4.71167L3.50087 5.00507L2.60701 8.25238C2.86515 8.09833 3.1182 7.97425 3.36616 7.88014C3.61944 7.78552 3.87372 7.7283 4.12901 7.70851C4.32061 7.69499 4.49437 7.71806 4.65031 7.77772C4.80625 7.83738 4.93082 7.93229 5.02403 8.06244C5.11725 8.1926 5.15734 8.35478 5.14433 8.54899C5.13183 8.74851 5.07426 8.92568 4.97161 9.08049C4.86844 9.23 4.73055 9.35345 4.55794 9.45084C4.3848 9.54293 4.18943 9.5997 3.97181 9.62114C3.72766 9.6452 3.49024 9.6016 3.25955 9.49036C3.03417 9.37859 2.82954 9.23262 2.64565 9.05245L2.09503 9.99097C2.34784 10.2179 2.64424 10.3977 2.98422 10.5304C3.32419 10.663 3.71976 10.7071 4.17091 10.6626C4.4469 10.6354 4.71341 10.5663 4.97042 10.4552C5.22743 10.3442 5.4569 10.1983 5.65882 10.0176C5.86553 9.83111 6.02903 9.61403 6.14933 9.36638C6.27493 9.1182 6.3414 8.84101 6.34874 8.53481ZM6.9669 5.94973C6.95381 6.19755 7.0031 6.42581 7.11477 6.63454C7.22592 6.83795 7.38357 6.99659 7.58772 7.11045C7.79187 7.22431 8.02664 7.26817 8.29202 7.24202C8.56271 7.21534 8.80589 7.12707 9.02156 6.9772C9.23672 6.82202 9.41079 6.63069 9.5438 6.40322C9.6768 6.17575 9.74958 5.93545 9.76215 5.68233C9.76942 5.42974 9.71748 5.20173 9.60633 4.99832C9.49465 4.7896 9.337 4.63096 9.13338 4.5224C8.92923 4.40854 8.69446 4.36468 8.42908 4.39083C8.15839 4.41751 7.91521 4.50578 7.69953 4.65565C7.48386 4.80553 7.30952 4.9942 7.17652 5.22167C7.04882 5.44862 6.97895 5.69131 6.9669 5.94973ZM7.80364 5.87532C7.80963 5.77291 7.84002 5.67345 7.89482 5.57694C7.9491 5.47513 8.02113 5.39032 8.11091 5.32253C8.2007 5.25473 8.30132 5.21534 8.41278 5.20435C8.52476 5.19868 8.61813 5.22163 8.69288 5.27322C8.76763 5.3248 8.82272 5.3944 8.85815 5.48202C8.89889 5.56911 8.91866 5.66095 8.91746 5.75753C8.91147 5.85994 8.88134 5.96206 8.82706 6.06387C8.77226 6.16038 8.69997 6.24253 8.61019 6.31033C8.52571 6.3776 8.42748 6.41408 8.3155 6.41975C8.20351 6.42543 8.10749 6.40273 8.02743 6.35167C7.95268 6.30009 7.89493 6.23075 7.8542 6.14366C7.81877 6.05604 7.80192 5.9666 7.80364 5.87532ZM10.2649 8.6634C10.2523 8.91652 10.3016 9.14479 10.4128 9.3482C10.5239 9.55161 10.6816 9.71025 10.8857 9.82411C11.0899 9.93798 11.3246 9.98183 11.59 9.95568C11.8607 9.92901 12.1039 9.84074 12.3196 9.69086C12.5347 9.53568 12.7091 9.34701 12.8426 9.12485C12.9756 8.89737 13.0455 8.65469 13.0522 8.39678C13.0595 8.14419 13.0075 7.91618 12.8964 7.71277C12.79 7.50352 12.635 7.34462 12.4314 7.23607C12.2325 7.12168 11.9978 7.07783 11.7271 7.1045C11.4617 7.13065 11.2185 7.21892 10.9975 7.36932C10.7819 7.51919 10.6075 7.70786 10.4745 7.93533C10.3468 8.16228 10.277 8.40497 10.2649 8.6634ZM11.1096 8.5882C11.1151 8.48048 11.1452 8.37837 11.2 8.28186C11.2548 8.18536 11.3271 8.1032 11.4169 8.03541C11.5067 7.96761 11.6075 7.93087 11.7195 7.9252C11.8257 7.91474 11.9161 7.9353 11.9909 7.98688C12.0656 8.03847 12.1234 8.10781 12.1641 8.1949C12.2049 8.28199 12.222 8.37409 12.2155 8.47119C12.2047 8.57944 12.1722 8.68447 12.1179 8.78628C12.0631 8.88279 11.9908 8.96494 11.901 9.03274C11.816 9.0947 11.7175 9.12853 11.6055 9.1342C11.4994 9.14466 11.4063 9.12436 11.3262 9.0733C11.2515 9.02171 11.1937 8.95238 11.153 8.86528C11.1176 8.77767 11.1031 8.68531 11.1096 8.5882ZM11.6501 4.20206L7.31093 10.2568L8.36184 10.1532L12.7169 4.09693L11.6501 4.20206ZM17.1999 6.46875C17.2178 6.2151 17.2742 5.97107 17.369 5.73664C17.4691 5.50169 17.5983 5.29067 17.7567 5.10356C17.9205 4.91594 18.1117 4.76311 18.3305 4.64508C18.5494 4.52706 18.7888 4.45523 19.0489 4.4296C19.309 4.40398 19.5371 4.43509 19.7333 4.52293C19.929 4.60547 20.0912 4.72883 20.22 4.893C20.3482 5.05186 20.4418 5.24092 20.5009 5.46018C20.5595 5.67413 20.5818 5.8997 20.5676 6.1369C20.5551 6.39002 20.4987 6.63405 20.3986 6.869C20.2985 7.10395 20.1666 7.31524 20.0029 7.50287C19.8439 7.68466 19.655 7.83457 19.4362 7.9526C19.2174 8.07063 18.978 8.14245 18.7179 8.16808C18.4631 8.19318 18.2379 8.16447 18.0422 8.08193C17.846 7.99408 17.6811 7.87099 17.5476 7.71265C17.4194 7.55379 17.326 7.36738 17.2674 7.15343C17.2136 6.93365 17.1911 6.70542 17.1999 6.46875ZM16.0137 6.58564C15.9988 6.97833 16.0487 7.34855 16.1633 7.69632C16.2828 8.03825 16.4622 8.33676 16.7017 8.59184C16.9407 8.8416 17.2299 9.03015 17.5694 9.15748C17.9088 9.2848 18.2882 9.32781 18.7075 9.28649C19.1321 9.24465 19.5253 9.1282 19.8869 8.93715C20.2486 8.74609 20.565 8.50323 20.8361 8.20856C21.1066 7.90858 21.3199 7.57137 21.476 7.19693C21.6373 6.82197 21.7299 6.42966 21.7539 6.02001C21.7736 5.62149 21.721 5.25152 21.5963 4.91011C21.4768 4.56818 21.2952 4.27524 21.0515 4.0313C20.8125 3.78153 20.5238 3.59829 20.1854 3.48158C19.8465 3.35956 19.47 3.31895 19.056 3.35975C18.6367 3.40107 18.2459 3.5146 17.8838 3.70034C17.5263 3.88026 17.2121 4.11755 16.941 4.41222C16.6699 4.70689 16.4535 5.03906 16.2916 5.40871C16.1297 5.77837 16.0371 6.17067 16.0137 6.58564ZM23.441 4.04504L25.8772 3.80498L25.9543 2.79254L23.5181 3.0326L23.441 4.04504ZM23.2826 6.27131L25.6479 6.04627L25.7138 5.08317L23.3572 5.31538L23.2826 6.27131ZM22.8016 3.1032L22.4033 8.76957L23.4781 8.66366L23.8923 2.99573L22.8016 3.1032ZM27.5928 3.63593L30.029 3.39587L30.1061 2.38343L27.6699 2.62349L27.5928 3.63593ZM27.4343 5.8622L29.7997 5.63716L29.8656 4.67406L27.509 4.90627L27.4343 5.8622ZM26.9534 2.69409L26.5551 8.36046L27.6299 8.25455L28.0441 2.58662L26.9534 2.69409Z" fill="white"/>
<defs>
<linearGradient id="paint0_linear_9592_29526" x1="25.5" y1="12.5" x2="30.5" y2="1" gradientUnits="userSpaceOnUse">
<stop stop-color="#FF5C00"/>
<stop offset="1" stop-color="#FFB800"/>
</linearGradient>
</defs>
</svg>
