<svg width="44" height="44" viewBox="0 0 44 44" fill="none" xmlns="http://www.w3.org/2000/svg">
<path d="M19.25 38.3167C11.4583 36.9417 5.5 30.1583 5.5 22C5.5 12.925 12.925 5.5 22 5.5C31.075 5.5 38.5 12.925 38.5 22C38.5 30.1583 32.5417 36.9417 24.75 38.3167L23.8333 37.5833H20.1667L19.25 38.3167Z" fill="#0062E0"/>
<path d="M28.4167 26.5832L29.15 21.9998H24.75V18.7915C24.75 17.5082 25.2083 16.4998 27.225 16.4998H29.3333V12.2832C28.1417 12.0998 26.8583 11.9165 25.6667 11.9165C21.9083 11.9165 19.25 14.2082 19.25 18.3332V21.9998H15.125V26.5832H19.25V38.2248C20.1667 38.4082 21.0833 38.4998 22 38.4998C22.9167 38.4998 23.8333 38.4082 24.75 38.2248V26.5832H28.4167Z" fill="white"/>
</svg>
