<svg width="25" height="25" viewBox="0 0 25 25" fill="none" xmlns="http://www.w3.org/2000/svg">
<path d="M11.7409 9.94215C10.2957 9.94215 9.57315 9.94215 8.98716 10.2051C8.47062 10.4369 8.03022 10.8102 7.71686 11.2817C7.36136 11.8166 7.24287 12.5294 7.0059 13.9551L5.89509 20.6376C5.78857 21.2784 5.73532 21.5988 5.82814 21.8485C5.90959 22.0676 6.06523 22.2512 6.26801 22.3675C6.49909 22.5 6.82387 22.5 7.47343 22.5H16.8446C18.2898 22.5 19.0124 22.5 19.5984 22.237C20.1149 22.0052 20.5553 21.632 20.8687 21.1605C21.2242 20.6255 21.3426 19.9127 21.5796 18.4871L22.3809 13.6669C22.5939 12.3853 22.7004 11.7446 22.5147 11.2452C22.3518 10.807 22.0406 10.4397 21.635 10.2072C21.1729 9.94215 20.5233 9.94215 19.2242 9.94215H11.7409Z" fill="#A2B7D8"/>
<path d="M2 7.3C2 5.61984 2 4.77976 2.32698 4.13803C2.6146 3.57354 3.07354 3.1146 3.63803 2.82698C4.27976 2.5 5.11984 2.5 6.8 2.5H8.05314C8.66988 2.5 8.97825 2.5 9.25977 2.55431C9.98166 2.69356 10.6273 3.09305 11.0741 3.67693C11.2483 3.90462 11.3859 4.18059 11.6611 4.73251V4.73251C11.8446 5.10046 11.9364 5.28443 12.0525 5.43623C12.3504 5.82548 12.7808 6.09181 13.262 6.18464C13.4497 6.22085 13.6553 6.22085 14.0665 6.22085H17.7651C19.0497 6.22085 20.0911 7.26222 20.0911 8.54682V8.54682H11.918C9.99104 8.54682 9.02758 8.54682 8.24627 8.89744C7.55755 9.20651 6.97035 9.70417 6.55253 10.3329C6.07853 11.0461 5.92055 11.9965 5.60458 13.8974L4.23703 22.1245C4.20106 22.3409 4.01386 22.4995 3.79448 22.4995V22.4995C2.80342 22.4995 2 21.6961 2 20.7051V7.3Z" fill="#A2B7D8"/>
</svg>
