<svg width="80" height="52" viewBox="0 0 80 52" fill="none" xmlns="http://www.w3.org/2000/svg">
<g clip-path="url(#clip0_34410_2552)">
<path d="M77 6H4V46H77V6Z" fill="#E87722"/>
<path d="M29.4824 18.2021C29.7647 18.2021 30.008 18.4374 30.008 18.6774V29.4539C30.008 29.7597 29.8328 30.0656 29.5895 30.268C27.4871 31.995 24.2653 33.0115 20.8976 33.0115C13.3299 33.0115 8.2832 28.1315 8.2832 20.8139C8.2832 13.4962 13.3299 8.61621 20.8976 8.61621C23.4915 8.61621 26.2217 9.35974 28.256 10.5833C28.5383 10.7197 28.6405 10.988 28.5723 11.195L26.8203 16.1739C26.7133 16.4092 26.4699 16.5127 26.1536 16.4468C24.7179 15.7033 22.8589 15.2609 21.1069 15.2609C17.8851 15.2609 15.7097 17.4962 15.7097 20.8186C15.7097 24.1409 17.8803 26.4421 21.1069 26.4421C22.4014 26.4421 23.2774 26.2068 23.6667 25.7974V23.8303H20.445C20.1287 23.8303 19.9194 23.6939 19.8853 23.4586L19.4279 18.7809C19.3938 18.4421 19.6031 18.2068 19.9875 18.2068H29.4824V18.2021Z" fill="white"/>
<path d="M51.4892 30.4708C51.5963 30.7108 51.4552 30.9461 51.1729 31.0825C49.1386 32.3014 46.4084 33.0496 43.8145 33.0496C36.5972 33.0496 31.7598 28.1696 31.7598 20.8519C31.7598 13.5343 36.5972 8.6543 43.8145 8.6543C46.4084 8.6543 49.1386 9.39783 51.1729 10.6214C51.4552 10.7578 51.5914 10.9931 51.4892 11.2331L49.1776 15.9437C49.0364 16.2496 48.7931 16.3484 48.5108 16.2166C47.2163 15.5061 45.951 15.2661 44.4472 15.2661C41.2936 15.2661 39.1912 17.5014 39.1912 20.8567C39.1912 24.2119 41.2936 26.4472 44.4472 26.4472C45.9558 26.4472 47.2163 26.2119 48.5108 25.4967C48.7931 25.3602 49.0364 25.4637 49.1776 25.7696L51.4892 30.4802V30.4708Z" fill="white"/>
<path d="M64.522 9.15723C69.1112 9.15723 72.1626 11.8019 72.1626 15.7643C72.1626 18.2019 70.9362 19.9996 69.0431 20.5408C71.2526 21.0819 72.6882 23.1149 72.6882 25.929C72.6882 29.8913 69.6417 32.5361 65.0865 32.5361H53.9759C53.6985 32.5361 53.4844 32.3008 53.4844 32.0608V9.66546C53.4844 9.43017 53.6936 9.15723 53.9759 9.15723H64.5268H64.522ZM62.9111 18.3384C63.9623 18.3384 64.6631 17.7266 64.6631 16.7808C64.6631 15.8349 63.9623 15.2231 62.9111 15.2231H60.7016V18.3384H62.9111ZM63.5389 26.4702C64.556 26.4702 65.2568 25.8255 65.2568 24.8419C65.2568 23.8584 64.556 23.2137 63.5389 23.2137H60.7016V26.4655H63.5389V26.4702Z" fill="white"/>
<path d="M20.8001 42.3712C20.8245 42.4136 20.8001 42.4747 20.7466 42.5171C20.2745 42.8042 19.6224 43.0018 19.126 43.0018C17.5395 43.0018 16.4883 42.0183 16.4883 40.5453C16.4883 39.0724 17.5395 38.0889 19.126 38.0889C19.6273 38.0889 20.2745 38.2818 20.7466 38.5736C20.8001 38.6159 20.8245 38.6771 20.8001 38.7195L20.294 39.7548C20.2599 39.8206 20.1967 39.8489 20.1383 39.8065C19.9193 39.6559 19.5883 39.5524 19.2963 39.5524C18.6588 39.5524 18.2354 39.9524 18.2354 40.55C18.2354 41.1477 18.6539 41.5477 19.2963 41.5477C19.5835 41.5477 19.9193 41.4442 20.1383 41.2936C20.2015 41.2512 20.2599 41.2747 20.294 41.3453L20.8001 42.3806V42.3712Z" fill="white"/>
<path d="M25.3553 42.39C25.3748 42.4512 25.3553 42.4842 25.292 42.5171C24.8248 42.8136 24.1532 42.9924 23.4768 42.9924C21.9243 42.9924 20.8926 42.0089 20.8926 40.5453C20.8926 39.0818 21.9097 38.0889 23.433 38.0889C24.9562 38.0889 25.7446 38.9971 25.7446 40.5359C25.7446 40.663 25.7349 40.79 25.7106 40.9171C25.7008 40.983 25.657 41.0206 25.5792 41.0206H22.7662C22.7662 41.0206 22.7662 41.5524 23.5011 41.5524C23.9488 41.5524 24.4452 41.4489 24.8443 41.2747C24.9076 41.2512 24.9562 41.2842 24.9757 41.3406L25.3504 42.39H25.3553ZM24.0072 40.1265C24.0072 39.7547 23.7688 39.51 23.4184 39.51C23.0242 39.51 22.7614 39.7547 22.7614 40.1265H24.0072Z" fill="white"/>
<path d="M29.0152 38.2021C29.0833 38.2021 29.1369 38.2539 29.1369 38.3198V39.421C29.1369 39.4869 29.0833 39.5386 29.0152 39.5386H28.7865C28.4555 39.5386 28.1538 39.6845 28.0419 39.8963V42.7339C28.0419 42.7998 27.9786 42.861 27.9105 42.861H26.3677C26.2996 42.861 26.2363 42.7998 26.2363 42.7339V38.3292C26.2363 38.268 26.2996 38.2116 26.3677 38.2116H27.3557C27.4238 38.2116 27.4676 38.2727 27.4968 38.3386L27.6282 38.7104C27.891 38.3951 28.3193 38.2021 28.7865 38.2021H29.0152Z" fill="white"/>
<path d="M32.4859 38.2024C32.5637 38.2024 32.6173 38.2541 32.6173 38.32L32.5199 39.1435C32.5102 39.2094 32.4567 39.2706 32.3885 39.2706H31.8289V42.7341C31.8289 42.8 31.7656 42.8612 31.6975 42.8612H30.1547C30.0866 42.8612 30.0233 42.8 30.0233 42.7341V39.2706H29.5221C29.4588 39.2706 29.4004 39.2188 29.4004 39.1529V38.3294C29.4004 38.2541 29.4637 38.2024 29.5221 38.2024H30.0233V37.28C30.0233 37.2188 30.0866 37.1718 30.1547 37.1624L31.6975 37.0165C31.7656 37.0071 31.8289 37.0777 31.8289 37.1341V38.2024H32.4859Z" fill="white"/>
<path d="M33.6771 42.9832C33.2148 42.9832 32.9082 42.7056 32.9082 42.2868C32.9082 41.8679 33.2148 41.5762 33.6771 41.5762C34.1395 41.5762 34.4461 41.8632 34.4461 42.2868C34.4461 42.7103 34.1395 42.9832 33.6771 42.9832Z" fill="white"/>
<path d="M38.0031 42.2542C37.862 42.5271 37.4434 42.7013 36.9519 42.7013C35.672 42.7013 34.8203 41.8118 34.8203 40.4707C34.8203 38.9695 35.6087 38.0801 36.9519 38.0801C37.6284 38.0801 38.1637 38.2589 38.3876 38.5648L38.5433 38.3295C38.5968 38.2542 38.6747 38.2024 38.7477 38.2024H39.6772C39.7551 38.2024 39.8086 38.2542 39.8086 38.3295V42.4283C39.8086 43.7083 38.6066 44.5648 37.1174 44.5648C36.2511 44.5648 35.4773 44.3718 35.049 44.033C34.9955 43.9907 34.9809 43.9295 34.9955 43.8871L35.4432 42.8377C35.4676 42.7765 35.5211 42.753 35.5746 42.786C35.9494 43.0824 36.5285 43.2613 37.1174 43.2613C37.6673 43.2613 38.0031 42.9789 38.0031 42.4989V42.2542ZM38.0031 40.0518C38.0031 40.0518 37.8717 39.6707 37.3996 39.6707C36.9616 39.6707 36.7086 39.9671 36.7086 40.4754C36.7086 40.9836 36.9616 41.2895 37.3996 41.2895C37.8717 41.2895 38.0031 40.9083 38.0031 40.9083V40.0518Z" fill="white"/>
<path d="M44.6087 42.3712C44.6331 42.4136 44.6087 42.4747 44.5552 42.5171C44.0831 42.8042 43.431 43.0018 42.9346 43.0018C41.3481 43.0018 40.2969 42.0183 40.2969 40.5453C40.2969 39.0724 41.3481 38.0889 42.9346 38.0889C43.4359 38.0889 44.0831 38.2818 44.5552 38.5736C44.6087 38.6159 44.6331 38.6771 44.6087 38.7195L44.1026 39.7548C44.0685 39.8206 44.0053 39.8489 43.9469 39.8065C43.7279 39.6559 43.3921 39.5524 43.1049 39.5524C42.4674 39.5524 42.044 39.9524 42.044 40.55C42.044 41.1477 42.4625 41.5477 43.1049 41.5477C43.3921 41.5477 43.7279 41.4442 43.9469 41.2936C44.0101 41.2512 44.0685 41.2747 44.1026 41.3453L44.6087 42.3806V42.3712Z" fill="white"/>
<path d="M46.9149 38.4044C47.1777 38.2021 47.5719 38.0844 47.9856 38.0844C49.3726 38.0844 50.2972 39.068 50.2972 40.5315C50.2972 41.995 49.3677 42.988 47.9856 42.988C47.3967 42.988 46.837 42.7668 46.5061 42.428L46.3747 42.7338C46.3406 42.8091 46.2968 42.8609 46.2336 42.8609H45.2408C45.1726 42.8609 45.1094 42.7997 45.1094 42.7338V36.8374C45.1094 36.7762 45.1726 36.7197 45.2408 36.7197H46.7835C46.8516 36.7197 46.9149 36.7809 46.9149 36.8374V38.4044ZM46.9149 41.0774C47.022 41.355 47.2994 41.5433 47.606 41.5433C48.0878 41.5433 48.4138 41.1386 48.4138 40.5268C48.4138 39.915 48.0878 39.5433 47.606 39.5433C47.2994 39.5433 47.0171 39.7315 46.9149 40.0091V41.0774Z" fill="white"/>
<path d="M51.4408 42.9832C50.9785 42.9832 50.6719 42.7056 50.6719 42.2868C50.6719 41.8679 50.9785 41.5762 51.4408 41.5762C51.9031 41.5762 52.2097 41.8632 52.2097 42.2868C52.2097 42.7103 51.9031 42.9832 51.4408 42.9832Z" fill="white"/>
<path d="M56.9017 42.3712C56.926 42.4136 56.9017 42.4747 56.8482 42.5171C56.3761 42.8042 55.724 43.0018 55.2276 43.0018C53.641 43.0018 52.5898 42.0183 52.5898 40.5453C52.5898 39.0724 53.641 38.0889 55.2276 38.0889C55.7288 38.0889 56.3761 38.2818 56.8482 38.5736C56.9017 38.6159 56.926 38.6771 56.9017 38.7195L56.3956 39.7548C56.3615 39.8206 56.2982 39.8489 56.2398 39.8065C56.0208 39.6559 55.6899 39.5524 55.3979 39.5524C54.7604 39.5524 54.337 39.9524 54.337 40.55C54.337 41.1477 54.7555 41.5477 55.3979 41.5477C55.6899 41.5477 56.0208 41.4442 56.2398 41.2936C56.3031 41.2512 56.3615 41.2747 56.3956 41.3453L56.9017 42.3806V42.3712Z" fill="white"/>
<path d="M64.5913 38.2021C64.6594 38.2021 64.7032 38.2633 64.6789 38.3198L63.253 42.7433C63.2335 42.8045 63.1654 42.861 63.0972 42.861H61.7394C61.6713 42.861 61.5886 42.7998 61.5642 42.7433L60.8878 40.4892L60.2113 42.7433C60.187 42.8045 60.1042 42.861 60.0361 42.861H58.6783C58.6102 42.861 58.5372 42.7998 58.5226 42.7433L57.0966 38.3198C57.0723 38.2586 57.1161 38.2021 57.1842 38.2021H58.9557C59.0336 38.2021 59.1066 38.2539 59.1212 38.3198L59.5786 40.1739L60.0507 38.3198C60.0702 38.2351 60.148 38.2021 60.2064 38.2021H61.574C61.7054 38.2021 61.7151 38.2351 61.7297 38.3198L62.2018 40.1739L62.6592 38.3198C62.6787 38.2539 62.7468 38.2021 62.8247 38.2021H64.5962H64.5913Z" fill="white"/>
</g>
<defs>
<clipPath id="clip0_34410_2552">
<rect width="73" height="40" fill="white" transform="translate(4 6)"/>
</clipPath>
</defs>
</svg>
