<svg width="25" height="25" viewBox="0 0 25 25" fill="none" xmlns="http://www.w3.org/2000/svg">
<path fill-rule="evenodd" clip-rule="evenodd" d="M14.5758 3.57694C13.3918 2.52448 11.6076 2.52448 10.4235 3.57694L2.43264 10.68C2.00266 11.0622 1.96393 11.7206 2.34613 12.1506C2.72834 12.5806 3.38675 12.6193 3.81673 12.2371L4.16635 11.9263L4.16635 17.7771C4.1663 18.7005 4.16625 19.4962 4.25192 20.1333C4.34372 20.8161 4.55075 21.4707 5.08164 22.0016C5.61254 22.5325 6.26707 22.7395 6.9499 22.8313C7.58705 22.917 8.38269 22.9169 9.30611 22.9169H15.6933C16.6167 22.9169 17.4123 22.917 18.0495 22.8313C18.7323 22.7395 19.3868 22.5325 19.9177 22.0016C20.4486 21.4707 20.6557 20.8161 20.7475 20.1333C20.8331 19.4962 20.8331 18.7005 20.833 17.7771L20.833 11.9263L21.1826 12.2371C21.6126 12.6193 22.271 12.5806 22.6532 12.1506C23.0354 11.7206 22.9967 11.0622 22.5667 10.68L14.5758 3.57694ZM12.4997 16.941C12.0758 16.941 11.7321 17.2846 11.7321 17.7085V19.7919C11.7321 20.5186 11.143 21.1077 10.4163 21.1077C9.68965 21.1077 9.10055 20.5186 9.10055 19.7919V17.7085C9.10055 15.8312 10.6224 14.3094 12.4997 14.3094C14.377 14.3094 15.8988 15.8312 15.8988 17.7085V19.7919C15.8988 20.5186 15.3097 21.1077 14.583 21.1077C13.8563 21.1077 13.2672 20.5186 13.2672 19.7919V17.7085C13.2672 17.2846 12.9236 16.941 12.4997 16.941Z" fill="#A2B7D8"/>
</svg>
