<svg width="24" height="14" viewBox="0 0 24 14" fill="none" xmlns="http://www.w3.org/2000/svg">
<path opacity="0.2" d="M2 2.91321C2 2.39601 2.39439 1.96415 2.90946 1.91732L22.9095 0.0991398C23.4951 0.045902 24 0.507001 24 1.09503V8.99216C24 9.48985 23.634 9.91179 23.1413 9.98212L2 13V2.91321Z" fill="#111315"/>
<path d="M0 12V11L2 11.5V14L0.5 12.5L0 12Z" fill="#C7443B"/>
<path d="M0 2.92013C0 2.40004 0.398662 1.96678 0.916955 1.92359L22.917 0.0902538C23.5 0.0416689 24 0.501759 24 1.0868V9.07987C24 9.59996 23.6013 10.0332 23.083 10.0764L0 12V2.92013Z" fill="url(#paint0_linear_9592_29515)"/>
<path d="M5.04607 7.09186L9.04092 6.68022L9.11021 5.63561L5.11536 6.04725L5.04607 7.09186ZM8.52053 3.58123L8.14755 9.24932L9.26165 9.13452L9.65055 3.46479L8.52053 3.58123ZM4.89174 3.95516L4.51876 9.62324L5.63286 9.50844L6.0138 3.83954L4.89174 3.95516ZM11.4829 6.09081C11.4996 5.83709 11.5549 5.59281 11.6486 5.35796C11.7477 5.12257 11.876 4.91097 12.0336 4.72316C12.1965 4.5348 12.3871 4.38113 12.6053 4.26212C12.8236 4.14312 13.0627 4.07023 13.3227 4.04344C13.5827 4.01666 13.8109 4.04675 14.0076 4.13372C14.2036 4.21538 14.3664 4.33801 14.4958 4.50161C14.6247 4.6599 14.7192 4.84854 14.7793 5.06753C14.8389 5.28122 14.8621 5.50669 14.849 5.74395C14.8376 5.99712 14.7823 6.2414 14.6833 6.4768C14.5842 6.71219 14.4533 6.92407 14.2904 7.11242C14.1322 7.29492 13.944 7.44567 13.7258 7.56468C13.5075 7.68368 13.2683 7.75657 13.0084 7.78336C12.7537 7.8096 12.5284 7.78189 12.3323 7.70022C12.1357 7.61325 11.9703 7.49089 11.8361 7.33315C11.7072 7.17486 11.6129 6.98888 11.5534 6.77519C11.4986 6.55565 11.4751 6.32752 11.4829 6.09081ZM10.2971 6.21299C10.284 6.60574 10.3355 6.97574 10.4517 7.32299C10.5727 7.66439 10.7535 7.96209 10.9941 8.2161C11.2342 8.4648 11.5243 8.65206 11.8643 8.77787C12.2043 8.90368 12.5839 8.94499 13.003 8.9018C13.4274 8.85807 13.82 8.73987 14.1809 8.5472C14.5417 8.35454 14.857 8.11027 15.1267 7.81439C15.3959 7.51321 15.6077 7.17505 15.7621 6.79992C15.9218 6.42424 16.0126 6.03153 16.0348 5.62177C16.0527 5.22317 15.9985 4.85344 15.8722 4.51259C15.7513 4.17119 15.5683 3.87906 15.3235 3.63621C15.0834 3.38751 14.7939 3.20556 14.455 3.09036C14.1155 2.96986 13.7389 2.93093 13.325 2.97357C12.9059 3.01675 12.5157 3.13203 12.1543 3.31939C11.7977 3.5009 11.4845 3.73959 11.2148 4.03546C10.945 4.33134 10.73 4.66446 10.5698 5.03484C10.4096 5.40521 10.3187 5.79793 10.2971 6.21299ZM16.2102 3.82633L17.6744 3.67545L17.3628 8.29975L18.4848 8.18413L18.7965 3.55983L20.2448 3.41059L20.322 2.36516L16.2874 2.78091L16.2102 3.82633Z" fill="white"/>
<defs>
<linearGradient id="paint0_linear_9592_29515" x1="1.5" y1="2" x2="26" y2="12" gradientUnits="userSpaceOnUse">
<stop stop-color="#FF654F"/>
<stop offset="1" stop-color="#FF0960"/>
</linearGradient>
</defs>
</svg>
