<svg width="44" height="44" viewBox="0 0 44 44" fill="none" xmlns="http://www.w3.org/2000/svg">
<path d="M6 16.7333C6 12.9367 6 11.0384 6.75058 9.5935C7.38308 8.37588 8.37588 7.38308 9.5935 6.75058C11.0384 6 12.9367 6 16.7333 6H27.2667C31.0633 6 32.9616 6 34.4065 6.75058C35.6241 7.38308 36.6169 8.37588 37.2494 9.5935C38 11.0384 38 12.9367 38 16.7333V27.2667C38 31.0633 38 32.9616 37.2494 34.4065C36.6169 35.6241 35.6241 36.6169 34.4065 37.2494C32.9616 38 31.0633 38 27.2667 38H16.7333C12.9367 38 11.0384 38 9.5935 37.2494C8.37588 36.6169 7.38308 35.6241 6.75058 34.4065C6 32.9616 6 31.0633 6 27.2667V16.7333Z" fill="url(#paint0_radial_1039_14612)"/>
<path d="M6 16.7333C6 12.9367 6 11.0384 6.75058 9.5935C7.38308 8.37588 8.37588 7.38308 9.5935 6.75058C11.0384 6 12.9367 6 16.7333 6H27.2667C31.0633 6 32.9616 6 34.4065 6.75058C35.6241 7.38308 36.6169 8.37588 37.2494 9.5935C38 11.0384 38 12.9367 38 16.7333V27.2667C38 31.0633 38 32.9616 37.2494 34.4065C36.6169 35.6241 35.6241 36.6169 34.4065 37.2494C32.9616 38 31.0633 38 27.2667 38H16.7333C12.9367 38 11.0384 38 9.5935 37.2494C8.37588 36.6169 7.38308 35.6241 6.75058 34.4065C6 32.9616 6 31.0633 6 27.2667V16.7333Z" fill="url(#paint1_radial_1039_14612)"/>
<path d="M21.9822 10.3638C18.822 10.3638 18.4255 10.3776 17.1843 10.4341C15.9455 10.4908 15.1 10.6869 14.3601 10.9747C13.5948 11.2719 12.9456 11.6695 12.2989 12.3165C11.6516 12.9633 11.254 13.6125 10.9559 14.3776C10.6674 15.1177 10.471 15.9635 10.4153 17.2018C10.3598 18.443 10.3452 18.8399 10.3452 22.0001C10.3452 25.1604 10.3593 25.5558 10.4155 26.797C10.4725 28.0358 10.6686 28.8813 10.9561 29.6212C11.2536 30.3866 11.6511 31.0358 12.2981 31.6826C12.9447 32.3298 13.5938 32.7284 14.3587 33.0256C15.099 33.3133 15.9448 33.5095 17.1833 33.5662C18.4245 33.6227 18.8208 33.6365 21.9807 33.6365C25.1411 33.6365 25.5365 33.6227 26.7777 33.5662C28.0164 33.5095 28.863 33.3133 29.6033 33.0256C30.3684 32.7284 31.0166 32.3298 31.6631 31.6826C32.3104 31.0358 32.7079 30.3866 33.0061 29.6215C33.2922 28.8813 33.4885 28.0355 33.5467 26.7972C33.6024 25.556 33.617 25.1604 33.617 22.0001C33.617 18.8399 33.6024 18.4433 33.5467 17.2021C33.4885 15.9633 33.2922 15.1177 33.0061 14.3778C32.7079 13.6125 32.3104 12.9633 31.6631 12.3165C31.0159 11.6692 30.3686 11.2716 29.6026 10.9747C28.8608 10.6869 28.0147 10.4908 26.776 10.4341C25.5348 10.3776 25.1397 10.3638 21.9786 10.3638H21.9822ZM20.9383 12.4607C21.2482 12.4603 21.5938 12.4607 21.9822 12.4607C25.089 12.4607 25.4572 12.4719 26.6841 12.5276C27.8186 12.5795 28.4344 12.7691 28.8445 12.9284C29.3875 13.1393 29.7747 13.3914 30.1817 13.7987C30.589 14.206 30.8411 14.5938 31.0525 15.1369C31.2117 15.5466 31.4015 16.1623 31.4532 17.2969C31.5089 18.5235 31.5211 18.892 31.5211 21.9975C31.5211 25.1029 31.5089 25.4714 31.4532 26.6981C31.4013 27.8326 31.2117 28.4484 31.0525 28.8581C30.8416 29.4011 30.589 29.7878 30.1817 30.1948C29.7744 30.6021 29.3878 30.8542 28.8445 31.0651C28.4348 31.2251 27.8186 31.4142 26.6841 31.4661C25.4575 31.5218 25.089 31.534 21.9822 31.534C18.8751 31.534 18.5069 31.5218 17.2803 31.4661C16.1458 31.4137 15.53 31.2241 15.1196 31.0649C14.5766 30.854 14.1887 30.6018 13.7815 30.1946C13.3742 29.7873 13.1221 29.4004 12.9107 28.8571C12.7514 28.4474 12.5616 27.8316 12.51 26.6971C12.4542 25.4704 12.4431 25.102 12.4431 21.9946C12.4431 18.8872 12.4542 18.5206 12.51 17.294C12.5619 16.1594 12.7514 15.5436 12.9107 15.1335C13.1216 14.5904 13.3742 14.2026 13.7815 13.7953C14.1887 13.388 14.5766 13.1359 15.1196 12.9245C15.5298 12.7645 16.1458 12.5754 17.2803 12.5233C18.3537 12.4748 18.7697 12.4603 20.9383 12.4578V12.4607ZM28.1934 14.3929C27.4225 14.3929 26.7971 15.0176 26.7971 15.7887C26.7971 16.5596 27.4225 17.1851 28.1934 17.1851C28.9643 17.1851 29.5897 16.5596 29.5897 15.7887C29.5897 15.0178 28.9643 14.3924 28.1934 14.3924V14.3929ZM21.9822 16.0244C18.6822 16.0244 16.0066 18.7 16.0066 22.0001C16.0066 25.3003 18.6822 27.9747 21.9822 27.9747C25.2822 27.9747 27.9568 25.3003 27.9568 22.0001C27.9568 18.7 25.282 16.0244 21.982 16.0244H21.9822ZM21.9822 18.1213C24.1242 18.1213 25.8609 19.8578 25.8609 22.0001C25.8609 24.1422 24.1242 25.8789 21.9822 25.8789C19.84 25.8789 18.1035 24.1422 18.1035 22.0001C18.1035 19.8578 19.84 18.1213 21.9822 18.1213Z" fill="white"/>
<defs>
<radialGradient id="paint0_radial_1039_14612" cx="0" cy="0" r="1" gradientUnits="userSpaceOnUse" gradientTransform="translate(14.5 40.4647) rotate(-90) scale(31.7144 29.4969)">
<stop stop-color="#FFDD55"/>
<stop offset="0.1" stop-color="#FFDD55"/>
<stop offset="0.5" stop-color="#FF543E"/>
<stop offset="1" stop-color="#C837AB"/>
</radialGradient>
<radialGradient id="paint1_radial_1039_14612" cx="0" cy="0" r="1" gradientUnits="userSpaceOnUse" gradientTransform="translate(0.639831 8.30523) rotate(78.6806) scale(14.1765 58.4359)">
<stop stop-color="#3771C8"/>
<stop offset="0.128" stop-color="#3771C8"/>
<stop offset="1" stop-color="#6600FF" stop-opacity="0"/>
</radialGradient>
</defs>
</svg>
