<svg width="25" height="25" viewBox="0 0 25 25" fill="none" xmlns="http://www.w3.org/2000/svg">
<path d="M12.4996 12.4999C15.4067 12.4999 17.7627 10.1439 17.7627 7.23679C17.7627 4.32972 15.4067 1.97363 12.4996 1.97363C9.59252 1.97363 7.23643 4.32972 7.23643 7.23679C7.23643 10.1439 9.59252 12.4999 12.4996 12.4999ZM16.4387 13.8404L14.4733 21.7105L13.1575 16.1184L14.4733 13.8157H10.5259L11.8417 16.1184L10.5259 21.7105L8.56044 13.8404C5.6287 13.9802 3.28906 16.3774 3.28906 19.3421V21.0526C3.28906 22.1422 4.17311 23.0263 5.26275 23.0263H19.7364C20.8261 23.0263 21.7101 22.1422 21.7101 21.0526V19.3421C21.7101 16.3774 19.3705 13.9802 16.4387 13.8404Z" fill="#A2B7D8"/>
</svg>
