<svg width="25" height="25" viewBox="0 0 25 25" fill="none" xmlns="http://www.w3.org/2000/svg">
<path fill-rule="evenodd" clip-rule="evenodd" d="M5.92516 3C5.92516 3 5.92002 3.00053 5.91693 3C5.334 3.38638 4.82046 3.94786 4.35134 4.54139C3.8049 5.23988 3.31722 6.06973 3.12359 6.70923H9.62489V5.3904C9.62489 4.60668 10.4164 3.81604 11.9733 3.81604C13.5805 3.81604 14.3711 4.59984 14.3711 5.40687V6.70923H20.8229C20.5995 6.07076 20.0499 5.24059 19.4469 4.54139C19.0012 4.02727 18.4172 3.38025 17.733 3H5.92516ZM12.789 5.6624C12.789 5.39864 12.5253 4.87109 11.998 4.87109C11.4706 4.87109 11.207 5.39864 11.207 5.6624C11.207 5.92617 11.4706 6.4537 11.4706 6.4537L11.207 7.50877H12.789L12.5253 6.4537C12.5253 6.4537 12.789 5.92617 12.789 5.6624ZM9.6249 7.23676H3.0412C3.21373 7.8071 3.58342 8.34477 3.95913 8.89118C4.18046 9.21308 4.40388 9.53801 4.59031 9.87444H9.03162C9.46316 9.71219 9.92696 9.61892 10.4159 9.61892C10.9086 9.61892 11.3816 9.71076 11.8167 9.87444H19.3562C19.4819 9.67487 19.6211 9.46581 19.7649 9.24984C20.1865 8.61675 20.6477 7.92423 20.9218 7.23676H14.3711V8.56384H9.6249V7.23676ZM13.7449 12.7676C13.3824 11.2624 12.0336 10.1465 10.4159 10.1465C8.7983 10.1465 7.44945 11.2624 7.087 12.7676H13.7449ZM8.05931 10.402H4.85398C4.83647 10.4156 3.59239 11.9518 3.07416 12.7676H4.45023C5.08493 11.7735 6.14465 11.0796 7.3754 10.9542C7.57013 10.8155 7.83308 10.6172 8.05931 10.402ZM19.0926 10.402H12.7725C12.8975 10.4951 13.0221 10.5914 13.1351 10.6987C13.5874 10.6654 14.1823 10.6822 14.6265 10.8141C14.967 10.7183 15.3187 10.6575 15.6895 10.6575C17.2048 10.6575 18.5192 11.5131 19.1832 12.7676H20.8724C20.2756 12.0001 19.0926 10.402 19.0926 10.402ZM18.5735 12.7676C17.9649 11.8167 16.9045 11.185 15.6895 11.185C15.6739 11.1858 15.6577 11.1866 15.641 11.1874C15.606 11.189 15.5691 11.1908 15.5329 11.1933C16.1803 11.5624 16.7125 12.1109 17.0655 12.7676H18.5735ZM16.4558 12.7677C15.8456 11.8252 14.7886 11.2015 13.5801 11.2015C13.9204 11.6557 14.1598 12.191 14.2805 12.7677H16.4558ZM6.54317 12.7677C6.63467 12.3312 6.79967 11.9181 7.02108 11.5477C6.24208 11.7229 5.5624 12.1619 5.0847 12.7677H6.54317ZM20.9301 13.2952H3C3.00289 14.7646 3.00589 16.2339 3.00888 17.7033C3.01144 18.9568 3.01399 20.2103 3.01648 21.4637H17.4693C16.6918 20.7409 16.2004 19.714 16.2004 18.5705C16.2004 16.3885 17.9743 14.614 20.1555 14.614C20.4198 14.614 20.6802 14.6385 20.9301 14.6882V13.2952ZM23.5833 18.5705C23.5833 16.6736 22.0518 15.1415 20.1555 15.1415C18.2593 15.1415 16.7277 16.6736 16.7277 18.5705C16.7277 20.4674 18.2593 21.9995 20.1555 21.9995C22.0518 21.9995 23.5833 20.4674 23.5833 18.5705ZM22.3308 18.9533L22.3306 18.9491L22.3302 18.9411C22.3305 18.9399 22.3303 18.9387 22.3301 18.9374C22.3301 18.937 22.33 18.9365 22.33 18.936C22.3198 18.7595 22.2469 18.5926 22.1247 18.4655L22.1122 18.4529L22.1112 18.4526C22.1082 18.4502 22.105 18.4477 22.1018 18.4456C22.0871 18.4359 22.0703 18.43 22.0528 18.4283C22.0354 18.4267 22.0178 18.4294 22.0016 18.4361L21.9905 18.4414C21.8013 18.5324 21.6283 18.6538 21.4782 18.801C21.3242 18.712 21.1831 18.6021 21.0589 18.4743C21.02 18.4343 20.9827 18.3926 20.9476 18.3485L20.9464 18.3482L20.9451 18.3455C20.8418 18.143 20.7749 17.9238 20.7477 17.6979C20.8109 17.6362 20.8673 17.5678 20.9157 17.4938C20.9712 17.4095 21.0156 17.3185 21.048 17.2228L21.0483 17.2218L21.0485 17.2209C21.0511 17.2133 21.0536 17.2057 21.056 17.198C21.0603 17.181 21.062 17.1634 21.0608 17.1458C21.0584 17.1032 21.0406 17.063 21.0106 17.0328C21.003 17.025 20.9946 17.018 20.9856 17.0118C20.9596 17.0015 20.9334 16.9917 20.907 16.9824C20.8724 16.9696 20.8375 16.9578 20.8022 16.9468L20.801 16.9465C20.7111 16.9177 20.6194 16.8929 20.5259 16.8723L20.5247 16.872C20.4881 16.864 20.4513 16.8565 20.4143 16.8498C20.3879 16.845 20.3615 16.8406 20.3351 16.8366C20.3238 16.8373 20.3127 16.8392 20.3018 16.8421C20.2608 16.8531 20.2252 16.879 20.2019 16.9147C20.1922 16.9293 20.1848 16.9454 20.1801 16.9623C20.1781 16.9697 20.1761 16.9772 20.1754 16.9847L20.1751 16.9857C20.1555 17.0856 20.1486 17.1875 20.1546 17.2892C20.1598 17.3775 20.1746 17.465 20.1986 17.5501C20.0628 17.732 19.896 17.8883 19.7059 18.0115L19.7034 18.0131L19.7022 18.0128C19.6494 18.0324 19.5971 18.0499 19.5436 18.0649C19.3726 18.1131 19.1958 18.1375 19.0181 18.1371C18.9613 17.9341 18.8717 17.7418 18.753 17.5679C18.7514 17.5654 18.75 17.5631 18.7484 17.5609C18.7378 17.5459 18.7237 17.5338 18.7072 17.5258C18.6908 17.5178 18.6725 17.5142 18.6543 17.5153L18.6455 17.5161L18.644 17.5157C18.6374 17.5173 18.6309 17.519 18.6244 17.5209C18.6232 17.5212 18.622 17.5216 18.6209 17.5221C18.5008 17.5571 18.3917 17.6225 18.3039 17.7119C18.2699 17.7467 18.2393 17.7848 18.2127 17.8255C18.2124 17.8265 18.2117 17.8275 18.211 17.8284L18.211 17.8284L18.2099 17.83L18.2094 17.8316L18.2078 17.8342L18.2039 17.8404C18.2012 17.8464 18.2 17.853 18.2004 17.8596C18.2005 17.8608 18.2006 17.862 18.2009 17.8632L18.2031 17.8719C18.2114 17.9029 18.2209 17.9335 18.2317 17.9638C18.2745 18.0873 18.3371 18.2029 18.4171 18.306C18.463 18.364 18.5141 18.4177 18.5699 18.4663C18.6105 18.7634 18.5818 19.066 18.4862 19.3501L18.4851 19.3539C18.4844 19.3566 18.4842 19.3594 18.4844 19.3622C18.4849 19.3688 18.4881 19.375 18.4931 19.3794C18.4982 19.3837 18.5047 19.3859 18.5114 19.3854L18.5127 19.3858L18.5169 19.3848C18.6683 19.3514 18.822 19.3294 18.9766 19.319C18.9863 19.3181 18.9958 19.3176 19.0053 19.317C19.6852 19.2758 20.3597 19.4608 20.9247 19.8435C21.054 19.931 21.1768 20.0282 21.2918 20.1341L21.2951 20.1365C21.3006 20.1403 21.3074 20.1417 21.3139 20.1405C21.3205 20.1392 21.3263 20.1355 21.3301 20.13C21.3316 20.1277 21.3327 20.1252 21.3335 20.1226L21.3339 20.1212L21.3345 20.1187C21.3929 19.8246 21.5184 19.5482 21.7013 19.3112C21.7737 19.2973 21.8447 19.2765 21.9133 19.2491C22.0341 19.201 22.1462 19.1332 22.2452 19.0485C22.2696 19.0277 22.2931 19.0059 22.3158 18.9831L22.318 18.981L22.3215 18.9773L22.3217 18.9764C22.3226 18.9754 22.3234 18.9743 22.3242 18.9732C22.328 18.9672 22.3303 18.9604 22.3308 18.9533ZM20.5308 17.4043L20.5312 17.4028C20.5312 17.4028 20.5311 17.4037 20.5308 17.4043Z" fill="#A2B7D8"/>
</svg>
