<svg width="128" height="100" viewBox="0 0 128 100" fill="none" xmlns="http://www.w3.org/2000/svg">
<path fill-rule="evenodd" clip-rule="evenodd" d="M48.4259 44.3566C47.0141 43.1991 44.9172 42.5862 42.2873 42.5879C40.281 42.5893 38.4255 42.7454 36.9142 42.9338L36.8904 7.68501C37.3869 7.59788 38.109 7.4889 39.0569 7.35808C40.0498 7.18382 41.0429 7.09637 42.0359 7.09571C43.029 7.09505 43.9093 7.15957 44.6768 7.28926C45.4894 7.41892 46.1666 7.67887 46.7086 8.06911C47.2505 8.45935 47.6572 9.00157 47.9285 9.69579C48.2449 10.3466 48.4035 11.2145 48.4042 12.2995L48.4259 44.3566ZM2.32971 7.58283C1.38196 7.70772 0.692713 7.83245 0.261963 7.957L0.284381 42.8493C0.285755 44.879 1.23471 46.5352 3.13125 47.8181C4.51057 48.7699 6.19135 49.5558 8.17361 50.1758C10.1559 50.8373 12.5688 51.167 15.4123 51.1652C18.0404 51.1634 20.4313 50.8305 22.585 50.1663C24.7818 49.4606 26.6337 48.4446 28.1407 47.118C29.6477 45.7915 30.8099 44.1339 31.6271 42.145C32.4874 40.1148 32.9166 37.7534 32.9148 35.0609C32.913 32.4513 32.5022 30.1527 31.6823 28.1649C30.8623 26.1772 29.741 24.521 28.3184 23.1965C26.8957 21.8305 25.2578 20.796 23.4048 20.093C21.5517 19.3901 19.5912 19.0393 17.5232 19.0406C16.3599 19.0414 15.2829 19.125 14.2921 19.2913C13.3444 19.4576 12.3321 19.7483 11.2553 20.1632L11.2512 12.2991C11.2505 11.2635 11.1207 10.4352 10.8617 9.81399C10.6028 9.1514 10.2147 8.63388 9.69744 8.26142C9.18019 7.88896 8.53376 7.64085 7.75818 7.5171C7.02568 7.39332 6.18551 7.33174 5.23767 7.33237C4.24676 7.33302 3.27744 7.41651 2.32971 7.58283ZM19.9937 40.9101C18.9175 42.1949 17.3885 42.8379 15.4067 42.8392C14.4157 42.8399 13.5756 42.7576 12.8861 42.5924C12.2397 42.3857 11.6795 42.1375 11.2054 41.8479L11.1962 28.3027C11.9284 27.9709 12.596 27.7219 13.1991 27.5558C13.8452 27.3897 14.5991 27.3064 15.4608 27.3058C17.3564 27.3045 18.8648 27.9456 19.9858 29.2289C21.1069 30.5123 21.6683 32.4588 21.67 35.0684C21.6718 37.6366 21.113 39.5838 19.9937 40.9101ZM109.889 51.3997C107.225 51.4014 104.743 51.0559 102.44 50.363C100.182 49.6267 98.1955 48.543 96.4792 47.112C94.8081 45.6809 93.4752 43.8807 92.4807 41.7114C91.5313 39.542 91.0556 37.0034 91.0536 34.0957C91.0517 31.2313 91.524 28.7789 92.4706 26.7385C93.4622 24.6546 94.7476 22.9612 96.3266 21.6581C97.9056 20.3117 99.7105 19.334 101.741 18.7251C103.772 18.0727 105.848 17.7459 107.97 17.7444C110.362 17.7429 112.529 18.0886 114.471 18.7817C116.458 19.4748 118.151 20.4285 119.551 21.6428C120.996 22.857 122.103 24.3101 122.872 26.0022C123.686 27.6943 124.093 29.5385 124.094 31.5349C124.095 33.0105 123.667 34.1391 122.81 34.9209C121.953 35.7027 120.757 36.2026 119.223 36.4206L102.5 38.8403C102.997 40.2722 104.014 41.3565 105.549 42.0933C107.084 42.7867 108.845 43.1327 110.831 43.1314C112.682 43.1302 114.42 42.912 116.044 42.4769C117.714 41.9984 119.068 41.4551 120.106 40.8468C120.828 41.2803 121.438 41.8875 121.935 42.6683C122.432 43.4492 122.681 44.2736 122.682 45.1416C122.683 47.0946 121.736 48.5491 119.841 49.5052C118.397 50.2439 116.772 50.7441 114.967 51.0057C113.161 51.2673 111.469 51.3986 109.889 51.3997ZM107.976 25.8168C106.892 25.8175 105.944 25.9917 105.132 26.3395C104.365 26.6872 103.733 27.1433 103.237 27.7078C102.741 28.2289 102.358 28.8368 102.087 29.5314C101.862 30.1825 101.727 30.8553 101.682 31.5497L113.26 29.7193C113.124 28.8514 112.626 27.9837 111.768 27.1163C110.91 26.2488 109.646 25.8157 107.976 25.8168ZM53.8889 19.2117C54.3402 19.0812 55.0398 18.9505 55.9877 18.8197C56.9806 18.6888 57.9962 18.623 59.0345 18.6224C60.0275 18.6217 60.9078 18.6862 61.6753 18.8159C62.4879 18.9456 63.1652 19.2055 63.7071 19.5958C64.2491 19.986 64.6557 20.5282 64.927 21.2224C65.2434 21.8732 65.402 22.7411 65.4027 23.8261L65.4122 37.8225C65.4134 39.6019 65.8657 40.8819 66.769 41.6625C67.6723 42.3997 68.9816 42.7677 70.6969 42.7666C71.7351 42.7659 72.5702 42.6785 73.202 42.5045C73.3817 42.4583 73.5502 42.4122 73.7076 42.366C72.335 43.8575 71.6494 45.6656 71.6508 47.7901C71.6517 49.1087 71.9171 50.305 72.4469 51.379C71.8546 51.4092 71.2506 51.4245 70.6351 51.4249C68.1975 51.4265 65.9403 51.1676 63.8636 50.6482C61.8319 50.1287 60.0709 49.327 58.5806 48.243C57.0902 47.159 55.9382 45.7709 55.1245 44.0789C54.3108 42.3434 53.9032 40.2605 53.9015 37.8301L53.8889 19.2117ZM80.2307 39.7964C78.0586 39.7979 76.2346 40.3422 74.7586 41.4295L74.7436 19.1978C75.1949 19.0674 75.8945 18.9367 76.8423 18.8059C77.8353 18.675 78.8509 18.6092 79.8891 18.6085C80.8822 18.6079 81.7625 18.6724 82.53 18.8021C83.3426 18.9318 84.0198 19.1917 84.5618 19.5819C85.1037 19.9722 85.5103 20.5144 85.7817 21.2086C86.0981 21.8594 86.2567 22.7273 86.2574 23.8123L86.2697 41.9564C84.7467 40.5148 82.7337 39.7948 80.2307 39.7964ZM75.7106 43.7486C74.5828 44.8777 74.0195 46.2669 74.0207 47.9161C74.0218 49.5653 74.587 50.9537 75.7162 52.0813C76.8906 53.209 78.4258 53.7722 80.3217 53.7709C82.2176 53.7697 83.7294 53.2045 84.8571 52.0753C86.03 50.9462 86.6158 49.557 86.6147 47.9078C86.6136 46.2586 86.0258 44.8702 84.8514 43.7426C83.7222 42.6149 82.2096 42.0517 80.3137 42.053C78.4178 42.0542 76.8834 42.6194 75.7106 43.7486ZM83.8663 88.5969C84.8593 88.466 85.604 88.357 86.1005 88.2699L86.0825 61.7744C86.0817 60.6894 85.9231 59.8215 85.6067 59.1707C85.3354 58.4765 84.9288 57.9342 84.3868 57.544C83.8449 57.1538 83.1676 56.8938 82.355 56.7641C81.5875 56.6345 80.7073 56.5699 79.7142 56.5706C78.7211 56.5712 77.7281 56.6587 76.7351 56.833C75.7873 56.9638 75.0651 57.0727 74.5686 57.1599L74.5867 83.6554C74.5874 84.7404 74.7234 85.63 74.9947 86.3242C75.3111 86.975 75.7404 87.4955 76.2823 87.8858C76.8242 88.276 77.4789 88.536 78.2464 88.6657C79.059 88.7953 79.9619 88.8598 80.9549 88.8592C81.948 88.8585 82.9185 88.7711 83.8663 88.5969ZM67.0769 88.673C68.0699 88.5422 68.792 88.4115 69.2434 88.281L69.2299 68.5558C69.227 64.3027 67.9609 61.1136 65.4317 58.9887C62.9475 56.8203 59.471 55.7376 55.0021 55.7406C53.5577 55.7415 52.2261 55.8943 51.0076 56.1989C49.8341 56.4601 48.954 56.6994 48.3674 56.9167L48.363 50.537C48.3623 49.452 48.2037 48.5841 47.8873 47.9333C47.616 47.2391 47.2093 46.6969 46.6674 46.3066C46.1254 45.9164 45.4482 45.6564 44.6356 45.5268C43.8681 45.3971 42.9878 45.3326 41.9947 45.3332C41.0017 45.3339 40.0086 45.4213 39.0157 45.5956C38.0678 45.7264 37.3457 45.8354 36.8492 45.9225L36.8749 83.6803C36.8756 84.7653 37.0117 85.6549 37.283 86.3491C37.5994 86.9999 38.0286 87.5204 38.5705 87.9106C39.1125 88.3009 39.7672 88.5608 40.5346 88.6905C41.3472 88.8202 42.2501 88.8847 43.2431 88.884C44.2814 88.8833 45.2744 88.8176 46.2223 88.6868C47.2153 88.5559 47.9374 88.4252 48.3887 88.2947L48.3732 65.5099C48.8695 65.2058 49.5239 64.9449 50.3363 64.7274C51.1486 64.5099 52.0062 64.4008 52.909 64.4002C54.2632 64.3993 55.392 64.7675 56.2953 65.5047C57.2437 66.1984 57.7185 67.435 57.7197 69.2144L57.7295 83.6665C57.7303 84.7515 57.8663 85.6411 58.1376 86.3353C58.454 86.9861 58.8832 87.5066 59.4252 87.8969C59.9671 88.2871 60.6218 88.5471 61.3893 88.6768C62.2019 88.8064 63.1047 88.8709 64.0978 88.8703C65.136 88.8696 66.1291 88.8038 67.0769 88.673ZM106.474 55.7067C109.183 55.7049 111.688 56.0504 113.991 56.7433C116.339 57.3927 118.348 58.4113 120.019 59.799C121.69 61.1867 123.001 62.9435 123.95 65.0695C124.899 67.152 125.375 69.6472 125.377 72.555C125.379 75.3326 124.974 77.7632 124.163 79.847C123.352 81.9307 122.202 83.6891 120.713 85.1223C119.225 86.5121 117.42 87.5549 115.299 88.2506C113.223 88.9464 110.898 89.2951 108.325 89.2968C106.384 89.2981 104.579 89.0172 102.908 88.4541L102.915 99.2607C102.464 99.3912 101.742 99.5218 100.749 99.6527C99.7559 99.8269 98.7404 99.9144 97.7021 99.9151C96.7091 99.9157 95.8062 99.8512 94.9936 99.7216C94.2261 99.5919 93.5714 99.3319 93.0295 98.9417C92.4875 98.5514 92.0809 98.0092 91.8096 97.315C91.5383 96.6642 91.4023 95.7963 91.4016 94.7113L91.3803 63.4635C91.3795 62.2917 91.6271 61.3367 92.1232 60.5986C92.6644 59.8604 93.3861 59.1873 94.2885 58.5791C95.6873 57.7102 97.4247 57.0146 99.5008 56.4924C101.577 55.9703 103.901 55.7084 106.474 55.7067ZM106.627 80.5746C111.276 80.5715 113.599 77.9009 113.595 72.5628C113.593 69.7852 113.005 67.7241 111.831 66.3795C110.701 65.0348 109.053 64.3632 106.887 64.3646C106.029 64.3652 105.262 64.4742 104.585 64.6917C103.908 64.8657 103.321 65.0831 102.825 65.3438L102.834 79.6657C103.376 79.9258 103.963 80.1424 104.595 80.3156C105.227 80.4887 105.904 80.5751 106.627 80.5746ZM23.7565 64.3128C22.6382 64.3135 18.8857 64.4863 17.8571 64.8311C16.8732 65.1758 15.4859 65.6925 14.7259 66.3811C14.0106 67.0268 13.1719 67.8443 12.7253 68.8338C12.2786 69.8234 12.0557 70.9848 12.0566 72.3181C12.0584 74.9847 13.1003 76.9841 14.6669 78.3164C16.2782 79.6486 21.4188 80.314 23.7002 80.3125C25.0423 80.3116 26.2053 80.1603 27.1892 79.8585C28.1732 79.5568 29.0453 79.2337 29.8055 78.8891C30.7006 79.4906 31.3721 80.1568 31.8199 80.8877C32.2678 81.5756 32.492 82.4141 32.4927 83.4033C32.4939 85.1667 31.6225 86.5436 29.8785 87.534C28.1345 88.4814 25.7192 88.9561 19.9536 88.9581C17.1353 88.96 13.8123 88.5746 11.5303 87.8019C9.24828 86.9863 7.02156 85.8693 5.36543 84.4511C3.75401 82.9898 2.24264 81.2488 1.34659 79.2279C0.45053 77.207 0.00166585 74.9708 5.89577e-06 72.5193C-0.00191616 69.6806 0.466114 67.2073 1.40411 65.0992C2.38681 62.948 3.96292 61.1837 5.61716 59.8063C7.2714 58.4289 9.42956 57.3954 11.5763 56.7059C13.7679 56.0163 16.8444 55.6706 19.26 55.669C25.1598 55.6669 27.643 56.2244 29.3884 57.3415C31.1337 58.4586 32.007 59.8988 32.0082 61.6622C32.0088 62.4794 31.808 63.2537 31.4059 63.9852C31.0037 64.6736 30.5345 65.276 29.998 65.7925C29.2373 65.4489 28.32 65.127 27.2462 64.8266C26.1723 64.4832 25.0091 64.312 23.7565 64.3128Z" fill="white"/>
<path fill-rule="evenodd" clip-rule="evenodd" d="M128 12.9738C127.999 12.949 127.999 12.9245 127.997 12.8995C127.999 12.8895 127.996 12.8788 127.995 12.8678C127.932 11.7861 127.481 10.763 126.724 9.9842L126.646 9.90673L126.64 9.90501C126.621 9.89029 126.601 9.87525 126.581 9.86207C126.49 9.80268 126.386 9.76637 126.278 9.7563C126.17 9.74617 126.061 9.76267 125.96 9.80421L125.891 9.83677C124.719 10.394 123.647 11.1384 122.716 12.0404C121.762 11.4952 120.887 10.8215 120.118 10.0383C119.877 9.793 119.645 9.53757 119.428 9.26724L119.421 9.26533L119.412 9.24844C118.772 8.00782 118.357 6.66404 118.189 5.27955C118.581 4.90154 118.93 4.48198 119.23 4.02835C119.574 3.51188 119.849 2.95372 120.05 2.36758C120.051 2.36376 120.052 2.35978 120.053 2.3557C120.069 2.3092 120.085 2.26245 120.1 2.21545C120.126 2.11105 120.136 2.00312 120.13 1.8956C120.115 1.63458 120.004 1.38813 119.818 1.20289C119.771 1.15496 119.719 1.11191 119.663 1.07439C119.502 1.01093 119.34 0.951119 119.176 0.893802C118.962 0.81576 118.745 0.743038 118.527 0.675629C118.525 0.674081 118.522 0.673386 118.519 0.673673C117.962 0.497098 117.394 0.345639 116.814 0.219301L116.807 0.217339C116.58 0.167987 116.352 0.122508 116.122 0.0809031C115.959 0.0520282 115.795 0.024982 115.631 0C115.562 0.00462559 115.493 0.0160684 115.425 0.034163C115.171 0.101731 114.95 0.25997 114.806 0.478767C114.746 0.568489 114.7 0.667002 114.671 0.770727C114.659 0.816384 114.646 0.862041 114.642 0.907826C114.642 0.907826 114.642 0.907832 114.64 0.914229C114.519 1.52633 114.476 2.15133 114.513 2.77417C114.545 3.31562 114.637 3.85199 114.786 4.37367C113.944 5.48859 112.91 6.44614 111.732 7.20165L111.717 7.21127L111.709 7.2093C111.382 7.32946 111.057 7.43688 110.726 7.52856C109.666 7.82458 108.57 7.97354 107.469 7.97124C107.117 6.72692 106.562 5.54842 105.826 4.48262C105.816 4.46733 105.807 4.45319 105.797 4.43974C105.732 4.34761 105.644 4.27358 105.542 4.22465C105.44 4.17571 105.327 4.15348 105.214 4.1601L105.16 4.16514L105.15 4.16272C105.109 4.17234 105.069 4.1831 105.029 4.19483C105.021 4.19636 105.014 4.19871 105.007 4.20177C104.263 4.41661 103.587 4.81724 103.042 5.3655C102.832 5.57875 102.642 5.81181 102.477 6.06144C102.474 6.0715 102.465 6.07979 102.46 6.08909C102.458 6.09221 102.457 6.09565 102.457 6.09915C102.445 6.11757 102.434 6.13407 102.423 6.15274C102.406 6.1895 102.398 6.22983 102.401 6.27023C102.401 6.27768 102.402 6.2852 102.404 6.29253C102.408 6.31024 102.413 6.32821 102.418 6.34617C102.469 6.53597 102.528 6.72367 102.595 6.90914C102.86 7.66599 103.248 8.37449 103.744 9.00646C104.028 9.36236 104.345 9.69125 104.691 9.98885C104.942 11.8101 104.765 13.6647 104.172 15.4059C104.17 15.4137 104.167 15.4216 104.166 15.4297C104.161 15.4461 104.16 15.4632 104.161 15.4802C104.164 15.5211 104.184 15.5589 104.215 15.5856C104.247 15.6123 104.287 15.6256 104.328 15.6227L104.336 15.6249L104.363 15.6191C105.301 15.414 106.253 15.2792 107.212 15.2158C107.272 15.2101 107.33 15.2072 107.389 15.2033C111.604 14.9509 115.784 16.0849 119.286 18.4303C120.087 18.9669 120.848 19.5622 121.561 20.2112L121.582 20.2264C121.616 20.2494 121.658 20.258 121.698 20.2505C121.739 20.243 121.775 20.2199 121.798 20.1863C121.808 20.1725 121.815 20.1572 121.819 20.141C121.822 20.1332 121.824 20.1253 121.826 20.1172C122.187 18.3145 122.966 16.6201 124.099 15.1679C124.548 15.0824 124.988 14.9548 125.413 14.7869C126.162 14.4921 126.857 14.0769 127.47 13.5578C127.622 13.4298 127.767 13.2963 127.908 13.1567C127.913 13.1527 127.917 13.1484 127.921 13.1436L127.943 13.121C127.944 13.1194 127.945 13.1175 127.944 13.1155C127.95 13.1095 127.955 13.1029 127.96 13.0961C127.983 13.0595 127.997 13.0173 128 12.9738ZM116.844 3.47958L116.847 3.47047C116.847 3.47047 116.846 3.47614 116.844 3.47958Z" fill="#FF0960"/>
</svg>
