<svg width="25" height="25" viewBox="0 0 25 25" fill="none" xmlns="http://www.w3.org/2000/svg">
<path d="M12.4988 2.63135C9.88164 2.63176 7.3718 3.67176 5.52147 5.52261C3.67099 7.37336 2.63155 9.88339 2.63184 12.5006C2.63211 15.1178 3.67197 17.6276 5.5227 19.4783C7.37343 21.329 9.88351 22.3683 12.5008 22.3682C15.1181 22.3681 17.6281 21.3283 19.4785 19.4776C21.3291 17.627 22.3687 15.1168 22.3687 12.4999C22.3687 10.7675 21.9126 9.06569 21.0463 7.56537C20.1801 6.06516 18.9341 4.81935 17.4337 3.95319C15.9334 3.08709 14.2315 2.63107 12.4988 2.63135ZM7.55543 14.5344C7.01576 14.5348 6.49795 14.3207 6.11604 13.9392C5.73413 13.5578 5.51949 13.0402 5.51921 12.5006C5.51894 11.9608 5.73316 11.4431 6.11467 11.0613C6.4963 10.6794 7.01383 10.4649 7.55363 10.4648C8.0933 10.4646 8.61097 10.679 8.99274 11.0606C9.37437 11.4422 9.58886 11.9599 9.58886 12.4996C9.58886 13.039 9.37464 13.5563 8.99341 13.9379C8.61206 14.3195 8.09485 14.534 7.55543 14.5344ZM12.4988 14.5344C11.9592 14.5344 11.4416 14.3201 11.06 13.9384C10.6784 13.5568 10.464 13.0393 10.464 12.4996C10.464 11.96 10.6784 11.4424 11.06 11.0608C11.4416 10.6792 11.9592 10.4648 12.4988 10.4648C13.0385 10.4648 13.556 10.6792 13.9377 11.0608C14.3193 11.4424 14.5336 11.96 14.5336 12.4996C14.5336 13.0393 14.3193 13.5568 13.9377 13.9384C13.556 14.3201 13.0385 14.5344 12.4988 14.5344ZM17.4436 14.5344C16.9038 14.5348 16.3862 14.3207 16.0043 13.9392C15.6223 13.5578 15.4077 13.0402 15.4074 12.5006C15.4071 11.9608 15.6214 11.4431 16.0029 11.0613C16.3844 10.6794 16.902 10.4649 17.4417 10.4648C17.9815 10.4646 18.4992 10.679 18.8809 11.0606C19.2626 11.4422 19.4771 11.9599 19.4771 12.4996C19.4775 13.0391 19.2634 13.5566 18.8819 13.9382C18.5006 14.32 17.9832 14.5344 17.4436 14.5344Z" fill="#A2B7D8"/>
</svg>
