<svg width="24" height="14" viewBox="0 0 24 14" fill="none" xmlns="http://www.w3.org/2000/svg">
<path opacity="0.2" d="M2 2.91321C2 2.39601 2.39439 1.96415 2.90946 1.91732L22.9095 0.0991398C23.4951 0.045902 24 0.507001 24 1.09503V8.99216C24 9.48985 23.634 9.91179 23.1413 9.98212L2 13V2.91321Z" fill="#111315"/>
<path d="M0 12V11L2 11.5V14L0.5 12.5L0 12Z" fill="#048A5A"/>
<path d="M0 2.92013C0 2.40004 0.398662 1.96678 0.916955 1.92359L22.917 0.0902538C23.5 0.0416689 24 0.501759 24 1.0868V9.07987C24 9.59996 23.6013 10.0332 23.083 10.0764L0 12V2.92013Z" fill="url(#paint0_linear_9592_29521)"/>
<path d="M7.52805 3.69318L7.2871 7.20839L3.69631 3.81457L3.30347 9.75814L4.39369 9.6458L4.63383 6.12263L8.22543 9.52441L8.61828 3.58083L7.52805 3.69318ZM10.0969 9.05813L12.8423 8.77523L12.9102 7.7951L10.1648 8.07801L10.0969 9.05813ZM10.4099 4.36934L13.1554 4.08644L13.2233 3.10632L10.4778 3.38922L10.4099 4.36934ZM10.262 6.52386L12.8562 6.25653L12.9266 5.30029L10.3323 5.56761L10.262 6.52386ZM9.7616 3.46302L9.38862 9.13111L10.4629 9.02041L10.8518 3.35068L9.7616 3.46302ZM19.053 6.0362L17.7316 2.3442L16.0043 6.34231L15.0403 2.91908L13.7512 3.05192L15.7204 8.81644L17.6263 4.91252L19.1415 8.45588L21.7249 2.23028L20.388 2.36804L19.053 6.0362Z" fill="white"/>
<defs>
<linearGradient id="paint0_linear_9592_29521" x1="-3.06853e-07" y1="2.5" x2="21.7936" y2="8.4189" gradientUnits="userSpaceOnUse">
<stop stop-color="#00CF84"/>
<stop offset="1" stop-color="#01AF70"/>
</linearGradient>
</defs>
</svg>
