<svg width="25" height="25" viewBox="0 0 25 25" fill="none" xmlns="http://www.w3.org/2000/svg">
<path d="M9.8043 1.39795C7.87864 1.39795 6.3001 2.85634 6.3001 4.63543C6.3001 5.2764 6.50807 5.87419 6.86027 6.37869H4.14367C3.3997 6.37869 2.7959 6.93654 2.7959 7.62388V10.6123C2.7959 11.2997 3.3997 11.8575 4.14367 11.8575H11.6912V6.37869H9.8043C8.75301 6.37869 7.91743 5.60671 7.91743 4.63543C7.91743 3.66416 8.75301 2.89217 9.8043 2.89217C10.8556 2.89217 11.6912 3.66416 11.6912 4.63543V6.37869H13.3085V4.63543C13.3085 3.66416 14.1441 2.89217 15.1954 2.89217C16.2467 2.89217 17.0823 3.66416 17.0823 4.63543C17.0823 5.60671 16.2467 6.37869 15.1954 6.37869H13.3085V11.8575H20.856C21.6 11.8575 22.2038 11.2997 22.2038 10.6123V7.62388C22.2038 6.93654 21.6 6.37869 20.856 6.37869H18.1394C18.4916 5.87419 18.6996 5.2764 18.6996 4.63543C18.6996 2.85634 17.121 1.39795 15.1954 1.39795C14.0911 1.39795 13.1436 1.90722 12.4998 2.65189C11.8561 1.90722 10.9086 1.39795 9.8043 1.39795ZM3.87411 13.3517V18.5815C3.87411 20.3646 5.44831 21.819 7.37832 21.819H11.6912V13.3517H3.87411ZM13.3085 13.3517V21.819H17.6214C19.5514 21.819 21.1256 20.3646 21.1256 18.5815V13.3517H13.3085Z" fill="#A2B7D8"/>
</svg>
