<svg width="25" height="25" viewBox="0 0 25 25" fill="none" xmlns="http://www.w3.org/2000/svg">
<path d="M5.86022 16.7717L9.05657 17.3195L10.5019 20.1392C11.1401 20.3057 11.8099 20.3943 12.5003 20.3943C13.193 20.3943 13.8647 20.3051 14.5049 20.1376L16.0172 17.2601L19.1505 16.756C19.8621 15.6465 20.3036 14.3471 20.3824 12.951L18.1116 10.6219L18.6002 7.4876C17.7469 6.45022 16.6341 5.63438 15.361 5.13931L12.4453 6.57868L9.61917 5.14731C8.34569 5.64665 7.23355 6.46731 6.38233 7.50949L6.84904 10.7181L4.61874 12.9593C4.699 14.359 5.14395 15.6611 5.86015 16.772L5.86022 16.7717ZM12.5003 22.3682C7.05007 22.3682 2.63184 17.95 2.63184 12.4998C2.63184 7.04958 7.05007 2.63135 12.5003 2.63135C17.9504 2.63135 22.3687 7.04958 22.3687 12.4998C22.3687 17.95 17.9504 22.3682 12.5003 22.3682ZM8.75026 11.4847L12.4879 8.55244L16.1516 11.4847L14.4246 15.855H10.4772L8.75026 11.4847Z" fill="#A2B7D8"/>
</svg>
