<svg width="44" height="44" viewBox="0 0 44 44" fill="none" xmlns="http://www.w3.org/2000/svg">
<path d="M22 38.5C31.1127 38.5 38.5 31.1127 38.5 22C38.5 12.8873 31.1127 5.5 22 5.5C12.8873 5.5 5.5 12.8873 5.5 22C5.5 31.1127 12.8873 38.5 22 38.5Z" fill="url(#paint0_linear_227_11851)"/>
<path fill-rule="evenodd" clip-rule="evenodd" d="M12.9891 21.8114C17.7817 19.7098 20.9775 18.3242 22.5765 17.6548C27.1421 15.7435 28.0908 15.4115 28.7091 15.4005C28.8451 15.3981 29.1492 15.432 29.3462 15.5929C29.5125 15.7287 29.5582 15.9122 29.5801 16.041C29.602 16.1698 29.6293 16.4632 29.6076 16.6924C29.3602 19.3089 28.2897 25.6584 27.7451 28.5889C27.5146 29.8289 27.0608 30.2446 26.6215 30.2853C25.6668 30.3737 24.9419 29.6503 24.0172 29.0402C22.5703 28.0855 21.7528 27.4913 20.3483 26.5597C18.7252 25.4831 19.7774 24.8914 20.7024 23.9244C20.9445 23.6713 25.151 19.8203 25.2324 19.471C25.2426 19.4273 25.252 19.2644 25.1559 19.1784C25.0597 19.0924 24.9179 19.1218 24.8155 19.1452C24.6704 19.1784 22.3589 20.7161 17.881 23.7585C17.2249 24.212 16.6306 24.4329 16.0981 24.4213C15.5112 24.4086 14.382 24.0873 13.5426 23.8126C12.5131 23.4758 11.6948 23.2977 11.766 22.7256C11.8032 22.4277 12.2108 22.1229 12.9891 21.8114Z" fill="white"/>
<defs>
<linearGradient id="paint0_linear_227_11851" x1="22" y1="5.5" x2="22" y2="38.2553" gradientUnits="userSpaceOnUse">
<stop stop-color="#2AABEE"/>
<stop offset="1" stop-color="#229ED9"/>
</linearGradient>
</defs>
</svg>
