<svg width="25" height="25" viewBox="0 0 25 25" fill="none" xmlns="http://www.w3.org/2000/svg">
<path d="M21.8747 4.16683H18.7497V3.12516C18.7497 2.8489 18.6399 2.58394 18.4446 2.38859C18.2492 2.19324 17.9843 2.0835 17.708 2.0835H7.29134C7.01507 2.0835 6.75012 2.19324 6.55477 2.38859C6.35942 2.58394 6.24967 2.8489 6.24967 3.12516V4.16683H3.12467C2.84841 4.16683 2.58346 4.27658 2.3881 4.47193C2.19275 4.66728 2.08301 4.93223 2.08301 5.2085V8.3335C2.08301 12.8231 3.95801 15.5314 7.10384 15.6252C7.56284 16.4189 8.19085 17.1019 8.94333 17.6257C9.69581 18.1496 10.5543 18.5015 11.458 18.6564V20.8335H9.37467V22.9168H15.6247V20.8335H13.5413V18.6564C14.445 18.5015 15.3035 18.1496 16.056 17.6257C16.8085 17.1019 17.4365 16.4189 17.8955 15.6252C21.0205 15.521 22.9163 12.8127 22.9163 8.3335V5.2085C22.9163 4.93223 22.8066 4.66728 22.6112 4.47193C22.4159 4.27658 22.1509 4.16683 21.8747 4.16683ZM4.16634 8.3335V6.25016H6.24967V13.3647C4.39551 12.5835 4.16634 9.68766 4.16634 8.3335ZM18.7497 13.3647V6.25016H20.833V8.3335C20.833 9.68766 20.6038 12.5835 18.7497 13.3647Z" fill="#A2B7D8"/>
</svg>
