<svg width="44" height="44" viewBox="0 0 44 44" fill="none" xmlns="http://www.w3.org/2000/svg">
<path fill-rule="evenodd" clip-rule="evenodd" d="M36.2481 14.8295C36.2605 15.1501 36.2646 15.4706 36.2646 15.7912C36.2646 25.5119 29.4266 36.7339 16.9222 36.7339C13.081 36.7339 9.50935 35.5097 6.5 33.4256C7.03196 33.4839 7.57221 33.5277 8.12074 33.5277C11.3056 33.5277 14.2389 32.347 16.5657 30.365C13.5909 30.3213 11.079 28.1789 10.2127 25.2642C10.6285 25.3516 11.0568 25.3955 11.4948 25.3955C12.1125 25.3955 12.7121 25.3081 13.2869 25.1332C10.1739 24.4628 7.82921 21.4899 7.82921 17.9193C7.82921 17.8756 7.82921 17.8609 7.82921 17.8318C8.74666 18.371 9.79673 18.706 10.9118 18.7497C9.08516 17.4235 7.88444 15.1647 7.88444 12.6142C7.88444 11.2735 8.21881 10.0055 8.80742 8.91245C12.1594 13.372 17.1709 16.3014 22.8207 16.6074C22.7046 16.0682 22.6452 15.5 22.6452 14.9316C22.6452 10.8655 25.6891 7.57178 29.4445 7.57178C31.3997 7.57178 33.1655 8.46091 34.4049 9.88913C35.9565 9.56851 37.4101 8.95646 38.7255 8.11118C38.2156 9.83088 37.1392 11.2734 35.7327 12.177C37.1088 12.0021 38.4215 11.6089 39.6388 11.0259C38.7255 12.4979 37.5759 13.7947 36.2481 14.8295Z" fill="#1EA1F2"/>
</svg>
