<svg width="75" height="47" viewBox="0 0 75 47" fill="none" xmlns="http://www.w3.org/2000/svg">
<path fill-rule="evenodd" clip-rule="evenodd" d="M50.4384 14.783C49.5276 14.4109 48.0831 14 46.2969 14C41.7371 14 38.5261 16.5044 38.5064 20.0849C38.4686 22.7266 40.8054 24.1938 42.5532 25.0747C44.3396 25.9747 44.9468 26.5622 44.9468 27.3645C44.9287 28.5967 43.5033 29.1646 42.1739 29.1646C40.3305 29.1646 39.3427 28.8718 37.8416 28.1863L37.2336 27.8924L36.5875 32.0211C37.6704 32.5293 39.6656 32.9802 41.7371 33C46.582 33 49.7362 30.5344 49.7735 26.7188C49.792 24.625 48.558 23.0207 45.8977 21.7097C44.2828 20.8682 43.2937 20.3007 43.2937 19.4397C43.3127 18.6569 44.1303 17.8551 45.9533 17.8551C47.4544 17.8159 48.5573 18.1875 49.3928 18.5594L49.8104 18.7547L50.4384 14.783ZM33.7001 32.7267H29.0828L31.9708 14.3342H36.5879L33.7001 32.7267ZM58.4187 21.0648C58.4187 21.0648 56.9555 25.1543 56.5752 26.2109H60.4132C60.2233 25.2913 59.3489 20.8888 59.3489 20.8888L59.0262 19.304C58.8904 19.7118 58.6941 20.2723 58.5616 20.6507L58.5613 20.6515C58.4714 20.908 58.411 21.0807 58.4187 21.0648ZM58.7033 14.3342H62.2748L65.9999 32.7264H61.7246C61.7246 32.7264 61.3062 30.6132 61.1737 29.9675H55.2454C55.0739 30.4564 54.2763 32.7264 54.2763 32.7264H49.4314L56.2899 15.8602C56.7651 14.6666 57.6019 14.3342 58.7033 14.3342ZM25.2256 14.3342L20.7037 26.8761L20.2095 24.3326C20.2096 24.3328 20.2097 24.333 20.2098 24.3333L18.5948 15.8803C18.3289 14.7056 17.5119 14.373 16.5049 14.3342H9.076L9 14.7058C10.8118 15.183 12.4322 15.8706 13.8521 16.7256L17.9676 32.7072H22.8504L30.1081 14.3342H25.2256Z" fill="#4D668F"/>
</svg>
