<svg width="75" height="47" viewBox="0 0 75 47" fill="none" xmlns="http://www.w3.org/2000/svg">
<path d="M64.9585 19.6841C64.2322 19.2294 63.1328 19.0001 61.6918 19.0001H57.918L56.5151 25.9594H51.5712L51.889 24.3805H54.8671L55.2199 22.6071L52.2436 22.611L52.5622 21.0392H55.6298L56.0379 19.0005H49.8084L48.4765 25.6018H46.1904L47.5313 19.0002H44.2748L42.943 25.6015H40.716L42.0581 19.0002H38.8034L37.3987 25.9594H32.4193L32.7341 24.3805H35.7242L36.0775 22.6172L33.0903 22.6145L33.4072 21.0395H36.5092L36.9147 19H17.5023L16.3974 24.5147L14.197 19H10.8184L9 28H12.2266L13.3272 22.3332L15.4625 28H27.0263L28.4323 21.0386H30.2408L28.8349 28H59.2617L60.1439 23.6057L61.5708 28H64.7991L63.3204 24.4093L63.6587 24.3428C64.4039 24.1969 64.985 23.8834 65.3897 23.4135C65.794 22.9392 66 22.3303 66 21.599C66 20.7475 65.6591 20.121 64.9576 19.6836L64.9585 19.6841ZM24.2185 25.9594H19.2794L19.5985 24.3805H22.6964L23.0476 22.6021H19.9795L20.275 21.0396H25.2068L24.2176 25.9594L24.2185 25.9594ZM62.2985 22.9279C61.9739 23.1353 61.5032 23.2362 60.8596 23.2362H60.2214L60.7109 20.8211H61.1803C61.7148 20.8211 62.1045 20.8993 62.3734 21.059C62.5833 21.1842 62.833 21.4319 62.833 21.9003C62.8322 22.4669 62.5418 22.7713 62.2976 22.9278L62.2985 22.9279Z" fill="#4D668F"/>
</svg>
