<svg width="75" height="47" viewBox="0 0 75 47" fill="none" xmlns="http://www.w3.org/2000/svg">
<path d="M10.8043 22.6347L8.40148 25.0362L6 22.6347L8.40148 20.2333L10.8043 22.6347ZM16.6361 16.803L20.7527 20.9196L23.1529 18.5235L16.6347 12L10.1166 18.5235L12.5181 20.925L16.6361 16.803ZM24.8694 20.2333L22.4679 22.6347L24.868 25.0362L27.2695 22.6347L24.8694 20.2333ZM16.6361 28.4665L12.5195 24.3499L10.1166 26.7487L16.6347 33.2654L23.1529 26.7487L20.7514 24.3472L16.6361 28.4665ZM16.6361 25.0362L19.0376 22.6347L16.6361 20.2333L14.2346 22.6347L16.6361 25.0362ZM32.0751 16.8016H37.4916C38.8252 16.8016 39.8756 17.1684 40.5417 17.8345C40.8041 18.0924 41.0106 18.4016 41.1482 18.7429C41.2858 19.0842 41.3515 19.4501 41.3413 19.818V19.8503C41.3413 21.1677 40.6415 21.9012 39.8081 22.3678C41.1565 22.8842 41.9912 23.6676 41.9912 25.2344V25.2654C41.9912 27.3986 40.2585 28.4652 37.6251 28.4652H32.0738L32.0751 16.8016ZM36.9415 21.521C38.0755 21.521 38.7915 21.1556 38.7915 20.2885V20.2548C38.7915 19.4889 38.1914 19.0548 37.1087 19.0548H34.5737V21.5169L36.9415 21.521ZM37.6251 26.2215C38.7591 26.2215 39.4414 25.8169 39.4414 24.9553V24.9216C39.4414 24.1382 38.8589 23.6555 37.5415 23.6555H34.5751V26.2174L37.6251 26.2215ZM44.5235 16.8057H46.8912L52.3576 23.9885V16.8016H54.8899V28.4665H52.7055L47.0557 21.0504V28.4665H44.5221L44.5235 16.8057ZM58.1058 16.8057H63.5263C64.8599 16.8057 65.9103 17.1724 66.5764 17.8385C66.8388 18.0964 67.0453 18.4057 67.1829 18.7469C67.3204 19.0882 67.3862 19.4542 67.3759 19.822V19.8544C67.3759 21.1717 66.6761 21.9053 65.8428 22.3718C67.1912 22.8882 68.0259 23.6717 68.0259 25.2385V25.2654C68.0259 27.3986 66.2932 28.4652 63.6598 28.4652H58.1044L58.1058 16.8057ZM62.9721 21.525C64.1061 21.525 64.8221 21.1596 64.8221 20.2926V20.2589C64.8221 19.493 64.2221 19.0588 63.1393 19.0588H60.6043V21.5169L62.9721 21.525ZM63.6611 26.2174C64.7951 26.2174 65.4774 25.8129 65.4774 24.9513V24.9176C65.4774 24.1341 64.8949 23.6514 63.5775 23.6514H60.6111V26.2134L63.6611 26.2174Z" fill="#4D668F"/>
<path d="M10.8043 22.6347L8.40148 25.0362L6 22.6347L8.40148 20.2333L10.8043 22.6347ZM16.6361 16.803L20.7527 20.9196L23.1529 18.5235L16.6347 12L10.1166 18.5235L12.5181 20.925L16.6361 16.803ZM24.8694 20.2333L22.4679 22.6347L24.868 25.0362L27.2695 22.6347L24.8694 20.2333ZM16.6361 28.4665L12.5195 24.3499L10.1166 26.7487L16.6347 33.2654L23.1529 26.7487L20.7514 24.3472L16.6361 28.4665ZM16.6361 25.0362L19.0376 22.6347L16.6361 20.2333L14.2346 22.6347L16.6361 25.0362Z" fill="#4D668F"/>
</svg>
