<svg width="75" height="47" viewBox="0 0 75 47" fill="none" xmlns="http://www.w3.org/2000/svg">
<g clip-path="url(#clip0_29261_205067)">
<path fill-rule="evenodd" clip-rule="evenodd" d="M33.2531 15.5245C33.2531 14.6612 32.5504 14 31.6812 14C30.812 14 30.1093 14.6612 30.1093 15.5245C30.1093 16.3878 30.812 17.049 31.6812 17.049C32.5504 17.049 33.2531 16.3878 33.2531 15.5245ZM30.4792 27.5922H32.8832V18.6838H30.4792V27.5922ZM28.0936 20.7041C28.445 20.7041 28.7963 20.7409 28.9627 20.796L29.2402 18.5735C28.9715 18.5265 28.6993 18.502 28.4265 18.5C27.3353 18.5 26.3552 18.9225 25.8189 19.5837V18.6837H23.5073V27.5921H25.9114V22.5992C25.9114 21.5523 27.0395 20.7041 28.0936 20.7041ZM39.9849 18.4998C39.0308 18.4878 38.1022 18.8063 37.359 19.4006V18.6838H35.0468V32.0001H37.4511V26.9679C38.1349 27.5044 38.9842 27.79 39.8554 27.7763C41.187 27.7763 42.4627 27.188 43.2579 26.2696C43.961 25.4613 44.3856 24.3598 44.3856 23.1473C44.3856 20.5206 42.4255 18.4998 39.9849 18.4998ZM39.6927 25.6083C38.1993 25.6083 37.2178 24.5848 37.2178 23.1551C37.2178 21.7254 38.1993 20.7018 39.6927 20.7018C40.9674 20.7018 42.0009 21.8004 42.0009 23.1551C42.0009 24.5098 40.9674 25.6083 39.6927 25.6083ZM56.5726 27.5921H58.9768V14.551H56.5726V27.5921ZM68.7782 26.1777C67.909 27.2063 66.485 27.7757 65.0981 27.7757C62.4166 27.7757 60.4008 25.939 60.4008 23.1471C60.4008 20.6674 62.1022 18.5 64.7652 18.5C67.2433 18.5 69.0002 20.5756 69.0002 23.0552C69.0015 23.2829 68.983 23.5103 68.9446 23.7349H62.7309C62.8604 24.9838 63.8775 25.8471 65.1536 25.8471C66.1706 25.8471 66.9844 25.2777 67.4097 24.8185L68.7782 26.1777ZM66.5405 21.9899C66.4665 21.2001 65.7454 20.4287 64.7652 20.4287C63.7665 20.4287 62.9529 21.1818 62.8419 21.9899H66.5405ZM48.122 19.4006C48.8653 18.8063 49.7938 18.4878 50.7479 18.4998C53.1885 18.4998 55.1486 20.5206 55.1486 23.1473C55.1486 24.3598 54.724 25.4613 54.021 26.2696C53.2258 27.188 51.9501 27.7763 50.6185 27.7763C49.7472 27.79 48.8979 27.5044 48.2142 26.9679V32.0001H45.8098V18.6838H48.122V19.4006ZM47.9808 23.1551C47.9808 24.5848 48.9623 25.6083 50.4557 25.6083C51.7304 25.6083 52.7639 24.5098 52.7639 23.155C52.7639 21.8003 51.7304 20.7018 50.4557 20.7018C48.9623 20.7018 47.9808 21.7254 47.9808 23.1551Z" fill="#4D668F"/>
<path d="M18.5512 24.3468C18.0084 24.0356 17.3971 23.9453 16.7917 23.9243C16.2837 23.9067 15.5258 23.5834 15.5258 22.6656C15.5258 21.9817 16.0839 21.4314 16.7919 21.4068C17.3973 21.3858 18.0085 21.2955 18.5512 20.9843C19.0386 20.7048 19.4434 20.3027 19.7248 19.8186C20.0063 19.3344 20.1544 18.7852 20.1544 18.2262C20.1544 17.6672 20.0063 17.118 19.7248 16.6338C19.4434 16.1497 19.0386 15.7477 18.5512 15.4682C18.0637 15.1886 17.5108 15.0415 16.9479 15.0415C16.3851 15.0415 15.8321 15.1887 15.3447 15.4682C14.8573 15.7477 14.4525 16.1498 14.1711 16.6339C13.8897 17.1181 13.7415 17.6673 13.7415 18.2263C13.7415 18.8434 13.9625 19.4112 14.2444 19.9378C14.4816 20.3808 14.6015 21.2029 13.7883 21.6693C13.1833 22.0162 12.4283 21.7965 12.0511 21.197C11.7326 20.6907 11.348 20.2163 10.8096 19.9075C10.3222 19.628 9.76928 19.4808 9.20643 19.4808C8.64359 19.4808 8.09066 19.628 7.60322 19.9075C7.11578 20.187 6.711 20.589 6.42958 21.0732C6.14816 21.5573 6 22.1065 6 22.6655C6 23.2246 6.14816 23.7738 6.42958 24.2579C6.711 24.742 7.11578 25.1441 7.60322 25.4236C8.09066 25.7031 8.64359 25.8502 9.20643 25.8502C9.76928 25.8502 10.3222 25.7031 10.8096 25.4236C11.3479 25.1149 11.7325 24.6408 12.0508 24.1348C12.3122 23.7192 12.9651 23.1896 13.7882 23.6619C14.3923 24.0086 14.579 24.7681 14.2441 25.3936C13.9623 25.9202 13.7416 26.4879 13.7416 27.1049C13.7416 27.6639 13.8897 28.2131 14.1712 28.6972C14.4526 29.1813 14.8573 29.5833 15.3448 29.8629C15.8322 30.1424 16.3851 30.2895 16.948 30.2895C17.5108 30.2895 18.0637 30.1424 18.5512 29.8629C19.0386 29.5833 19.4434 29.1813 19.7248 28.6972C20.0062 28.2131 20.1544 27.6639 20.1544 27.1049C20.1544 26.5458 20.0062 25.9966 19.7248 25.5125C19.4434 25.0284 19.0386 24.6264 18.5512 24.3468Z" fill="#4D668F"/>
</g>
<defs>
<clipPath id="clip0_29261_205067">
<rect width="63" height="18" fill="white" transform="translate(6 14)"/>
</clipPath>
</defs>
</svg>
