<svg width="75" height="47" viewBox="0 0 75 47" fill="none" xmlns="http://www.w3.org/2000/svg">
<g clip-path="url(#clip0_29261_205063)">
<path fill-rule="evenodd" clip-rule="evenodd" d="M11.9056 28.8063C15.3738 29.6746 18.886 27.5555 19.7506 24.0734C20.6151 20.591 18.5049 17.0636 15.037 16.1955C11.5698 15.3273 8.05755 17.4467 7.19339 20.9292C6.32843 24.4112 8.43886 27.9382 11.9056 28.8063ZM14.9024 19.9351C15.7992 20.2453 16.455 20.7102 16.3261 21.5751C16.2329 22.2082 15.8833 22.5147 15.4193 22.6222C16.0565 22.9553 16.3807 23.4662 16.0718 24.3518C15.6885 25.4517 14.7778 25.5445 13.5668 25.3144L13.2728 26.4971L12.5626 26.3194L12.8527 25.1525C12.6686 25.1066 12.4805 25.0578 12.2867 25.005L11.9956 26.1774L11.2862 25.9997L11.5801 24.8147C11.5138 24.7976 11.4471 24.7802 11.3799 24.7626C11.279 24.7361 11.177 24.7094 11.0738 24.6835L10.1496 24.4521L10.5022 23.6358C10.5022 23.6358 11.0255 23.7755 11.0184 23.7651C11.2195 23.8151 11.3087 23.6835 11.3439 23.5957L11.8083 21.726C11.8257 21.7302 11.8428 21.7345 11.8593 21.7387C11.8674 21.7407 11.8755 21.7427 11.8833 21.7447C11.855 21.7333 11.8293 21.726 11.8095 21.7209L12.1409 20.3862C12.1496 20.2347 12.0976 20.0436 11.8099 19.9714C11.821 19.9639 11.2941 19.8427 11.2941 19.8427L11.483 19.081L12.4625 19.3265L12.4617 19.3302C12.6089 19.367 12.7607 19.4019 12.9152 19.4372L13.2063 18.266L13.9161 18.4438L13.6309 19.592C13.8214 19.6357 14.0132 19.6798 14.1999 19.7265L14.4831 18.5857L15.1933 18.7635L14.9024 19.9351ZM12.656 24.1829C13.2355 24.3366 14.502 24.6725 14.7034 23.86C14.9097 23.0292 13.6814 22.7525 13.082 22.6174C13.015 22.6023 12.9559 22.589 12.9075 22.5769L12.5175 24.1468C12.5572 24.1567 12.6038 24.1691 12.656 24.1829ZM13.2024 21.8889C13.6856 22.0183 14.7395 22.3008 14.9231 21.5623C15.1105 20.8069 14.0862 20.5793 13.586 20.4681C13.5297 20.4555 13.4801 20.4445 13.4395 20.4344L13.0859 21.8582C13.1193 21.8666 13.1585 21.8771 13.2024 21.8889Z" fill="#4D668F"/>
<path fill-rule="evenodd" clip-rule="evenodd" d="M25.9689 19.9333C26.4938 19.9333 26.9473 20.0277 27.3284 20.2132C27.7114 20.4004 28.0273 20.6527 28.2808 20.97C28.5308 21.2889 28.7169 21.6616 28.8371 22.0888C28.9564 22.5172 29.0163 22.9776 29.0163 23.4706C29.0163 24.2279 28.8781 24.9433 28.5992 25.6176C28.3202 26.293 27.9418 26.8788 27.4603 27.3785C26.9793 27.8776 26.4113 28.271 25.7563 28.5617C25.1023 28.8525 24.3913 28.998 23.6279 28.998C23.5292 28.998 23.3556 28.9951 23.1104 28.9901C22.8653 28.985 22.5835 28.9596 22.2679 28.9167C21.9503 28.8722 21.6145 28.8064 21.2599 28.7183C20.9055 28.6317 20.5689 28.5105 20.252 28.3565L23.0864 16.3975L25.625 16.0024L24.6102 20.2463C24.8274 20.148 25.0463 20.0718 25.2647 20.0163C25.4834 19.9617 25.7181 19.9333 25.9689 19.9333ZM23.8395 26.9757C24.2218 26.9757 24.582 26.8812 24.9205 26.6958C25.2599 26.5101 25.5528 26.2595 25.7982 25.9473C26.0435 25.6337 26.2377 25.2804 26.3793 24.8858C26.5209 24.4911 26.5925 24.0794 26.5925 23.651C26.5925 23.1247 26.5049 22.7142 26.3304 22.4174C26.1558 22.1219 25.8328 21.9732 25.3637 21.9732C25.2099 21.9732 25.0119 22.0027 24.7663 22.0553C24.5199 22.1111 24.2994 22.2271 24.1018 22.4016L23.0212 26.9085C23.0864 26.92 23.144 26.931 23.1932 26.9414C23.2413 26.9525 23.2945 26.9605 23.3475 26.9659C23.4035 26.9722 23.4677 26.9755 23.5451 26.9755L23.8395 26.9757ZM31.649 28.7691H29.2242L31.272 20.1167H33.7133L31.649 28.7691ZM32.8289 19.0625C32.4905 19.0625 32.1837 18.9613 31.9114 18.7586C31.6369 18.5571 31.5009 18.247 31.5009 17.8289C31.5009 17.599 31.5475 17.3833 31.6397 17.1798C31.7334 16.9766 31.8558 16.8017 32.0091 16.6531C32.1622 16.5056 32.3396 16.3878 32.5411 16.299C32.7438 16.2117 32.9594 16.168 33.1892 16.168C33.5274 16.168 33.8327 16.2692 34.106 16.4719C34.3782 16.6756 34.5152 16.9858 34.5152 17.4016C34.5152 17.6323 34.4689 17.8488 34.3758 18.052C34.2834 18.2551 34.161 18.43 34.0077 18.5787C33.8557 18.7263 33.6767 18.8437 33.4756 18.9317C33.2728 19.0204 33.0579 19.0625 32.8289 19.0625ZM38.3781 17.5661L35.8384 17.9612L34.2321 24.7712C34.1012 25.3306 34.0253 25.8618 34.0029 26.3671C33.9812 26.8713 34.0587 27.3188 34.2321 27.7069C34.4079 28.0965 34.7016 28.4043 35.1171 28.6295C35.5332 28.8532 36.1172 28.9655 36.8705 28.9655C37.3944 28.9655 37.8477 28.9228 38.2306 28.8343C38.6129 28.7469 38.9677 28.6431 39.2954 28.5225L39.1146 26.6464C38.8634 26.7352 38.6152 26.803 38.3702 26.8518C38.1238 26.9014 37.8689 26.9263 37.6074 26.9263C37.2898 26.9263 37.0477 26.8819 36.8786 26.7935C36.7086 26.7066 36.5915 26.5837 36.5264 26.4242C36.4608 26.2652 36.4331 26.0763 36.4451 25.8563C36.4556 25.6373 36.4932 25.4017 36.5595 25.1494L37.2797 22.1229H39.9832L40.4744 20.1165H37.7544L38.3781 17.5661ZM40.3673 25.3142C40.3673 24.569 40.4875 23.8662 40.7276 23.2082C40.9673 22.5497 41.3126 21.9739 41.7606 21.4797C42.2071 20.9879 42.751 20.5983 43.3912 20.3123C44.0284 20.028 44.7419 19.8846 45.5282 19.8846C46.0203 19.8846 46.4599 19.9313 46.8467 20.0249C47.235 20.1194 47.5864 20.2415 47.9042 20.3946L47.068 22.3039C46.8495 22.215 46.6227 22.1366 46.3883 22.0655C46.1536 21.993 45.8672 21.958 45.5284 21.958C44.719 21.958 44.0792 22.2381 43.603 22.7965C43.1287 23.3553 42.8898 24.1075 42.8898 25.051C42.8898 25.6102 43.0099 26.0623 43.2511 26.4082C43.491 26.7541 43.9342 26.9262 44.5776 26.9262C44.8952 26.9262 45.2017 26.8929 45.4952 26.8279C45.7909 26.7621 46.0521 26.6792 46.2821 26.5813L46.4631 28.5386C46.1565 28.658 45.8182 28.7659 45.4473 28.8603C45.0755 28.9515 44.6329 28.9988 44.1197 28.9988C43.4422 28.9988 42.8687 28.8993 42.3996 28.7033C41.9303 28.5042 41.5426 28.24 41.2371 27.9052C40.9301 27.5697 40.7096 27.1779 40.5732 26.7281C40.4369 26.2788 40.3673 25.8068 40.3673 25.3142ZM49.6311 28.735C50.0575 28.9103 50.5602 28.9988 51.1389 28.9988C51.9363 28.9988 52.6387 28.8311 53.2443 28.4967C53.8507 28.1624 54.3556 27.732 54.7594 27.2061C55.164 26.679 55.4704 26.0859 55.677 25.43C55.8833 24.7709 55.9873 24.1119 55.9873 23.4548C55.9873 22.929 55.9169 22.4482 55.7743 22.0159C55.6327 21.5821 55.4221 21.2077 55.145 20.8888C54.8648 20.5715 54.5104 20.3235 54.0801 20.1486C53.6478 19.9733 53.1478 19.8846 52.5796 19.8846C51.8052 19.8846 51.1159 20.0523 50.5165 20.3859C49.9165 20.7216 49.407 21.1522 48.9939 21.6789C48.5776 22.2048 48.2631 22.7965 48.0511 23.455C47.8381 24.1121 47.7327 24.7711 47.7327 25.4302C47.7327 25.9557 47.8014 26.4352 47.9445 26.8683C48.0875 27.3016 48.2962 27.6775 48.5752 27.9948C48.8537 28.3137 49.2059 28.5597 49.6311 28.735ZM51.4015 22.27C51.6736 22.063 51.9914 21.9582 52.3508 21.9582C52.8094 21.9582 53.1266 22.1122 53.3013 22.4183C53.4763 22.7256 53.5641 23.1542 53.5641 23.7018C53.5641 24.0415 53.5174 24.4016 53.4257 24.7792C53.3321 25.1578 53.1923 25.5066 53.0066 25.8238C52.8203 26.1419 52.5907 26.4054 52.3193 26.6132C52.0456 26.8224 51.7294 26.9264 51.3687 26.9264C50.9097 26.9264 50.594 26.7724 50.4182 26.4663C50.2448 26.1586 50.1566 25.731 50.1566 25.182C50.1566 24.8418 50.2021 24.4836 50.295 24.1048C50.3887 23.7268 50.5272 23.3791 50.7141 23.0602C50.899 22.7427 51.1284 22.4794 51.4015 22.27ZM58.6295 28.7691H56.2027L58.2505 20.1167H60.693L58.6295 28.7691ZM59.8076 19.0625C59.4694 19.0625 59.1628 18.9613 58.8909 18.7586C58.6178 18.5571 58.4807 18.247 58.4807 17.8289C58.4807 17.599 58.5278 17.3833 58.6202 17.1798C58.7127 16.9766 58.8359 16.8017 58.9892 16.6531C59.1415 16.5056 59.3205 16.3878 59.5216 16.299C59.7231 16.2117 59.9387 16.168 60.1677 16.168C60.5067 16.168 60.813 16.2692 61.0857 16.4719C61.3585 16.6756 61.4963 16.9858 61.4963 17.4016C61.4963 17.6323 61.4474 17.8488 61.3557 18.052C61.2641 18.2551 61.1409 18.43 60.9882 18.5787C60.8344 18.7263 60.6576 18.8437 60.4562 18.9317C60.2531 19.0204 60.0378 19.0625 59.8076 19.0625ZM63.0535 20.3206C62.8301 20.3913 62.6246 20.4563 62.4406 20.5103L60.4572 28.7682H62.899L64.4884 22.0735C64.8167 22.0077 65.1383 21.9736 65.4545 21.9736C65.7824 21.9736 66.0241 22.0367 66.1841 22.1625C66.3417 22.2902 66.4432 22.4552 66.4863 22.6567C66.5314 22.8606 66.5337 23.0962 66.495 23.3635C66.4568 23.6333 66.405 23.9093 66.3391 24.1949L65.258 28.7684H67.6988L68.8142 24.0966C69.1298 22.8031 69.0456 21.7826 68.5593 21.037C68.0726 20.2913 67.1911 19.9174 65.9122 19.9174C65.4771 19.9174 65.0855 19.9365 64.7418 19.9757C64.3981 20.014 64.0856 20.0636 63.8087 20.1248C63.5287 20.1841 63.2781 20.2499 63.0538 20.3206L63.0535 20.3206Z" fill="#4D668F"/>
</g>
<defs>
<clipPath id="clip0_29261_205063">
<rect width="62" height="13" fill="white" transform="translate(7 16)"/>
</clipPath>
</defs>
</svg>
