<svg width="75" height="47" viewBox="0 0 75 47" fill="none" xmlns="http://www.w3.org/2000/svg">
<mask id="mask0_29264_205201" style="mask-type:luminance" maskUnits="userSpaceOnUse" x="2" y="18" width="72" height="10">
<path d="M73.1111 18H2V28H73.1111V18Z" fill="white"/>
</mask>
<g mask="url(#mask0_29264_205201)">
<path fill-rule="evenodd" clip-rule="evenodd" d="M22.448 19.233C22.448 19.5753 22.3426 19.8464 22.1224 20.0463C21.91 20.2462 21.6534 20.3432 21.3604 20.3432C21.079 20.3471 20.8072 20.2422 20.5984 20.0463C20.386 19.8464 20.273 19.5812 20.273 19.233C20.273 18.8906 20.3783 18.6194 20.5984 18.4196C20.8072 18.2257 21.079 18.1188 21.3604 18.1227C21.6419 18.1188 21.9137 18.2237 22.1224 18.4196C22.3407 18.6194 22.448 18.8906 22.448 19.233ZM22.2737 27.7606H20.4625V21.1427H22.2737V27.7606ZM15.8906 27.8692C15.4292 27.8692 14.9659 27.8553 14.5102 27.8237C14.0296 27.79 13.5511 27.7208 13.0801 27.6179V19.1674C13.4667 19.0902 13.8976 19.0388 14.3609 18.9992C14.8223 18.9597 15.2531 18.9419 15.6532 18.9419C16.1912 18.9419 16.6833 18.9814 17.1332 19.0646C17.5832 19.1417 17.9699 19.2782 18.2954 19.4702C18.6209 19.6642 18.8755 19.9156 19.0574 20.2321C19.2392 20.5488 19.3331 20.9367 19.3331 21.3939C19.3331 22.0904 19.0075 22.6387 18.3585 23.0404C18.8965 23.2462 19.2584 23.5371 19.4517 23.8933C19.6451 24.2556 19.7446 24.6612 19.7446 25.1124C19.7446 26.0287 19.4192 26.7134 18.776 27.1726C18.1211 27.6436 17.1676 27.8692 15.8906 27.8692ZM14.9295 22.4664H15.8543C16.4421 22.4664 16.8536 22.3893 17.1102 22.2349C17.3591 22.0806 17.4855 21.8292 17.4855 21.4869C17.4855 21.1327 17.3553 20.8872 17.0987 20.7448C16.8364 20.6022 16.4554 20.531 15.9557 20.531C15.793 20.531 15.6187 20.531 15.4312 20.5369C15.2435 20.5429 15.0807 20.5508 14.9314 20.5686L14.9295 22.4664ZM14.9295 23.9646V26.2168C15.0674 26.2366 15.2167 26.2484 15.3794 26.2563C15.5422 26.2642 15.7222 26.2701 15.9174 26.2701C16.4861 26.2701 16.9417 26.187 17.2921 26.0188C17.6425 25.8506 17.8167 25.5419 17.8167 25.0887C17.8167 24.6889 17.6731 24.398 17.3802 24.2298C17.0873 24.0557 16.668 23.9726 16.1242 23.9726H14.9314V23.9646H14.9295ZM25.0595 19.1936L23.2484 19.4963H23.2407V25.0613C23.2387 25.4532 23.279 25.8451 23.3594 26.229C23.4341 26.5773 23.572 26.8801 23.7653 27.1256C23.9586 27.3788 24.221 27.5728 24.5464 27.7073C24.872 27.8419 25.2835 27.9131 25.7775 27.9131C26.17 27.9131 26.4955 27.8756 26.7635 27.8102C27.0124 27.7509 27.2575 27.6698 27.4949 27.5708L27.2383 26.1122C27.0526 26.1796 26.8631 26.231 26.6697 26.2666C26.4725 26.3042 26.2715 26.322 26.0704 26.324C25.6645 26.324 25.3889 26.2013 25.2586 25.9698C25.1285 25.7382 25.0595 25.4216 25.0595 25.0278V22.7043H27.2383V21.1429H25.0595V19.1936ZM27.4967 24.4539C27.4929 23.9947 27.5694 23.5376 27.7207 23.1041C27.8624 22.6944 28.0825 22.3184 28.3697 21.9999C28.6512 21.6832 28.9996 21.4378 29.4055 21.2518C29.8114 21.0638 30.2729 20.9747 30.7916 20.9747C31.1344 20.9747 31.4464 21.0063 31.7279 21.0717C32.0113 21.135 32.287 21.226 32.5531 21.3428L32.1779 22.8409C31.9941 22.7717 31.8064 22.7123 31.615 22.6668C31.391 22.6133 31.1631 22.5877 30.9334 22.5896C30.3954 22.5896 29.9971 22.7638 29.7349 23.1061C29.4725 23.4484 29.3423 23.8997 29.3423 24.4618C29.3423 25.0554 29.4667 25.5206 29.71 25.8431C29.9589 26.1717 30.3915 26.3339 31.0023 26.3339C31.2396 26.3339 31.4752 26.3121 31.7087 26.2686C31.9462 26.231 32.1797 26.1637 32.4019 26.0687L32.6584 27.6044C32.4019 27.7113 32.1376 27.7904 31.8657 27.8439C31.5192 27.9132 31.1689 27.9488 30.8165 27.9468C30.2287 27.9468 29.7291 27.8558 29.306 27.6757C28.881 27.4956 28.5382 27.2502 28.2625 26.9394C27.9869 26.6288 27.7934 26.2627 27.669 25.8411C27.5542 25.3879 27.4967 24.9229 27.4967 24.4539ZM38.6797 25.8689C38.8233 25.4354 38.898 24.9644 38.898 24.442C38.898 23.9196 38.8175 23.4484 38.6721 23.021C38.5323 22.6153 38.3121 22.2452 38.0287 21.9306C37.7531 21.6258 37.4219 21.3942 37.0351 21.226C36.6483 21.0579 36.2233 20.9747 35.7619 20.9747C35.3062 20.9747 34.887 21.0579 34.5002 21.226C34.123 21.3863 33.7842 21.6278 33.5007 21.9306C33.2213 22.2274 33.003 22.5956 32.846 23.021C32.689 23.4484 32.6086 23.9196 32.6086 24.442C32.6086 24.9584 32.6833 25.4354 32.8403 25.8689C32.9896 26.2963 33.2079 26.6703 33.4835 26.9731C33.7631 27.2799 34.1001 27.5233 34.4772 27.6836C34.864 27.8518 35.2947 27.9349 35.7639 27.9349C36.2386 27.9349 36.6675 27.8518 37.0562 27.6836C37.4314 27.5213 37.7703 27.2799 38.0499 26.9731C38.3236 26.6683 38.5361 26.3022 38.6797 25.8689ZM36.7134 23.0804C36.9374 23.4089 37.0504 23.8601 37.0504 24.442C37.0504 25.0159 36.9374 25.475 36.7134 25.8173C36.4894 26.1598 36.1697 26.328 35.7581 26.328C35.3464 26.328 35.021 26.1598 34.797 25.8173C34.5672 25.481 34.4542 25.0238 34.4542 24.442C34.4542 23.868 34.573 23.4089 34.797 23.0804C35.021 22.7519 35.3464 22.5837 35.7581 22.5837C36.1697 22.5837 36.4894 22.7519 36.7134 23.0804ZM41.6111 19.233C41.6111 19.5753 41.5057 19.8464 41.2856 20.0463C41.0731 20.2462 40.8165 20.3432 40.5236 20.3432C40.2422 20.3471 39.9703 20.2422 39.7616 20.0463C39.5491 19.8464 39.4361 19.5812 39.4361 19.233C39.4361 18.8906 39.5414 18.6194 39.7616 18.4196C39.9703 18.2257 40.2422 18.1188 40.5236 18.1227C40.8051 18.1188 41.0769 18.2237 41.2856 18.4196C41.5039 18.6194 41.6111 18.8906 41.6111 19.233ZM41.4426 27.7606H39.6314V21.1427H41.4426V27.7606ZM43.6655 21.111C43.1792 21.1881 42.7791 21.2772 42.4727 21.3682L42.4726 27.7546H44.2839V22.6487C44.386 22.6304 44.5057 22.619 44.636 22.6064C44.6474 22.6054 44.659 22.6043 44.6706 22.6031C44.8142 22.5893 44.9521 22.5833 45.0823 22.5833C45.4996 22.5833 45.7869 22.7061 45.9439 22.9574C46.1009 23.2088 46.1755 23.6342 46.1755 24.2418V27.7546H47.9866V24.0162C47.9866 23.565 47.9445 23.1513 47.8565 22.7832C47.7684 22.4151 47.6191 22.0986 47.4065 21.8273C47.1997 21.5622 46.9126 21.3563 46.5507 21.208C46.1889 21.0596 45.739 20.9883 45.1952 20.9883C44.6821 20.9883 44.171 21.0299 43.6655 21.111Z" fill="#4D668F"/>
<path fill-rule="evenodd" clip-rule="evenodd" d="M67.5976 18.3028V27.7546H69.4087V22.7259C69.5108 22.6901 69.6223 22.6657 69.7489 22.6379C69.7623 22.635 69.7759 22.632 69.7897 22.6289C69.939 22.5972 70.0922 22.5814 70.2453 22.5834C70.6456 22.5834 70.927 22.7061 71.0763 22.9574C71.2257 23.2088 71.3003 23.6342 71.3003 24.2419V27.7566H73.1114V24.0182C73.1114 23.567 73.0751 23.1533 72.987 22.7852C72.9009 22.4172 72.7573 22.1006 72.5506 21.8294C72.3438 21.5642 72.068 21.3584 71.7253 21.21C71.3827 21.0616 70.9519 20.9903 70.433 20.9903C70.2472 20.9903 70.0597 21.0101 69.8778 21.0477C69.7189 21.0793 69.5619 21.1209 69.4087 21.1704V18L67.5976 18.3028ZM49.8054 26.7531C50.5234 27.5408 51.565 27.9346 52.9397 27.9346C53.5772 27.9346 54.1439 27.8692 54.6398 27.7347C55.1261 27.6001 55.5013 27.4517 55.7693 27.2834L55.2448 25.7082C55.2007 25.728 55.1533 25.7503 55.1031 25.7741C55.0379 25.8049 54.968 25.838 54.8944 25.8704C54.7489 25.9338 54.5977 25.9852 54.4444 26.0248C54.2511 26.0802 54.0558 26.1198 53.8567 26.1476C53.6098 26.1831 53.3628 26.199 53.1139 26.199C52.6773 26.199 52.3021 26.1277 51.9958 25.9793C51.7028 25.8447 51.4462 25.6389 51.2471 25.3797C51.0596 25.1283 50.9236 24.8314 50.8356 24.4831C50.7513 24.115 50.7091 23.7371 50.7111 23.3591C50.7111 22.8564 50.7742 22.4289 50.9044 22.0747C51.0366 21.7263 51.2108 21.4354 51.4233 21.2158C51.6339 21.0001 51.8867 20.8339 52.1661 20.7309C52.4419 20.634 52.731 20.5824 53.022 20.5824C53.4584 20.5824 53.8529 20.628 54.1956 20.7309C54.5096 20.818 54.8121 20.9388 55.1012 21.0931L55.6507 19.5119C55.5818 19.4722 55.4764 19.4149 55.3329 19.3377C55.1548 19.2507 54.971 19.1774 54.7833 19.118C54.5326 19.0369 54.276 18.9736 54.0157 18.93C53.7227 18.8727 53.3972 18.8469 53.0411 18.8469C52.4227 18.8469 51.8483 18.9498 51.3238 19.1497C50.8144 19.3397 50.3492 19.6424 49.9624 20.0343C49.5814 20.4222 49.2809 20.8991 49.0627 21.4671C48.8443 22.0351 48.7314 22.6743 48.7314 23.3967C48.7314 24.8492 49.0876 25.9654 49.8054 26.7531ZM59.9469 21.1568C59.5908 21.0341 59.1486 20.9688 58.6106 20.9688C58.4643 20.9688 58.3181 20.9753 58.1693 20.982C58.1019 20.985 58.034 20.988 57.9653 20.9906C57.9122 20.9971 57.86 21.0033 57.8086 21.0094C57.6596 21.0272 57.517 21.0442 57.3776 21.0677C57.1899 21.0993 57.0157 21.131 56.8587 21.1706C56.7037 21.2082 56.5716 21.2478 56.4662 21.2794L56.6979 22.7894C56.9161 22.7043 57.1784 22.641 57.479 22.5956C57.7816 22.548 58.086 22.5242 58.3903 22.5242C58.8537 22.5242 59.1772 22.6212 59.3649 22.8152C59.5526 23.0091 59.6463 23.2664 59.6463 23.583V23.7572C59.5333 23.7196 59.384 23.6939 59.2021 23.6741C59.0222 23.6562 58.8154 23.6424 58.578 23.6424C58.2391 23.6424 57.9002 23.678 57.5671 23.7512C57.2436 23.8226 56.9544 23.9373 56.7056 24.0996C56.4548 24.2559 56.248 24.4756 56.1063 24.7388C55.957 25.0099 55.8823 25.3324 55.8823 25.7203C55.8823 26.1261 55.9454 26.4626 56.0757 26.7396C56.2039 27.0107 56.3973 27.2402 56.6386 27.4104C56.8817 27.5787 57.1689 27.7013 57.5059 27.7786C57.8428 27.8558 58.2181 27.8953 58.6297 27.8953C59.2844 27.8953 59.8473 27.8498 60.3088 27.7727C60.7702 27.6954 61.1263 27.6242 61.3886 27.5668V23.6681C61.3886 23.2624 61.3464 22.8884 61.2584 22.552C61.1761 22.2333 61.021 21.9404 60.8028 21.699C60.5902 21.4596 60.303 21.2794 59.9469 21.1568ZM59.2653 26.4348C59.1046 26.4428 58.936 26.4487 58.7541 26.4487C58.4229 26.4487 58.1607 26.3972 57.9672 26.2726C57.7739 26.1617 57.6801 25.9559 57.6801 25.665C57.6781 25.5323 57.7126 25.4038 57.7797 25.2909C57.8467 25.188 57.9386 25.1049 58.0477 25.0514C58.1587 24.9861 58.2908 24.9486 58.4401 24.9288C58.599 24.909 58.7599 24.8991 58.9207 24.8971C59.0548 24.8971 59.1888 24.905 59.3209 24.9229L59.3926 24.9322C59.5053 24.9469 59.59 24.9578 59.6521 24.9743V26.3952C59.5238 26.419 59.3956 26.4328 59.2653 26.4348ZM64.205 26.417C64.5362 26.417 64.7736 26.3853 64.9114 26.3141C65.0492 26.2488 65.1182 26.1142 65.1182 25.9262C65.1182 25.7778 65.0301 25.6412 64.8501 25.5323C64.6683 25.4157 64.4002 25.2929 64.0327 25.1524C63.7512 25.0436 63.4889 24.9328 63.2591 24.81C63.0274 24.6932 62.8283 24.5528 62.6713 24.3904C62.5068 24.2242 62.3803 24.0243 62.2961 23.8027C62.208 23.5771 62.1659 23.306 62.1659 22.9834C62.1659 22.364 62.3899 21.8731 62.8341 21.511C63.2783 21.1489 63.889 20.9688 64.6702 20.9688C65.0454 20.9688 65.4188 21.0063 65.7883 21.0776C66.1444 21.1489 66.4316 21.226 66.6383 21.3091L66.3206 22.7677C66.0947 22.6866 65.8668 22.6192 65.6332 22.5678C65.3594 22.5064 65.0818 22.4748 64.8023 22.4768C64.2337 22.4768 63.9522 22.639 63.9522 22.9676C63.9503 23.0368 63.9637 23.1041 63.9906 23.1674C64.0231 23.2348 64.0729 23.2941 64.1341 23.3357C64.2299 23.403 64.3294 23.4603 64.4347 23.5098C64.5898 23.589 64.7506 23.6562 64.9152 23.7157C65.3154 23.87 65.639 24.0184 65.9012 24.1669C66.1636 24.3152 66.3627 24.4776 66.5139 24.6438C66.6576 24.808 66.7667 25 66.8318 25.2118C66.8949 25.4176 66.9256 25.663 66.9256 25.942C66.9256 26.5931 66.6881 27.0919 66.2133 27.4203C65.7386 27.7568 65.0703 27.923 64.203 27.923C63.6344 27.923 63.1596 27.8716 62.7862 27.7746C62.411 27.6717 62.1487 27.5866 61.9993 27.5232L62.3057 25.9994C62.6139 26.1241 62.9318 26.223 63.2553 26.2962C63.5654 26.3774 63.8852 26.417 64.205 26.417Z" fill="#4D668F"/>
<path fill-rule="evenodd" clip-rule="evenodd" d="M11.5538 23.0758C11.5538 25.8028 9.415 28.0135 6.77687 28.0135C4.13868 28.0135 2 25.8028 2 23.0758C2 20.3488 4.13868 18.1382 6.77687 18.1382C9.415 18.1382 11.5538 20.3488 11.5538 23.0758ZM6.79991 20.8596C7.47389 20.7448 8.02333 20.8615 8.26267 21.4236C8.42156 21.8709 8.29133 22.2113 8.03678 22.4507C8.45222 22.4943 8.95 22.8822 9.02278 23.3532C9.13756 24.1369 8.58233 24.6474 7.79744 24.8453L8.01567 25.7201L7.50444 25.8566L7.28622 24.978C7.15222 25.0135 7.01822 25.0492 6.87649 25.0829L7.09478 25.9655L6.58548 26.102L6.3653 25.2253C6.24468 25.255 5.33526 25.4964 5.33526 25.4964L5.27973 24.8394C5.27973 24.8394 5.65882 24.7444 5.65117 24.7404C5.79476 24.7028 5.80624 24.5841 5.79859 24.5149L5.20507 22.14C5.1572 22.0391 5.05955 21.9322 4.85279 21.9876C4.85661 21.9777 4.48136 22.0866 4.48136 22.0866L4.33968 21.5225C4.33968 21.5225 5.25868 21.2772 5.36781 21.2455L5.15146 20.3786L5.66265 20.2422L5.87709 21.1011C5.9588 21.0772 6.04121 21.057 6.12307 21.037C6.17738 21.0236 6.23143 21.0103 6.28489 20.9962L6.07237 20.1313L6.58357 19.9947L6.79991 20.8596ZM6.90609 24.4137C7.33944 24.3221 8.10522 24.1601 8.01756 23.4897C7.86411 22.875 6.98291 23.133 6.55446 23.2584C6.50702 23.2723 6.46513 23.2845 6.4304 23.2937L6.73098 24.4535C6.77807 24.4409 6.83797 24.4282 6.90609 24.4137ZM6.45808 22.7276C6.82227 22.6506 7.48278 22.5111 7.38956 21.9124C7.19722 21.3491 6.52299 21.559 6.16779 21.6695C6.11998 21.6844 6.07794 21.6974 6.04366 21.7066L6.31743 22.7594C6.35523 22.7494 6.4033 22.7392 6.45808 22.7276Z" fill="#4D668F"/>
</g>
</svg>
