<svg width="75" height="47" viewBox="0 0 75 47" fill="none" xmlns="http://www.w3.org/2000/svg">
<path d="M26.3492 37.9417V36.1337C26.3492 35.442 25.9288 34.9891 25.2073 34.9891C24.8465 34.9891 24.4542 35.1085 24.1844 35.5017C23.9743 35.1717 23.673 34.9891 23.2212 34.9891C22.9199 34.9891 22.6187 35.0804 22.3805 35.4104V35.0488H21.75V37.9417H22.3805V36.3443C22.3805 35.8317 22.6502 35.5895 23.0706 35.5895C23.4909 35.5895 23.7011 35.8598 23.7011 36.3443V37.9417H24.3316V36.3443C24.3316 35.8317 24.6328 35.5895 25.0216 35.5895C25.442 35.5895 25.6521 35.8598 25.6521 36.3443V37.9417H26.3492ZM35.7017 35.0488H34.6788V34.1746H34.0483V35.0488H33.4774V35.6211H34.0483V36.9482C34.0483 37.6117 34.3181 38.0014 35.0396 38.0014C35.3093 38.0014 35.6106 37.9101 35.8208 37.7908L35.6386 37.2466C35.4565 37.3659 35.2463 37.3975 35.0957 37.3975C34.7944 37.3975 34.6753 37.215 34.6753 36.9166V35.6211H35.6982V35.0488H35.7017ZM41.0539 34.9856C40.6932 34.9856 40.4515 35.1682 40.3008 35.4069V35.0453H39.6703V37.9382H40.3008V36.3092C40.3008 35.8282 40.511 35.5544 40.9033 35.5544C41.0224 35.5544 41.173 35.586 41.2956 35.6141L41.4778 35.0102C41.3517 34.9856 41.173 34.9856 41.0539 34.9856ZM32.966 35.2876C32.6647 35.0769 32.2444 34.9856 31.7925 34.9856C31.071 34.9856 30.5911 35.3472 30.5911 35.9195C30.5911 36.4005 30.9519 36.6743 31.5824 36.7621L31.8836 36.7937C32.2129 36.8534 32.395 36.9447 32.395 37.0956C32.395 37.3063 32.1533 37.4572 31.733 37.4572C31.3126 37.4572 30.9799 37.3063 30.7697 37.1553L30.4685 37.6363C30.7977 37.8785 31.2496 37.9979 31.7015 37.9979C32.5421 37.9979 33.0255 37.6047 33.0255 37.064C33.0255 36.5514 32.6332 36.2811 32.0342 36.1898L31.733 36.1582C31.4633 36.1266 31.2531 36.0669 31.2531 35.8879C31.2531 35.6773 31.4633 35.5579 31.796 35.5579C32.1568 35.5579 32.5176 35.7088 32.6998 35.8001L32.966 35.2876ZM49.7409 34.9856C49.3801 34.9856 49.1384 35.1682 48.9878 35.4069V35.0453H48.3573V37.9382H48.9878V36.3092C48.9878 35.8282 49.198 35.5544 49.5903 35.5544C49.7094 35.5544 49.86 35.586 49.9826 35.6141L50.1647 35.0172C50.0421 34.9856 49.8635 34.9856 49.7409 34.9856ZM41.6844 36.4953C41.6844 37.3695 42.2869 38.0014 43.2187 38.0014C43.639 38.0014 43.9403 37.9101 44.2415 37.6714L43.9402 37.1588C43.6986 37.3414 43.4604 37.4291 43.1871 37.4291C42.6757 37.4291 42.315 37.0675 42.315 36.4953C42.315 35.9511 42.6757 35.5895 43.1871 35.5614C43.4569 35.5614 43.6986 35.6527 43.9402 35.8317L44.2415 35.3191C43.9403 35.0769 43.639 34.9891 43.2187 34.9891C42.2869 34.9856 41.6844 35.6211 41.6844 36.4953ZM47.5166 36.4953V35.0488H46.8861V35.4104C46.6759 35.1401 46.3747 34.9891 45.9824 34.9891C45.1697 34.9891 44.5392 35.6211 44.5392 36.4953C44.5392 37.3695 45.1697 38.0014 45.9824 38.0014C46.4027 38.0014 46.704 37.8504 46.8861 37.5801V37.9417H47.5166V36.4953ZM45.2013 36.4953C45.2013 35.9827 45.5305 35.5614 46.0735 35.5614C46.5849 35.5614 46.9457 35.9546 46.9457 36.4953C46.9457 37.0078 46.5849 37.4291 46.0735 37.4291C45.534 37.3975 45.2013 37.0043 45.2013 36.4953ZM37.6562 34.9856C36.8156 34.9856 36.2131 35.5895 36.2131 36.4918C36.2131 37.3975 36.8156 37.9979 37.6877 37.9979C38.1081 37.9979 38.5284 37.8785 38.8612 37.6047L38.5599 37.1518C38.3183 37.3343 38.017 37.4537 37.7193 37.4537C37.327 37.4537 36.9381 37.2712 36.8471 36.7621H38.9803C38.9803 36.6708 38.9803 36.6111 38.9803 36.5198C39.0083 35.5895 38.4654 34.9856 37.6562 34.9856ZM37.6562 35.5298C38.0485 35.5298 38.3183 35.772 38.3778 36.2214H36.8751C36.9346 35.8317 37.2044 35.5298 37.6562 35.5298ZM53.3208 36.4953V33.9043H52.6902V35.4104C52.4801 35.1401 52.1788 34.9891 51.7865 34.9891C50.9739 34.9891 50.3434 35.6211 50.3434 36.4953C50.3434 37.3695 50.9739 38.0014 51.7865 38.0014C52.2069 38.0014 52.5081 37.8504 52.6902 37.5801V37.9417H53.3208V36.4953ZM51.0054 36.4953C51.0054 35.9827 51.3347 35.5614 51.8776 35.5614C52.389 35.5614 52.7498 35.9546 52.7498 36.4953C52.7498 37.0078 52.389 37.4291 51.8776 37.4291C51.3347 37.3975 51.0054 37.0043 51.0054 36.4953ZM29.8975 36.4953V35.0488H29.267V35.4104C29.0568 35.1401 28.7556 34.9891 28.3633 34.9891C27.5506 34.9891 26.9201 35.6211 26.9201 36.4953C26.9201 37.3695 27.5506 38.0014 28.3633 38.0014C28.7836 38.0014 29.0849 37.8504 29.267 37.5801V37.9417H29.8975V36.4953ZM27.5541 36.4953C27.5541 35.9827 27.8834 35.5614 28.4263 35.5614C28.9377 35.5614 29.2985 35.9546 29.2985 36.4953C29.2985 37.0078 28.9377 37.4291 28.4263 37.4291C27.8834 37.3975 27.5541 37.0043 27.5541 36.4953Z" fill="#4D668F"/>
<ellipse cx="43.9375" cy="19.9854" rx="10.9375" ry="10.9854" fill="#4D668F"/>
<ellipse cx="30.9375" cy="19.9854" rx="10.9375" ry="10.9854" fill="#4D668F"/>
<path fill-rule="evenodd" clip-rule="evenodd" d="M37.4375 28.8213C40.1296 26.8202 41.875 23.6075 41.875 19.9853C41.875 16.3632 40.1296 13.1505 37.4375 11.1494C34.7454 13.1505 33 16.3632 33 19.9853C33 23.6075 34.7454 26.8202 37.4375 28.8213Z" fill="#59719A"/>
</svg>
