<svg width="75" height="47" viewBox="0 0 75 47" fill="none" xmlns="http://www.w3.org/2000/svg">
<path fill-rule="evenodd" clip-rule="evenodd" d="M48.6335 19.0843C49.7896 19.0843 50.7268 18.1702 50.7268 17.0429C50.7268 15.915 49.7896 15 48.6335 15C47.4786 15 46.5419 15.915 46.5419 17.0429C46.5419 18.1702 47.4786 19.0843 48.6335 19.0843ZM32.6013 20.1867C32.5069 20.4183 31.827 22.2924 30.1828 24.2348V15.9295L25.8018 16.7745V31.8288H30.1828V27.1754C31.4517 29.0326 32.0782 31.8288 32.0782 31.8288H37.3257C36.8066 29.7229 34.5361 25.8399 34.5361 25.8399C36.5739 23.3185 37.469 20.6318 37.6113 20.1867H32.6013ZM44.1187 20.0296C40.1947 20.1525 38.2028 21.8706 38.2028 25.2859V31.8288H42.4837V26.4933C42.4837 24.4482 42.7581 23.5716 45.2447 23.4879V20.0895C44.8262 20.0028 44.1187 20.0296 44.1187 20.0296ZM18.4545 21.8445C17.9179 21.81 16.6756 21.7317 16.6756 20.6402C16.6756 19.3231 18.4642 19.3231 19.135 19.3231C20.3146 19.3231 21.8423 19.6633 22.9333 19.9817C22.9333 19.9817 23.5419 20.1911 24.0598 20.4056L24.1079 20.4183V16.8111L24.0418 16.792C22.7543 16.3524 21.2571 15.9295 18.4815 15.9295C13.6957 15.9295 12 18.6504 12 20.9813C12 22.3249 12.5901 25.4872 18.0711 25.8519C18.5357 25.8798 19.7688 25.9492 19.7688 27.0771C19.7688 28.0083 18.7592 28.5575 17.0613 28.5575C15.2005 28.5575 13.3955 28.0944 12.2991 27.6552V31.3703C13.9404 31.7902 15.7906 32 17.9591 32C22.6385 32 24.7343 29.4257 24.7343 26.8743C24.7343 23.9813 22.389 22.1017 18.4545 21.8445ZM46.5113 31.8288H50.7576V20.1999H46.5113V31.8288ZM58.7531 16.6709V31.8288H63V15.9295L58.7531 16.6709ZM52.5563 16.6709L56.7992 15.9295V31.8288H52.5563V16.6709Z" fill="#4D668F"/>
</svg>
