<svg width="75" height="47" viewBox="0 0 75 47" fill="none" xmlns="http://www.w3.org/2000/svg">
<path d="M43.7958 23.7467C43.7698 26.3425 42.5623 27.64 40.1762 27.64C37.7901 27.64 36.5557 26.3126 36.5557 23.6586C36.5557 21.0046 37.7623 19.6772 40.1762 19.6772C42.5902 19.6772 43.7967 21.0046 43.7967 23.6586V23.7467H43.7958ZM40.1762 21.3536C39.1826 21.3536 38.6854 22.1217 38.6854 23.6586V23.739C38.7028 25.2221 39.2 25.9636 40.1762 25.9636C41.1524 25.9636 41.667 25.1956 41.667 23.6586C41.667 22.1217 41.1698 21.3536 40.1762 21.3536ZM46.7774 22.8204H48.2682C49.2618 22.8204 49.759 22.297 49.759 21.2493C49.759 20.2015 49.2618 19.6772 48.2682 19.6772H46.7774V22.8204ZM48.2691 18.0009C50.683 18.0009 51.8896 19.0837 51.8896 21.2484C51.8896 23.4131 50.683 24.4959 48.2691 24.4959H46.7783V27.4296H44.6486V18H48.2691V18.0009ZM36.1289 19.8868V21.7727C34.7094 21.5631 33.9992 22.0524 33.9992 23.2395V27.4305H31.8695V19.8868H33.9992V20.8618C34.7259 19.6062 36.1289 19.8868 36.1289 19.8868ZM29.5277 18.4199V19.8868H31.0185V21.5631H29.5277V24.7063C29.5277 25.6651 30.0058 26.0526 30.962 25.867L31.0185 25.855V27.4305L30.9524 27.4476C30.4622 27.5673 27.398 28.1763 27.398 24.7063V21.5631H26.3332V19.8868H27.398L28.0369 18.4199H29.5277ZM56.787 22.1439C56.7644 21.5452 56.3193 21.4135 55.7265 21.3955C55.0146 21.416 54.5869 21.6119 54.4452 21.9822H52.5285C52.5285 20.725 53.5933 19.6772 55.723 19.6772C57.4572 19.6772 58.9254 20.4692 58.9176 21.9822L58.9158 22.3894L58.9176 27.4305H56.7879V26.5033C56.3263 27.3979 55.2128 27.64 54.4452 27.64C53.409 27.64 52.1025 27.0114 52.1025 25.335C52.1025 22.273 56.7879 23.266 56.7879 22.1918V22.1439H56.787ZM56.7879 24.0777C56.6001 24.537 54.2322 24.265 54.2322 25.335C54.2322 26.4614 56.7879 26.1732 56.7879 24.9159V24.0777ZM19.0913 22.1918C19.0852 21.0491 19.9623 19.6772 22.3919 19.6772C24.5216 19.6772 25.5117 20.725 25.6925 21.9822H23.7167C23.5098 21.5914 23.0682 21.3955 22.391 21.3955C21.0819 21.3955 21.0724 22.5031 22.338 22.7075L22.3902 22.7152C24.4608 22.9248 25.6838 23.7501 25.6908 25.1246C25.6969 26.2673 24.8198 27.6391 22.3902 27.6391C20.2605 27.6391 19.2704 26.5914 19.0896 25.3341H21.0654C21.2723 25.725 21.7139 25.9209 22.391 25.9209C23.7184 25.9209 23.7097 24.7825 22.391 24.6011C20.3213 24.3916 19.0974 23.5662 19.0904 22.1918H19.0913ZM59.9711 29.945C61.8157 30.2512 63.1813 29.2787 64.068 27.0268L67 19.8868H64.7364L63.0405 24.0161L61.3446 19.8868H59.048L61.8957 26.8223C61.4254 27.8872 60.8004 28.3721 60.0215 28.2755L59.9711 28.2686V29.945ZM14.0235 20.7908L12.4588 24.602C13.2724 24.2642 14.1669 24.0777 15.1057 24.0777C15.1961 24.0777 15.2865 24.0794 15.3761 24.0828L14.0244 20.7908H14.0235ZM9 27.4305L12.8717 18.0009H15.1744L19.0461 27.4305H16.7495L16.101 25.8499C15.7785 25.7874 15.4456 25.7541 15.1049 25.7541C13.5932 25.7541 12.2345 26.3998 11.2983 27.427L11.2966 27.4305H9Z" fill="#4D668F"/>
</svg>
