<svg width="75" height="47" viewBox="0 0 75 47" fill="none" xmlns="http://www.w3.org/2000/svg">
<g clip-path="url(#clip0_33994_48543)">
<path d="M10.4647 19.5054V25.3948C10.4647 26.2159 10.2186 26.8475 9.73445 27.3054C9.24215 27.7554 8.59394 27.9764 7.77343 27.9764C6.95292 27.9764 6.27189 27.7475 5.76317 27.2817C5.25445 26.8159 5.0083 26.1685 5.0083 25.3317H6.74779C6.75599 25.6948 6.84625 25.9712 7.01035 26.1764C7.18266 26.3738 7.42881 26.4764 7.75702 26.4764C8.08522 26.4764 8.31497 26.3817 8.47907 26.1843C8.64317 25.9948 8.72522 25.7264 8.72522 25.3948V19.5054H10.4729H10.4647Z" fill="#4D668F"/>
<path d="M18.4565 24.4239C18.4565 24.6607 18.44 24.8818 18.4072 25.0712H13.3775C13.4185 25.5528 13.5908 25.9318 13.9026 26.2002C14.2062 26.4765 14.5836 26.6107 15.0349 26.6107C15.6831 26.6107 16.1426 26.3423 16.4134 25.8054H18.2924C18.0954 26.4449 17.7098 26.9739 17.1518 27.3923C16.5857 27.8028 15.8965 28.0081 15.0759 28.0081C14.4113 28.0081 13.8206 27.866 13.2872 27.5896C12.7621 27.2975 12.3518 26.8949 12.0565 26.3739C11.7693 25.8528 11.6216 25.2528 11.6216 24.5739C11.6216 23.8949 11.7693 23.2791 12.0565 22.7581C12.3436 22.237 12.7539 21.8344 13.2708 21.5581C13.7959 21.2739 14.3949 21.1396 15.0677 21.1396C15.7406 21.1396 16.3067 21.2739 16.8154 21.5502C17.3406 21.8265 17.7426 22.2133 18.0216 22.7186C18.3088 23.216 18.4565 23.7844 18.4565 24.4396V24.4239ZM16.6513 23.9423C16.6431 23.5081 16.479 23.1686 16.1672 22.9081C15.8554 22.6475 15.4698 22.5133 15.0103 22.5133C14.5836 22.5133 14.2144 22.6396 13.919 22.9002C13.6318 23.1449 13.4513 23.5002 13.3857 23.9423H16.6513Z" fill="#4D668F"/>
<path d="M21.3119 22.616V25.837C21.3119 26.0581 21.3693 26.2239 21.476 26.3265C21.5908 26.4212 21.7796 26.4686 22.0503 26.4686H22.8544V27.8897H21.7631C20.2944 27.8897 19.5642 27.2028 19.5642 25.8212V22.616H18.7437V21.2344H19.5642V19.5923H21.3119V21.2423H22.8544V22.6239H21.3119V22.616Z" fill="#4D668F"/>
<path d="M26.7189 27.9998C26.0543 27.9998 25.4635 27.8577 24.9302 27.5813C24.3968 27.2892 23.9784 26.8866 23.6748 26.3656C23.3794 25.8445 23.2317 25.2445 23.2317 24.5656C23.2317 23.8866 23.3876 23.2866 23.6912 22.7656C24.003 22.2445 24.4296 21.8419 24.9712 21.5656C25.5127 21.2735 26.1117 21.1313 26.7681 21.1313C27.4245 21.1313 28.0317 21.2735 28.565 21.5656C29.1066 21.8498 29.525 22.2445 29.8286 22.7656C30.1404 23.2866 30.3045 23.8866 30.3045 24.5656C30.3045 25.2445 30.1404 25.8445 29.8204 26.3656C29.5086 26.8866 29.0737 27.2892 28.5322 27.5813C27.9907 27.8656 27.3917 27.9998 26.7189 27.9998ZM26.7189 26.5313C27.0307 26.5313 27.326 26.4603 27.5968 26.3182C27.8758 26.1682 28.1055 25.9392 28.2696 25.6471C28.4337 25.3471 28.5158 24.9919 28.5158 24.5656C28.5158 23.934 28.3435 23.4445 27.9907 23.1129C27.6543 22.7656 27.2358 22.5998 26.7353 22.5998C26.2348 22.5998 25.8245 22.7735 25.4799 23.1129C25.1517 23.4524 24.9794 23.934 24.9794 24.5656C24.9794 25.1971 25.1435 25.6866 25.4635 26.034C25.7917 26.3735 26.2102 26.5392 26.7025 26.5392L26.7189 26.5313Z" fill="#4D668F"/>
<path d="M34.965 21.1396C35.7856 21.1396 36.4502 21.3923 36.9507 21.8975C37.4594 22.3949 37.7056 23.0896 37.7056 23.9896V27.8975H35.9661V24.2186C35.9661 23.6896 35.8266 23.287 35.5558 23.0028C35.285 22.7107 34.9076 22.5686 34.4399 22.5686C33.9722 22.5686 33.5784 22.7107 33.2994 23.0028C33.0286 23.287 32.8891 23.6896 32.8891 24.2186V27.8975H31.1497V21.2344H32.8891V22.0633C33.1189 21.7712 33.4143 21.5502 33.7671 21.3923C34.1281 21.2265 34.5302 21.1396 34.9568 21.1396H34.965Z" fill="#4D668F"/>
<path d="M40.6677 22.2053C40.8893 21.8816 41.201 21.6211 41.5867 21.4237C41.9805 21.2263 42.4318 21.1237 42.9405 21.1237C43.5313 21.1237 44.0564 21.2658 44.5323 21.5421C45.0164 21.8263 45.3857 22.2211 45.6646 22.7421C45.9436 23.2553 46.0831 23.8553 46.0831 24.5342C46.0831 25.2132 45.9436 25.8211 45.6646 26.35C45.3939 26.8711 45.0164 27.2737 44.5323 27.5658C44.0564 27.8579 43.5313 28 42.9405 28C42.4236 28 41.9723 27.9053 41.5867 27.7079C41.2092 27.5105 40.8975 27.25 40.6677 26.9421V27.8895H38.9282V19H40.6677V22.2053ZM44.3026 24.5421C44.3026 24.1395 44.2123 23.8 44.04 23.5079C43.8759 23.2079 43.6544 22.9868 43.3672 22.8368C43.0964 22.6868 42.7928 22.6079 42.4728 22.6079C42.1528 22.6079 41.8575 22.6868 41.5785 22.8447C41.3077 22.9947 41.078 23.2237 40.9057 23.5158C40.7416 23.8158 40.6595 24.1632 40.6595 24.5579C40.6595 24.9526 40.7416 25.3079 40.9057 25.6C41.078 25.9 41.2995 26.1211 41.5785 26.2868C41.8575 26.4368 42.161 26.5158 42.4728 26.5158C42.7846 26.5158 43.0964 26.4368 43.3672 26.2789C43.6462 26.1211 43.8759 25.8921 44.04 25.5921C44.2123 25.2921 44.3026 24.9447 44.3026 24.5342V24.5421Z" fill="#4D668F"/>
<path d="M46.4606 24.5419C46.4606 23.8708 46.6001 23.2708 46.8709 22.7498C47.1498 22.2287 47.5273 21.8261 48.0032 21.5498C48.4873 21.2656 49.0206 21.1313 49.6032 21.1313C50.1201 21.1313 50.5632 21.234 50.9406 21.4313C51.3262 21.6287 51.638 21.8813 51.876 22.1892V21.2419H53.6237V27.8971H51.876V26.9261C51.6544 27.2419 51.3427 27.5024 50.9406 27.7077C50.555 27.905 50.1037 28.0077 49.5868 28.0077C49.0042 28.0077 48.4791 27.8656 47.995 27.5735C47.5191 27.2813 47.1498 26.8787 46.8626 26.3577C46.5919 25.8287 46.4524 25.2208 46.4524 24.5419H46.4606ZM51.876 24.5656C51.876 24.155 51.7939 23.8077 51.6298 23.5235C51.4657 23.2235 51.2442 23.0024 50.957 22.8524C50.678 22.6945 50.3744 22.6156 50.0544 22.6156C49.7344 22.6156 49.4309 22.6945 49.1601 22.8445C48.8893 22.9945 48.6596 23.2235 48.4873 23.5156C48.3232 23.8077 48.2411 24.1471 48.2411 24.5498C48.2411 24.9524 48.3232 25.2998 48.4873 25.6077C48.6596 25.9077 48.8811 26.1287 49.1601 26.2945C49.4391 26.4524 49.7426 26.5313 50.0544 26.5313C50.3662 26.5313 50.678 26.4524 50.957 26.3024C51.236 26.1445 51.4657 25.9156 51.6298 25.6313C51.7939 25.3313 51.876 24.984 51.876 24.5735V24.5656Z" fill="#4D668F"/>
<path d="M58.7026 21.1396C59.5231 21.1396 60.1877 21.3923 60.6882 21.8975C61.197 22.3949 61.4431 23.0896 61.4431 23.9896V27.8975H59.7036V24.2186C59.7036 23.6896 59.5641 23.287 59.2934 23.0028C59.0226 22.7107 58.6452 22.5686 58.1775 22.5686C57.7098 22.5686 57.3159 22.7107 57.0369 23.0028C56.7662 23.287 56.6267 23.6896 56.6267 24.2186V27.8975H54.8872V21.2344H56.6267V22.0633C56.8564 21.7712 57.1518 21.5502 57.5046 21.3923C57.8657 21.2265 58.2677 21.1396 58.6944 21.1396H58.7026Z" fill="#4D668F"/>
<path d="M66.7435 27.8895L64.405 25.0553V27.8895H62.6655V19H64.405V24.0605L66.7107 21.2342H68.9671L65.9394 24.5737L68.9917 27.8895H66.7353H66.7435Z" fill="#4D668F"/>
</g>
<defs>
<clipPath id="clip0_33994_48543">
<rect width="64" height="9" fill="white" transform="translate(5 19)"/>
</clipPath>
</defs>
</svg>
