<svg width="75" height="47" viewBox="0 0 75 47" fill="none" xmlns="http://www.w3.org/2000/svg">
<path fill-rule="evenodd" clip-rule="evenodd" d="M23.1602 23.1869C23.1602 27.7979 19.3438 31.5359 14.636 31.5359C9.92823 31.5359 6.11182 27.7979 6.11182 23.1869C6.11182 18.5759 9.92823 14.8379 14.636 14.8379C19.3438 14.8379 23.1602 18.5759 23.1602 23.1869ZM15.5447 23.9559V23.9573V23.9586C17.6209 23.8673 19.1709 23.513 19.1709 23.0888C19.1709 22.6647 17.6223 22.3103 15.5447 22.219V23.6042C15.4844 23.6096 15.161 23.6365 14.5141 23.6365C13.9755 23.6365 13.5849 23.6136 13.4493 23.6042V22.2177C11.3689 22.3076 9.81484 22.6633 9.81484 23.0875C9.81484 23.513 11.3676 23.8673 13.4493 23.9573V23.9559C13.5836 23.9626 13.9632 23.9774 14.5045 23.9774C15.1815 23.9774 15.4858 23.96 15.5447 23.9559ZM15.5447 20.8351V22.0754L15.5461 22.0767C17.8978 22.1828 19.6656 22.6405 19.6656 23.1868C19.6656 23.7345 17.8978 24.1908 15.5461 24.2969V28.2727H13.4506V24.2969C11.0962 24.1895 9.32422 23.7331 9.32422 23.1855C9.32422 22.6378 11.0948 22.1814 13.4506 22.0754V20.8351H10.5521V18.9438H18.4432V20.8351H15.5447Z" fill="#4D668F"/>
<path d="M30.4012 19.4608V21.4662H32.3911V22.9709H30.3875V26.0219C30.3875 26.6957 30.7671 27.0246 31.3235 27.0246C31.6017 27.0246 31.9238 26.9386 32.1869 26.8098L32.6844 28.2997C32.1732 28.4997 31.7484 28.5856 31.207 28.6004C29.642 28.6581 28.6182 27.7843 28.6182 26.0219V22.9709H27.2725V21.4662H28.6182V19.6474L30.4012 19.4608ZM64.7077 21.3722L64.8392 22.1883C65.3956 21.3145 66.1412 21.1856 66.873 21.1856C67.6185 21.1856 68.3352 21.4715 68.7299 21.8581L67.9255 23.3762C67.5596 23.0756 67.2238 22.9172 66.6386 22.9172C65.7026 22.9172 64.8392 23.4044 64.8392 24.7078V28.4326H63.0549V21.3695L64.7077 21.3722ZM60.3346 24.0796C60.2181 23.1628 59.4863 22.7037 58.4625 22.7037C57.4977 22.7037 56.707 23.1628 56.4439 24.0796H60.3346ZM56.4151 25.5266C56.5316 26.4004 57.3072 27.0313 58.5653 27.0313C59.2231 27.0313 60.0865 26.787 60.4963 26.3722L61.6365 27.4756C60.8759 28.2487 59.6329 28.6219 58.5352 28.6219C56.0492 28.6219 54.5704 27.1172 54.5704 24.8541C54.5704 22.7051 56.0629 21.1574 58.4036 21.1574C60.817 21.1574 62.3245 22.6192 62.0462 25.5266H56.4151ZM48.546 18.4058V22.3306C49.1901 21.5145 49.9794 21.2702 50.799 21.2702C52.8464 21.2702 53.7537 22.6313 53.7537 24.7091V28.4339H51.9693V24.7239C51.9693 23.4339 51.2814 22.8903 50.3303 22.8903C49.2764 22.8903 48.546 23.7642 48.546 24.8246V28.4353H46.7616V18.4071L48.546 18.4058ZM43.8069 19.3803V21.3856H45.7968V22.8903H43.7932V25.9413C43.7932 26.6152 44.1742 26.944 44.7292 26.944C45.0075 26.944 45.3295 26.8581 45.5926 26.7293L46.0901 28.2192C45.5789 28.4192 45.1541 28.5051 44.6128 28.5199C43.0477 28.5776 42.024 27.7024 42.024 25.9413V22.8903H40.6782V21.3856H42.024V19.5668L43.8069 19.3803ZM38.8774 24.0796C38.7609 23.1628 38.0291 22.7037 37.0054 22.7037C36.0406 22.7037 35.2498 23.1628 34.9867 24.0796H38.8774ZM34.9579 25.5266C35.0744 26.4004 35.8501 27.0313 37.1082 27.0313C37.766 27.0313 38.6294 26.787 39.0391 26.3722L40.1794 27.4756C39.4188 28.2487 38.1758 28.6219 37.078 28.6219C34.5907 28.6219 33.1133 27.1172 33.1133 24.8541C33.1133 22.7051 34.6057 21.1574 36.9451 21.1574C39.3585 21.1574 40.8646 22.6192 40.5878 25.5266H34.9579Z" fill="#4D668F"/>
</svg>
