<svg width="75" height="47" viewBox="0 0 75 47" fill="none" xmlns="http://www.w3.org/2000/svg">
<g clip-path="url(#clip0_29261_205066)">
<path d="M15.05 14.0513C10.0808 14.0513 6.05176 18.0604 6.05176 23.005C6.05176 27.9496 10.0808 31.9587 15.05 31.9587C20.0192 31.9587 24.0482 27.9496 24.0482 23.005C24.0379 18.0604 20.0192 14.0513 15.05 14.0513ZM15.1843 23.2928L14.2545 26.4385H19.2547C19.4303 26.4385 19.5439 26.603 19.5026 26.7674L19.0687 28.258C19.0274 28.4019 18.8931 28.5047 18.7381 28.5047H11.0932L12.3846 24.1564L10.9589 24.5984L11.2689 23.5704L12.7049 23.1284L14.5231 17.0221C14.5644 16.8782 14.6987 16.7754 14.8537 16.7754H16.7856C16.9612 16.7754 17.0748 16.9399 17.0335 17.1044L15.4942 22.2649L16.9199 21.8228L16.6099 22.8611L15.1843 23.2928Z" fill="#4D668F"/>
<path fill-rule="evenodd" clip-rule="evenodd" d="M31.6101 17.0637C31.7754 16.7244 32.1989 16.6011 32.5295 16.7758C32.8704 16.9506 32.9944 17.3618 32.8188 17.701C32.6432 18.03 32.2299 18.1636 31.8993 17.9888C31.5687 17.8141 31.4344 17.3926 31.6101 17.0637ZM28.6865 16.7655H29.2443C29.358 16.7655 29.42 16.8169 29.389 16.93L27.9323 28.3304C27.9117 28.4434 27.8497 28.4948 27.736 28.4948H27.1782C27.0645 28.4948 27.0335 28.4434 27.0439 28.3304L28.4902 16.93C28.5108 16.8272 28.5832 16.7655 28.6865 16.7655ZM31.6102 20.0547H32.1681C32.2818 20.0547 32.3231 20.1164 32.3128 20.2295L31.29 28.3403C31.2693 28.4533 31.197 28.5047 31.0937 28.5047H30.5358C30.4325 28.5047 30.3705 28.4533 30.3809 28.3403L31.414 20.2192C31.4346 20.1061 31.5069 20.0547 31.6102 20.0547ZM56.6109 19.9213C55.8361 19.9213 55.1646 20.1372 54.5964 20.5792C54.0282 21.0213 53.6563 21.5969 53.4703 22.3165C53.3154 22.9025 53.1811 23.7249 53.1191 24.28L53.1045 24.4125V24.4126V24.4126C53.0281 25.1038 52.9641 25.6827 52.9641 26.2434C52.9745 26.9733 53.2121 27.549 53.6563 27.991C54.1109 28.4228 54.7307 28.6489 55.5159 28.6489C56.2803 28.6489 56.9519 28.433 57.5201 27.991C58.0883 27.5593 58.4602 26.9733 58.6461 26.2434C58.7701 25.7603 58.8941 25.1126 58.9974 24.28C59.1007 23.4165 59.1523 22.7586 59.1523 22.3063C59.1523 21.5867 58.9251 21.011 58.4705 20.5792C58.0056 20.1372 57.3858 19.9213 56.6109 19.9213ZM58.1812 23.4884C58.1296 23.8996 58.0986 24.1669 58.0883 24.28C57.985 25.1229 57.892 25.7192 57.8093 26.079C57.6854 26.6135 57.4167 27.0453 57.0138 27.3742C56.6109 27.7032 56.1357 27.8574 55.6088 27.8574C55.0716 27.8574 54.6481 27.6929 54.3278 27.3742C54.0075 27.0555 53.8526 26.6341 53.8526 26.1098C53.8526 25.8322 53.8836 25.4827 53.9352 25.0715C53.9869 24.6603 54.0179 24.3931 54.0282 24.28C54.1315 23.4782 54.2245 22.8819 54.3071 22.481C54.4311 21.9465 54.6997 21.5147 55.1026 21.1857C55.5055 20.8568 55.9808 20.7026 56.5076 20.7026C57.0448 20.7026 57.4684 20.8671 57.7887 21.1755C58.1089 21.4941 58.2639 21.9156 58.2639 22.4399C58.2639 22.738 58.2329 23.0772 58.1812 23.4884ZM61.7867 20.0547H62.3343C62.4479 20.0547 62.4892 20.1164 62.4789 20.2295L61.4561 28.3403C61.4355 28.4533 61.3632 28.5047 61.2599 28.5047H60.702C60.5987 28.5047 60.5367 28.4533 60.547 28.3403L61.5904 20.2192C61.6111 20.1164 61.6834 20.0547 61.7867 20.0547ZM69.38 20.5382C68.9978 20.1373 68.4606 19.942 67.7581 19.942C67.3035 19.942 66.8903 20.0242 66.508 20.199C66.1258 20.3738 65.8055 20.6308 65.5369 20.9803C65.4853 21.0214 65.4646 21.0111 65.4646 20.9494L65.5473 20.2298C65.5576 20.127 65.5163 20.0654 65.413 20.0654H64.8551C64.7518 20.0654 64.6795 20.127 64.6588 20.2298L63.636 28.3406C63.6257 28.4434 63.6567 28.5051 63.7703 28.5051H64.3282C64.4315 28.5051 64.5038 28.4434 64.5142 28.3406L65.258 22.5222C65.382 21.9774 65.6402 21.5354 66.0225 21.2167C66.4047 20.898 66.8593 20.7336 67.3965 20.7336C67.8924 20.7336 68.285 20.8878 68.5742 21.1961C68.8635 21.5045 69.0081 21.9157 69.0081 22.44C69.0081 22.5942 68.9978 22.7176 68.9875 22.8101L68.2746 28.3406C68.2746 28.392 68.2746 28.4229 68.2953 28.4537C68.3263 28.4846 68.3676 28.5051 68.4296 28.5051H68.9875C69.0908 28.5051 69.1631 28.4537 69.1734 28.3406L69.8862 22.6764C69.9069 22.4503 69.9172 22.2858 69.9172 22.1727C69.9482 21.4737 69.7623 20.9289 69.38 20.5382ZM62.7371 16.7758C62.4065 16.6011 61.9829 16.7244 61.8176 17.0637C61.642 17.3926 61.7763 17.8141 62.1069 17.9888C62.4375 18.1636 62.861 18.03 63.0367 17.701C63.202 17.3618 63.0677 16.9506 62.7371 16.7758ZM47.3235 20.5792C47.8917 20.1475 48.5632 19.9213 49.338 19.9213C50.1232 19.9213 50.7327 20.1372 51.1976 20.5587C51.6521 20.9904 51.8794 21.5661 51.8794 22.2857V22.481C51.8794 22.5427 51.8278 22.5838 51.7761 22.5838H51.1253C51.053 22.5838 50.991 22.5221 50.991 22.4502V22.4399C50.991 21.9156 50.836 21.4941 50.5157 21.1755C50.1955 20.8568 49.7616 20.7026 49.2347 20.7026C48.7078 20.7026 48.2326 20.8568 47.8297 21.1857C47.4268 21.5147 47.1582 21.9465 47.0342 22.481C46.9516 22.8819 46.8586 23.4782 46.7553 24.28C46.7484 24.3553 46.7278 24.5265 46.7025 24.7357L46.7025 24.7358C46.6899 24.8406 46.6761 24.9549 46.6623 25.0715C46.6107 25.4827 46.5797 25.8322 46.5797 26.1098C46.5797 26.6341 46.7346 27.0555 47.0549 27.3742C47.3751 27.6929 47.7987 27.8574 48.3359 27.8574C48.8628 27.8574 49.338 27.7032 49.7409 27.3742C50.1438 27.0453 50.4124 26.6135 50.5364 26.079C50.5364 26.079 50.5467 26.0584 50.5467 26.0481C50.5571 25.9864 50.6087 25.9659 50.6501 25.9659H51.3422C51.3835 25.9659 51.4249 26.007 51.4145 26.0584C51.4094 26.0892 51.4016 26.1201 51.3939 26.1509C51.3861 26.1818 51.3784 26.2126 51.3732 26.2434C51.1873 26.9733 50.8153 27.5593 50.2471 27.991C49.6789 28.433 49.0074 28.6489 48.2429 28.6489C47.4578 28.6489 46.8379 28.4228 46.3834 27.991C45.9392 27.549 45.7015 26.9733 45.6912 26.2434C45.6912 25.6843 45.7639 25.0257 45.8326 24.4033L45.8462 24.28C45.8978 23.8277 46.0425 22.9025 46.1974 22.3165C46.3834 21.5969 46.7553 21.0213 47.3235 20.5792ZM43.7284 20.5792C43.2738 20.1475 42.654 19.9213 41.8792 19.9213C41.1044 19.9213 40.4328 20.1372 39.8646 20.5792C39.2964 21.0213 38.9245 21.5969 38.7386 22.3165C38.5915 22.8728 38.5188 23.3734 38.4058 24.1527L38.4058 24.1527L38.3873 24.28C38.2737 25.1229 38.2324 25.6472 38.2324 26.2434C38.2427 26.9733 38.4803 27.549 38.9245 27.991C39.3791 28.4228 39.9989 28.6489 40.7841 28.6489C41.5486 28.6489 42.2201 28.433 42.7883 27.991C43.3565 27.5593 43.7284 26.9733 43.9144 26.2434C43.9195 26.2126 43.9273 26.1818 43.935 26.1509C43.9428 26.1201 43.9505 26.0892 43.9557 26.0584C43.966 26.007 43.935 25.9659 43.8834 25.9659H43.1912C43.1499 25.9659 43.0982 25.9864 43.0879 26.0481C43.0879 26.0584 43.0776 26.079 43.0776 26.079C42.9536 26.6135 42.685 27.0453 42.2821 27.3742C41.8792 27.7032 41.4039 27.8574 40.8771 27.8574C40.3399 27.8574 39.9163 27.6929 39.596 27.3742C39.2758 27.0555 39.1208 26.6341 39.1208 26.1098C39.1208 25.8631 39.1415 25.5547 39.1828 25.2052L44.2036 23.6529C44.3069 23.6221 44.3483 23.5707 44.3689 23.4473C44.3999 23.1903 44.4206 22.7483 44.4206 22.296C44.4102 21.6483 44.183 21.011 43.7284 20.5792ZM43.5321 22.9128C43.5321 22.9642 43.5011 23.0053 43.4495 23.0156L39.2861 24.3005V24.28C39.3894 23.4782 39.4824 22.8819 39.565 22.481C39.689 21.9465 39.9576 21.5147 40.3605 21.1857C40.7634 20.8568 41.2387 20.7026 41.7655 20.7026C42.3027 20.7026 42.7263 20.8671 43.0466 21.1755C43.5528 21.6997 43.5631 22.2343 43.5321 22.9128ZM36.5174 27.744C36.538 27.6309 36.4244 27.5589 36.3211 27.6103C35.9698 27.7748 35.288 27.9393 34.9367 27.6515C34.6815 27.4072 34.7341 26.9681 34.7931 26.4751C34.7962 26.4493 34.7993 26.4234 34.8024 26.3973L35.4119 21.5144H37.1475C37.1889 21.5144 37.2508 21.5041 37.2818 21.4733C37.3128 21.4322 37.3232 21.4013 37.3335 21.3396L37.3851 20.949C37.3851 20.8462 37.3438 20.7845 37.2405 20.7845H35.4946L35.8149 18.0912C35.8355 17.9987 35.8045 17.9267 35.6805 17.9267H35.1433C35.0297 17.9267 34.9574 17.9781 34.9471 18.0912L34.6991 19.9827L34.5958 20.8359L33.8623 26.788C33.7693 27.5692 33.9346 28.1963 34.5751 28.4841C35.133 28.7308 35.8252 28.6486 36.3211 28.4636C36.3831 28.4327 36.4347 28.371 36.445 28.2991L36.5174 27.744Z" fill="#4D668F"/>
</g>
<defs>
<clipPath id="clip0_29261_205066">
<rect width="64" height="18" fill="white" transform="translate(6 14)"/>
</clipPath>
</defs>
</svg>
