<svg xmlns="http://www.w3.org/2000/svg" viewBox="0 0 75 47"><path d="M9.23,21.29,4,23.66l5.23,3.08,5.23-3.08Z" style="fill:#4d668f"/><path d="M4,23.66l5.23,3.08V15Z" style="fill:#395177;fill-opacity:0.5"/><path d="M9.23,15V26.74l5.23-3.08Z" style="fill:#4d668f;fill-opacity:0.699999988079071"/><path d="M4,24.65,9.23,32V27.73Z" style="fill:#4d668f"/><path d="M9.23,27.73V32l5.23-7.35Z" style="fill:#395177"/><path d="M28.36,22.18h-1V20.69a.22.22,0,0,0,0-.14.24.24,0,0,0-.09-.11.19.19,0,0,0-.12-.07.34.34,0,0,0-.14,0,.4.4,0,0,0-.21.12.33.33,0,0,0-.09.23v1.48h-1a.32.32,0,0,0-.33.32.27.27,0,0,0,0,.13.3.3,0,0,0,.07.11.38.38,0,0,0,.11.08l.13,0h1v4.27a.37.37,0,0,0,.1.23.35.35,0,0,0,.24.1.34.34,0,0,0,.33-.33V22.84h1l.13,0a.28.28,0,0,0,.11-.08.21.21,0,0,0,.07-.11.28.28,0,0,0,0-.13.43.43,0,0,0-.1-.23A.33.33,0,0,0,28.36,22.18Zm.07.52Z" style="fill:#4d668f;stroke:#4d668f;stroke-miterlimit:10;stroke-width:0.25px"/><path d="M33.25,22.09a2.09,2.09,0,0,0-1.62.79V18.34a.37.37,0,0,0-.1-.22.31.31,0,0,0-.24-.1.33.33,0,0,0-.23.09.37.37,0,0,0-.1.24v8.73a.32.32,0,0,0,0,.14.36.36,0,0,0,.08.12l.12.07h.15a.4.4,0,0,0,.21-.12.36.36,0,0,0,.08-.23V25a.34.34,0,0,1,0-.1,2.26,2.26,0,0,1,.5-1.67,1.47,1.47,0,0,1,2.53,1.2v2.66a.2.2,0,0,0,0,.13.3.3,0,0,0,.18.18.27.27,0,0,0,.13,0,.29.29,0,0,0,.23-.1.33.33,0,0,0,.1-.23V24.42A2.15,2.15,0,0,0,33.25,22.09Z" style="fill:#4d668f;stroke:#4d668f;stroke-miterlimit:10;stroke-width:0.25px"/><path d="M20.85,22.07a2.73,2.73,0,0,0,0,5.44A2.51,2.51,0,0,0,23,26.37a.34.34,0,0,0,.05-.17.51.51,0,0,0,0-.13A.44.44,0,0,0,23,26a.21.21,0,0,0-.11-.07.31.31,0,0,0-.13,0,.49.49,0,0,0-.16.05.43.43,0,0,0-.12.11,1.81,1.81,0,0,1-1.62.83A2,2,0,0,1,19,25.13h4a.34.34,0,0,0,.35-.35A2.64,2.64,0,0,0,20.85,22.07Zm1.84,2.39H19a1.84,1.84,0,0,1,3.67,0Z" style="fill:#4d668f;stroke:#4d668f;stroke-miterlimit:10;stroke-width:0.25px"/><path d="M70.07,22.09a2.14,2.14,0,0,0-1.87,1.15,2,2,0,0,0-1.79-1.15,2.08,2.08,0,0,0-1.63.78v-.35a.17.17,0,0,0,0-.14.2.2,0,0,0-.08-.12.47.47,0,0,0-.12-.07h-.14a.37.37,0,0,0-.21.12.32.32,0,0,0-.09.23v4.55a.35.35,0,0,0,0,.14.44.44,0,0,0,.08.11.27.27,0,0,0,.13.07l.09,0h0a.3.3,0,0,0,.21-.12.35.35,0,0,0,.08-.22v-2a.28.28,0,0,0,0-.13,2.41,2.41,0,0,1,.52-1.78,1.47,1.47,0,0,1,2.49,1.23v2.67a.28.28,0,0,0,0,.13.3.3,0,0,0,.18.18.28.28,0,0,0,.13,0h0a.37.37,0,0,0,.23-.1.33.33,0,0,0,.1-.24V25c0-.78.34-2.26,1.61-2.26a1.48,1.48,0,0,1,1.39,1.65v2.67a.51.51,0,0,0,0,.13.41.41,0,0,0,.07.11.37.37,0,0,0,.12.07.28.28,0,0,0,.13,0h0a.43.43,0,0,0,.23-.1.34.34,0,0,0,.09-.24V24.4A2.13,2.13,0,0,0,70.07,22.09Zm-5.69,5.19Z" style="fill:#4d668f;stroke:#4d668f;stroke-miterlimit:10;stroke-width:0.25px"/><path d="M61.35,22.23h0a.41.41,0,0,0-.16,0,.35.35,0,0,0-.14.06.25.25,0,0,0-.11.12.28.28,0,0,0,0,.15v1.71c0,1.8-.51,2.64-1.61,2.64a1.49,1.49,0,0,1-1.39-1.67V22.53a.32.32,0,0,0-.1-.22.33.33,0,0,0-.23-.1.34.34,0,0,0-.24.09.43.43,0,0,0-.1.24v2.67a2.15,2.15,0,0,0,2.06,2.33,2,2,0,0,0,1.61-.86v.43a.5.5,0,0,0,0,.12.41.41,0,0,0,.07.11.36.36,0,0,0,.12.08l.12,0a.37.37,0,0,0,.24-.1.32.32,0,0,0,.09-.23V22.55a.46.46,0,0,0,0-.2A.35.35,0,0,0,61.35,22.23Z" style="fill:#4d668f;stroke:#4d668f;stroke-miterlimit:10;stroke-width:0.25px"/><path d="M47.59,22.18A2.21,2.21,0,0,0,46,23v-.52a.22.22,0,0,0,0-.14.34.34,0,0,0-.09-.12.47.47,0,0,0-.12-.07h-.14a.37.37,0,0,0-.21.12.32.32,0,0,0-.09.23v4.53a.32.32,0,0,0,0,.14.36.36,0,0,0,.08.12l.13.07h.14a.33.33,0,0,0,.21-.12.35.35,0,0,0,.08-.22v-2a2,2,0,0,1,1.67-2.21.35.35,0,0,0,.23-.12.3.3,0,0,0,.08-.23A.33.33,0,0,0,47.59,22.18Z" style="fill:#4d668f;stroke:#4d668f;stroke-miterlimit:10;stroke-width:0.25px"/><path d="M40.26,22.07a2.73,2.73,0,0,0,0,5.44,2.48,2.48,0,0,0,2.18-1.14.23.23,0,0,0,.05-.17.2.2,0,0,0,0-.13.3.3,0,0,0-.18-.18.35.35,0,0,0-.13,0,.38.38,0,0,0-.16.05.32.32,0,0,0-.12.11,1.82,1.82,0,0,1-1.62.83,1.94,1.94,0,0,1-1.83-1.72h4a.35.35,0,0,0,.24-.1.33.33,0,0,0,.11-.25A2.65,2.65,0,0,0,40.26,22.07Zm1.83,2.39H38.42a1.84,1.84,0,0,1,3.67,0Z" style="fill:#4d668f;stroke:#4d668f;stroke-miterlimit:10;stroke-width:0.25px"/><path d="M52.25,22.07a2.73,2.73,0,0,0,0,5.44,2.48,2.48,0,0,0,2.18-1.14.27.27,0,0,0,.06-.17.51.51,0,0,0,0-.13.44.44,0,0,0-.08-.11.21.21,0,0,0-.11-.07.35.35,0,0,0-.13,0,.38.38,0,0,0-.28.16,1.8,1.8,0,0,1-1.62.83,2,2,0,0,1-1.83-1.72h4a.39.39,0,0,0,.25-.1.37.37,0,0,0,.1-.25A2.64,2.64,0,0,0,52.25,22.07Zm-1.83,2.39a1.84,1.84,0,0,1,3.67,0Z" style="fill:#4d668f;stroke:#4d668f;stroke-miterlimit:10;stroke-width:0.25px"/></svg>