<svg width="75" height="47" viewBox="0 0 75 47" fill="none" xmlns="http://www.w3.org/2000/svg">
<g clip-path="url(#clip0_29261_205070)">
<path d="M2.5 22.4872C2.5143 18.3459 5.96232 15.0107 10.2155 15C14.5134 14.9893 17.9504 18.3599 17.9704 22.4655C17.9907 26.6063 14.5416 29.9313 10.3628 29.999C6.15757 30.0671 2.5122 26.7973 2.5 22.4872ZM7.74582 26.5436C7.83429 26.5465 7.89683 26.5502 7.95947 26.5503C8.88102 26.5518 9.80258 26.553 10.7241 26.554C11.2017 26.5559 11.6761 26.4783 12.1267 26.3246C13.0574 26.0074 13.7274 25.4147 14.1159 24.5315C14.3223 24.0618 14.422 23.568 14.4608 23.0613C14.4839 22.7416 14.4841 22.4207 14.4617 22.1009C14.4342 21.6812 14.3625 21.269 14.2254 20.8693C13.9034 19.9316 13.2888 19.2451 12.3541 18.8377C11.8083 18.5998 11.2322 18.47 10.637 18.4587C9.7096 18.4407 8.78162 18.4495 7.85384 18.448C7.82362 18.448 7.7934 18.4541 7.75145 18.4585C7.7484 18.5333 7.74325 18.5995 7.74315 18.6657C7.74271 19.5776 7.74271 20.4896 7.74315 21.4016C7.74315 21.5802 7.74401 21.7589 7.74192 21.9376C7.74192 21.9721 7.72866 22.0064 7.71961 22.0501C7.64925 22.0515 7.58614 22.0535 7.52332 22.0537C7.31358 22.0542 7.10385 22.053 6.89411 22.0549C6.85179 22.0549 6.80955 22.0661 6.77018 22.0718C6.74034 22.3121 6.74854 22.8047 6.78543 22.9313C6.84521 22.9331 6.90794 22.9363 6.97057 22.9365C7.18031 22.9373 7.39004 22.936 7.59977 22.9376C7.6421 22.9376 7.68433 22.9479 7.74277 22.9555C7.74335 23.5542 7.74277 24.1444 7.74277 24.7346C7.74335 25.3304 7.73906 25.9272 7.74582 26.5436Z" fill="#4D668F"/>
<path fill-rule="evenodd" clip-rule="evenodd" d="M54.6422 24.5045C54.7157 24.627 54.9215 25.2011 54.9921 25.4769C54.984 25.4828 54.9758 25.4895 54.9673 25.4964C54.9493 25.5109 54.93 25.5264 54.9087 25.5383C54.446 25.7986 53.9347 25.9677 53.4044 26.036C52.9548 26.0949 52.5051 26.0994 52.0561 26.0335C51.2171 25.9103 50.5403 25.5276 50.0494 24.8485C49.7788 24.474 49.5894 24.0503 49.4926 23.6028C49.3145 22.7946 49.322 21.9886 49.5463 21.1889C49.6663 20.7595 49.8731 20.3575 50.1546 20.0063C50.5189 19.5496 50.9806 19.2207 51.5492 19.0516C52.5424 18.7569 53.5285 18.7911 54.4983 19.1594C54.6396 19.213 54.7781 19.2744 54.9024 19.3563C54.886 19.4914 54.6574 20.1567 54.5507 20.3805C54.5405 20.3757 54.53 20.3714 54.5195 20.3671C54.4964 20.3576 54.4734 20.3481 54.4534 20.3343C54.0302 20.0445 53.5551 19.9104 53.0425 19.8912C52.756 19.8806 52.4718 19.892 52.1916 19.9631C51.7085 20.0855 51.3328 20.3489 51.0586 20.7521C50.845 21.0664 50.7208 21.4145 50.6608 21.7823C50.5736 22.3155 50.5714 22.8503 50.6894 23.3802C50.7253 23.5426 50.7754 23.7018 50.8391 23.856C51.1067 24.4999 51.5923 24.8968 52.2998 25.0206C52.915 25.1279 53.5159 25.0696 54.0882 24.8166C54.1962 24.7688 54.2983 24.7085 54.4005 24.6481C54.4449 24.6219 54.4893 24.5956 54.5343 24.5704C54.5578 24.5569 54.5808 24.5425 54.6039 24.5282L54.604 24.5281L54.6043 24.5279C54.6169 24.52 54.6295 24.5122 54.6422 24.5045ZM32.218 26.0923C31.8068 26.0861 31.4045 26.0356 31.0158 25.9091C30.1805 25.6372 29.5946 25.094 29.218 24.3302C29.0243 23.9372 28.9234 23.5191 28.8748 23.0876C28.8304 22.6955 28.8308 22.2997 28.8761 21.9077C28.9557 21.215 29.1747 20.5741 29.6255 20.0201C30.1021 19.4348 30.7198 19.0747 31.4737 18.934C32.0423 18.8279 32.6118 18.8286 33.1764 18.9531C34.2108 19.1811 34.9251 19.7891 35.3569 20.7177C35.536 21.1027 35.6257 21.5111 35.6688 21.9309C35.7161 22.3849 35.7011 22.843 35.624 23.2932C35.5042 23.9901 35.2209 24.6122 34.7135 25.1291C34.2178 25.6343 33.6071 25.9266 32.9003 26.0305C32.7459 26.0533 32.5899 26.0645 32.434 26.0757L32.434 26.0757L32.4339 26.0757L32.4339 26.0757L32.4339 26.0757L32.4339 26.0757C32.3618 26.0808 32.2898 26.086 32.218 26.0923ZM30.0539 22.5291C30.0486 22.7821 30.0759 23.0635 30.1346 23.3419C30.2145 23.7208 30.3579 24.0721 30.6051 24.38C30.8556 24.6915 31.1787 24.8964 31.5716 25.0007C31.8635 25.0782 32.1611 25.0926 32.4594 25.0667C33.1498 25.0068 33.6859 24.696 34.0545 24.1229C34.2349 23.8426 34.3431 23.5352 34.4048 23.2117C34.4907 22.7568 34.5015 22.2916 34.4368 21.8334C34.3852 21.4579 34.2762 21.0991 34.0642 20.7762C33.7664 20.3233 33.3492 20.0358 32.8033 19.9265C32.4977 19.8657 32.1835 19.8581 31.8751 19.9039C31.3059 19.9863 30.8532 20.2561 30.5277 20.7198C30.41 20.888 30.3159 21.0708 30.2482 21.2633C30.1062 21.6634 30.0514 22.0764 30.0543 22.5291H30.0539ZM21.8268 19.0525C21.8262 21.3489 21.8262 23.6456 21.8262 25.9662C21.8528 25.9703 21.8771 25.9744 21.8999 25.9783L21.9 25.9783L21.9001 25.9784C21.9396 25.9851 21.9746 25.9911 22.0098 25.9948C22.1901 26.0115 22.3707 26.0266 22.5512 26.0416L22.5513 26.0416L22.5514 26.0416L22.5515 26.0416L22.5516 26.0416L22.5517 26.0416L22.5521 26.0417L22.579 26.0439C23.283 26.1023 23.9868 26.1159 24.6901 26.0347C25.1649 25.9798 25.6284 25.8796 26.0712 25.7003C26.4378 25.5518 26.7724 25.3546 27.0604 25.0865C27.486 24.6907 27.748 24.2057 27.8815 23.6539C28.0475 22.9662 28.0474 22.2738 27.909 21.5826C27.8123 21.0992 27.6199 20.6528 27.3175 20.2539C26.9126 19.7197 26.374 19.3671 25.7322 19.1534C25.1313 18.9534 24.5094 18.8794 23.8781 18.8633C23.2674 18.8478 22.6596 18.8964 22.052 18.946C22.0058 18.9498 21.9599 18.9565 21.9134 18.9634C21.8904 18.9667 21.8673 18.9701 21.844 18.9732C21.8416 18.9833 21.839 18.9925 21.8366 19.0011L21.8366 19.0012C21.8313 19.0201 21.8268 19.0363 21.8268 19.0525ZM23.0282 25.0821C23.0247 25.0789 23.0203 25.0748 23.014 25.0696V25.0697C23.0131 25.0583 23.0119 25.046 23.0105 25.0331L23.0105 25.0328C23.0075 25.003 23.0041 24.9698 23.0036 24.9365C22.9813 23.1767 22.9941 20.0401 23.0238 19.8778L23.0281 19.8752L23.0338 19.8715L23.0338 19.8715C23.041 19.8666 23.0482 19.8617 23.0557 19.8612C23.6858 19.8144 24.3129 19.8223 24.9301 19.9725C25.0777 20.0092 25.2226 20.0555 25.3637 20.1112C25.9918 20.3557 26.4053 20.7988 26.624 21.4156C26.7685 21.8229 26.8058 22.245 26.7939 22.6727C26.786 22.9564 26.7506 23.237 26.6673 23.511C26.4709 24.1561 26.0555 24.6057 25.4072 24.8519C25.1156 24.9628 24.8125 25.0279 24.5032 25.0685C24.0415 25.129 23.5777 25.1176 23.1139 25.1026C23.0888 25.1006 23.064 25.0965 23.0396 25.0903C23.0363 25.0896 23.0334 25.0869 23.0282 25.0821ZM72.4531 25.9792L72.4699 25.9762L72.4835 25.974L72.4991 25.9715V19.2147C72.4991 19.2023 72.4993 19.1898 72.4994 19.1774C72.4998 19.1466 72.5002 19.1159 72.4983 19.0853C72.4968 19.0606 72.4927 19.0359 72.4887 19.0123L72.4887 19.0122C72.4871 19.0022 72.4854 18.9925 72.4841 18.983C72.3096 18.956 71.5808 18.957 71.4311 18.983C71.403 19.0312 71.4057 19.0835 71.4084 19.1354L71.4096 19.1596C71.4098 19.1668 71.41 19.174 71.41 19.1811L71.4098 19.3072C71.4088 19.8446 71.4078 20.3817 71.41 20.9188C71.4127 21.578 71.4156 22.2372 71.4252 22.8962C71.4284 23.1162 71.4376 23.3358 71.4468 23.5556L71.4469 23.5561C71.4524 23.687 71.4578 23.8179 71.4621 23.9489C71.4622 23.9512 71.4624 23.9536 71.4627 23.9561C71.4632 23.9603 71.464 23.9647 71.4647 23.9692C71.4696 23.9967 71.475 24.0276 71.4256 24.0437L71.4006 24.0104C71.3729 23.9734 71.3447 23.9356 71.3163 23.8981L71.2533 23.8145L71.0876 23.5946L71.0859 23.5923L71.0833 23.5889C70.88 23.3189 70.6767 23.049 70.4711 22.7806C70.4033 22.6921 70.3323 22.6058 70.2614 22.5195L70.2614 22.5194L70.2613 22.5193C70.1897 22.4322 70.1181 22.3451 70.0497 22.2557L67.6568 19.1217C67.6291 19.0853 67.5999 19.05 67.5731 19.0174L67.5726 19.0167L67.5719 19.016L67.5718 19.0158C67.5595 19.001 67.5478 18.9867 67.5369 18.9733C67.1799 18.9495 66.6348 18.9577 66.493 18.9883C66.4916 18.9931 66.4897 18.998 66.4878 19.003L66.4878 19.0031L66.4878 19.0032C66.4835 19.0143 66.479 19.026 66.479 19.0378C66.4784 21.3295 66.4784 23.6213 66.479 25.9132C66.479 25.9244 66.4829 25.9356 66.4877 25.9492C66.4902 25.9565 66.493 25.9644 66.4956 25.9735C66.626 25.9967 66.7581 25.9931 66.8895 25.9896C66.9341 25.9885 66.9786 25.9873 67.0229 25.9871C67.0691 25.987 67.1155 25.9883 67.1621 25.9896L67.1622 25.9896C67.2919 25.9932 67.4232 25.9969 67.5575 25.9697L67.5611 25.9123L67.5611 25.9121C67.5637 25.8723 67.5661 25.8353 67.567 25.7983C67.5679 25.7572 67.5676 25.7161 67.5673 25.675L67.567 25.6135V23.0254V22.8406C67.5667 22.7851 67.5663 22.7297 67.5657 22.6742L67.5653 22.6269C67.5649 22.5872 67.5645 22.5475 67.5639 22.5078C67.563 22.4583 67.562 22.4088 67.5609 22.3593L67.5601 22.323L67.5562 22.1566L67.5522 21.9902L67.5509 21.9273L67.5495 21.8531L67.5486 21.8054L67.5455 21.639L67.542 21.4542C67.5409 21.3987 67.5398 21.3432 67.5384 21.2878C67.5371 21.2323 67.5358 21.1769 67.5337 21.1214C67.5327 21.0973 67.5314 21.0732 67.5301 21.0491V21.0489V21.0488V21.0486V21.0484V21.0483C67.5281 21.011 67.526 20.9738 67.5253 20.9366C67.525 20.9243 67.5239 20.912 67.5228 20.8994C67.519 20.8585 67.515 20.8144 67.5402 20.7609C67.5522 20.7755 67.5629 20.7882 67.5726 20.7997L67.5727 20.7998L67.5729 20.8L67.5733 20.8005L67.5735 20.8008C67.5917 20.8224 67.6065 20.8399 67.6199 20.8584C67.6666 20.9227 67.7127 20.9875 67.7589 21.0523L67.7589 21.0524L67.759 21.0525L67.759 21.0525L67.7591 21.0526L67.7592 21.0528C67.8501 21.1805 67.9411 21.3081 68.0364 21.4327C68.1706 21.6082 68.3068 21.7823 68.4429 21.9565L68.4431 21.9566L68.4433 21.9569L68.4435 21.9572L68.4438 21.9576L68.4445 21.9585C68.6072 22.1666 68.7699 22.3747 68.9294 22.585C69.5406 23.3955 70.1516 24.2062 70.7623 25.0171C70.8291 25.1058 70.8961 25.1944 70.963 25.283L70.9638 25.284C71.1181 25.4883 71.2724 25.6925 71.4252 25.8978C71.4697 25.9575 71.5187 25.9896 71.5986 25.9885C71.7722 25.986 71.9458 25.9861 72.1195 25.9862C72.2128 25.9862 72.3061 25.9863 72.3994 25.9859C72.4149 25.9859 72.4305 25.9831 72.4531 25.9792ZM55.8019 20.8508C55.5844 21.3794 55.5139 21.9331 55.5073 22.5718C55.5089 22.5994 55.5103 22.6329 55.512 22.6707C55.5162 22.767 55.5216 22.8907 55.5328 23.0137C55.5751 23.4642 55.675 23.9021 55.876 24.3129C56.3047 25.1892 56.9924 25.7672 57.9753 25.9868C58.5843 26.1229 59.1994 26.1177 59.809 25.986C60.5503 25.8258 61.1517 25.4472 61.6137 24.8618C61.8916 24.5096 62.0811 24.1159 62.2007 23.6896C62.3543 23.1426 62.3858 22.5846 62.3437 22.0224C62.3112 21.5903 62.224 21.1674 62.0455 20.7681C61.6186 19.8138 60.8989 19.1876 59.8421 18.9522C59.316 18.8351 58.7837 18.8307 58.2517 18.913C57.8665 18.9729 57.4992 19.09 57.161 19.2827C56.5169 19.6492 56.0765 20.1837 55.8019 20.8508ZM61.1367 22.2371C61.1415 22.3008 61.1462 22.3644 61.1516 22.4279C61.1444 22.813 61.0999 23.1907 60.9827 23.5585C60.8997 23.8189 60.7791 24.062 60.6095 24.281C60.32 24.6543 59.9454 24.9026 59.475 25.0098C59.0728 25.1016 58.6701 25.103 58.2683 25.0069C57.817 24.899 57.4633 24.6548 57.1998 24.2851C57.0094 24.0182 56.8867 23.7232 56.8167 23.407C56.6689 22.7395 56.6794 22.0749 56.8644 21.4153C56.945 21.123 57.0849 20.8492 57.2759 20.61C57.5509 20.2662 57.9073 20.0426 58.3422 19.942C58.708 19.8574 59.0884 19.8515 59.4568 19.9246C60.055 20.0404 60.4946 20.3659 60.7915 20.8772C60.9588 21.1651 61.0542 21.4773 61.0965 21.8034C61.115 21.9473 61.1258 22.0921 61.1367 22.2369V22.237V22.237V22.2371V22.2371ZM41.9683 20.3943C41.9487 20.3832 41.9314 20.3737 41.9156 20.365C41.8848 20.348 41.8602 20.3344 41.8366 20.3193C41.4356 20.0605 40.9905 19.9311 40.5137 19.8912C40.189 19.8643 39.8662 19.8705 39.5457 19.9316C38.9013 20.0545 38.4178 20.3907 38.1074 20.9547C37.9409 21.2572 37.8472 21.5824 37.8002 21.9205C37.7426 22.3301 37.7416 22.7453 37.7972 23.1552C37.834 23.4253 37.902 23.6869 38.0164 23.9365C38.2712 24.491 38.7033 24.8414 39.307 24.9956C39.523 25.0511 39.7432 25.0757 39.9664 25.0827C40.3954 25.0962 40.8164 25.051 41.2254 24.92C41.2808 24.9023 41.3351 24.8815 41.3901 24.8605L41.3904 24.8603C41.4121 24.852 41.434 24.8437 41.4561 24.8354C41.471 24.6944 41.468 24.5575 41.4651 24.4221C41.4638 24.3602 41.4624 24.2985 41.4628 24.237C41.4637 24.0969 41.4625 23.9558 41.4613 23.8148V23.8142V23.8136V23.813L41.46 23.6454L41.4586 23.4345V23.4345V23.4344C41.4578 23.3138 41.457 23.1931 41.4566 23.0724C41.4562 22.9415 41.4563 22.8106 41.4565 22.6786L41.4566 22.4782C41.4676 22.4749 41.4776 22.4711 41.4869 22.4675C41.5039 22.4609 41.5188 22.4552 41.5338 22.4551C41.8515 22.4538 42.1693 22.4538 42.4871 22.4551C42.499 22.4551 42.5108 22.4587 42.5237 22.4626C42.5303 22.4646 42.5371 22.4667 42.5443 22.4684C42.5738 22.5121 42.571 22.5601 42.5683 22.607L42.5683 22.6071C42.5678 22.6145 42.5674 22.622 42.5671 22.6293C42.5668 22.6355 42.5667 22.6415 42.5667 22.6476C42.5676 23.5287 42.5679 24.4099 42.5674 25.291V25.4382C42.5269 25.4857 42.4762 25.5135 42.4263 25.5408C42.4158 25.5466 42.4052 25.5524 42.3948 25.5583C42.0121 25.7751 41.6001 25.9164 41.1655 25.9921C40.484 26.1108 39.8003 26.1181 39.1181 25.9967C38.9433 25.9654 38.7709 25.9226 38.6021 25.8686C37.9134 25.6491 37.3956 25.2258 37.0386 24.6154C36.7842 24.1801 36.6426 23.7102 36.5798 23.2162C36.5225 22.7631 36.5229 22.3048 36.581 21.8518C36.641 21.3772 36.7709 20.9219 37.0045 20.4983C37.4251 19.7355 38.0639 19.236 38.9272 19.0102C39.4802 18.8655 40.0426 18.8366 40.6099 18.877C41.062 18.9092 41.5033 18.9958 41.9261 19.1585C42.0184 19.1941 42.1089 19.2342 42.2018 19.2753C42.2448 19.2943 42.2882 19.3136 42.3327 19.3327C42.3231 19.4232 42.2921 19.5027 42.2617 19.5806L42.2616 19.5806L42.2616 19.5807C42.2473 19.6173 42.2331 19.6536 42.2214 19.6906C42.1936 19.7784 42.1621 19.8651 42.1306 19.9517L42.1048 20.0228C42.0796 20.0919 42.054 20.1613 42.0264 20.2363L41.9683 20.3943ZM43.9462 18.97L43.9462 18.97C43.9337 18.9724 43.9192 18.9752 43.9014 18.978V25.7357L43.9011 25.7727C43.9008 25.8035 43.9005 25.8343 43.9021 25.8651C43.9034 25.8889 43.9068 25.9127 43.9107 25.9392C43.9125 25.9516 43.9144 25.9647 43.9162 25.9786C43.9405 25.9797 43.9636 25.9809 43.9859 25.9821C44.0307 25.9846 44.0722 25.9868 44.1138 25.9868H48.4783C48.4876 25.9868 48.4969 25.987 48.5062 25.9872C48.5288 25.9876 48.5513 25.988 48.5737 25.986C48.599 25.9837 48.6242 25.9794 48.6506 25.9749L48.6508 25.9748C48.6622 25.9729 48.6738 25.9709 48.6858 25.969C48.702 25.8901 48.7004 25.8147 48.6988 25.7407C48.6982 25.7102 48.6976 25.6799 48.6982 25.6497C48.7004 25.5388 48.7026 25.4279 48.6975 25.317C48.6962 25.2873 48.6976 25.2572 48.6991 25.2269C48.7027 25.1532 48.7063 25.0779 48.6702 25.0015L48.6118 25.0012H48.6117C48.5736 25.0009 48.5361 25.0006 48.4986 25.0015C47.6602 25.0213 46.8219 25.0407 45.9836 25.0596C45.7293 25.0653 45.4751 25.0695 45.2209 25.0723C45.1921 25.0727 45.1632 25.0683 45.1353 25.064C45.1226 25.0621 45.11 25.0602 45.0978 25.0588C45.0771 24.8955 45.0667 23.4376 45.0824 22.9988C45.0831 22.9792 45.0859 22.9596 45.0891 22.9372C45.0908 22.926 45.0925 22.9141 45.0941 22.9011L45.118 22.8998L45.1542 22.8976C45.1945 22.895 45.232 22.8926 45.2696 22.8931C45.4533 22.8956 45.637 22.8988 45.8207 22.902L45.8209 22.902C45.9547 22.9043 46.0885 22.9066 46.2224 22.9087C46.8068 22.9179 47.3912 22.9263 47.9756 22.9339C47.9848 22.934 47.9943 22.9346 48.0039 22.9352C48.0442 22.9378 48.0855 22.9405 48.1172 22.9056C48.1464 22.6424 48.1369 22.0902 48.0987 21.9601L48.033 21.9598C47.9877 21.9596 47.9413 21.9593 47.8949 21.9601C47.2407 21.9709 46.5864 21.9816 45.9321 21.9922C45.6969 21.9963 45.4618 21.9994 45.2266 22.0014C45.1977 22.0016 45.1687 21.9982 45.1406 21.9949C45.1277 21.9934 45.115 21.9919 45.1027 21.9908C45.0746 21.8253 45.0743 20.0598 45.1017 19.8912C45.1467 19.8753 45.1952 19.8778 45.2438 19.8803C45.2574 19.881 45.271 19.8817 45.2845 19.882C46.3388 19.9052 47.3931 19.928 48.4475 19.9504C48.4761 19.951 48.5047 19.9481 48.5363 19.9449C48.5519 19.9433 48.5681 19.9417 48.5855 19.9403C48.5946 19.8586 48.5938 19.7814 48.5931 19.7057V19.7057V19.7057V19.7054V19.705C48.5928 19.6767 48.5926 19.6485 48.5928 19.6203L48.5931 19.5872V19.5869C48.594 19.4871 48.5949 19.3874 48.5924 19.2876C48.5916 19.2564 48.5925 19.2251 48.5934 19.1938C48.5956 19.1219 48.5977 19.05 48.5791 18.98C48.5698 18.9775 48.5615 18.9749 48.554 18.9725C48.5396 18.9678 48.5279 18.9641 48.5163 18.9641C47.0107 18.9633 45.505 18.9629 43.9993 18.9629C43.9837 18.9629 43.9682 18.9659 43.9462 18.97ZM63.6417 25.9717C63.837 25.9942 64.6231 25.9912 64.7994 25.9646H64.7997V19.564C64.7997 19.5265 64.7997 19.489 64.7998 19.4515C64.7999 19.3288 64.8 19.2061 64.7988 19.0834C64.7986 19.0597 64.7949 19.0361 64.7908 19.0109C64.7889 18.9987 64.7869 18.9862 64.7852 18.9731C64.7719 18.9717 64.7597 18.97 64.7481 18.9684C64.7249 18.9652 64.7045 18.9624 64.6841 18.9624C64.3536 18.9623 64.0231 18.9632 63.6926 18.9649C63.6811 18.965 63.6696 18.9698 63.6562 18.9754C63.6494 18.9783 63.6421 18.9814 63.6341 18.9841C63.6163 19.0386 63.618 19.0952 63.6196 19.1517C63.6201 19.1682 63.6206 19.1847 63.6206 19.2011C63.6203 21.382 63.6201 23.5628 63.6201 25.7435C63.6201 25.756 63.6199 25.7684 63.6197 25.7808C63.6192 25.8117 63.6187 25.8424 63.6214 25.8729C63.6234 25.8966 63.6293 25.9204 63.6349 25.9429C63.6373 25.9528 63.6397 25.9624 63.6417 25.9717Z" fill="#4D668F"/>
<path d="M11.0354 22.9361C11.064 22.7709 11.0685 22.2791 11.0467 22.0847C10.9936 22.0362 10.9269 22.054 10.8656 22.0537C10.4271 22.0523 9.98854 22.0531 9.55001 22.0528C9.48099 22.0528 9.41187 22.0499 9.33398 22.0482C9.32702 21.997 9.31673 21.9558 9.31673 21.9148C9.31565 21.3047 9.31565 20.6949 9.31673 20.0853C9.31673 20.0438 9.32369 20.0021 9.32826 19.9513C9.37374 19.9469 9.41025 19.9403 9.44676 19.9402C9.77709 19.9395 10.1076 19.9338 10.4382 19.9414C10.8697 19.9513 11.2814 20.048 11.6641 20.2445C12.1621 20.5002 12.5089 20.8875 12.7105 21.397C12.8182 21.669 12.8775 21.9516 12.9012 22.2418C12.9291 22.5809 12.9233 22.9185 12.861 23.2542C12.8278 23.4425 12.7724 23.6265 12.696 23.8025C12.4451 24.3699 12.0067 24.7354 11.4047 24.923C11.1442 25.0043 10.8725 25.0468 10.5989 25.0489C10.2113 25.0523 9.82381 25.0504 9.4358 25.0499C9.40472 25.0499 9.37364 25.0424 9.33484 25.0374C9.32836 25.0004 9.31692 24.9655 9.31692 24.9304C9.31577 24.308 9.31562 23.6859 9.31644 23.064C9.31644 23.0286 9.32359 22.9931 9.32845 22.9473C9.47403 22.9258 9.61302 22.9389 9.75097 22.9367C9.89712 22.9343 10.0433 22.9361 10.1895 22.9361H11.0351H11.0354Z" fill="#4D668F"/>
</g>
<defs>
<clipPath id="clip0_29261_205070">
<rect width="70" height="15" fill="white" transform="translate(2.5 15)"/>
</clipPath>
</defs>
</svg>
