<svg width="75" height="47" viewBox="0 0 75 47" fill="none" xmlns="http://www.w3.org/2000/svg">
<path fill-rule="evenodd" clip-rule="evenodd" d="M19.0013 17.0316C17.6575 18.1463 16.324 19.261 14.9801 20.3757C14.9801 20.3861 14.9906 20.3861 14.9906 20.3965C17.0949 20.011 19.1993 19.636 21.3349 19.2506C20.5536 18.5109 19.7826 17.7817 19.0013 17.0316ZM13.5633 20.1881C14.9801 19.0005 16.3969 17.8233 17.8346 16.6253C14.1676 15.9482 10.5214 15.2815 6.88567 14.6043C6.88567 14.6147 6.87525 14.6251 6.87525 14.6356C9.10462 16.4795 11.334 18.3338 13.5633 20.1881ZM21.1474 20.4069C21.1474 20.3965 21.1369 20.3861 21.1369 20.3757C21.0015 20.3965 20.8557 20.4277 20.7202 20.4486C18.5534 20.8444 16.3865 21.2299 14.2197 21.6153C14.1259 21.6362 14.0946 21.6779 14.0842 21.7716C14.0634 22.0216 14.0321 22.2717 14.0009 22.5113C13.9071 23.3238 13.803 24.126 13.7092 24.9386C13.6154 25.7407 13.5217 26.5429 13.4175 27.3554C13.3133 28.2305 13.2091 29.0952 13.105 29.9703C13.0946 30.0432 13.0946 30.1265 13.0841 30.1994C13.0946 30.1994 13.105 30.2099 13.105 30.2099C15.7823 26.9387 18.4596 23.6676 21.1474 20.4069ZM6.12519 15.3856C6.11477 15.3856 6.10435 15.396 6.09394 15.396C8.05244 20.3236 10.0109 25.2511 11.9695 30.1786C12.0007 30.1578 12.0007 30.1369 12.0111 30.1161C12.0841 29.5223 12.157 28.9285 12.2299 28.3347C12.3237 27.5325 12.4278 26.7304 12.5216 25.9386C12.6153 25.1365 12.7091 24.3343 12.8133 23.5426C12.907 22.7925 12.9904 22.0425 13.0841 21.2924C13.0946 21.1986 13.0633 21.1361 12.9904 21.0841C11.0215 19.4589 9.06295 17.8233 7.10444 16.1982C6.77108 15.9273 6.44813 15.6565 6.12519 15.3856ZM23.21 19.5631C19.4701 24.1156 15.751 28.6472 12.0215 33.1997C9.34422 26.4595 6.67732 19.7506 4 13C4.2396 13.0417 4.45837 13.0833 4.67714 13.125C6.04185 13.375 7.39613 13.6251 8.76084 13.8751C10.1568 14.1355 11.5528 14.3855 12.9591 14.646C14.4488 14.9168 15.949 15.1981 17.4387 15.469C18.0221 15.5731 18.595 15.6877 19.1784 15.7919C19.2305 15.8023 19.293 15.8336 19.3347 15.8648C20.564 17.0316 21.8037 18.2088 23.0329 19.386C23.0746 19.4485 23.1371 19.5006 23.21 19.5631Z" fill="#4D668F"/>
<path fill-rule="evenodd" clip-rule="evenodd" d="M54.8482 22.3551C54.4315 22.3551 54.0981 22.6781 54.0877 23.0948C54.0877 23.5219 54.4106 23.8552 54.8378 23.8552C55.2649 23.8552 55.5982 23.5323 55.5982 23.1052C55.5982 22.6885 55.2649 22.3551 54.8482 22.3551ZM65.3283 23.8552C64.9949 23.4802 64.6615 23.1156 64.3282 22.7406C64.3178 22.7197 64.2969 22.7093 64.2657 22.6885V28.3452H65.3908C65.3908 28.3036 65.3908 28.2723 65.3908 28.2515C65.3908 26.8451 65.3908 25.4387 65.3908 24.0323C65.3908 23.9594 65.3595 23.8969 65.3283 23.8552ZM32.0441 28.3348H33.1483V21.0008H32.0441V28.3348ZM30.0022 28.3348H31.1065V21.0008H30.0022V28.3348ZM27.002 18.9902H36.159V17.886H27.002V18.9902ZM54.8482 27.2097C52.5771 27.2097 50.7332 25.3658 50.7332 23.1052C50.7332 20.8446 52.5771 19.0007 54.8378 19.0007C57.1192 19.0007 58.9527 20.8446 58.9527 23.1469C58.9527 25.3658 57.0984 27.2097 54.8482 27.2097ZM54.8898 17.8756C51.9625 17.8756 49.6081 20.1987 49.6081 23.1052C49.6081 25.97 51.9521 28.3452 54.7857 28.3452C57.7338 28.3452 60.0778 26.0325 60.0778 23.1156C60.0778 20.2299 57.7443 17.8756 54.8898 17.8756ZM70.235 17.886V26.0325C70.2245 26.0325 70.2141 26.0429 70.2037 26.0429C67.5472 23.0843 64.8803 20.1362 62.2134 17.1567V28.3348H63.3281V20.1362C66.0158 23.126 68.6827 26.0846 71.3601 29.064V17.886H70.235ZM45.5661 24.0949C46.9412 23.5636 47.7746 22.1884 47.6288 20.73C47.4621 19.1152 46.087 17.8756 44.4514 17.8756C42.5033 17.8756 40.5552 17.8756 38.6071 17.8756H38.4821V28.3452H39.5864V19.0215C39.6281 19.0215 39.6489 19.0215 39.6802 19.0215C41.2532 19.0215 42.8367 19.0215 44.4097 19.0215C44.7431 19.0215 45.0556 19.084 45.3473 19.2298C46.2016 19.657 46.6599 20.6258 46.4516 21.553C46.2224 22.5218 45.4098 23.1677 44.4306 23.1677C43.1805 23.1677 41.9304 23.1677 40.6802 23.1677H40.524V28.3452H41.6283V24.3136C41.6908 24.3136 41.722 24.3032 41.7637 24.3032C42.545 24.3032 43.3263 24.3032 44.1076 24.3032C44.2118 24.3032 44.2535 24.3345 44.3056 24.4178C44.9827 25.6992 45.6599 26.9805 46.3266 28.2619C46.3683 28.3348 46.3995 28.3556 46.4828 28.3556C46.8475 28.3556 47.2121 28.3556 47.5767 28.3556C47.6079 28.3556 47.6392 28.3452 47.6809 28.3452C46.9412 26.9389 46.2016 25.5533 45.4619 24.1574C45.4932 24.1261 45.5244 24.1157 45.5661 24.0949Z" fill="#4D668F"/>
</svg>
