<svg width="134" height="44" viewBox="0 0 134 44" fill="none" xmlns="http://www.w3.org/2000/svg">
<g clip-path="url(#clip0_6809_414021)">
<path fill-rule="evenodd" clip-rule="evenodd" d="M130.427 44H3.57333C1.59996 44 0 42.4239 0 40.48V3.52C0 1.57608 1.59996 0 3.57333 0H130.427C132.4 0 134 1.57608 134 3.52V40.48C134 42.4239 132.4 44 130.427 44Z" fill="#FF333A"/>
<path d="M15.6786 35.587L15.0622 32.8652H11.781L11.1887 35.587H7.93164L11.7801 19.3774H15.1846L19.1323 35.587H15.6786ZM14.5682 30.3625C14.2225 28.8075 13.8777 27.2763 13.6311 25.6967C13.5319 24.9918 13.4337 24.2632 13.3595 23.5583C13.2112 25.8428 12.7431 28.1026 12.2741 30.3634H14.5682V30.3625Z" fill="white"/>
<path d="M27.0352 23.0472C26.3688 22.4884 25.6041 22.0027 24.692 22.0027C23.7299 22.0027 23.0634 22.6345 23.0634 23.5823C23.0634 26.3772 27.9973 26.3288 27.9973 30.8484C27.9973 33.6433 26.2946 35.8548 23.31 35.8548C22.2987 35.8548 21.3116 35.5872 20.4728 35.0284V31.966C21.2124 32.4518 21.978 32.8408 22.8901 32.8408C24.0005 32.8408 24.8144 32.1605 24.8144 31.042C24.8144 30.7508 24.7652 30.4832 24.6419 30.2157C24.3463 29.6085 23.4333 29.0735 22.8901 28.7092C21.04 27.4455 19.8555 26.2786 19.8555 23.922C19.8555 21.37 21.3607 19.1348 24.1479 19.1348C25.2583 19.1348 26.0722 19.3776 27.0343 19.9127V23.0472H27.0352Z" fill="white"/>
<path d="M35.6287 35.587L32.5941 27.3485V35.587H29.3379V19.3774H32.5941V26.6198L35.3322 19.3774H38.6625L35.6279 26.8627L39.0323 35.587H35.6287Z" fill="white"/>
<path d="M50.0029 26.5716C50.0279 26.9844 50.0279 27.398 50.0279 27.8107C50.0279 28.9529 49.9788 30.1198 49.7322 31.2374C49.1891 33.7401 47.5364 35.8548 44.7492 35.8548C40.3084 35.8548 38.9023 31.1397 38.9023 27.5432C38.9023 23.8252 40.136 19.1348 44.7492 19.1348C47.2657 19.1348 48.8934 20.6897 49.5848 22.9742L46.4269 24.1895C46.2786 23.2417 46.0079 21.9534 44.7742 21.9534C42.5543 21.9534 42.381 25.9636 42.381 27.4948C42.381 29.099 42.4551 32.9384 44.7983 32.9384C46.5743 32.9384 46.7717 30.7516 46.7967 29.4387H44.7242V26.5708H50.0029V26.5716Z" fill="white"/>
<path d="M58.0137 35.587L57.3973 32.8652H54.1161L53.5238 35.587H50.2676L54.1161 19.3774H57.5206L61.4682 35.587H58.0137ZM56.9042 30.3625C56.5584 28.8075 56.2136 27.2763 55.967 25.6967C55.8679 24.9918 55.7696 24.2632 55.6955 23.5583C55.5472 25.8428 55.0791 28.1026 54.6101 30.3634H56.9042V30.3625Z" fill="white"/>
<path d="M73.9588 35.587L73.1449 23.9218C73.0708 25.1854 72.8734 26.4245 72.6518 27.6644L71.1966 35.587H68.7051L67.1757 28.2478C67.0033 27.4462 66.83 26.6436 66.7567 25.8173L66.5593 23.9218L66.0411 35.587H62.5625L63.9936 19.3774H68.2861L69.8896 28.9527L71.1975 19.3774H75.5891L77.2909 35.587H73.9588Z" fill="white"/>
<path d="M82.1143 19.3774C82.9782 19.3774 84.4334 19.4258 85.5679 20.5197C86.4559 21.3706 86.9249 22.7065 86.9249 24.0194C86.9249 24.8211 86.7525 25.6237 86.1602 26.3286C85.8886 26.6445 85.4697 27.0334 84.8524 27.2763C85.9128 27.6653 86.4309 28.3939 86.6283 28.7098C87.0973 29.4878 87.1956 30.3871 87.1956 30.9943C87.1956 32.2096 86.8749 33.3034 85.9619 34.2019C84.7041 35.441 83.0505 35.587 82.0884 35.587H78.6348V19.3774H82.1143ZM81.8927 26.0364C82.4109 26.0118 83.0032 25.7935 83.3239 25.4776C83.7929 25.0156 83.842 24.3354 83.842 23.971C83.842 23.5821 83.7929 22.9749 83.3239 22.5129C83.0523 22.2454 82.6083 22.0271 81.8927 22.0271V26.0364ZM81.8927 32.8168C82.4109 32.8168 83.0032 32.647 83.373 32.3064C83.7187 31.9905 83.9894 31.4317 83.9894 30.7268C83.9894 29.9489 83.7178 29.3654 83.348 29.0258C82.9531 28.6852 82.3609 28.5154 81.8927 28.5154V32.8168V32.8168Z" fill="white"/>
<path d="M88.7715 35.587V19.3774H92.0277V32.5493H95.4322V35.587H88.7715Z" fill="white"/>
<path d="M96.7715 35.587V19.3774H103.309V22.3906H100.028V25.8903H102.914V28.9527H100.028V32.5977H103.358V35.587H96.7715Z" fill="white"/>
<path d="M111.074 35.587L108.188 28.1264V35.587H104.932V19.3774H108.459C109.668 19.3774 111 19.4751 112.036 20.1554C113.344 21.0063 113.986 22.5859 113.986 24.0925C113.986 25.9396 113.246 27.2517 111.642 28.2241L114.504 35.5879H111.074V35.587ZM108.187 26.3523C108.359 26.377 108.557 26.377 108.73 26.377C110.136 26.377 110.827 25.4292 110.827 24.1171C110.827 22.805 110.234 21.9057 108.804 21.9057H108.188V26.3523H108.187Z" fill="white"/>
<path d="M122.406 23.0472C121.74 22.4884 120.975 22.0027 120.063 22.0027C119.101 22.0027 118.435 22.6345 118.435 23.5823C118.435 26.3772 123.368 26.3288 123.368 30.8484C123.368 33.6433 121.666 35.8548 118.681 35.8548C117.67 35.8548 116.683 35.5872 115.844 35.0284V31.966C116.584 32.4518 117.349 32.8408 118.261 32.8408C119.372 32.8408 120.185 32.1605 120.185 31.042C120.185 30.7508 120.136 30.4832 120.013 30.2157C119.717 29.6085 118.804 29.0735 118.261 28.7092C116.411 27.4455 115.227 26.2786 115.227 23.922C115.227 21.37 116.732 19.1348 119.519 19.1348C120.629 19.1348 121.443 19.3776 122.405 19.9127V23.0472H122.406Z" fill="white"/>
<path d="M125.888 23.6658C127.071 23.6658 128.031 22.721 128.031 21.5556C128.031 20.3901 127.071 19.4453 125.888 19.4453C124.705 19.4453 123.746 20.3901 123.746 21.5556C123.746 22.721 124.705 23.6658 125.888 23.6658Z" fill="white"/>
<path d="M28.0677 16.194L26.5463 13.4827H25.3385V16.194H23.6895V8.56348H27.3128C28.9271 8.56348 29.9258 9.60452 29.9258 11.0231C29.9258 12.3616 29.0548 13.0946 28.2187 13.2882L29.9723 16.194H28.0677ZM28.2303 11.0116C28.2303 10.3824 27.7309 9.99348 27.0805 9.99348H25.3385V12.0527H27.0805C27.7309 12.0527 28.2303 11.6637 28.2303 11.0116Z" fill="white"/>
<path d="M32.3164 16.194V8.56348H37.7979V9.99348H33.9655V11.5951H37.7166V13.0251H33.9655V14.764H37.7979V16.194H32.3164Z" fill="white"/>
<path d="M42.4202 16.194L39.4355 8.56348H41.3053L43.4538 14.4208L45.6022 8.56348H47.472L44.4873 16.194H42.4202Z" fill="white"/>
<path d="M49.3535 16.194V8.56348H51.0026V16.194H49.3535Z" fill="white"/>
<path d="M53.6973 16.194V8.56348H59.1788V9.99348H55.3464V11.5951H59.0975V13.0251H55.3464V14.764H59.1788V16.194H53.6973Z" fill="white"/>
<path d="M67.5507 16.194L66.192 10.9544L64.8448 16.194H63.0912L60.873 8.56348H62.7196L64.0783 14.0776L65.5532 8.56348H66.8423L68.3056 14.0776L69.6643 8.56348H71.5109L69.3043 16.194H67.5507Z" fill="white"/>
<path d="M73.4512 16.194V8.56348H78.9327V9.99348H75.1003V11.5951H78.8514V13.0251H75.1003V14.764H78.9327V16.194H73.4512Z" fill="white"/>
<path d="M81.3828 16.194V8.56348H84.4371C86.8643 8.56348 88.5482 10.085 88.5482 12.373C88.5482 14.6839 86.8643 16.194 84.4487 16.194H81.3828V16.194ZM86.8652 12.373C86.8652 11.0345 86.029 9.99348 84.4496 9.99348H83.0328V14.764H84.438C85.971 14.764 86.8652 13.6772 86.8652 12.373Z" fill="white"/>
<path d="M95.0273 16.194V8.56348H99.1036C100.579 8.56348 101.333 9.49012 101.333 10.5083C101.333 11.4578 100.729 12.1099 99.9979 12.2586C100.834 12.3844 101.484 13.1738 101.484 14.1233C101.484 15.2788 100.718 16.194 99.2314 16.194H95.0273ZM99.6495 10.7943C99.6495 10.3252 99.3011 9.99348 98.7436 9.99348H96.6764V11.5951H98.7436C99.3011 11.5951 99.6495 11.2862 99.6495 10.7943ZM99.8004 13.8945C99.8004 13.414 99.452 13.0251 98.8133 13.0251H96.6764V14.764H98.8133C99.4288 14.764 99.8004 14.4436 99.8004 13.8945Z" fill="white"/>
<path d="M105.702 16.194V13.0708L102.729 8.56348H104.61L106.526 11.618L108.442 8.56348H110.312L107.351 13.0708V16.194H105.702Z" fill="white"/>
</g>
<defs>
<clipPath id="clip0_6809_414021">
<rect width="134" height="44" fill="white"/>
</clipPath>
</defs>
</svg>
