<svg width="160" height="39" viewBox="0 0 160 39" fill="none" xmlns="http://www.w3.org/2000/svg">
<path fill-rule="evenodd" clip-rule="evenodd" d="M156.432 6.25046C155.837 6.391 155.367 6.65651 154.945 7.09149C154.583 7.46481 154.353 7.83716 154.203 8.29479C154.05 8.75687 154.024 9.47649 154.143 9.95553C154.416 11.0618 155.229 11.9148 156.285 12.2016C156.706 12.316 157.37 12.316 157.791 12.2016C158.607 11.98 159.322 11.3834 159.694 10.6152C159.944 10.1001 160.021 9.71699 159.995 9.11662C159.971 8.54082 159.909 8.29936 159.653 7.79214C159.521 7.53036 159.403 7.37313 159.129 7.09269C158.744 6.69817 158.395 6.4806 157.878 6.31369C157.529 6.20092 156.781 6.16823 156.432 6.25046ZM157.645 6.77476C158.439 6.98157 159.136 7.64728 159.398 8.44922C159.51 8.78992 159.547 9.19985 159.498 9.56104C159.364 10.5651 158.751 11.3231 157.799 11.6612C157.529 11.7574 157.428 11.772 157.038 11.772C156.653 11.772 156.546 11.7568 156.292 11.6664C155.604 11.4216 155.126 10.9944 154.8 10.3328C154.556 9.83708 154.495 9.07584 154.656 8.53489C154.909 7.6881 155.603 6.99385 156.413 6.77696C156.701 6.69977 157.353 6.69861 157.645 6.77476ZM155.905 9.13186V10.7158H156.099H156.294L156.305 10.0455L156.315 9.37524H156.908C157.486 9.37524 157.503 9.37768 157.605 9.47529C157.749 9.61266 157.779 9.71046 157.819 10.1748C157.867 10.7278 157.859 10.7158 158.14 10.7158C158.348 10.7158 158.371 10.708 158.345 10.6458C158.273 10.4723 158.21 10.1611 158.21 9.97677C158.209 9.59522 158.115 9.37969 157.886 9.23495L157.777 9.16616L157.898 9.11478C158.075 9.03986 158.207 8.83774 158.255 8.56895C158.328 8.16222 158.187 7.85049 157.844 7.66301C157.694 7.58106 157.621 7.57397 156.794 7.56145L155.905 7.54792V9.13186ZM157.584 7.96582C157.837 8.09707 157.934 8.48671 157.779 8.74738C157.655 8.95591 157.51 8.99509 156.863 8.99509H156.296V8.45486V7.91464L156.891 7.91524C157.289 7.91564 157.519 7.9324 157.584 7.96582ZM58.8697 13.1168V13.677H59.4752H60.0807V18.9993V24.3215H59.435H58.7894L58.8003 24.8717L58.8111 25.4219H60.1198H61.4284L61.4479 24.5857L61.4675 23.7493L61.6933 24.0515C62.1135 24.6138 62.6506 25.0752 63.1459 25.2996C63.5594 25.4869 63.8136 25.5373 64.3582 25.5397C64.786 25.5416 64.912 25.5272 65.1577 25.4482C65.7572 25.2553 66.2184 24.9555 66.683 24.4566C67.3228 23.7696 67.7376 22.9317 67.9589 21.8795C68.0673 21.3642 68.0585 20.1741 67.9418 19.5785C67.5793 17.7268 66.507 16.3563 65.1408 15.9983C64.7291 15.8905 64.1097 15.8891 63.7048 15.9952C62.9552 16.1916 62.1474 16.8163 61.6399 17.592L61.4479 17.8855V15.221V12.5566H60.1588H58.8697V13.1168ZM68.8311 13.0768V13.597H69.4561H70.0811V18.9592V24.3215H69.4159H68.7507L68.7616 24.8717L68.7725 25.4219L70.7159 25.4323L72.6594 25.4427V24.8821V24.3215H72.0539H71.4484V18.439V12.5566H70.1397H68.8311V13.0768ZM26.2902 12.8724C24.1988 13.3417 22.597 15.4328 22.2467 18.1509C22.1366 19.0059 22.1837 20.2176 22.36 21.0637C22.6214 22.3178 23.3058 23.6133 24.1184 24.392C24.6861 24.9359 25.415 25.3585 26.1144 25.549C26.4571 25.6423 26.5818 25.6557 27.1301 25.6577C27.8513 25.6603 28.1824 25.5946 28.7817 25.3299C29.4887 25.0177 30.1518 24.4522 30.5879 23.7897C30.6842 23.6434 30.7762 23.5231 30.7923 23.5224C30.8085 23.5217 30.8216 23.9353 30.8216 24.4415V25.3619H31.4857H32.1498V22.3206V19.2794H30.0463H27.9428L27.9173 19.7058C27.9033 19.9403 27.8918 20.1924 27.8918 20.266V20.3998H29.3235H30.7552L30.733 20.8319C30.6834 21.7937 30.3469 22.5816 29.6984 23.2542C29.2353 23.7345 28.6883 24.052 28.0562 24.2073C27.0036 24.4658 25.9685 24.1263 25.1546 23.2555C24.164 22.1954 23.6377 20.3805 23.7843 18.5297C23.9025 17.038 24.3143 15.9588 25.0765 15.1432C25.8927 14.2698 27.0313 13.8757 27.9895 14.1349C29.2638 14.4796 30.1162 15.3035 30.529 16.5892L30.6353 16.9203L31.2851 16.9093L31.935 16.8984V14.9376V12.9767H31.3099H30.6849L30.6744 13.9132L30.6639 14.8496L30.4986 14.6065C29.9329 13.7747 29.1411 13.1803 28.2434 12.9137C27.8201 12.7879 26.7659 12.7657 26.2902 12.8724ZM0 14.1172V15.1176H0.449238H0.898476V19.2394V23.3611H0.449238H0V24.363V25.365L3.60367 25.3507C6.77982 25.338 7.23804 25.3285 7.46622 25.2707C8.65994 24.9683 9.46099 24.3838 9.92035 23.48C10.1642 23.0002 10.2387 22.6732 10.263 21.9758C10.2888 21.2332 10.2316 20.9217 9.97105 20.3873C9.82104 20.0796 9.73077 19.9574 9.41759 19.6375C9.10348 19.3167 8.98507 19.2257 8.68049 19.0709L8.31762 18.8865L8.63822 18.6928C9.24493 18.3262 9.62662 17.8363 9.77136 17.2385C9.85226 16.9043 9.83991 15.8876 9.75093 15.5579C9.41607 14.3172 8.55908 13.464 7.42219 13.2396C6.91553 13.1395 6.14608 13.1175 3.15443 13.1172L0 13.1168V14.1172ZM87.022 14.1468C86.8393 14.7137 86.3964 16.105 86.0378 17.2385C85.6792 18.372 85.1314 20.1007 84.8205 21.0801C84.5096 22.0595 84.2156 22.9869 84.1672 23.141L84.0793 23.4211L83.6234 23.4324L83.1676 23.4436V24.4428V25.4419H84.5675H85.9675L86.3569 24.1114L86.7463 22.7808L88.8645 22.7705C90.8549 22.7607 90.9843 22.7644 91.0094 22.8305C91.0242 22.8692 91.2057 23.4681 91.4127 24.1614L91.789 25.4219L93.1621 25.4325L94.5353 25.443V24.4433V23.4436L94.0763 23.4324L93.6173 23.4211L93.4084 22.7808C93.2936 22.4287 92.5451 20.1147 91.7451 17.6387L90.2905 13.1368L88.8224 13.1263L87.3543 13.1158L87.022 14.1468ZM6.22198 15.1805C6.78666 15.3304 7.22714 15.6818 7.38399 16.1076C7.61158 16.7255 7.31918 17.4889 6.71638 17.8507C6.36988 18.0587 6.19503 18.0789 4.73809 18.0789H3.39858V16.5983V15.1176H4.69184C5.74095 15.1176 6.02979 15.1295 6.22198 15.1805ZM89.2005 16.763C89.4018 17.4537 89.7372 18.6131 89.9458 19.3394C90.1544 20.0657 90.3395 20.7095 90.3571 20.77L90.389 20.88H88.8292C87.841 20.88 87.2694 20.8657 87.2694 20.841C87.2694 20.799 87.6154 19.5825 88.2657 17.3386C88.4889 16.5682 88.7005 15.8331 88.7358 15.7049C88.7712 15.5767 88.8078 15.4798 88.8173 15.4895C88.8267 15.4991 88.9992 16.0722 89.2005 16.763ZM15.592 15.8012C14.5246 15.9233 13.4607 16.494 12.8009 17.2985C11.5392 18.8368 11.292 21.2985 12.2112 23.1685C12.8287 24.4246 13.9265 25.2853 15.2355 25.5397C15.6596 25.6221 16.6033 25.6224 17.0374 25.5402C18.6539 25.2342 19.8086 24.2175 20.2547 22.7076C20.3121 22.5132 20.3503 22.3452 20.3396 22.3342C20.3289 22.3232 19.8103 22.3273 19.1871 22.3432L18.054 22.3722L17.914 22.6623C17.547 23.4229 16.7722 23.8382 15.9381 23.7212C15.5211 23.6627 15.254 23.5584 14.9668 23.3418C14.469 22.9664 14.1178 22.2608 14.0054 21.4103L13.9776 21.2002H17.2687H20.5598L20.5345 20.69C20.4925 19.8413 20.2659 18.9734 19.8807 18.1852C19.6365 17.6855 19.4247 17.3799 19.0695 17.015C18.1886 16.11 16.8813 15.6537 15.592 15.8012ZM53.63 15.7986C52.7398 15.9412 52.0042 16.4806 51.4272 17.4136L51.2364 17.7222L51.1155 17.3478C50.7881 16.3331 50.2537 15.9016 49.2599 15.8497C48.8071 15.826 48.3856 15.8887 48.0018 16.0366C47.4747 16.2397 46.8419 16.7899 46.4122 17.4185L46.1934 17.7386L46.169 17.2985C46.1557 17.0564 46.1425 16.6558 46.1397 16.4082L46.1348 15.958H44.7871H43.4394V16.5182V17.0785H44.1034H44.7675V20.7V24.3215H44.1034H43.4394V24.8817V25.4419H45.4121H47.3848V24.8817V24.3215H46.7191H46.0534L46.0648 21.8104L46.0762 19.2994L46.2023 18.964C46.385 18.4781 46.6506 18.0661 47.0312 17.6784C47.5485 17.1513 48.0986 16.9157 48.6715 16.9758C49.1141 17.0222 49.4463 17.2319 49.6178 17.5729C49.8011 17.9372 49.8054 18.0353 49.8062 21.8104L49.8068 25.3619H51.1545H52.5022V24.8017V24.2414H51.8371H51.1718L51.1827 21.6904L51.1936 19.1393L51.323 18.8192C51.8023 17.6331 52.64 16.9215 53.5598 16.9192C54.2649 16.9175 54.6201 17.202 54.8334 17.9392C54.8972 18.1595 54.9038 18.469 54.9149 21.7704L54.927 25.3619H56.1952H57.4634V24.8017V24.2414H56.8403H56.2172L56.2029 20.9901C56.187 17.3702 56.1958 17.4944 55.9135 16.8851C55.6798 16.3806 55.1864 15.9745 54.6508 15.8458C54.3869 15.7824 53.8782 15.7589 53.63 15.7986ZM129.42 15.7841C128.282 15.895 127.37 16.3294 126.644 17.1049C126.012 17.7805 125.649 18.5133 125.43 19.5595C125.357 19.9072 125.342 20.1039 125.342 20.7C125.342 21.4776 125.408 21.9213 125.616 22.5607C126.028 23.824 126.954 24.8352 128.141 25.3183C129.007 25.6706 130.302 25.7042 131.277 25.3995C131.999 25.174 132.769 24.6544 133.197 24.105C133.487 23.7325 133.832 23.0435 133.949 22.6044L134.028 22.308L133.237 22.3342C132.803 22.3486 132.285 22.3605 132.086 22.3605L131.725 22.3607L131.583 22.6493C131.073 23.6885 129.877 24.0444 128.823 23.4713C128.516 23.3046 128.169 22.9159 127.994 22.5432C127.845 22.2264 127.662 21.5598 127.662 21.3353V21.2006L130.933 21.1904L134.205 21.1802L134.197 20.748C134.183 19.9441 133.985 19.1571 133.581 18.2927C133.297 17.6844 133.176 17.4947 132.844 17.1294C132.173 16.3911 131.206 15.9055 130.198 15.7995C129.812 15.7589 129.7 15.7567 129.42 15.7841ZM123.365 15.8655C122.717 15.9765 122.139 16.4231 121.692 17.158L121.509 17.4577L121.498 16.7478L121.488 16.038H119.946H118.404V16.9384V17.8388H118.853H119.302V20.7V23.5612H118.853H118.404V24.4615V25.3619H120.532H122.661V24.4615V23.5612H122.115H121.568L121.568 21.6704C121.569 20.1999 121.581 19.7339 121.622 19.5742C121.801 18.8842 122.395 18.2811 123.073 18.1001C123.354 18.0251 124.079 18.022 124.508 18.094C124.674 18.122 124.819 18.136 124.83 18.1252C124.84 18.1144 124.849 17.6238 124.849 17.035V15.9643L124.742 15.9413C124.326 15.8521 123.658 15.8154 123.365 15.8655ZM36.6279 15.9801C35.861 16.1362 35.1072 16.5604 34.7259 17.0505C34.3973 17.4728 34.1468 18.0095 34.0451 18.509L34.0187 18.6391H34.7186H35.4184L35.4844 18.3957C35.6322 17.8512 35.9435 17.419 36.3339 17.2163C36.9137 16.9153 37.9498 16.8872 38.6345 17.1539C38.9117 17.2618 39.2513 17.537 39.4097 17.782C39.607 18.0871 39.6558 18.309 39.6787 19.0046L39.6992 19.6302L39.2938 19.6581C37.8921 19.7548 36.2137 20.0806 35.4339 20.4074C34.4963 20.8004 33.9175 21.3771 33.7331 22.1022C33.6546 22.4112 33.6547 23.1104 33.7334 23.4227C33.9764 24.3869 34.7176 25.1957 35.6461 25.5096C35.9292 25.6054 36.0119 25.615 36.525 25.6115C36.876 25.6091 37.1991 25.584 37.3744 25.5454C38.2444 25.3541 39.0537 24.8148 39.5197 24.116L39.7087 23.8325L39.7193 24.6372L39.7299 25.4419H41.0377C42.0581 25.4419 42.3455 25.4309 42.3452 25.3919C42.3451 25.3644 42.3188 25.1168 42.287 24.8417C42.2551 24.5666 42.2289 24.3374 42.2287 24.3325C42.2285 24.3275 41.9427 24.3185 41.5936 24.3125L40.9588 24.3015L40.9373 21.3402C40.9132 18.0225 40.9253 18.1681 40.6197 17.5186C40.4921 17.2475 40.3954 17.1129 40.1428 16.8548C39.6773 16.3794 39.1778 16.1239 38.4294 15.9785C38.0386 15.9026 37.0042 15.9035 36.6279 15.9801ZM76.9227 15.9795C76.5364 16.0696 76.0498 16.2897 75.6803 16.5415C74.2491 17.517 73.4671 19.522 73.7289 21.5448C73.9878 23.5452 75.0878 24.9591 76.7806 25.4673C77.255 25.6098 78.2173 25.6475 78.7188 25.5435C79.6752 25.3449 80.5861 24.72 81.1221 23.8947C81.3427 23.5551 81.5622 23.0575 81.5647 22.8912C81.566 22.802 81.5636 22.8016 81.0875 22.8226C80.8242 22.8343 80.4846 22.8534 80.3328 22.8651L80.0566 22.8864L79.9372 23.1337C79.5063 24.0263 78.8204 24.4815 77.9063 24.4815C77.2277 24.4815 76.6271 24.2253 76.1356 23.7261C75.6608 23.2437 75.403 22.6515 75.2383 21.6644C75.1949 21.4047 75.1595 21.149 75.1595 21.0962V21.0001H78.4663H81.7732L81.7497 20.5099C81.7117 19.7172 81.5297 18.9211 81.2355 18.2597C80.7496 17.1675 79.8549 16.3665 78.7507 16.0353C78.3717 15.9216 77.3101 15.8892 76.9227 15.9795ZM111.626 15.9765C110.463 16.1948 109.601 16.7874 109.147 17.681C108.993 17.9831 108.861 18.4151 108.815 18.7642L108.79 18.9494L109.388 18.9737C109.716 18.9871 110.214 19.0028 110.493 19.0087L111.001 19.0193L111.028 18.7677C111.083 18.2547 111.375 17.8381 111.792 17.6785C112.499 17.4074 113.474 17.5171 113.859 17.9112C114.092 18.15 114.261 18.6732 114.262 19.1614L114.263 19.3837L113.706 19.4339C110.894 19.6874 109.48 20.1723 108.787 21.1201C108.467 21.5588 108.327 22.0325 108.326 22.6844C108.323 24.0443 109.211 25.1394 110.61 25.503C110.922 25.584 111.087 25.602 111.515 25.602C112.569 25.602 113.335 25.312 114.031 24.6495L114.341 24.3546V24.8982V25.4419H115.767H117.194L117.183 24.5316L117.173 23.6212L116.786 23.6097L116.399 23.5981L116.425 22.2691C116.464 20.311 116.458 18.7689 116.412 18.5191C116.142 17.0626 115.25 16.2512 113.618 15.9773C113.184 15.9044 112.012 15.904 111.626 15.9765ZM94.3965 16.0891C94.386 16.1172 94.3822 16.5178 94.388 16.9795L94.3986 17.8188L94.7951 17.8301L95.1915 17.8415L95.277 18.1703C95.324 18.3511 95.5178 19.0753 95.7075 19.7796C95.8973 20.4839 96.1608 21.4743 96.2931 21.9805C96.4254 22.4867 96.6624 23.3781 96.8198 23.9613C96.9772 24.5446 97.1259 25.0983 97.1503 25.1918L97.1947 25.3619H98.4174H99.6403L99.6894 25.1318C99.7164 25.0052 99.9286 24.0644 100.161 23.0409C100.393 22.0175 100.694 20.6807 100.83 20.0701C100.965 19.4596 101.087 18.9824 101.101 19.0097C101.123 19.0539 101.28 19.7136 101.952 22.6008C102.057 23.0519 102.247 23.8577 102.373 24.3913L102.602 25.3615L103.82 25.3617L105.038 25.3619L105.096 25.1518C105.128 25.0363 105.368 24.1134 105.629 23.101C105.891 22.0885 106.303 20.4949 106.545 19.5595L106.985 17.8588L107.382 17.8474L107.778 17.836V16.937V16.038H105.942H104.106V16.9384V17.8388H104.555C104.95 17.8388 105.004 17.8469 105.004 17.906C105.004 17.9429 104.75 19.1036 104.438 20.4854C104.127 21.867 103.872 23.0253 103.872 23.0593C103.872 23.0932 103.854 23.121 103.833 23.121C103.811 23.121 103.794 23.1075 103.794 23.091C103.794 23.0744 103.584 22.0705 103.328 20.86C103.072 19.6495 102.746 18.1009 102.604 17.4186C102.461 16.7363 102.335 16.1466 102.324 16.108C102.305 16.0433 102.214 16.038 101.118 16.038C100.021 16.038 99.9299 16.0433 99.9115 16.108C99.9006 16.1466 99.7931 16.6643 99.6727 17.2585C99.4951 18.1347 99.1495 19.8091 98.4715 23.077C98.4373 23.242 98.4195 23.2751 98.3966 23.217C98.3681 23.1449 97.6955 20.2471 97.3479 18.6991C97.259 18.303 97.1774 17.9473 97.1668 17.9088C97.149 17.845 97.1875 17.8388 97.5992 17.8388H98.0511V16.9384V16.038H96.2334C94.7956 16.038 94.4117 16.0487 94.3965 16.0891ZM64.7346 17.0777C65.4759 17.3146 66.0372 17.9599 66.3466 18.9309C66.632 19.8263 66.6564 21.2038 66.4044 22.1891C65.9985 23.7766 64.8657 24.6191 63.5873 24.2842C62.5465 24.0115 61.7489 23.1776 61.5071 22.1091C61.4737 21.9617 61.4329 21.4121 61.4069 20.76C61.3554 19.4667 61.378 19.2817 61.6588 18.6991C62.0543 17.8782 62.846 17.1935 63.604 17.0169C63.9152 16.9445 64.3993 16.9704 64.7346 17.0777ZM78.5391 17.1187C78.6642 17.1628 78.8461 17.2465 78.9431 17.3048C79.619 17.7106 80.144 18.6689 80.2232 19.6416L80.2491 19.9603L77.7336 19.9499L75.2181 19.9396L75.2302 19.7996C75.2554 19.5064 75.4762 18.7425 75.6153 18.4666C75.8098 18.0807 76.3214 17.5576 76.7095 17.3476C77.2714 17.0437 78.0499 16.9462 78.5391 17.1187ZM16.6533 17.7784C17.1514 17.9113 17.6162 18.2813 17.8313 18.7161C17.9233 18.9021 18.045 19.353 18.047 19.5152C18.0475 19.5624 17.7501 19.5664 16.0847 19.5415C15.0051 19.5253 14.1155 19.5059 14.1079 19.4984C14.1004 19.4908 14.1245 19.3889 14.1615 19.272C14.3867 18.5602 14.983 17.971 15.6696 17.7819C15.9461 17.7057 16.3751 17.7042 16.6533 17.7784ZM130.252 17.7784C131.005 17.9795 131.51 18.5672 131.629 19.3833L131.657 19.5713L129.689 19.5419C128.606 19.5257 127.715 19.5068 127.708 19.4999C127.678 19.4696 127.9 18.9004 128.01 18.724C128.291 18.2757 128.871 17.8573 129.344 17.7623C129.62 17.7069 130.01 17.7138 130.252 17.7784ZM140.084 18.5052C139.074 18.6424 138.249 19.2382 137.823 20.1363C137.23 21.3887 137.326 23.1448 138.046 24.2306C138.298 24.6119 138.717 24.9811 139.125 25.1819C139.622 25.4261 139.977 25.4974 140.568 25.4718C141.392 25.4361 141.94 25.1911 142.511 24.6031C142.797 24.3083 142.877 24.1939 143.048 23.8387C143.819 22.2373 143.494 20.174 142.314 19.1714C142.024 18.9259 141.548 18.6746 141.197 18.5832C140.95 18.5185 140.314 18.474 140.084 18.5052ZM147.556 18.5379C147.22 18.6352 146.956 18.7951 146.703 19.0544C146.484 19.2797 146.102 19.8719 146.101 19.9897C146.1 20.0172 146.082 20.0397 146.061 20.0397C146.036 20.0397 146.022 19.7729 146.022 19.3194V18.5991H145.065H144.108V18.9993V19.3994H144.596H145.084V21.9592V24.519L144.625 24.5303L144.166 24.5416L144.155 24.9317L144.144 25.3219H145.651H147.158L147.146 24.9317L147.135 24.5416L146.579 24.5305L146.022 24.5194L146.023 22.9898C146.023 21.2768 146.041 21.1134 146.277 20.6028C146.524 20.0715 146.855 19.752 147.341 19.5761C147.552 19.5001 147.682 19.4813 147.995 19.4821C148.209 19.4825 148.46 19.4977 148.551 19.5158L148.717 19.5487V19.0582C148.717 18.6371 148.708 18.564 148.652 18.542C148.499 18.4818 147.759 18.479 147.556 18.5379ZM151.348 18.5202C150.713 18.6373 150.1 19.0624 149.742 19.6341C149.211 20.4826 149.077 21.7767 149.408 22.8599C149.554 23.3348 149.751 23.6906 150.057 24.0255C150.512 24.5244 151.043 24.7798 151.723 24.8266C152.434 24.8755 152.958 24.6654 153.498 24.115C153.689 23.9205 153.852 23.7612 153.859 23.7612C153.89 23.7612 153.871 25.1551 153.838 25.3657C153.711 26.1596 153.055 26.6393 152.094 26.6418C151.323 26.6437 150.84 26.385 150.499 25.7871L150.348 25.522H149.821H149.295L149.32 25.632C149.333 25.6925 149.417 25.8951 149.506 26.0822C150.002 27.1254 151.271 27.6584 152.696 27.4218C153.602 27.2712 154.232 26.8397 154.555 26.1489C154.809 25.6032 154.811 25.5717 154.811 22.3223V19.3994H155.261H155.71V18.9993V18.5991H154.792H153.874V19.1593C153.874 19.4674 153.861 19.7187 153.844 19.7176C153.828 19.7166 153.745 19.6152 153.659 19.4923C153.357 19.0614 152.943 18.7492 152.47 18.5977C152.178 18.5042 151.638 18.4668 151.348 18.5202ZM152.238 19.3193C152.813 19.4286 153.423 19.9221 153.705 20.5062L153.854 20.8158V21.7004V22.5849L153.707 22.8904C153.445 23.4338 152.917 23.8676 152.355 24.0018C152.085 24.0661 151.694 24.033 151.402 23.9211C151.126 23.8153 150.76 23.482 150.597 23.1876C150.335 22.7134 150.205 21.951 150.275 21.2929C150.393 20.1814 150.854 19.5099 151.615 19.3408C151.924 19.2718 151.978 19.27 152.238 19.3193ZM140.792 19.377C141.583 19.5486 142.12 20.1725 142.317 21.1466C142.413 21.62 142.401 22.436 142.293 22.9209C142.05 24.0047 141.35 24.6416 140.403 24.6416C139.478 24.6416 138.816 23.9988 138.591 22.8832C138.486 22.359 138.508 21.3295 138.635 20.8869C138.756 20.4643 138.93 20.137 139.17 19.8783C139.422 19.6086 139.684 19.4539 140.016 19.38C140.334 19.3093 140.478 19.3087 140.792 19.377ZM6.50418 20.0601C6.6331 20.0967 6.84311 20.1835 6.97085 20.253C8.16922 20.9048 8.09796 22.5805 6.84588 23.193L6.54325 23.3411L4.97049 23.3528L3.39772 23.3645L3.40792 21.6921L3.41811 20.0197L4.23846 19.9959C5.47355 19.9602 6.22792 19.9816 6.50418 20.0601ZM39.7277 21.3902C39.727 22.3122 39.6886 22.5341 39.4464 23.0164C39.3268 23.2545 39.1995 23.4273 38.9687 23.6647C38.4804 24.1668 37.9697 24.4326 37.3095 24.5283C36.1728 24.693 35.1373 23.7475 35.2055 22.6073C35.2681 21.5599 36.0897 21.1223 38.7517 20.7182C39.1491 20.6579 39.5315 20.6066 39.6013 20.6042L39.7283 20.5999L39.7277 21.3902ZM114.263 21.5519C114.263 22.4 114.112 22.8374 113.658 23.3019C112.613 24.372 110.708 23.9894 110.701 22.7081C110.698 22.3352 110.798 22.0645 111.021 21.8361C111.42 21.4273 112.021 21.247 113.54 21.081C113.905 21.0411 114.217 21.0065 114.233 21.0042C114.249 21.002 114.263 21.2484 114.263 21.5519ZM135.279 24.7617V25.3219H135.846H136.412V24.7617V24.2014H135.846H135.279V24.7617Z" fill="white"/>
</svg>
