<svg width="141" height="52" viewBox="0 0 141 52" fill="none" xmlns="http://www.w3.org/2000/svg">
<g clip-path="url(#clip0_34410_2385)">
<path fill-rule="evenodd" clip-rule="evenodd" d="M85.3805 12.8467C87.8955 12.8467 89.7333 14.7553 89.7333 17.3756C89.7333 20.1091 87.8794 21.8883 85.3805 21.8883C84.2842 21.8883 83.3008 21.5324 82.5592 20.9017V21.7104H80.3989V10.3882L82.6398 10V13.6878C83.3653 13.154 84.3003 12.8467 85.3805 12.8467ZM82.4947 17.3756C82.4947 18.8475 83.4943 19.8503 84.9614 19.8503C86.4284 19.8503 87.4279 18.8475 87.4279 17.3756C87.4279 15.8875 86.4284 14.8847 84.9614 14.8847C83.4943 14.8847 82.4947 15.8875 82.4947 17.3756ZM91.5173 10.3882V21.7104H93.7582V10L91.5173 10.3882ZM100.11 12.7818C97.4498 12.7818 95.5636 14.6419 95.5636 17.2622C95.5636 20.2221 97.5142 21.9528 100.545 21.9528C101.803 21.9528 102.931 21.6455 103.753 21.0793V19.1546C102.963 19.6722 101.754 20.0118 100.561 20.0118C98.9491 20.0118 98.0301 19.3487 97.74 18.1842H104.43V17.3592C104.43 14.4802 102.818 12.7818 100.11 12.7818ZM102.27 16.5505H97.7238C97.9657 15.3212 98.7556 14.6581 100.029 14.6581C101.335 14.6581 102.125 15.3374 102.27 16.5505ZM64.8921 13.0248V21.7104H67.133V16.6478C67.133 15.6127 67.8746 14.8848 68.9387 14.8848C69.8898 14.8848 70.4541 15.4833 70.4541 16.567V21.7104H72.6951V16.6478C72.6951 15.6127 73.4366 14.8848 74.4845 14.8848C75.468 14.8848 76.0161 15.4833 76.0161 16.567V21.7104H78.257V16.3729C78.257 14.1408 77.064 12.8468 74.9198 12.8468C73.7591 12.8468 72.7595 13.2835 72.0502 14.0114C71.502 13.2512 70.6315 12.8468 69.4868 12.8468C68.5195 12.8468 67.6811 13.1865 67.0363 13.785V13.0248H64.8921ZM57.6918 21.8884C55.1769 21.8884 53.3389 19.9799 53.3389 17.3595C53.3389 14.626 55.1929 12.8468 57.6918 12.8468C58.788 12.8468 59.7715 13.2027 60.5131 13.8335V13.0248H62.6734V21.7104H60.4325V21.0474C59.707 21.581 58.772 21.8884 57.6918 21.8884ZM55.6444 17.3595C55.6444 18.8476 56.6439 19.8505 58.1109 19.8505C59.578 19.8505 60.5776 18.8476 60.5776 17.3595C60.5776 15.8876 59.578 14.8848 58.1109 14.8848C56.6439 14.8848 55.6444 15.8876 55.6444 17.3595ZM46.91 10.1457C43.202 10.1457 40.5097 12.6851 40.5097 16.2111C40.5097 19.6563 42.9602 21.9531 46.3457 21.9531C47.5387 21.9531 48.6028 21.6135 49.4572 21.015V21.7105H51.5692V14.8363H46.507V16.8743H49.3444V18.7182C48.8124 19.3975 47.7967 19.8019 46.5392 19.8019C44.4595 19.8019 42.9763 18.5403 42.9763 16.0656C42.9763 13.882 44.5885 12.3454 46.8778 12.3454C48.6834 12.3454 50.1021 12.766 50.8114 13.51V11.1162C49.7958 10.5015 48.4577 10.1457 46.91 10.1457ZM130.903 27.2095H133.289L135.917 33.5661L138.399 27.2095H140.689L136.11 38.5479L133.773 38.9199L134.772 36.3158L130.903 27.2095ZM127.273 24.5726V35.8948H129.514V24.1845L127.273 24.5726ZM121.138 27.0312C123.653 27.0312 125.491 28.9397 125.491 31.5601C125.491 34.2935 123.637 36.0728 121.138 36.0728C120.042 36.0728 119.059 35.7169 118.317 35.0861V35.8948H116.157V24.5726L118.398 24.1845V27.8722C119.123 27.3385 120.058 27.0312 121.138 27.0312ZM118.252 31.5601C118.252 33.0319 119.252 34.0347 120.719 34.0347C122.186 34.0347 123.186 33.0319 123.186 31.5601C123.186 30.072 122.186 29.0691 120.719 29.0691C119.252 29.0691 118.252 30.072 118.252 31.5601ZM113.834 27.2094H111.593V35.8952H113.834V27.2094ZM112.722 23.2143C111.98 23.2143 111.368 23.8128 111.368 24.573C111.368 25.317 111.98 25.9317 112.722 25.9317C113.48 25.9317 114.076 25.317 114.076 24.573C114.076 23.8128 113.48 23.2143 112.722 23.2143ZM102.166 29.6353C102.166 28.0827 103.682 27.0313 106.132 27.0313C107.245 27.0313 108.277 27.2092 109.099 27.5327V29.5545C108.551 29.1987 107.277 28.9722 106.052 28.9722C104.923 28.9722 104.407 29.1987 104.407 29.7163C104.407 30.2015 104.762 30.3633 106.342 30.6221C108.196 30.9293 109.889 31.3984 109.889 33.3555C109.889 35.0377 108.26 36.0729 105.939 36.0729C104.472 36.0729 103.247 35.8626 102.36 35.4744V33.2423C103.118 33.7923 104.536 34.1157 105.778 34.1157C107.116 34.1157 107.632 33.8731 107.632 33.3717C107.632 32.9188 107.148 32.6762 105.729 32.4335C103.972 32.1424 102.166 31.7381 102.166 29.6353ZM96.3933 29.0693C97.6185 29.0693 98.2634 29.7486 98.2634 30.9617V35.8949H100.537V30.7676C100.537 28.4061 99.263 27.0313 96.9253 27.0313C95.8129 27.0313 94.8456 27.3872 94.1202 28.0017V27.2092H91.976V35.8949H94.2168V31.0426C94.2168 29.878 95.1196 29.0693 96.3933 29.0693ZM85.4781 36.1373C82.689 36.1373 80.6738 34.2124 80.6738 31.5436C80.6738 28.9234 82.7213 26.9663 85.4781 26.9663C88.2671 26.9663 90.2662 28.891 90.2662 31.5436C90.2662 34.1801 88.2188 36.1373 85.4781 36.1373ZM82.9792 31.5436C82.9792 33.0155 83.9949 34.0346 85.4781 34.0346C86.9452 34.0346 87.9608 33.0155 87.9608 31.5436C87.9608 30.0879 86.9452 29.069 85.4781 29.069C83.9949 29.069 82.9792 30.0879 82.9792 31.5436ZM72.2973 27.2092H70.1532V38.9196L72.3941 38.5314V35.2317C73.1196 35.7655 74.0546 36.0729 75.1348 36.0729C77.6497 36.0729 79.4715 34.1642 79.4715 31.544C79.4715 28.8105 77.6337 27.0313 75.1348 27.0313C74.0224 27.0313 73.055 27.4033 72.2973 28.0341V27.2092ZM74.7156 34.0348C73.2485 34.0348 72.249 33.0321 72.249 31.544C72.249 30.0721 73.2485 29.0693 74.7156 29.0693C76.1827 29.0693 77.1822 30.0721 77.1822 31.544C77.1822 33.0321 76.1827 34.0348 74.7156 34.0348ZM60.8054 29.6353C60.8054 28.0827 62.3209 27.0313 64.7713 27.0313C65.8838 27.0313 66.9156 27.2092 67.7377 27.5327V29.5545C67.1896 29.1987 65.916 28.9722 64.6907 28.9722C63.5623 28.9722 63.0464 29.1987 63.0464 29.7163C63.0464 30.2015 63.401 30.3633 64.981 30.6221C66.8349 30.9293 68.5277 31.3984 68.5277 33.3555C68.5277 35.0377 66.8994 36.0729 64.5779 36.0729C63.1108 36.0729 61.8856 35.8626 60.9988 35.4744V33.2423C61.7566 33.7923 63.1753 34.1157 64.4167 34.1157C65.7548 34.1157 66.2707 33.8731 66.2707 33.3717C66.2707 32.9188 65.787 32.6762 64.3683 32.4335C62.6111 32.1424 60.8054 31.7381 60.8054 29.6353ZM55.3391 26.9663C52.679 26.9663 50.7928 28.8264 50.7928 31.4466C50.7928 34.4066 52.7435 36.1373 55.7744 36.1373C57.0319 36.1373 58.1604 35.8299 58.9826 35.2638V33.3391C58.1926 33.8567 56.9836 34.1963 55.7905 34.1963C54.1783 34.1963 53.2594 33.5331 52.9692 32.3685H59.6597V31.5436C59.6597 28.6646 58.0476 26.9663 55.3391 26.9663ZM57.4995 30.7349H52.9531C53.1949 29.5057 53.9849 28.8425 55.2585 28.8425C56.5643 28.8425 57.3543 29.5218 57.4995 30.7349ZM40.5097 35.8948V24.5726H45.6203C48.1997 24.5726 49.7474 25.8342 49.7474 27.9692C49.7474 29.603 48.8285 30.7351 47.2486 31.1718L50.6019 35.8948H47.9418L44.7497 31.3821H42.8312V35.8948H40.5097ZM42.8312 29.3765H45.6203C46.7327 29.3765 47.3453 28.875 47.3453 27.9854C47.3453 27.1282 46.7327 26.6429 45.6203 26.6429H42.8312V29.3765ZM9.53169 11.428C12.4342 10.2477 15.645 10.066 18.6613 10.9112L18.0563 13.085C15.5189 12.374 12.8183 12.5269 10.3767 13.5198C7.9354 14.5126 5.89065 16.2894 4.56295 18.5721C3.23524 20.8548 2.69906 23.5148 3.03843 26.1358C3.3778 28.7567 4.57358 31.1909 6.43854 33.0575C8.30376 34.9241 10.7329 36.1178 13.3462 36.4518C15.9593 36.7858 18.6094 36.2413 20.8813 34.9035C23.1532 33.5657 24.9192 31.51 25.9028 29.0581C26.8863 26.6062 27.0321 23.8964 26.3171 21.3525L28.4824 20.7401C29.3321 23.7642 29.159 26.9859 27.9898 29.9007C26.8203 32.8157 24.7211 35.2596 22.0199 36.8501C19.319 38.4405 16.1687 39.0878 13.0619 38.6907C9.95513 38.2937 7.06702 36.8745 4.84992 34.6555C2.63256 32.4364 1.21097 29.5424 0.807501 26.4265C0.404029 23.3105 1.04128 20.1483 2.62006 17.4345C4.19857 14.7206 6.62923 12.6084 9.53169 11.428ZM27.9243 16.5168H25.3359V19.1309H23.4167V16.5168H20.8432V14.6407H23.4167V12.0266H25.3359V14.6407H27.9243V16.5168ZM21.2378 25.5796C21.0025 25.2124 20.6583 24.9151 20.2051 24.6878C20.5535 24.4779 20.8194 24.2156 21.0025 23.9008C21.1855 23.5773 21.2769 23.2101 21.2769 22.7991C21.2769 22.2657 21.1288 21.8023 20.8325 21.4089C20.5362 21.0154 20.1178 20.7138 19.5774 20.5038C19.046 20.2853 18.4314 20.176 17.7342 20.176C17.0457 20.176 16.4358 20.2853 15.9042 20.5038C15.3725 20.7138 14.9584 21.0154 14.6621 21.4089C14.3658 21.8023 14.2176 22.2657 14.2176 22.7991C14.2176 23.2101 14.3091 23.5773 14.4921 23.9008C14.6751 24.2156 14.9366 24.4779 15.2765 24.6878C14.8321 24.9151 14.4878 25.2124 14.2438 25.5796C14.0086 25.9468 13.8907 26.3709 13.8907 26.8519C13.8907 27.4202 14.0477 27.9185 14.3615 28.3471C14.6839 28.7667 15.1328 29.0946 15.7078 29.3307C16.2919 29.5581 16.9672 29.6717 17.7342 29.6717C18.5013 29.6717 19.1766 29.5581 19.7607 29.3307C20.3445 29.0946 20.7976 28.7667 21.12 28.3471C21.4426 27.9185 21.6038 27.4202 21.6038 26.8519C21.6038 26.3709 21.4817 25.9468 21.2378 25.5796ZM16.7015 22.0516C16.9629 21.8417 17.3071 21.7368 17.7342 21.7368C18.1699 21.7368 18.5186 21.8417 18.78 22.0516C19.0415 22.2527 19.1724 22.5324 19.1724 22.8909C19.1724 23.2407 19.0415 23.5161 18.78 23.7172C18.5186 23.9183 18.1699 24.0188 17.7342 24.0188C17.2986 24.0188 16.9542 23.9183 16.7015 23.7172C16.4488 23.5161 16.3225 23.2407 16.3225 22.8909C16.3225 22.5324 16.4488 22.2527 16.7015 22.0516ZM18.9894 27.7568C18.6843 27.9929 18.2659 28.1109 17.7342 28.1109C17.2113 28.1109 16.7972 27.9929 16.4925 27.7568C16.1874 27.5208 16.0347 27.1972 16.0347 26.7863C16.0347 26.3841 16.1874 26.0649 16.4925 25.8288C16.7972 25.5928 17.2113 25.4747 17.7342 25.4747C18.2659 25.4747 18.6843 25.5928 18.9894 25.8288C19.3029 26.0649 19.4598 26.3841 19.4598 26.7863C19.4598 27.1885 19.3029 27.512 18.9894 27.7568ZM12.3535 20.3333V29.5142H10.2356V22.0383H8.40551V20.3333H12.3535Z" fill="white"/>
</g>
<defs>
<clipPath id="clip0_34410_2385">
<rect width="140" height="52" fill="white" transform="translate(0.6875)"/>
</clipPath>
</defs>
</svg>
