<svg width="141" height="52" viewBox="0 0 141 52" fill="none" xmlns="http://www.w3.org/2000/svg">
<path fill-rule="evenodd" clip-rule="evenodd" d="M23.4375 14.7861C23.9083 14.2398 24.4606 13.7658 25.0756 13.383C24.8997 11.6686 24.1153 10.1344 22.9421 9C25.0585 9.33523 26.8645 10.6032 27.9259 12.3694C28.2227 12.3317 28.5252 12.3124 28.8323 12.3124C32.764 12.3124 35.9513 15.4996 35.9513 19.4313C35.9513 21.5675 35.0106 23.4839 33.5207 24.7888C34.0489 25.2513 34.508 25.7907 34.8806 26.3894C36.5949 26.2136 38.1289 25.4293 39.2633 24.2562C38.928 26.3723 37.6602 28.1782 35.8941 29.2396C35.9318 29.5364 35.9513 29.8389 35.9513 30.1461C35.9513 34.0778 32.764 37.2651 28.8323 37.2651C26.7202 37.2651 24.823 36.3454 23.5193 34.8847C23.0666 35.3918 22.5426 35.8337 21.9627 36.1947C22.1387 37.9089 22.923 39.4429 24.0961 40.5772C21.98 40.242 20.174 38.9741 19.1126 37.208C18.8159 37.2457 18.5134 37.2651 18.2064 37.2651C14.2747 37.2651 11.0873 34.0778 11.0873 30.1461C11.0873 28.0545 11.9893 26.1737 13.4254 24.8712C12.8992 24.4095 12.4416 23.8714 12.07 23.2743C10.3558 23.4503 8.82188 24.2345 7.6875 25.4074C8.02289 23.2914 9.2906 21.4856 11.0566 20.4244C11.0189 20.1275 10.9995 19.825 10.9995 19.518C10.9995 15.5862 14.1868 12.3989 18.1185 12.3989C20.2338 12.3989 22.1335 13.3214 23.4375 14.7861ZM23.5133 24.1633C23.3218 24.3854 23.1168 24.5957 22.8996 24.7928C21.6467 23.6937 20.0047 23.0276 18.2071 23.0276C16.3661 23.0276 14.6883 23.7263 13.4245 24.8732C14.6777 25.9733 16.3205 26.6404 18.119 26.6404C19.96 26.6404 21.6379 25.9414 22.9016 24.7946C23.1193 24.9858 23.3253 25.1901 23.5182 25.4062C22.3956 26.6646 21.7131 28.3246 21.7131 30.1438C21.7131 31.9637 22.3958 33.6239 23.5193 34.8826C24.6428 33.6239 25.3256 31.9636 25.3256 30.1438C25.3256 28.3245 24.6431 26.6648 23.5204 25.4062C23.7154 25.1879 23.9236 24.9816 24.1439 24.7887C23.921 24.5934 23.7103 24.3846 23.5133 24.1633ZM25.2376 19.5191C25.2376 21.2939 24.5882 22.917 23.5139 24.1639C22.3936 22.9059 21.7131 21.248 21.7131 19.4311C21.7131 17.6562 22.3626 16.0331 23.4369 14.7864C24.557 16.0442 25.2376 17.7022 25.2376 19.5191ZM28.8324 23.0276C30.6284 23.0276 32.269 23.6926 33.5215 24.79C32.269 25.8871 30.6285 26.5522 28.8325 26.5522C27.0365 26.5522 25.3959 25.887 24.1434 24.7898C25.3959 23.6926 27.0364 23.0276 28.8324 23.0276ZM124.765 21.9927C124.765 18.1111 124.834 15.3126 124.917 15.2292C124.936 15.2102 124.946 15.1592 124.96 15.092C125.006 14.8654 125.089 14.4541 125.668 14.4541C126.114 14.4541 126.204 14.8996 126.204 15.3451V18.9551C126.236 21.2634 126.319 23.1523 126.389 23.1523C126.459 23.1523 127.8 21.9506 129.37 20.4822C132.311 17.7294 132.819 17.4546 133.351 18.3342C133.553 18.6708 133.274 19.0148 131.256 20.9087L128.928 23.0948L131.309 25.7208C133.673 28.3279 134.106 29.1103 133.342 29.4033C132.723 29.6408 132.349 29.332 129.988 26.6385L127.667 23.9898L126.96 24.6752C126.259 25.3544 126.253 25.3787 126.253 27.3235C126.253 29.115 126.215 29.2983 125.817 29.4244C124.794 29.7495 124.765 29.5498 124.765 21.9927ZM120.356 14.5799C120.151 14.6629 120.09 16.3459 120.09 21.9867C120.09 29.1566 120.098 29.2888 120.525 29.4244C121.551 29.75 121.578 29.5589 121.578 21.8739C121.578 15.5259 121.539 14.6824 121.241 14.5683C120.865 14.4238 120.739 14.4254 120.356 14.5799ZM99.4113 14.6845C99.1277 14.843 99.0521 15.1969 99.0521 16.3625C99.0521 17.8313 99.0482 17.8395 98.467 17.8424C97.5741 17.8469 96.9692 18.0598 96.8315 18.4185C96.622 18.965 97.1354 19.327 98.1213 19.327H99.0521V23.1072C99.0521 26.6046 99.0876 26.9582 99.5301 27.8355C100.307 29.3757 102.377 30.0165 103.95 29.2031C105.054 28.6325 104.574 27.3842 103.42 27.8229C102.422 28.2025 101.67 28.0866 101.193 27.48C100.784 26.961 100.752 26.6427 100.752 23.1235V19.327H102.107C103.52 19.327 104.061 19.0406 103.822 18.4185C103.668 18.0145 103.064 17.846 101.761 17.8424L100.752 17.8395V16.6566C100.752 14.9612 100.246 14.2172 99.4113 14.6845ZM109.04 18.2813C107.06 19.1761 105.866 20.8786 105.692 23.055C105.543 24.9001 106.064 26.543 107.18 27.7538C108.228 28.8908 108.878 29.2548 110.357 29.5356C111.752 29.8001 113.381 29.3732 114.318 28.4972L114.967 27.8901L115.032 28.5281C115.111 29.3159 115.678 29.7336 116.212 29.3971C116.548 29.1854 116.59 28.6356 116.641 23.7229C116.695 18.4557 116.683 18.276 116.268 18.0539C115.651 17.7232 114.99 18.1293 114.99 18.8401V19.4012L114.509 18.9492C113.281 17.7952 110.788 17.4907 109.04 18.2813ZM113.221 19.8074C113.741 20.0703 114.391 20.6202 114.664 21.0294C115.115 21.7043 115.154 21.9635 115.091 23.8302C115.034 25.5052 114.94 25.9959 114.582 26.4734C113.226 28.2878 110.702 28.5962 109.053 27.1486C107.962 26.1904 107.477 25.1043 107.477 23.6213C107.477 21.8207 108.127 20.6802 109.589 19.9166C110.956 19.2022 111.963 19.172 113.221 19.8074ZM48.896 18.042C47.3767 18.503 45.9015 19.9945 45.3337 21.6439C44.9489 22.7614 45.0291 25.241 45.4818 26.2342C46.4523 28.3631 48.242 29.5224 50.5639 29.526C52.0644 29.5284 53.1146 29.1682 53.9021 28.3807L54.4355 27.8474V28.7442C54.4355 29.2374 54.2568 29.9742 54.0385 30.3815C52.9854 32.3455 49.2714 32.73 47.3779 31.0712C46.8319 30.5926 45.935 30.884 45.935 31.5402C45.935 32.6169 48.306 33.7783 50.504 33.7783C52.792 33.7783 54.679 32.8005 55.5516 31.1628C56.0031 30.3151 56.0295 29.9918 56.0983 24.4999C56.1482 20.5225 56.0968 18.5899 55.9329 18.2841C55.4869 17.4504 54.4355 17.866 54.4355 18.8759V19.4019L53.9543 18.9498C52.9092 17.9678 50.5414 17.5431 48.896 18.042ZM62.4572 18.1433C60.3353 18.9005 59.0993 20.6325 58.9431 23.068C58.7712 25.7462 59.6383 27.6725 61.5083 28.7686C63.5916 29.9893 66.1232 29.8556 67.5621 28.4486L68.2485 27.7777V28.3978C68.2485 29.1014 68.5827 29.5282 69.1336 29.5282C69.85 29.5282 69.9487 28.8113 69.9487 23.607C69.9487 19.2549 69.8998 18.4591 69.6148 18.174C68.9885 17.548 68.2485 17.9283 68.2485 18.8759V19.4019L67.7674 18.9498C66.6368 17.8875 64.2077 17.5186 62.4572 18.1433ZM73.7958 18.1319C73.6257 18.3377 73.5706 20.0105 73.6107 23.7936C73.623 24.9525 73.6264 25.8656 73.6291 26.587V26.5871C73.6377 28.8821 73.639 29.2373 73.8943 29.3983C74.1651 29.569 74.6227 29.5685 74.8936 29.3983C75.1645 29.2279 75.1747 28.8473 75.226 26.9361V26.936C75.2356 26.575 75.2468 26.1595 75.2614 25.6804C75.3244 23.603 75.4676 22.0251 75.6157 21.7716C76.015 21.0875 77.2309 20.0099 77.8782 19.7657C78.9161 19.3744 80.436 19.4896 81.2219 20.0189C82.6055 20.9517 82.793 21.5678 82.9119 25.5743C82.9403 26.5359 82.9468 27.2488 82.9516 27.7809V27.781C82.9624 28.9735 82.965 29.2578 83.1883 29.3983C83.4592 29.5685 84.0396 29.5685 84.3097 29.3983C84.5439 29.251 84.5486 28.9461 84.5692 27.6243V27.6239C84.577 27.1279 84.5869 26.4889 84.6121 25.6614C84.716 22.2316 84.7309 22.14 85.3264 21.2817C86.4816 19.6158 89.059 18.9943 90.564 20.0183C92.0633 21.0387 92.1445 21.2979 92.2618 25.4295C92.2745 25.8764 92.2848 26.2715 92.2939 26.6212L92.2941 26.6279C92.3511 28.819 92.3616 29.2211 92.6406 29.3969C92.9122 29.5672 93.3233 29.5683 93.595 29.3969C93.8695 29.2228 93.8681 28.8894 93.8595 26.799V26.7985C93.8578 26.3642 93.8557 25.8542 93.8557 25.254C93.8557 21.3587 93.8541 21.3433 93.2619 20.3358C91.6711 17.6295 87.3635 17.0738 85.0711 19.2795C84.6183 19.7151 84.186 20.215 84.1112 20.3903C84.0057 20.6361 83.9451 20.6464 83.8474 20.4356C83.7781 20.2851 83.4789 19.8745 83.1835 19.523C81.4321 17.4421 77.3199 17.4056 75.7063 19.4567L75.2614 20.0226V19.2652C75.2614 18.1197 74.3754 17.4342 73.7958 18.1319ZM52.8091 19.9094C53.8221 20.4906 54.4355 21.8855 54.4355 23.6091C54.4355 25.2677 54.2046 25.9976 53.4124 26.8448C52.2799 28.0561 50.5927 28.361 49.0077 27.6411C47.221 26.8295 46.346 24.8679 46.8085 22.7111C47.3932 19.9851 50.4512 18.5571 52.8091 19.9094ZM66.6222 19.9094C67.6538 20.5009 68.2485 21.8815 68.2485 23.6841C68.2485 25.6193 67.6628 26.8752 66.4422 27.558C64.0949 28.8714 61.2378 27.4228 60.6113 24.602C59.9598 21.668 62.0437 19.1686 64.9221 19.431C65.4885 19.4828 66.2535 19.6978 66.6222 19.9094Z" fill="white"/>
</svg>
