<svg fill="none" height="51" viewBox="0 0 134 51" width="134" xmlns="http://www.w3.org/2000/svg"><g fill="#fff"><path d="m64.0231 13.639 1.4274-1.051c.1372-.1015.0655-.3165-.1017-.3165l-1.768-.0119c-.0778 0-.1434-.0478-.1673-.1195l-.5556-1.678c-.0533-.1612-.2806-.1612-.3339 0l-.5556 1.678c-.0239.0717-.0894.1195-.1672.1195l-1.768.0119c-.1673 0-.2389.215-.1011.3165l1.4268 1.051c.06.0478.0839.1254.0661.1971l-.5378 1.684c-.0533.1612.1317.2986.2689.1971l1.4396-1.0331c.0594-.0419.1428-.0419.2028 0l1.4396 1.0331c.1372.1015.3222-.0359.2683-.1971l-.5372-1.684c-.03-.0717-.0061-.1493.0539-.1971z"/><path d="m69.7714 13.3828.8086-.5951c.0772-.0575.0368-.1792-.0576-.1792l-1.001-.0067c-.0441 0-.0815-.0271-.0949-.0677l-.3143-.95c-.0306-.0914-.1593-.0914-.1893 0l-.3149.95c-.0135.0406-.0502.0677-.0943.0677l-1.001.0067c-.095 0-.1354.1217-.0576.1792l.808.5951c.0343.027.0478.071.0374.1115l-.3045.9536c-.03.0912.0748.169.1526.1115l.8147-.5849c.0337-.0237.0815-.0237.1152 0l.8148.5849c.0778.0575.1825-.0203.1519-.1115l-.3039-.9536c-.0171-.0405-.0036-.0845.0301-.1115z"/><path d="m57.1308 13.3828.808-.5951c.0778-.0575.0367-.1792-.0576-.1792l-1.001-.0067c-.0441 0-.0809-.0271-.0949-.0677l-.3143-.95c-.0306-.0914-.1587-.0914-.1893 0l-.3143.95c-.0134.0406-.0508.0677-.0949.0677l-1.001.0067c-.0944 0-.1348.1217-.057.1792l.808.5951c.0337.027.0472.071.0368.1115l-.3039.9536c-.0306.0912.0742.169.152.1115l.8147-.5849c.0343-.0237.0815-.0237.1152 0l.8148.5849c.0778.0575.1825-.0203.1525-.1115l-.3045-.9536c-.0171-.0405-.0036-.0845.0307-.1115z"/><path d="m34.2094 23.3601c-.2974.0566-.5737.092-1.1757.092-.8711 0-1.8696-.4673-1.8696-2.1881v-.236c0-1.7349.9985-2.1881 1.8696-2.1881.4462 0 .8783.0637 1.1899.1132.0637.0071.1133.0284.1133.0921v.3612c0 .0424-.0142.0778-.085.0778-.007 0-.0142 0-.0212 0-.255-.0213-.7791-.0637-1.1899-.0637-.694 0-1.2323.4036-1.2323 1.6075v.236c0 1.1897.5383 1.6075 1.2323 1.6075.4037 0 .9137-.0354 1.1686-.0566h.0283c.0779 0 .1133.0354.1133.1133v.2903c0 .085-.0637.1274-.1416.1416z"/><path d="m37.7055 19.4118c-.0212-.0672-.0638-.11-.1346-.11-.0779 0-.1204.0428-.1416.11l-.6341 1.9784h1.5456zm1.7777 3.9915h-.4179c-.0638 0-.1062-.0427-.1204-.0916l-.4604-1.4059h-1.8343l-.4532 1.4059c-.0142.0489-.0708.0916-.1275.0916h-.4179c-.0708 0-.1203-.0427-.1203-.0978 0-.0122-.0001-.0306.007-.0428l1.3102-3.9793c.1205-.3728.4533-.4645.7224-.4645.2621 0 .5949.0856.7154.4584l1.3101 3.9854c.0071.0122.0071.0306.0071.0428 0 .0551-.0425.0978-.1203.0978z"/><path d="m45.0639 23.4033h-.3896c-.0708 0-.1274-.0637-.1274-.1416v-4.2371c0-.0708.0495-.1345.1274-.1345h.3896c.0708 0 .1274.0567.1274.1345v4.2371c0 .0708-.0495.1416-.1274.1416z"/><path d="m50.0681 23.4033h-.4392c-.1133 0-.1911-.0424-.2267-.1133l-2.1881-3.4085c-.0071-.0142-.0142-.0212-.0213-.0212-.007 0-.007.007-.007.0212v3.3873c0 .0708-.0568.1345-.1275.1345h-.3683c-.0708 0-.1275-.0142-.1275-.085v-4.2299c0-.1133.0921-.1983.2053-.1983h.3896c.1983 0 .2336.0354.2906.1417l2.1742 3.3872.014.0212c.0068 0 .0068-.0141.0068-.0212v-3.3944c0-.0708.057-.1345.128-.1345h.3749c.0778 0 .1275.0637.1275.1345v4.1733c0 .1134-.0919.2054-.2053.2054z"/><path d="m54.7269 21.0634c0-1.1896-.4815-1.6429-1.2607-1.6429-.7719 0-1.2675.4533-1.2675 1.6429v.1652c0 1.1897.4888 1.6429 1.2675 1.6429.7725 0 1.2607-.4532 1.2607-1.6429zm-1.2607 2.3887c-1.1119 0-1.9193-.6514-1.9193-2.2235v-.1652c0-1.5721.8074-2.2235 1.9193-2.2235 1.1118 0 1.9125.6514 1.9125 2.2235v.1652c0 1.5721-.8007 2.2235-1.9125 2.2235z"/><path d="m42.3269 20.9759-.6456-.3296c-.4687-.2701-.6779-.4368-.6779-.7107 0-.3925.2826-.5526.9753-.5526.2752 0 .6392.0146 1.0829.0433h.0126c.074 0 .1238-.0453.1238-.1127v-.2577c0-.0435-.0209-.0995-.1213-.1184-.2194-.0331-.705-.0796-1.098-.0796-1.0241 0-1.5881.3828-1.5881 1.0777 0 .5205.3507.8302.878 1.1357l.6765.3532c.5514.3231.7471.4908.7471.7886 0 .4647-.3293.6906-1.0067.6906-.2838 0-.7395-.0194-1.0389-.044h-.0188c-.0753 0-.1238.0442-.1238.1126v.2398c0 .0752.0201.1054.1338.1244l.0049.0008c.2829.0428.6034.0914 1.0428.0914 1.5202 0 1.6384-.9304 1.6384-1.2156 0-.4904-.2702-.8257-.997-1.2372z"/><path d="m38.4513 24.1325h-2.1828c-.1232 0-.2239.1008-.2239.2239v4.8911c0 .8843-.5373 1.0745-1.1194 1.0745s-1.1194-.1902-1.1194-1.0745v-4.8911c0-.1231-.1007-.2239-.2238-.2239h-2.1829c-.1231 0-.235.1008-.235.2239v4.8911c0 2.8766 2.026 3.313 3.7611 3.313 1.735 0 3.7612-.4364 3.7612-3.313v-4.8911c0-.1231-.112-.2239-.2351-.2239z"/><path d="m55.0448 24.1325h-2.1828c-.1231 0-.2236.1008-.2236.2239v4.8911c0 .8843-.5372 1.0745-1.1198 1.0745-.582 0-1.1192-.1902-1.1192-1.0745v-4.8911c0-.1231-.1005-.2239-.2236-.2239h-2.1827c-.1232 0-.2353.1008-.2353.2239v4.8911c0 2.8766 2.0259 3.313 3.7608 3.313 1.7355 0 3.7614-.4364 3.7614-3.313v-4.8911c0-.1231-.1121-.2239-.2352-.2239z"/><path d="m44.1503 27.0412c0 .3023-.2127.5932-.7724.5932h-1.2127v-1.4102h1.2127c.5709 0 .7724.2127.7724.5932zm1.3432 2.1602c.6045-.2686 1.2873-.9738 1.2873-2.1714v-.2238c0-2.1155-1.3992-2.787-3.6492-2.787-.7723 0-2.444.0784-2.8246.1344-.6044.1007-.7836.2574-.7836.9513v7.1185c0 .1231.112.2239.2352.2239h2.1827c.1232 0 .2239-.1008.2239-.2239v-2.6303h.7314l1.332 2.6303c.056.112.1008.2239.3023.2239h2.3395c.1007 0 .2014-.0784.2014-.2015 0-.0336-.0112-.0783-.0335-.1231z"/><path d="m27.5366 25.0823c.8377.0195 1.9867.081 2.3921.1351.1892.027.2298-.0406.2298-.2432v-1.9865c0-.1757-.0135-.2162-.2839-.2973-.4388-.1296-1.4459-.2959-2.53-.3743-.1917-.0117-.3885-.0184-.5824-.0184-.4577 0-.8708.0334-1.1049.0895-.0002 0-.0005 0-.0007.0001.0082.0664.0006.1244-.012.1698-.0579.2077-.2517.3193-.3622.3673-.0219.0095-.5392.2334-1.0657.3727-.3312.1251-.5867.186-.7805.186-.0934 0-.1755-.0147-.2463-.043-.54.4705-1.0374 1.1678-1.3482 2.2198-.0595.3593-.0917.7556-.0917 1.1926v1.1486c0 3.8918 2.5813 4.5809 4.2977 4.5809 1.2703 0 3.0026-.2027 3.8269-.3784.2433-.054.2839-.0675.2839-.2972v-4.7352c0-.1574-.1288-.2861-.2862-.2861h-.9385-1.2743-1.1635c-.1487 0-.2703.1138-.2703.2529v1.1828c0 .1392.1216.253.2703.253h.8076c.0473 0 .0856.0383.0856.0855v1.0485c0 .0607-.0466.111-.1071.1148-.3099.0199-1.1303.0298-1.2344.0298-.4055 0-1.0677-.0541-1.0677-1.8243v-1.1756c0-1.4865.8269-1.8107 2.5566-1.7702z"/><path d="m22.9046 22.8582c.0012-.0239.0026-.051.0018-.0636-.0042-.0702-.0039-.1777-.0035-.3402.0001-.0336.0002-.07.0003-.1078-1.6944 1.4446-1.7718 2.6427-1.6713 3.2198.014.081.1331.1309.2367.1309.0723 0 .1371-.0244.1532-.0795.3169-1.0865.8293-1.8155 1.387-2.3124-.118-.147-.11-.333-.1042-.4472z"/><path d="m19.9246 18.2754c.0119 0 .0242-.003.0364-.0101.3616-.2081.8894-.4706 1.2633-.6414.064-.2102.1321-.4215.2042-.6299-.5623.2284-1.2276.6837-1.5637 1.1679-.0358.0516.0067.1135.0598.1135z"/><path d="m23.2749 16.8859c.2583-.0266.5053-.0442.7521-.0442.5026 0 1.005.072 1.6046.2842.0076.0027.0158.004.0239.004.0054 0 .0107-.0006.0159-.0017.245-.0556.4446-.0776.6287-.0776.1872 0 .3584.0226.5451.0558.0048.0008.0094.0012.014.0012.0684 0 .1002-.0935.038-.1338-.6885-.446-1.7371-.5757-2.6674-.5758-.569 0-1.093.0485-1.4642.1028.1581.1157.3303.2462.5093.3851z"/><path d="m25.2226 17.2027c-.3143-.1408-.7397-.1764-1.1269-.1764-.2274 0-.4405.0123-.6113.0227.2545.2005.517.4122.7694.619.2971-.1306.6448-.2533.9552-.3345.0755-.0199.0849-.0988.0136-.1308z"/><path d="m24.6016 17.9612c.5007.4162.9142.7724 1.069.9145.8928.0057 1.9831.0985 2.8921.6382.0122.0072.0251.0105.0378.0105.037 0 .0708-.0283.0727-.0698.0294-.6702-.18-1.345-.6175-1.6301-.2212-.144-.7303-.4709-1.5091-.471-.5267 0-1.1771.1508-1.945.6077z"/><path d="m20.9427 21.6277c-.0054-.0065-.0112-.0128-.0166-.0194-.3176-.3917-.4374-.8676-.3374-1.3401l.0186-.0892c.004-.019.0083-.0392.0127-.0605-.007.0058-.0142.0117-.0212.0174-.0018.0015-.0035.003-.0051.0046-2.497 2.4249-1.8444 4.3028-1.0613 5.1555.015.0162.0335.0233.0518.0233.0417 0 .0816-.0373.0717-.0871-.1122-.5667-.1212-1.3581.2376-2.1039.2394-.4975.6258-.9894 1.0492-1.5006z"/><path d="m28.6084 19.9505c-.9564-.5827-1.825-.7744-2.6952-.8007.245.3755.2894.8465.1075 1.2869-.0689.167-.1641.3161-.2785.445 1.6723.1387 2.5712 1.1136 2.6942 1.2926.0106.0153.0207.0287.0391.0311.2049.027.2862.0382.5177.0751.0035.0005.0069.0007.0103.0007.049 0 .078-.0586.0704-.1103-.0853-.58-.6783-.8586-1.0156-1.1471-.0539-.046-.016-.1283.0454-.1283.0083 0 .0171.0015.0261.0048.5499.2029.7539.8049 1.0038.8681.0052.0014.0103.0019.0154.0019.0362 0 .0678-.0317.0697-.0697.0501-.9807-.1957-1.4847-.6103-1.7501z"/><path d="m25.4324 21.2943c-.0725 0-.1425.0014-.2099.0041-.001 0-.0021 0-.0031 0-.0166 0-.0309-.0053-.0422-.0137-.0822.0325-.1678.057-.2553.0744.3201.3834.5659.6822.638.7837.0082.0115.0144.0227.0214.034.0092-.0021.0193-.0042.0277-.0062.2488-.0596.6763-.0957 1.1571-.0957.2884 0 .5959.013.8957.0417.0025.0003.0051.0004.0076.0004.0654 0 .1043-.081.0541-.1263-.607-.5492-1.5625-.6964-2.2911-.6964z"/><path d="m18.7059 20.6084c.019 0 .0383-.0074.0532-.0239.5138-.5689 1.3783-1.2385 2.1046-1.6387.0819-.3345.1784-.7038.2889-1.0827-.6836.3958-1.4478.8915-1.6783 1.0998-.2963.2678-.859.9568-.8411 1.5759.0013.0425.0364.0696.0727.0696z"/><path d="m20.7042 19.658c.0272-.1231.0576-.2577.0915-.4025-.5683.3316-1.3976.9305-2.0347 1.7361-.0011.0014-.0021.0028-.0032.0044-.1897.279-.8173 1.0424-.3406 1.9152.0143.0258.0391.038.0638.038.033 0 .0655-.0215.0717-.0604.1005-.6264.4545-1.823 2.1515-3.2308z"/><path d="m22.4439 22.2654c-.0606.0077-.1222.0129-.1858.0129-.3802 0-.7721-.1513-1.0855-.408-.5712.6096-1.03 1.4477-1.1289 2.0222-.1843 1.0704.0495 1.9661.8606 2.4698.0121.0074.0248.0107.037.0107.0446 0 .0838-.0439.0694-.0934-.6037-2.0639.6344-3.2069 1.4332-4.0142z"/><path d="m24.6435 21.3861c-.0065.0001-.0129.0008-.0194.0008-.3185 0-.6427-.103-.9523-.3006-.1166.3837-.3068.6851-.554.8889.0035.4347-.003.6916.004.8056.0089.1482-.089.478.3077.478.1527 0 .3786-.0488.7122-.1756.4416-.1159.9017-.3024 1.0448-.3646.143-.0621.3483-.2114.1803-.4477-.077-.1084-.3925-.4893-.7233-.8848z"/><path d="m22.2615 22.0527c.5605 0 1.1024-.3783 1.2699-1.349.3803.3262.7559.4594 1.0918.4594 1.0536 0 1.7198-1.3092.9418-2.0834-.2184-.2173-2.9541-2.5358-3.6009-2.8343-.6467 1.4924-1.063 3.5648-1.1691 4.0668-.1994.9426.653 1.7405 1.4665 1.7405z"/><path d="m69.6875 19.174h3.9041v1.0254h-2.7763v1.0912h2.4461v1.0254h-2.4461v1.9848h-1.1278z"/><path d="m76.6184 22.1549-.6812-1.6625-.6812 1.6625zm-1.1866-3.0175h1.0402l2.1974 5.1634h-1.1793l-.4686-1.1499h-2.1686l-.4687 1.1499h-1.1498z"/><path d="m79.3047 19.174h1.1284v5.1268h-1.1284z"/><path d="m83.7625 21.6642c.5495 0 .8644-.2929.8644-.7251v-.0147c0-.4834-.3369-.7323-.8865-.7323h-1.1204v1.4721zm-2.2703-2.4902h2.3438c.6518 0 1.1572.1832 1.4942.5201.2854.2855.4392.6883.4392 1.1718v.0146c0 .8276-.4466 1.3476-1.0984 1.5893l1.2528 1.831h-1.319l-1.0984-1.6406h-.8864v1.6406h-1.1278z"/><path d="m69.6016 29.3478v-.0147c0-1.4502 1.0843-2.6512 2.5637-2.6512.9159 0 1.4648.3369 1.9922.8202l-.2708.2783c-.4472-.4321-.9599-.7543-1.7287-.7543-1.2308 0-2.1607 1.0034-2.1607 2.2923v.0147c0 1.2963.9446 2.3071 2.168 2.3071.7394 0 1.2454-.2857 1.7649-.7983l.2567.249c-.5421.5346-1.1278.8935-2.0363.8935-1.4647 0-2.549-1.1645-2.549-2.6366z"/><path d="m78.7162 30.1168-1.3478-2.9662-1.355 2.9662zm-1.5236-3.3837h.3657l2.388 5.1634h-.4172l-.6518-1.4356h-3.0251l-.6524 1.4356h-.3951z"/><path d="m80.5859 31.1495.2488-.2857c.5642.5201 1.0843.7617 1.839.7617.7688 0 1.2963-.4321 1.2963-1.0179v-.0147c0-.542-.2855-.8569-1.4507-1.0913-1.2301-.249-1.7281-.6665-1.7281-1.4427v-.0148c0-.7617.6959-1.3476 1.6479-1.3476.7473 0 1.238.2051 1.7581.6226l-.2419.3003c-.4834-.4176-.9667-.5787-1.5309-.5787-.7548 0-1.2528.4321-1.2528.9668v.0147c0 .542.2787.8715 1.4947 1.1205 1.1867.2417 1.6847.6665 1.6847 1.4135v.0147c0 .8276-.7106 1.3988-1.6994 1.3988-.8208 0-1.4506-.271-2.0657-.8202z"/><path d="m85.6719 26.7698h.3807v5.1267h-.3807z"/><path d="m87.6094 26.7698h.3588l3.5374 4.4602v-4.4602h.3666v5.1267h-.2862l-3.6106-4.5555v4.5555h-.366z"/><path d="m97.9408 29.3477v-.0145c0-1.2671-.9226-2.3071-2.1902-2.3071-1.2668 0-2.175 1.0252-2.175 2.2923v.0148c0 1.267.9226 2.307 2.1902 2.307 1.2669 0 2.175-1.0254 2.175-2.2925zm-4.7611 0v-.0145c0-1.399 1.0328-2.6513 2.5861-2.6513 1.5526 0 2.5709 1.2376 2.5709 2.6365v.0148c0 1.3987-1.0327 2.6512-2.5861 2.6512-1.5526 0-2.5709-1.2378-2.5709-2.6367z"/><path d="m62.6057 18.4331c-.1017 0-.1838.0823-.1838.1838v14.0577c0 .1015.0821.1838.1838.1838.1016 0 .1837-.0823.1837-.1838v-14.0577c0-.1015-.0821-.1838-.1837-.1838z"/></g><path d="m96.7414 41.9554h-91.23169v-33.50604h114.86429v17.25074c.606-.367 1.219-.7167 1.838-1.049v-18.03937h-118.54012v37.18127h94.28952c-.3933-.6111-.7974-1.2234-1.22-1.8376z" fill="#90a2bd"/><path d="m120.369 30.2101v11.7453h-10.902c-.47.6047-.933 1.2174-1.389 1.8376h14.129v-15.1846c-.618.5231-1.232 1.0571-1.838 1.6017z" fill="#90a2bd"/><path d="m91.6406 37.3319c.5268-1.5035 2.3196-3.2114 5.4347-2.7265 2.4616.5306 4.4947 2.1969 6.1217 4.9284 9.015-9.6577 16.773-16.3096 27.046-18.8381.916-.1677 1.399-.1309.732.4512-10.598 6.6114-20.163 16.1755-27.578 28.045-.174.2774-.798.2594-1.008-.041-2.296-3.1558-3.9325-6.2366-6.2279-9.3927-1.0241-1.633-2.3196-2.8051-4.5196-2.4278z" fill="#fff"/></svg>