<svg width="128" height="42" viewBox="0 0 128 42" fill="none" xmlns="http://www.w3.org/2000/svg">
<path fill-rule="evenodd" clip-rule="evenodd" d="M117.259 0.263672C115.401 1.69508 116.308 3.50778 116.516 3.92415L116.53 3.9529C116.533 3.96053 116.537 3.96742 116.54 3.97362C116.226 3.68194 115.902 3.39686 115.569 3.11881C115.558 2.88433 114.99 0.550316 112.196 0.800846C112.91 1.2131 113.59 1.65231 114.238 2.11596L114.237 2.11698C113.591 1.65397 112.911 1.21536 112.198 0.803483C113.425 3.30375 115.056 3.17221 115.467 3.13912C115.481 3.13801 115.493 3.13702 115.504 3.13624C122.905 9.31038 125.169 18.9028 122.33 27.1658C122.365 26.8796 122.119 24.4321 118.998 24.442L119.004 24.4461C119.809 27.2576 122.192 27.2873 122.32 27.1964C121.937 28.3046 121.463 29.3886 120.897 30.4373C120.986 30.0633 121.087 27.5836 117.977 27.0385L117.984 27.0444C118.203 28.545 118.841 29.4806 119.521 29.9606C120.136 30.4182 120.787 30.4825 120.87 30.4845C120.302 31.5331 119.64 32.5459 118.888 33.5114C118.949 33.3337 119.143 32.6683 118.984 31.9375C118.809 31.0615 118.138 30.0944 116.54 29.4565C117.413 30.7178 118.192 32.0829 118.864 33.5421C118.192 32.0841 117.415 30.7213 116.544 29.461C116.5 31.0531 116.976 32.1456 117.579 32.7674C118.11 33.3424 118.745 33.53 118.853 33.5545C118.098 34.5174 117.252 35.4329 116.313 36.2898C116.416 36.1067 116.742 35.4478 116.715 34.6631C116.707 33.7171 116.198 32.5917 114.686 31.6451L114.691 31.6554C114.352 33.3031 114.621 34.5309 115.118 35.2873C115.542 35.973 116.149 36.2808 116.268 36.3324C115.334 37.1794 114.312 37.9686 113.2 38.6889C113.362 38.4848 113.805 37.8632 113.932 37.0679C114.114 36.0709 113.808 34.8056 112.441 33.555C112.826 35.2008 113.065 36.9307 113.139 38.7288L113.137 38.7292C113.064 36.9329 112.826 35.2055 112.441 33.5613C111.765 35.2326 111.784 36.5737 112.142 37.455C112.434 38.2362 112.988 38.6604 113.114 38.7448C112.835 38.9241 112.55 39.099 112.258 39.2696C112.203 39.3019 112.176 39.3695 112.198 39.4211C112.219 39.4725 112.282 39.4881 112.338 39.4553C112.625 39.2859 112.906 39.112 113.181 38.9342C113.184 39.1845 113.205 39.8573 113.57 40.5204C114.039 41.3308 115.051 42.1262 117.408 41.5241L117.415 41.5274C116.965 39.5279 115.864 38.9529 114.925 38.7681C114.291 38.6559 113.73 38.7191 113.424 38.7759C114.485 38.0732 115.464 37.3082 116.359 36.4908C116.406 36.716 116.551 37.3365 117.019 37.8967C117.603 38.5725 118.689 39.156 120.781 38.2561L120.783 38.257C120.003 36.4816 118.865 36.114 117.955 36.0831C117.339 36.0742 116.825 36.2165 116.551 36.3143C117.437 35.4871 118.24 34.6076 118.96 33.686C119.044 33.8856 119.292 34.4366 119.834 34.8827C120.505 35.4159 121.627 35.7874 123.447 34.632L123.454 34.6329C122.409 33.1084 121.267 32.9468 120.4 33.0603C119.808 33.1497 119.343 33.3674 119.103 33.5003C119.815 32.5688 120.444 31.5951 120.988 30.5896C121.101 30.7608 121.432 31.2324 122.022 31.5597C122.751 31.946 123.877 32.1104 125.414 30.7439L125.419 30.7437C124.174 29.4917 123.057 29.527 122.251 29.7733C121.701 29.9533 121.295 30.2328 121.091 30.3954C121.626 29.3818 122.077 28.3365 122.442 27.2696C122.575 27.4075 122.97 27.7977 123.592 28.0068C124.351 28.2464 125.45 28.2121 126.699 26.6789L126.707 26.6772C125.318 25.7101 124.255 25.9291 123.524 26.2955C123.014 26.5641 122.666 26.9049 122.503 27.0885C122.862 26.0115 123.134 24.9132 123.321 23.8039C123.466 23.9083 123.909 24.2125 124.543 24.3038C125.305 24.399 126.349 24.1796 127.305 22.5225L127.31 22.5201C125.83 21.8423 124.847 22.2305 124.206 22.7017C123.755 23.0458 123.475 23.4313 123.349 23.6316C123.529 22.5128 123.622 21.3837 123.627 20.2541C123.639 20.2588 123.652 20.2647 123.666 20.2712C124.097 20.4647 126.038 21.3336 127.244 18.3572C126.064 19.0772 124.856 19.6991 123.627 20.2215C124.856 19.6989 126.068 19.0753 127.248 18.3544C124.634 17.7439 123.821 19.675 123.629 20.1428C123.627 18.9961 123.538 17.8495 123.36 16.7143C123.365 16.7156 123.37 16.717 123.377 16.7185L123.405 16.7253C123.847 16.8349 125.833 17.3249 126.524 14.2685C125.506 15.1637 124.447 15.9709 123.355 16.6874C124.449 15.97 125.51 15.1612 126.527 14.2652C123.919 14.1289 123.452 16.1508 123.344 16.6176V16.6211C123.159 15.4812 122.884 14.3528 122.517 13.2472C122.531 13.2478 122.547 13.2488 122.564 13.25C123.005 13.2784 124.977 13.4057 125.153 10.3371C124.323 11.377 123.438 12.3406 122.51 13.2235C123.438 12.3398 124.325 11.3741 125.155 10.333C122.641 10.6487 122.519 12.6876 122.491 13.1567V13.1643C122.119 12.0571 121.657 10.9731 121.105 9.92336C121.119 9.92157 121.134 9.91969 121.154 9.91744C121.578 9.86942 123.484 9.65337 123.145 6.6418C122.522 7.79586 121.837 8.88495 121.096 9.90493L121.094 9.90399C121.837 8.88278 122.524 7.7924 123.146 6.63716C120.794 7.36968 121.017 9.37806 121.068 9.83933L121.072 9.85868C120.512 8.80538 119.862 7.78698 119.121 6.81489C119.133 6.81062 119.15 6.80544 119.171 6.79907C119.568 6.68042 121.353 6.14728 120.51 3.26187L120.512 3.25485C118.381 4.36164 118.948 6.29449 119.079 6.73763C119.082 6.75097 119.086 6.76295 119.089 6.77353C118.339 5.79714 117.498 4.86775 116.565 3.99695C116.577 3.99014 116.595 3.98102 116.617 3.9693C116.979 3.78691 118.601 2.96978 117.257 0.270478L117.259 0.263672Z" fill="white"/>
<path d="M123.196 23.7546C123.243 23.6907 122.72 21.1484 119.586 21.7192L119.593 21.722C120.824 22.2935 122.03 22.9717 123.196 23.7546Z" fill="white"/>
<path d="M123.501 20.2416C123.536 20.1839 122.647 17.8352 119.734 18.9229L119.74 18.9244C120.544 20.0088 121.453 20.4212 122.196 20.4731C122.935 20.5388 123.508 20.244 123.501 20.2416Z" fill="white"/>
<path d="M123.241 16.7254C123.264 16.6636 122.049 14.5603 119.438 16.1086C119.595 16.1222 119.752 16.1373 119.911 16.1539C119.756 16.1375 119.598 16.1226 119.443 16.1092C121.296 18.0234 123.231 16.8163 123.241 16.7254Z" fill="white"/>
<path d="M118.678 13.3341C120.926 11.3837 122.426 13.2216 122.41 13.2788C121.151 13.2069 119.905 13.226 118.678 13.3341Z" fill="white"/>
<path d="M118.684 13.3329C120.766 14.8808 122.416 13.3634 122.412 13.2781C121.155 13.2062 119.909 13.2253 118.684 13.3329Z" fill="white"/>
<path d="M117.453 10.6586C119.703 11.8234 121.019 10.0579 121.009 9.97447L121.012 9.97398C121.019 9.91968 119.278 8.37899 117.453 10.6586Z" fill="white"/>
<path d="M115.744 8.14043L115.746 8.14092C118.113 8.9181 119.059 6.97066 119.039 6.88305L119.045 6.88192C119.043 6.83045 117.097 5.60345 115.744 8.14043Z" fill="white"/>
<path d="M113.541 5.84532C114.378 3.12505 116.494 4.02689 116.501 4.07405C115.467 4.60191 114.478 5.19361 113.541 5.84532Z" fill="white"/>
<path d="M113.545 5.8436C116.003 6.24142 116.538 4.13713 116.501 4.0752C115.47 4.60257 114.482 5.19331 113.545 5.8436Z" fill="white"/>
<path fill-rule="evenodd" clip-rule="evenodd" d="M10.7391 0.263672C12.5973 1.69508 11.6901 3.50778 11.482 3.92415L11.4681 3.9529C11.4646 3.96053 11.4611 3.96742 11.4576 3.97362C11.7722 3.68194 12.0956 3.39686 12.4295 3.11881C12.44 2.88433 13.0081 0.550316 15.8016 0.800846C15.0883 1.2131 14.4083 1.65231 13.7598 2.11596L13.7615 2.11698C14.4066 1.65397 15.0866 1.21536 15.7998 0.803483C14.5726 3.30375 12.9417 3.17221 12.5309 3.13912C12.5169 3.13801 12.5047 3.13702 12.4942 3.13624C5.09279 9.31038 2.82902 18.9028 5.66791 27.1658C5.63295 26.8796 5.87943 24.4321 8.99976 24.442L8.99451 24.4461C8.18865 27.2576 5.806 27.2873 5.67839 27.1964C6.06122 28.3046 6.53496 29.3886 7.10134 30.4373C7.01219 30.0633 6.91079 27.5836 10.0206 27.0385L10.0136 27.0444C9.79514 28.545 9.15709 29.4806 8.47709 29.9606C7.86176 30.4182 7.21147 30.4825 7.12756 30.4845C7.69569 31.5331 8.35822 32.5459 9.10989 33.5114C9.04871 33.3337 8.85467 32.6683 9.01375 31.9375C9.18855 31.0615 9.85981 30.0944 11.4576 29.4565C10.5853 30.7178 9.80563 32.0829 9.13436 33.5421C9.80563 32.0841 10.5835 30.7213 11.4541 29.461C11.4978 31.0531 11.0223 32.1456 10.4192 32.7674C9.88779 33.3424 9.25323 33.53 9.14485 33.5545C9.90002 34.5174 10.7461 35.4329 11.6848 36.2898C11.5817 36.1067 11.2565 35.4478 11.2828 34.6631C11.2915 33.7171 11.8002 32.5917 13.3123 31.6451L13.307 31.6554C13.6462 33.3031 13.377 34.5309 12.8805 35.2873C12.4557 35.973 11.8491 36.2808 11.7303 36.3324C12.6637 37.1794 13.6864 37.9686 14.7982 38.6889C14.6356 38.4848 14.1933 37.8632 14.0657 37.0679C13.8839 36.0709 14.1898 34.8056 15.5568 33.555C15.1722 35.2008 14.9328 36.9307 14.8593 38.7288L14.8611 38.7292C14.9345 36.9329 15.1722 35.2055 15.5568 33.5613C16.2333 35.2326 16.2141 36.5737 15.8558 37.455C15.5638 38.2362 15.0097 38.6604 14.8838 38.7448C15.1635 38.9241 15.4484 39.099 15.7404 39.2696C15.7946 39.3019 15.8225 39.3695 15.7998 39.4211C15.7788 39.4725 15.7159 39.4881 15.66 39.4553C15.3733 39.2859 15.0918 39.112 14.8174 38.9342C14.8139 39.1845 14.7929 39.8573 14.4276 40.5204C13.9591 41.3308 12.9469 42.1262 10.5905 41.5241L10.5835 41.5274C11.0328 39.5279 12.1341 38.9529 13.0728 38.7681C13.7074 38.6559 14.2685 38.7191 14.5744 38.7759C13.5133 38.0732 12.5344 37.3082 11.6394 36.4908C11.5922 36.716 11.4471 37.3365 10.9786 37.8967C10.3947 38.5725 9.30917 39.156 7.21671 38.2561L7.21497 38.257C7.99461 36.4816 9.13261 36.114 10.0434 36.0831C10.6587 36.0742 11.1726 36.2165 11.4471 36.3143C10.5608 35.4871 9.75843 34.6076 9.03822 33.686C8.95431 33.8856 8.70608 34.4366 8.16418 34.8827C7.49291 35.4159 6.37064 35.7874 4.55088 34.632L4.54389 34.6329C5.58925 33.1084 6.73074 32.9468 7.59779 33.0603C8.19039 33.1497 8.65539 33.3674 8.89488 33.5003C8.1834 32.5688 7.55409 31.5951 7.01043 30.5896C6.89681 30.7608 6.56643 31.2324 5.97558 31.5597C5.24663 31.946 4.12086 32.1104 2.58429 30.7439L2.57905 30.7437C3.82368 29.4917 4.9407 29.527 5.74657 29.7733C6.29722 29.9533 6.70278 30.2328 6.9073 30.3954C6.37239 29.3818 5.92138 28.3365 5.55603 27.2696C5.42317 27.4075 5.02811 27.7977 4.40579 28.0068C3.64712 28.2464 2.54758 28.2121 1.29945 26.6789L1.29071 26.6772C2.68044 25.7101 3.74327 25.9291 4.47397 26.2955C4.98441 26.5641 5.33228 26.9049 5.49485 27.0885C5.13649 26.0115 4.86379 24.9132 4.67674 23.8039C4.53165 23.9083 4.08939 24.2125 3.45484 24.3038C2.69267 24.399 1.64906 24.1796 0.69286 22.5225L0.687618 22.5201C2.16825 21.8423 3.15067 22.2305 3.79222 22.7017C4.24322 23.0458 4.52291 23.4313 4.64878 23.6316C4.46872 22.5128 4.37607 21.3837 4.37082 20.2541C4.35859 20.2588 4.34636 20.2647 4.33237 20.2712C3.9006 20.4647 1.96023 21.3336 0.754049 18.3572C1.93401 19.0772 3.14192 19.6991 4.37082 20.2215C3.14192 19.6989 1.9305 19.0753 0.750542 18.3544C3.36393 17.7439 4.17679 19.675 4.36908 20.1428C4.37082 18.9961 4.45999 17.8495 4.63829 16.7143C4.63305 16.7156 4.6278 16.717 4.62081 16.7185L4.59284 16.7253C4.15058 16.8349 2.16474 17.3249 1.47425 14.2685C2.49164 15.1637 3.55098 15.9709 4.64353 16.6874C3.54923 15.97 2.48814 15.1612 1.47076 14.2652C4.0789 14.1289 4.54564 16.1508 4.65402 16.6176V16.6211C4.83931 15.4812 5.11376 14.3528 5.48086 13.2472C5.46688 13.2478 5.45114 13.2488 5.43366 13.25C4.99314 13.2784 3.02131 13.4057 2.84476 10.3371C3.6751 11.377 4.55963 12.3406 5.48786 13.2235C4.55963 12.3398 3.67335 11.3741 2.84301 10.333C5.35676 10.6487 5.47911 12.6876 5.50708 13.1567V13.1643C5.87942 12.0571 6.34092 10.9731 6.89331 9.92336C6.87933 9.92157 6.86359 9.91969 6.84436 9.91744C6.41958 9.86942 4.51417 9.65337 4.8533 6.6418C5.47561 7.79586 6.16087 8.88495 6.90206 9.90493L6.90381 9.90399C6.16087 8.88278 5.47387 7.7924 4.85155 6.63716C7.20447 7.36968 6.98072 9.37806 6.93003 9.83933L6.92653 9.85868C7.48592 8.80538 8.1362 7.78698 8.87739 6.81489C8.86515 6.81062 8.84767 6.80544 8.8267 6.79907C8.42988 6.68042 6.64509 6.14728 7.48767 3.26187L7.48592 3.25485C9.61683 4.36164 9.05045 6.29449 8.91935 6.73763C8.91585 6.75097 8.91235 6.76295 8.90885 6.77353C9.65878 5.79714 10.4996 4.86775 11.4331 3.99695C11.4209 3.99014 11.4034 3.98102 11.3806 3.9693C11.0188 3.78691 9.39657 2.96978 10.7409 0.270478L10.7391 0.263672Z" fill="white"/>
<path d="M4.80231 23.7546C4.75511 23.6907 5.27779 21.1484 8.41211 21.7192L8.40512 21.722C7.17447 22.2935 5.96828 22.9717 4.80231 23.7546Z" fill="white"/>
<path d="M4.49655 20.2416C4.46159 20.1839 5.35136 17.8352 8.26367 18.9229L8.25843 18.9244C7.45431 20.0088 6.5453 20.4212 5.80236 20.4731C5.06292 20.5388 4.48956 20.244 4.49655 20.2416Z" fill="white"/>
<path d="M4.75671 16.7244C4.73399 16.6626 5.94891 14.5594 8.56055 16.1076C8.40322 16.1212 8.2459 16.1363 8.08682 16.1529C8.2424 16.1365 8.39973 16.1216 8.55531 16.1082C6.70234 18.0224 4.7672 16.8153 4.75671 16.7244Z" fill="white"/>
<path d="M9.32031 13.3341C7.07228 11.3837 5.57243 13.2216 5.58816 13.2788C6.84678 13.2069 8.09316 13.226 9.32031 13.3341Z" fill="white"/>
<path d="M9.31445 13.3329C7.23248 14.8808 5.5823 13.3634 5.5858 13.2781C6.84267 13.2062 8.08905 13.2253 9.31445 13.3329Z" fill="white"/>
<path d="M10.5451 10.6586C8.29534 11.8234 6.97903 10.0579 6.98952 9.97447L6.98602 9.97398C6.97903 9.91968 8.72013 8.37899 10.5451 10.6586Z" fill="white"/>
<path d="M12.2539 8.14043L12.2522 8.14092C9.88525 8.9181 8.93953 6.97066 8.95876 6.88305L8.95352 6.88192C8.95527 6.83045 10.9009 5.60345 12.2539 8.14043Z" fill="white"/>
<path d="M14.457 5.84532C13.6197 3.12505 11.5045 4.02689 11.4975 4.07405C12.5306 4.60191 13.5201 5.19361 14.457 5.84532Z" fill="white"/>
<path d="M14.4531 5.84263C11.9953 6.24044 11.4604 4.13615 11.4971 4.07422C12.5285 4.60159 13.5162 5.19233 14.4531 5.84263Z" fill="white"/>
<path d="M26.2024 15.3127C26.127 15.3199 26.05 15.323 25.9723 15.323C25.3573 15.323 24.674 15.0868 23.9771 14.5096C23.8436 15.2653 23.5742 15.8182 23.2265 16.2001V16.1937C23.1003 16.3331 22.964 16.4499 22.8199 16.5457V16.5497C22.4621 16.7859 22.0576 16.8924 21.6488 16.8924C21.6265 16.8924 21.6045 16.8921 21.5823 16.8915C20.1077 16.8541 18.5924 15.4588 18.9439 13.8197C18.963 13.7374 18.9871 13.6309 19.0159 13.5033C19.2959 12.2619 20.0264 9.02443 21.0949 6.63281L21.1011 6.63555L21.1019 6.63351C22.2961 7.16325 27.3073 11.2617 27.7043 11.644C29.0733 12.9615 28.0016 15.1432 26.2024 15.3127Z" fill="white"/>
<path d="M19.7753 23.0775C19.5869 22.0548 19.7287 19.952 22.8187 17.4053C22.8177 17.476 22.8166 17.5425 22.8151 17.6047V18.3301C22.8022 18.528 22.7895 18.8537 23.0028 19.1219C21.9967 19.998 21.0753 21.2777 20.5014 23.1699C20.4741 23.2622 20.3507 23.315 20.2138 23.315C20.022 23.315 19.8028 23.2227 19.7753 23.0775Z" fill="white"/>
<path d="M23.3226 18.8646C23.2176 18.7216 23.2263 18.5157 23.2358 18.3514C23.2392 18.2942 23.2421 18.2416 23.2398 18.1979C23.2311 18.0806 23.2322 17.8822 23.2335 17.5905V17.587C23.2345 17.3654 23.236 17.0903 23.2335 16.7563C23.68 16.395 24.0235 15.8638 24.2379 15.1914C24.7997 15.5343 25.4024 15.7189 25.9916 15.7189C26.0033 15.7189 26.0151 15.7188 26.0268 15.7187C26.5541 16.3271 27.2739 17.1879 27.2739 17.1879L27.3979 17.3635C27.6068 17.7415 27.2656 17.9802 27.0212 18.0793C26.7609 18.1847 25.9114 18.5144 25.1032 18.7254C24.4865 18.9495 24.0755 19.0419 23.8015 19.0419C23.5454 19.0419 23.4017 18.9697 23.3226 18.8646Z" fill="white"/>
<path d="M20.7031 25.3848C20.7031 22.2724 21.6586 20.3273 23.0101 19.1264C23.023 19.1424 23.0367 19.1582 23.0513 19.1738C23.2293 19.3452 23.4761 19.4375 23.7912 19.4375C24.1474 19.4375 24.6132 19.3319 25.2297 19.1077C26.0743 18.8903 26.8979 18.5635 27.1275 18.4724C27.162 18.4587 27.1836 18.4501 27.1889 18.4484C27.3944 18.3693 27.7506 18.1717 27.8602 17.8024C27.8987 17.6821 27.9101 17.5165 27.838 17.3237C28.1831 17.2985 28.5194 17.2881 28.8413 17.2881C31.5264 17.2881 34.5263 17.71 35.6225 18.0265C36.1304 18.1717 36.1431 18.2375 36.1706 18.554V22.0617C36.1706 22.431 36.0881 22.5496 35.7474 22.4968C34.9919 22.4047 32.8819 22.2992 31.3485 22.2596C28.1698 22.1805 26.649 22.7606 26.649 25.3848V27.4683C26.649 30.5937 27.8684 30.686 28.6083 30.686C28.8 30.686 30.2935 30.6728 30.8689 30.6332C30.9785 30.6332 31.0606 30.5409 31.0606 30.4355V28.5762C31.0606 28.4969 30.9923 28.4311 30.91 28.4311H29.4167C29.1427 28.4311 28.9234 28.2332 28.9234 27.9827V25.886C28.9234 25.6355 29.1427 25.4376 29.4167 25.4376H35.6225C35.9103 25.4376 36.1431 25.6618 36.1431 25.9387V34.3124C36.1431 34.7212 36.0754 34.7477 35.6225 34.8398C34.103 35.1563 30.9237 35.5124 28.5945 35.5124C25.4434 35.5124 20.7031 34.2993 20.7031 27.4157V25.3848Z" fill="white"/>
<path d="M27.816 17.0774C27.7849 17.0847 27.7514 17.0921 27.7159 17.0997C27.7078 17.0879 27.6996 17.076 27.6909 17.064C27.5574 16.884 27.1053 16.3529 26.5117 15.67C26.6855 15.6369 26.8546 15.5877 27.0169 15.5234C27.0397 15.5385 27.0689 15.5477 27.1036 15.5477C27.1635 15.5477 27.2236 15.5446 27.2852 15.5414C27.3502 15.538 27.4169 15.5345 27.4871 15.5345C28.8299 15.5345 30.5835 15.7983 31.6932 16.7609C31.7891 16.84 31.7208 16.9851 31.5974 16.9851H31.5836C31.0357 16.9324 30.474 16.906 29.9397 16.906C29.0627 16.906 28.2682 16.9719 27.816 17.0774Z" fill="white"/>
<path d="M19.2021 16.1514C19.1913 16.1392 19.1807 16.127 19.1703 16.1146C18.5949 15.4157 18.3756 14.5718 18.5538 13.741L18.5949 13.5827L18.6254 13.4424L18.5987 13.4641L18.585 13.4773C14.0089 17.7631 15.2008 21.0862 16.6394 22.5895C16.6667 22.6158 16.708 22.629 16.7353 22.629C16.8176 22.629 16.886 22.5632 16.8722 22.4709C16.6667 21.4685 16.6532 20.0708 17.3107 18.752C17.7465 17.8914 18.441 17.04 19.2021 16.1514Z" fill="white"/>
<path d="M18.9872 11.8691C18.9239 12.1268 18.8666 12.3683 18.8154 12.5893C15.6816 15.0846 15.0408 17.2014 14.8562 18.3176C14.8425 18.3837 14.7877 18.4232 14.7191 18.4232C14.678 18.4232 14.6232 18.3967 14.5959 18.3572C13.7837 16.9282 14.711 15.6689 15.1354 15.0926C15.1692 15.0468 15.1999 15.0051 15.2261 14.9682V14.955C16.4089 13.5199 17.9451 12.4526 18.9872 11.8691Z" fill="white"/>
<path d="M19.1213 11.3249C19.2736 10.7322 19.4525 10.0801 19.656 9.41309C18.3966 10.1176 16.9772 11.0006 16.5525 11.3673C16.0046 11.8421 14.9769 13.0553 15.0044 14.1498C15.0044 14.2157 15.073 14.2685 15.1414 14.2685C15.1689 14.2685 15.2099 14.2553 15.2375 14.2289C16.1866 13.2239 17.7855 12.0312 19.1213 11.3249Z" fill="white"/>
<path d="M20.171 7.87402C20.0369 8.24406 19.9101 8.61998 19.7907 8.99414C19.1034 9.29572 18.1265 9.76233 17.4611 10.127C17.4338 10.1402 17.4201 10.1402 17.3928 10.1402C17.2967 10.1402 17.2146 10.0347 17.2831 9.94236C17.9011 9.08043 19.1345 8.27439 20.171 7.87402Z" fill="white"/>
<path d="M19.6473 16.5752C20.2229 17.0292 20.9433 17.3008 21.6476 17.3008C21.7534 17.3008 21.8569 17.2951 21.9581 17.2838L21.8275 17.4108C20.3656 18.8298 18.3026 20.8326 19.377 24.3296C19.4043 24.4219 19.336 24.501 19.2537 24.501C19.2264 24.501 19.2126 24.501 19.1851 24.4877C17.6918 23.6042 17.2671 22.0086 17.6095 20.1228C17.7843 19.1141 18.612 17.6483 19.6473 16.5752Z" fill="white"/>
<path d="M33.0071 17.092C32.7786 16.7695 31.1232 15.0467 28.0508 14.811C28.2565 14.5855 28.4268 14.3238 28.5509 14.0325C28.8943 13.2394 28.8073 12.4004 28.3384 11.7305C29.9421 11.7762 31.5369 12.1142 33.2949 13.1491C34.0631 13.6238 34.5012 14.5073 34.4187 16.248C34.4187 16.3139 34.351 16.3667 34.2959 16.3667H34.2684C34.0801 16.3228 33.9044 16.1121 33.6886 15.8555C33.388 15.4954 33.0092 15.0449 32.4182 14.837C32.4114 14.837 32.4046 14.8337 32.3976 14.8304C32.3909 14.8271 32.3841 14.8238 32.3771 14.8238C32.2675 14.8238 32.1991 14.9689 32.295 15.048C32.4376 15.1669 32.6059 15.2845 32.7828 15.4076C33.3669 15.8169 34.042 16.2881 34.1584 17.0788C34.1711 17.1711 34.1182 17.2766 34.0356 17.2766H34.0208C33.7626 17.2365 33.606 17.2159 33.4388 17.194C33.3309 17.1799 33.2209 17.1654 33.0748 17.1447C33.0494 17.1447 33.0219 17.1183 33.0071 17.092Z" fill="white"/>
<path d="M27.9177 11.2624C29.5591 11.2726 31.5603 11.4401 33.2294 12.396C33.2569 12.4092 33.2696 12.4092 33.2971 12.4092C33.3649 12.4092 33.4347 12.3696 33.4347 12.2905C33.4897 11.1169 33.1046 9.91684 32.2972 9.41574C31.8998 9.16518 30.9544 8.58496 29.5297 8.58496C28.5598 8.58496 27.3715 8.85014 25.9648 9.65461C26.8702 10.3788 27.6229 11.0024 27.9177 11.2624Z" fill="white"/>
<path d="M27.0455 8.55973C26.4785 8.7003 25.8521 8.91344 25.312 9.14066C24.8498 8.7763 24.3686 8.40273 23.9023 8.04933C24.2122 8.02971 24.5988 8.00586 25.0041 8.00586C25.7164 8.00586 26.4973 8.07181 27.0728 8.32235C27.2099 8.3751 27.1824 8.52017 27.0455 8.55973Z" fill="white"/>
<path d="M23.5116 7.74975C23.1804 7.50247 22.8621 7.27037 22.5703 7.06481C23.2494 6.98833 24.2174 6.89648 25.2698 6.89648C26.9823 6.89648 28.9005 7.12065 30.161 7.91187C30.2704 7.9778 30.2156 8.14925 30.0924 8.14925H30.0649C29.7225 8.0965 29.4074 8.05694 29.0648 8.05694C28.7224 8.05694 28.3662 8.0965 27.9139 8.1888H27.8866C27.8729 8.1888 27.8591 8.1888 27.8456 8.17562C26.7493 7.80638 25.8178 7.67452 24.8999 7.67452C24.4456 7.67452 23.9914 7.69959 23.5116 7.74975Z" fill="white"/>
<path d="M61.0123 29.9365C61.8151 29.9365 62.4355 30.108 62.8734 30.4511C63.3114 30.7868 63.5303 31.2466 63.5303 31.8305C63.5303 32.0787 63.4829 32.3013 63.388 32.4984C63.2931 32.6881 63.1727 32.8487 63.0267 32.9801C62.8807 33.1114 62.7238 33.2136 62.5559 33.2866C62.7603 33.3523 62.9464 33.4545 63.1143 33.5932C63.2895 33.7318 63.4281 33.9106 63.5303 34.1296C63.6398 34.3413 63.6945 34.604 63.6945 34.9179C63.6945 35.3339 63.5814 35.6952 63.3551 36.0017C63.1289 36.301 62.815 36.5309 62.4136 36.6914C62.0195 36.8447 61.5597 36.9213 61.0342 36.9213C60.5598 36.9213 60.1547 36.8739 59.8189 36.779C59.4905 36.6914 59.2387 36.5674 59.0635 36.4068C58.8884 36.2389 58.8008 36.0564 58.8008 35.8594C58.8008 35.6842 58.8409 35.5309 58.9212 35.3996C59.0088 35.2682 59.1146 35.1697 59.2387 35.104C59.3993 35.2135 59.6036 35.3266 59.8518 35.4434C60.1072 35.5601 60.4357 35.6185 60.8371 35.6185C61.2312 35.6185 61.5341 35.5419 61.7458 35.3886C61.9575 35.2354 62.0633 35.031 62.0633 34.7755C62.0633 34.5274 61.9757 34.334 61.8005 34.1953C61.6254 34.0566 61.3407 33.9873 60.9466 33.9873H59.9503C59.8992 33.9143 59.8554 33.8267 59.8189 33.7245C59.7898 33.615 59.7752 33.491 59.7752 33.3523C59.7752 33.2063 59.7898 33.0786 59.8189 32.9691C59.8554 32.8596 59.8992 32.7721 59.9503 32.7064H60.9247C61.2604 32.7064 61.5049 32.6443 61.6582 32.5202C61.8115 32.3962 61.8881 32.2174 61.8881 31.9838C61.8881 31.7575 61.7932 31.5787 61.6035 31.4473C61.4137 31.3087 61.1364 31.2393 60.7714 31.2393C60.4649 31.2393 60.1912 31.2795 59.9503 31.3598C59.7168 31.44 59.5233 31.5349 59.3701 31.6444C59.2606 31.5641 59.1657 31.4656 59.0854 31.3488C59.0124 31.232 58.976 31.097 58.976 30.9437C58.976 30.7248 59.0599 30.5423 59.2278 30.3963C59.3956 30.2504 59.6328 30.1372 59.9394 30.057C60.2532 29.9767 60.6109 29.9365 61.0123 29.9365Z" fill="white"/>
<path d="M53.4745 30.9983C53.4745 30.772 53.5584 30.5822 53.7263 30.429C53.8941 30.2684 54.124 30.148 54.416 30.0677C54.7079 29.9874 55.0473 29.9473 55.4342 29.9473C55.9816 29.9473 56.4414 30.0348 56.8136 30.21C57.1931 30.3779 57.4778 30.6151 57.6675 30.9216C57.8646 31.2209 57.9631 31.5639 57.9631 31.9507C57.9631 32.3376 57.8537 32.7171 57.6347 33.0893C57.4157 33.4543 57.0763 33.8302 56.6165 34.217L55.0948 35.487H57.8756C57.912 35.5453 57.9485 35.6329 57.985 35.7497C58.0215 35.8592 58.0398 35.9796 58.0398 36.111C58.0398 36.3372 57.9887 36.5015 57.8865 36.6036C57.7843 36.7058 57.6493 36.7569 57.4814 36.7569H53.6606C53.5219 36.662 53.4124 36.538 53.3321 36.3847C53.2591 36.2314 53.2227 36.0599 53.2227 35.8701C53.2227 35.6512 53.2664 35.4687 53.354 35.3227C53.4489 35.1695 53.5511 35.0417 53.6606 34.9395L55.2809 33.5054C55.675 33.1623 55.9451 32.8813 56.091 32.6624C56.237 32.4434 56.31 32.2354 56.31 32.0383C56.31 31.7975 56.2188 31.6077 56.0363 31.469C55.8611 31.3231 55.6057 31.2501 55.2699 31.2501C54.9707 31.2501 54.7006 31.3012 54.4598 31.4033C54.2262 31.4982 54.0328 31.5968 53.8795 31.6989C53.7701 31.626 53.6752 31.5311 53.5949 31.4143C53.5146 31.2975 53.4745 31.1588 53.4745 30.9983Z" fill="white"/>
<path d="M50.8918 33.4287C50.8918 32.947 50.8407 32.5456 50.7385 32.2244C50.6363 31.896 50.494 31.6515 50.3115 31.4909C50.1291 31.3304 49.9138 31.2501 49.6656 31.2501C49.4248 31.2501 49.2131 31.334 49.0306 31.5019C48.8482 31.6625 48.7058 31.9033 48.6037 32.2244C48.5088 32.5456 48.4613 32.947 48.4613 33.4287C48.4613 34.1586 48.5672 34.706 48.7788 35.0709C48.9905 35.4359 49.2861 35.6183 49.6656 35.6183C50.0597 35.6183 50.3626 35.4359 50.5743 35.0709C50.786 34.706 50.8918 34.1586 50.8918 33.4287ZM49.6766 36.9211C49.1146 36.9211 48.6183 36.7934 48.1876 36.538C47.7643 36.2752 47.4322 35.8847 47.1914 35.3665C46.9505 34.8483 46.8301 34.2024 46.8301 33.4287C46.8301 32.6551 46.9542 32.0128 47.2023 31.5019C47.4505 30.9837 47.7862 30.5968 48.2095 30.3414C48.6401 30.0786 49.1292 29.9473 49.6766 29.9473C50.2167 29.9473 50.702 30.0786 51.1326 30.3414C51.5633 30.5968 51.9026 30.9837 52.1508 31.5019C52.4063 32.0201 52.534 32.6624 52.534 33.4287C52.534 34.2024 52.4099 34.8483 52.1618 35.3665C51.9209 35.8847 51.5852 36.2752 51.1545 36.538C50.7239 36.7934 50.2313 36.9211 49.6766 36.9211Z" fill="white"/>
<path d="M41.3827 30.9983C41.3827 30.772 41.4666 30.5822 41.6345 30.429C41.8023 30.2684 42.0322 30.148 42.3242 30.0677C42.6161 29.9874 42.9555 29.9473 43.3424 29.9473C43.8898 29.9473 44.3496 30.0348 44.7218 30.21C45.1013 30.3779 45.386 30.6151 45.5757 30.9216C45.7728 31.2209 45.8713 31.5639 45.8713 31.9507C45.8713 32.3376 45.7619 32.7171 45.5429 33.0893C45.3239 33.4543 44.9846 33.8302 44.5247 34.217L43.003 35.487H45.7838C45.8202 35.5453 45.8567 35.6329 45.8932 35.7497C45.9297 35.8592 45.948 35.9796 45.948 36.111C45.948 36.3372 45.8969 36.5015 45.7947 36.6036C45.6925 36.7058 45.5575 36.7569 45.3896 36.7569H41.5688C41.4301 36.662 41.3206 36.538 41.2403 36.3847C41.1674 36.2314 41.1309 36.0599 41.1309 35.8701C41.1309 35.6512 41.1747 35.4687 41.2622 35.3227C41.3571 35.1695 41.4593 35.0417 41.5688 34.9395L43.1891 33.5054C43.5832 33.1623 43.8533 32.8813 43.9992 32.6624C44.1452 32.4434 44.2182 32.2354 44.2182 32.0383C44.2182 31.7975 44.127 31.6077 43.9445 31.469C43.7693 31.3231 43.5139 31.2501 43.1781 31.2501C42.8789 31.2501 42.6088 31.3012 42.368 31.4033C42.1344 31.4982 41.941 31.5968 41.7877 31.6989C41.6783 31.626 41.5834 31.5311 41.5031 31.4143C41.4228 31.2975 41.3827 31.1588 41.3827 30.9983Z" fill="white"/>
<path d="M110.796 23.7255C111.19 23.7255 111.471 23.6562 111.639 23.5175C111.814 23.3716 111.902 23.2 111.902 23.003C111.902 22.8205 111.832 22.6745 111.694 22.5651C111.562 22.4483 111.365 22.3497 111.102 22.2695L110.522 22.0833C110.128 21.952 109.778 21.806 109.471 21.6454C109.172 21.4849 108.938 21.2768 108.771 21.0214C108.61 20.7659 108.53 20.4411 108.53 20.047C108.53 19.4412 108.76 18.9595 109.219 18.6019C109.679 18.2442 110.318 18.0654 111.135 18.0654C111.551 18.0654 111.92 18.1056 112.241 18.1859C112.57 18.2661 112.825 18.3866 113.007 18.5471C113.197 18.7004 113.292 18.8902 113.292 19.1164C113.292 19.2843 113.252 19.4303 113.172 19.5544C113.099 19.6711 113.004 19.7733 112.887 19.8609C112.719 19.7441 112.497 19.6456 112.219 19.5653C111.942 19.4777 111.635 19.4339 111.3 19.4339C110.949 19.4339 110.686 19.4923 110.511 19.6091C110.336 19.7186 110.249 19.8645 110.249 20.047C110.249 20.193 110.307 20.3134 110.424 20.4083C110.54 20.4959 110.716 20.5762 110.949 20.6492L111.551 20.8353C112.216 21.0396 112.726 21.3133 113.084 21.6564C113.442 21.9921 113.621 22.4446 113.621 23.0139C113.621 23.627 113.383 24.127 112.909 24.5138C112.434 24.8933 111.748 25.0831 110.851 25.0831C110.405 25.0831 110.008 25.0357 109.657 24.9408C109.307 24.8459 109.026 24.7072 108.814 24.5247C108.61 24.3423 108.508 24.1306 108.508 23.8898C108.508 23.7 108.563 23.5394 108.672 23.408C108.789 23.2694 108.917 23.1672 109.055 23.1015C109.252 23.2621 109.497 23.408 109.789 23.5394C110.088 23.6635 110.424 23.7255 110.796 23.7255Z" fill="white"/>
<path d="M107.643 19.1602C107.643 19.3281 107.599 19.4741 107.511 19.5981C107.424 19.7222 107.325 19.8208 107.216 19.8937C107.033 19.7697 106.825 19.6602 106.592 19.5653C106.365 19.4704 106.095 19.423 105.782 19.423C105.395 19.423 105.059 19.5069 104.774 19.6748C104.49 19.8427 104.271 20.0872 104.117 20.4083C103.972 20.7294 103.899 21.1199 103.899 21.5797C103.899 22.2804 104.074 22.8132 104.424 23.1781C104.774 23.5431 105.256 23.7255 105.869 23.7255C106.183 23.7255 106.453 23.6817 106.679 23.5942C106.906 23.5066 107.114 23.408 107.303 23.2986C107.413 23.3789 107.5 23.4847 107.566 23.6161C107.639 23.7401 107.676 23.8861 107.676 24.054C107.676 24.2 107.635 24.335 107.555 24.4591C107.482 24.5831 107.354 24.689 107.172 24.7765C107.033 24.8495 106.836 24.9189 106.581 24.9846C106.325 25.0502 106.015 25.0831 105.65 25.0831C105.008 25.0831 104.42 24.959 103.888 24.7109C103.362 24.4554 102.946 24.0722 102.64 23.5613C102.333 23.0431 102.18 22.3826 102.18 21.5797C102.18 20.8207 102.329 20.182 102.629 19.6638C102.935 19.1383 103.344 18.7406 103.855 18.4705C104.366 18.2005 104.931 18.0654 105.552 18.0654C105.982 18.0654 106.355 18.1165 106.668 18.2187C106.982 18.3136 107.223 18.445 107.391 18.6128C107.559 18.7734 107.643 18.9559 107.643 19.1602Z" fill="white"/>
<path d="M100.416 23.6596L99.8031 24.218C99.5112 24.5172 99.1609 24.7362 98.7521 24.8749C98.3434 25.0062 97.9347 25.0719 97.526 25.0719C96.9713 25.0719 96.4968 24.9771 96.1027 24.7873C95.7159 24.5902 95.4166 24.3275 95.205 23.999C95.0006 23.6633 94.8984 23.2874 94.8984 22.8714C94.8984 22.4992 94.9714 22.178 95.1174 21.908C95.2707 21.6379 95.4641 21.4117 95.6976 21.2292C95.9385 21.0467 96.1976 20.9081 96.4749 20.8132L97.2194 21.7985C97.0807 21.8423 96.9494 21.9116 96.8253 22.0065C96.7085 22.0941 96.6136 22.2036 96.5406 22.3349C96.475 22.459 96.4421 22.605 96.4421 22.7729C96.4421 23.0721 96.5406 23.3203 96.7377 23.5173C96.9421 23.7144 97.234 23.8129 97.6135 23.8129C97.7668 23.8129 97.9675 23.7801 98.2157 23.7144C98.4638 23.6414 98.701 23.4881 98.9273 23.2546L99.42 22.5101C99.5148 22.2693 99.5769 21.9956 99.6061 21.689C99.6353 21.3825 99.6499 21.0942 99.6499 20.8241C99.7739 20.773 99.8907 20.7365 100 20.7146C100.11 20.6854 100.219 20.6708 100.329 20.6708C100.621 20.6708 100.818 20.7548 100.92 20.9226C101.022 21.0832 101.073 21.2985 101.073 21.5686C101.073 21.897 101.018 22.2474 100.909 22.6196C100.807 22.9845 100.642 23.3312 100.416 23.6596ZM100.668 25.05C100.413 25.05 100.161 24.926 99.9126 24.6778L96.7705 21.4919L96.4749 21.065C96.2122 20.773 96.0407 20.5212 95.9604 20.3096C95.8874 20.0979 95.8509 19.8972 95.8509 19.7074C95.8509 19.4082 95.9275 19.1345 96.0808 18.8863C96.2341 18.6382 96.4567 18.4411 96.7486 18.2951C97.0479 18.1492 97.4055 18.0762 97.8216 18.0762C98.2668 18.0762 98.5843 18.1528 98.774 18.3061C98.9711 18.4594 99.0696 18.6528 99.0696 18.8863C99.0696 18.9958 99.0441 19.1053 98.993 19.2148C98.9492 19.3242 98.8835 19.4191 98.7959 19.4994C98.7083 19.4556 98.6025 19.4191 98.4784 19.3899C98.3617 19.3607 98.2412 19.3461 98.1171 19.3461C97.9055 19.3461 97.7303 19.3972 97.5916 19.4994C97.4603 19.5943 97.3946 19.733 97.3946 19.9154C97.3946 20.0541 97.4384 20.1855 97.526 20.3096C97.6208 20.4263 97.7595 20.5723 97.942 20.7475L101.467 24.218C101.453 24.4589 101.369 24.6596 101.215 24.8201C101.062 24.9734 100.88 25.05 100.668 25.05Z" fill="white"/>
<path d="M90.6968 19.5974L90.6859 18.2617H94.0688C94.1126 18.3274 94.1528 18.4186 94.1892 18.5354C94.2257 18.6522 94.244 18.7763 94.244 18.9076C94.244 19.1412 94.1892 19.3164 94.0798 19.4332C93.9776 19.5426 93.8353 19.5974 93.6528 19.5974H90.6968ZM92.2405 18.2617L92.2515 19.5974H88.8685C88.8174 19.5317 88.7736 19.4405 88.7371 19.3237C88.708 19.2069 88.6934 19.0828 88.6934 18.9514C88.6934 18.7106 88.7444 18.5354 88.8466 18.4259C88.9561 18.3165 89.0984 18.2617 89.2736 18.2617H92.2405ZM90.6093 19.3018H92.2843V24.8853C92.2113 24.9072 92.1018 24.9254 91.9559 24.94C91.8099 24.9619 91.6603 24.9728 91.507 24.9728C91.1786 24.9728 90.945 24.9144 90.8063 24.7977C90.6749 24.6809 90.6093 24.4765 90.6093 24.1846V19.3018Z" fill="white"/>
<path d="M81.4785 20.2872H83.1426V24.8306L82.3653 24.9182C82.0953 24.9182 81.8799 24.8379 81.7194 24.6773C81.5588 24.5168 81.4785 24.3015 81.4785 24.0314V20.2872ZM82.3653 24.9182V23.5607H85.803C85.8541 23.6336 85.8979 23.7285 85.9343 23.8453C85.9708 23.9548 85.9891 24.0789 85.9891 24.2175C85.9891 24.4511 85.938 24.6263 85.8358 24.743C85.7336 24.8598 85.5913 24.9182 85.4088 24.9182H82.3653ZM83.1426 22.3673H81.4785V18.2399C81.5515 18.2253 81.661 18.2071 81.807 18.1852C81.9602 18.1633 82.1062 18.1523 82.2449 18.1523C82.566 18.1523 82.7959 18.2071 82.9346 18.3166C83.0733 18.426 83.1426 18.6341 83.1426 18.9406V22.3673Z" fill="white"/>
<path d="M77.3722 19.642H77.3065C77.2335 19.8756 77.1459 20.1347 77.0437 20.4193C76.9489 20.704 76.8503 21.0032 76.7481 21.3171C76.646 21.6236 76.5474 21.9302 76.4526 22.2367L76.2555 23.222C76.2117 23.3607 76.1679 23.5067 76.1241 23.66C76.0876 23.8132 76.0475 23.9628 76.0037 24.1088C75.9599 24.2548 75.9197 24.3935 75.8833 24.5248C75.8468 24.6562 75.8103 24.7803 75.7738 24.8971C75.6935 24.919 75.6023 24.9409 75.5001 24.9628C75.3979 24.992 75.2775 25.0066 75.1388 25.0066C74.8323 25.0066 74.5987 24.9518 74.4381 24.8423C74.2776 24.7329 74.1973 24.5723 74.1973 24.3606C74.1973 24.273 74.2082 24.1818 74.2301 24.0869C74.2593 23.992 74.2921 23.8826 74.3286 23.7585C74.3943 23.5176 74.4856 23.2147 74.6023 22.8498C74.7264 22.4849 74.8578 22.0907 74.9965 21.6674C75.1424 21.2368 75.2884 20.8135 75.4344 20.3975C75.5877 19.9814 75.7263 19.5982 75.8504 19.2479C75.9818 18.8976 76.0876 18.6239 76.1679 18.4268C76.2701 18.3611 76.4307 18.3027 76.6496 18.2516C76.8759 18.1933 77.0985 18.1641 77.3174 18.1641C77.6313 18.1641 77.9123 18.2115 78.1604 18.3064C78.4086 18.394 78.5655 18.5363 78.6312 18.7334C78.7699 19.1202 78.9195 19.5691 79.0801 20.08C79.2479 20.5836 79.4158 21.1127 79.5837 21.6674C79.7515 22.2221 79.9121 22.7622 80.0654 23.2877C80.226 23.8059 80.3646 24.273 80.4814 24.6891C80.4011 24.7766 80.2843 24.8496 80.1311 24.908C79.9778 24.9737 79.7953 25.0066 79.5837 25.0066C79.2844 25.0066 79.0728 24.9518 78.9487 24.8423C78.8246 24.7329 78.7297 24.5686 78.664 24.3497L78.3137 23.1235L78.1276 22.1929C78.04 21.8645 77.9488 21.547 77.8539 21.2404C77.759 20.9339 77.6714 20.6456 77.5911 20.3756C77.5109 20.0982 77.4379 19.8537 77.3722 19.642ZM75.522 23.4191L76.1679 22.1272H78.7297L78.9487 23.4191H75.522Z" fill="white"/>
<path d="M69.661 21.3713H70.3726C70.7375 21.3713 71.0295 21.291 71.2484 21.1305C71.4747 20.9626 71.5878 20.7181 71.5878 20.3969C71.5878 20.0831 71.482 19.8459 71.2703 19.6853C71.0587 19.5175 70.7339 19.4335 70.2959 19.4335C70.1719 19.4335 70.0587 19.4372 69.9566 19.4445C69.8544 19.4518 69.7558 19.4664 69.661 19.4883V21.3713ZM70.5259 22.6632H68.0078V18.8423C68.0078 18.7037 68.048 18.5942 68.1282 18.5139C68.2085 18.4336 68.3144 18.3716 68.4457 18.3278C68.6866 18.2402 68.9676 18.1781 69.2887 18.1417C69.6172 18.1052 69.9566 18.0869 70.3069 18.0869C71.2922 18.0869 72.033 18.2949 72.5293 18.7109C73.0256 19.1197 73.2738 19.678 73.2738 20.386C73.2738 20.8239 73.1534 21.218 72.9125 21.5684C72.679 21.9114 72.3542 22.1815 71.9381 22.3785C71.5294 22.5683 71.0587 22.6632 70.5259 22.6632ZM70.2193 22.269L71.7082 21.9187C71.8761 22.1523 72.0476 22.3822 72.2228 22.6084C72.4053 22.8347 72.5768 23.0537 72.7373 23.2653C72.9052 23.477 73.0548 23.674 73.1862 23.8565C73.3176 24.0317 73.4234 24.1813 73.5037 24.3054C73.438 24.5243 73.3212 24.6959 73.1534 24.8199C72.9855 24.9367 72.7957 24.9951 72.5841 24.9951C72.314 24.9951 72.106 24.9367 71.96 24.8199C71.8214 24.6959 71.69 24.5353 71.5659 24.3382L70.2193 22.269ZM68.0078 22.0391H69.6719V24.8856C69.6062 24.9075 69.5004 24.9258 69.3544 24.9404C69.2084 24.9623 69.0588 24.9732 68.9055 24.9732C68.5771 24.9732 68.3436 24.9148 68.2049 24.798C68.0735 24.6813 68.0078 24.4769 68.0078 24.1849V22.0391Z" fill="white"/>
<path d="M62.0508 20.2543H63.6711V24.8305C63.6054 24.8451 63.5032 24.8634 63.3645 24.8853C63.2332 24.9071 63.0908 24.9181 62.9376 24.9181C62.6675 24.9181 62.4522 24.8378 62.2916 24.6772C62.1311 24.5167 62.0508 24.3014 62.0508 24.0313V20.2543ZM63.6711 22.9037H62.0508V19.1485C62.0508 18.8712 62.1311 18.6558 62.2916 18.5026C62.4522 18.342 62.6675 18.2617 62.9376 18.2617C63.0908 18.2617 63.2332 18.2727 63.3645 18.2946C63.5032 18.3165 63.6054 18.3347 63.6711 18.3493V22.9037ZM62.9376 22.1702V20.8564H66.2439C66.2877 20.9294 66.3278 21.0206 66.3643 21.1301C66.4008 21.2396 66.419 21.36 66.419 21.4914C66.419 21.7249 66.3643 21.8965 66.2548 22.0059C66.1526 22.1154 66.014 22.1702 65.8388 22.1702H62.9376ZM62.9376 24.9181V23.5934H66.6051C66.6489 23.6591 66.6891 23.7503 66.7256 23.8671C66.7621 23.9839 66.7803 24.1079 66.7803 24.2393C66.7803 24.4729 66.7256 24.6444 66.6161 24.7539C66.5139 24.8634 66.3752 24.9181 66.2001 24.9181H62.9376ZM62.9376 19.5755V18.2617H66.5504C66.6015 18.3274 66.6416 18.415 66.6708 18.5245C66.7073 18.6339 66.7256 18.7544 66.7256 18.8858C66.7256 19.1193 66.6745 19.2945 66.5723 19.4113C66.4701 19.5207 66.3278 19.5755 66.1453 19.5755H62.9376Z" fill="white"/>
<path d="M54.6738 20.1558L56.1847 20.1339C56.2138 20.4478 56.2357 20.758 56.2503 21.0645C56.2649 21.3711 56.2722 21.6666 56.2722 21.9513C56.2795 22.2359 56.2832 22.5133 56.2832 22.7833V24.8963C56.2175 24.9109 56.1117 24.9255 55.9657 24.9401C55.827 24.962 55.6847 24.9729 55.5387 24.9729C55.2176 24.9729 54.9913 24.9182 54.8599 24.8087C54.7359 24.6992 54.6738 24.5022 54.6738 24.2175V20.1558ZM60.5091 22.9695L58.9873 22.9804C58.9362 22.4476 58.9071 21.9403 58.8998 21.4586C58.8925 20.9769 58.8888 20.5171 58.8888 20.0792V18.2399C58.9618 18.2253 59.0676 18.2071 59.2063 18.1852C59.345 18.1633 59.4909 18.1523 59.6442 18.1523C59.9581 18.1523 60.1807 18.2107 60.312 18.3275C60.4434 18.437 60.5091 18.6304 60.5091 18.9078V22.9695ZM60.5091 22.444V24.6883C60.4142 24.7759 60.2792 24.8452 60.104 24.8963C59.9362 24.9547 59.7355 24.9839 59.5019 24.9839C59.2537 24.9839 59.0202 24.9437 58.8012 24.8635C58.5896 24.7832 58.4144 24.6044 58.2757 24.327L56.951 21.809C56.8707 21.6484 56.7904 21.4878 56.7102 21.3273C56.6372 21.1667 56.5642 21.0061 56.4912 20.8455C56.4182 20.6777 56.3452 20.5098 56.2722 20.3419L54.6738 20.7032V18.5465C54.7614 18.4224 54.8964 18.3275 55.0789 18.2618C55.2687 18.1961 55.473 18.1633 55.692 18.1633C55.9328 18.1633 56.1591 18.2034 56.3708 18.2837C56.5897 18.364 56.7685 18.5392 56.9072 18.8092L58.2429 21.3382C58.3232 21.4915 58.4034 21.6521 58.4837 21.8199C58.564 21.9805 58.6407 22.1411 58.7136 22.3016C58.7866 22.4622 58.856 22.6264 58.9216 22.7943L60.5091 22.444Z" fill="white"/>
<path d="M48.7188 20.2543H50.3391V24.8305C50.2734 24.8451 50.1712 24.8634 50.0325 24.8853C49.9011 24.9071 49.7588 24.9181 49.6055 24.9181C49.3355 24.9181 49.1202 24.8378 48.9596 24.6772C48.799 24.5167 48.7188 24.3014 48.7188 24.0313V20.2543ZM50.3391 22.9037H48.7188V19.1485C48.7188 18.8712 48.799 18.6558 48.9596 18.5026C49.1202 18.342 49.3355 18.2617 49.6055 18.2617C49.7588 18.2617 49.9011 18.2727 50.0325 18.2946C50.1712 18.3165 50.2734 18.3347 50.3391 18.3493V22.9037ZM49.6055 22.1702V20.8564H52.9118C52.9556 20.9294 52.9958 21.0206 53.0323 21.1301C53.0688 21.2396 53.087 21.36 53.087 21.4914C53.087 21.7249 53.0323 21.8965 52.9228 22.0059C52.8206 22.1154 52.6819 22.1702 52.5068 22.1702H49.6055ZM49.6055 24.9181V23.5934H53.2731C53.3169 23.6591 53.357 23.7503 53.3935 23.8671C53.43 23.9839 53.4483 24.1079 53.4483 24.2393C53.4483 24.4729 53.3935 24.6444 53.2841 24.7539C53.1819 24.8634 53.0432 24.9181 52.868 24.9181H49.6055ZM49.6055 19.5755V18.2617H53.2184C53.2695 18.3274 53.3096 18.415 53.3388 18.5245C53.3753 18.6339 53.3935 18.7544 53.3935 18.8858C53.3935 19.1193 53.3425 19.2945 53.2403 19.4113C53.1381 19.5207 52.9958 19.5755 52.8133 19.5755H49.6055Z" fill="white"/>
<path d="M47.3395 21.6235V23.9007C47.3395 24.1051 47.2994 24.262 47.2191 24.3715C47.1461 24.4737 47.022 24.5722 46.8468 24.6671C46.6498 24.7765 46.3651 24.8714 45.9929 24.9517C45.6207 25.0393 45.2484 25.0831 44.8762 25.0831C44.1755 25.0831 43.5442 24.9627 42.9822 24.7218C42.4275 24.4737 41.9859 24.0941 41.6575 23.5832C41.3364 23.065 41.1758 22.4008 41.1758 21.5907C41.1758 20.817 41.34 20.1711 41.6684 19.6529C41.9969 19.1274 42.4384 18.7333 42.9931 18.4705C43.5551 18.2005 44.1755 18.0654 44.8543 18.0654C45.3068 18.0654 45.6973 18.1129 46.0257 18.2078C46.3615 18.3026 46.6169 18.434 46.7921 18.6019C46.9746 18.7697 47.0658 18.9632 47.0658 19.1821C47.0658 19.3427 47.022 19.4887 46.9344 19.62C46.8541 19.7441 46.7556 19.839 46.6388 19.9047C46.4564 19.7879 46.2265 19.6784 45.9491 19.5763C45.6718 19.4741 45.347 19.423 44.9747 19.423C44.5733 19.423 44.212 19.5106 43.8909 19.6857C43.577 19.8536 43.3325 20.1018 43.1574 20.4302C42.9822 20.7513 42.8946 21.1345 42.8946 21.5797C42.8946 22.0614 42.9786 22.4629 43.1464 22.784C43.3216 23.1052 43.5588 23.346 43.858 23.5066C44.1646 23.6599 44.5113 23.7365 44.8981 23.7365C45.0806 23.7365 45.2448 23.7182 45.3908 23.6817C45.544 23.6453 45.6608 23.6088 45.7411 23.5723V22.2914H44.4602C44.4164 22.2184 44.3762 22.1271 44.3398 22.0177C44.3033 21.9009 44.285 21.7768 44.285 21.6454C44.285 21.4192 44.3361 21.2549 44.4383 21.1528C44.5478 21.0433 44.6901 20.9885 44.8653 20.9885H46.7045C46.9016 20.9885 47.0549 21.0433 47.1643 21.1528C47.2811 21.2622 47.3395 21.4192 47.3395 21.6235Z" fill="white"/>
<path d="M98.2457 7.738L98.2347 6.40234H101.618C101.661 6.46803 101.702 6.55926 101.738 6.67604C101.775 6.79282 101.793 6.9169 101.793 7.04827C101.793 7.28183 101.738 7.457 101.629 7.57378C101.526 7.68326 101.384 7.738 101.202 7.738H98.2457ZM99.7893 6.40234L99.8003 7.738H96.4174C96.3663 7.67231 96.3225 7.58108 96.286 7.4643C96.2568 7.34752 96.2422 7.22344 96.2422 7.09207C96.2422 6.85121 96.2933 6.67604 96.3955 6.56656C96.5049 6.45708 96.6473 6.40234 96.8224 6.40234H99.7893ZM98.1581 7.4424H99.8331V13.0259C99.7601 13.0478 99.6507 13.066 99.5047 13.0806C99.3587 13.1025 99.2091 13.1135 99.0558 13.1135C98.7274 13.1135 98.4938 13.0551 98.3551 12.9383C98.2238 12.8215 98.1581 12.6172 98.1581 12.3252V7.4424Z" fill="white"/>
<path d="M92.9737 11.8652C93.3678 11.8652 93.6488 11.7959 93.8167 11.6572C93.9918 11.5112 94.0794 11.3397 94.0794 11.1426C94.0794 10.9602 94.0101 10.8142 93.8714 10.7047C93.74 10.5879 93.543 10.4894 93.2802 10.4091L92.7 10.223C92.3058 10.0916 91.9555 9.94564 91.649 9.78507C91.3497 9.6245 91.1162 9.41649 90.9483 9.16104C90.7877 8.90558 90.7074 8.58079 90.7074 8.18666C90.7074 7.58088 90.9374 7.09916 91.3972 6.74153C91.857 6.3839 92.4956 6.20508 93.3131 6.20508C93.7291 6.20508 94.0977 6.24522 94.4188 6.32551C94.7473 6.40579 95.0027 6.52622 95.1852 6.68679C95.3749 6.84006 95.4698 7.02983 95.4698 7.25609C95.4698 7.42395 95.4297 7.56993 95.3494 7.694C95.2764 7.81078 95.1815 7.91296 95.0647 8.00055C94.8969 7.88377 94.6743 7.78524 94.3969 7.70495C94.1196 7.61737 93.813 7.57358 93.4773 7.57358C93.127 7.57358 92.8642 7.63197 92.689 7.74874C92.5139 7.85822 92.4263 8.0042 92.4263 8.18666C92.4263 8.33264 92.4847 8.45307 92.6014 8.54795C92.7182 8.63553 92.8934 8.71582 93.127 8.7888L93.7291 8.97492C94.3933 9.17928 94.9042 9.45298 95.2618 9.79602C95.6194 10.1318 95.7983 10.5843 95.7983 11.1536C95.7983 11.7667 95.5611 12.2666 95.0866 12.6534C94.6122 13.033 93.9262 13.2227 93.0284 13.2227C92.5832 13.2227 92.1854 13.1753 91.8351 13.0804C91.4848 12.9855 91.2038 12.8469 90.9921 12.6644C90.7877 12.4819 90.6855 12.2703 90.6855 12.0294C90.6855 11.8396 90.7403 11.6791 90.8498 11.5477C90.9665 11.409 91.0943 11.3068 91.2329 11.2412C91.43 11.4017 91.6745 11.5477 91.9665 11.6791C92.2657 11.8032 92.6014 11.8652 92.9737 11.8652Z" fill="white"/>
<path d="M85.0059 8.39488H86.6262V12.9711C86.5605 12.9857 86.4583 13.004 86.3196 13.0259C86.1882 13.0478 86.0459 13.0587 85.8926 13.0587C85.6226 13.0587 85.4073 12.9784 85.2467 12.8179C85.0861 12.6573 85.0059 12.442 85.0059 12.1719V8.39488ZM86.6262 11.0443H85.0059V7.28913C85.0059 7.01178 85.0861 6.79647 85.2467 6.6432C85.4073 6.48263 85.6226 6.40234 85.8926 6.40234C86.0459 6.40234 86.1882 6.41329 86.3196 6.43519C86.4583 6.45708 86.5605 6.47533 86.6262 6.48993V11.0443ZM85.8926 10.3108V8.99702H89.1989C89.2427 9.07 89.2829 9.16124 89.3194 9.27072C89.3559 9.3802 89.3741 9.50062 89.3741 9.632C89.3741 9.86556 89.3194 10.0371 89.2099 10.1466C89.1077 10.256 88.969 10.3108 88.7939 10.3108H85.8926ZM85.8926 13.0587V11.734H89.5602C89.604 11.7997 89.6442 11.8909 89.6807 12.0077C89.7171 12.1245 89.7354 12.2486 89.7354 12.3799C89.7354 12.6135 89.6806 12.785 89.5712 12.8945C89.469 13.004 89.3303 13.0587 89.1551 13.0587H85.8926ZM85.8926 7.7161V6.40234H89.5055C89.5566 6.46803 89.5967 6.55562 89.6259 6.6651C89.6624 6.77458 89.6807 6.895 89.6807 7.02638C89.6807 7.25994 89.6296 7.4351 89.5274 7.55188C89.4252 7.66136 89.2829 7.7161 89.1004 7.7161H85.8926Z" fill="white"/>
<path d="M80.0516 9.51096H80.7632C81.1281 9.51096 81.4201 9.43067 81.639 9.2701C81.8653 9.10223 81.9784 8.85773 81.9784 8.53659C81.9784 8.22275 81.8726 7.98554 81.6609 7.82497C81.4493 7.6571 81.1245 7.57317 80.6866 7.57317C80.5625 7.57317 80.4494 7.57681 80.3472 7.58411C80.245 7.59141 80.1465 7.60601 80.0516 7.62791V9.51096ZM80.9165 10.8028H78.3984V6.98197C78.3984 6.8433 78.4386 6.73382 78.5189 6.65353C78.5992 6.57325 78.705 6.51121 78.8364 6.46742C79.0772 6.37983 79.3582 6.3178 79.6794 6.2813C80.0078 6.24481 80.3472 6.22656 80.6975 6.22656C81.6828 6.22656 82.4236 6.43457 82.92 6.8506C83.4163 7.25932 83.6644 7.81767 83.6644 8.52564C83.6644 8.96356 83.544 9.35769 83.3031 9.70802C83.0696 10.0511 82.7448 10.3211 82.3288 10.5182C81.92 10.7079 81.4493 10.8028 80.9165 10.8028ZM80.6099 10.4087L82.0989 10.0584C82.2667 10.2919 82.4382 10.5218 82.6134 10.7481C82.7959 10.9743 82.9674 11.1933 83.128 11.405C83.2958 11.6166 83.4455 11.8137 83.5768 11.9962C83.7082 12.1713 83.814 12.3209 83.8943 12.445C83.8286 12.664 83.7119 12.8355 83.544 12.9596C83.3761 13.0764 83.1864 13.1347 82.9747 13.1347C82.7046 13.1347 82.4966 13.0764 82.3507 12.9596C82.212 12.8355 82.0806 12.6749 81.9565 12.4779L80.6099 10.4087ZM78.3984 10.1788H80.0625V13.0253C79.9968 13.0472 79.891 13.0654 79.745 13.08C79.5991 13.1019 79.4494 13.1128 79.2962 13.1128C78.9677 13.1128 78.7342 13.0545 78.5955 12.9377C78.4641 12.8209 78.3984 12.6165 78.3984 12.3246V10.1788Z" fill="white"/>
<path d="M75.168 8.40593H76.8321V13.026C76.7664 13.0479 76.6605 13.0661 76.5146 13.0807C76.3686 13.1026 76.219 13.1136 76.0657 13.1136C75.7373 13.1136 75.5037 13.0552 75.365 12.9384C75.2337 12.8216 75.168 12.6173 75.168 12.3253V8.40593ZM76.8321 10.5079H75.168V6.38055C75.241 6.36596 75.3504 6.34771 75.4964 6.32581C75.6497 6.30392 75.7993 6.29297 75.9453 6.29297C76.2591 6.29297 76.4854 6.34771 76.6241 6.45719C76.7627 6.56667 76.8321 6.77468 76.8321 7.08122V10.5079Z" fill="white"/>
<path d="M71.0636 7.78169H70.9979C70.9249 8.01525 70.8373 8.27435 70.7352 8.559C70.6403 8.84364 70.5417 9.14289 70.4396 9.45673C70.3374 9.76328 70.2388 10.0698 70.144 10.3764L69.9469 11.3617C69.9031 11.5004 69.8593 11.6463 69.8155 11.7996C69.779 11.9529 69.7389 12.1025 69.6951 12.2485C69.6513 12.3944 69.6112 12.5331 69.5747 12.6645C69.5382 12.7959 69.5017 12.9199 69.4652 13.0367C69.3849 13.0586 69.2937 13.0805 69.1915 13.1024C69.0893 13.1316 68.9689 13.1462 68.8302 13.1462C68.5237 13.1462 68.2901 13.0915 68.1295 12.982C67.969 12.8725 67.8887 12.7119 67.8887 12.5003C67.8887 12.4127 67.8996 12.3215 67.9215 12.2266C67.9507 12.1317 67.9836 12.0222 68.02 11.8981C68.0857 11.6573 68.177 11.3544 68.2937 10.9895C68.4178 10.6245 68.5492 10.2304 68.6879 9.80707C68.8338 9.37645 68.9798 8.95312 69.1258 8.5371C69.2791 8.12108 69.4177 7.7379 69.5418 7.38756C69.6732 7.03723 69.779 6.76353 69.8593 6.56646C69.9615 6.50077 70.1221 6.44239 70.341 6.39129C70.5673 6.33291 70.7899 6.30371 71.0089 6.30371C71.3227 6.30371 71.6037 6.35115 71.8518 6.44603C72.1 6.53362 72.2569 6.67594 72.3226 6.87301C72.4613 7.25984 72.6109 7.7087 72.7715 8.21961C72.9393 8.72322 73.1072 9.25237 73.2751 9.80707C73.443 10.3618 73.6035 10.9019 73.7568 11.4274C73.9174 11.9456 74.056 12.4127 74.1728 12.8287C74.0925 12.9163 73.9758 12.9893 73.8225 13.0477C73.6692 13.1134 73.4867 13.1462 73.2751 13.1462C72.9758 13.1462 72.7642 13.0915 72.6401 12.982C72.516 12.8725 72.4211 12.7083 72.3555 12.4893L72.0051 11.2632L71.819 10.3326C71.7314 10.0041 71.6402 9.68664 71.5453 9.3801C71.4504 9.07355 71.3628 8.78526 71.2826 8.5152C71.2023 8.23786 71.1293 7.99335 71.0636 7.78169ZM69.2134 11.5587L69.8593 10.2669H72.4211L72.6401 11.5587H69.2134Z" fill="white"/>
<path d="M64.6238 10.3108H62.9707V7.28913C62.9707 7.01178 63.051 6.79647 63.2116 6.6432C63.3721 6.48263 63.5874 6.40234 63.8575 6.40234C64.0108 6.40234 64.1567 6.41329 64.2954 6.43519C64.4414 6.45708 64.5509 6.47533 64.6238 6.48993V10.3108ZM63.8356 10.5626V9.22693H67.1309C67.1747 9.29991 67.2149 9.39479 67.2514 9.51157C67.2879 9.62105 67.3061 9.74148 67.3061 9.87286C67.3061 10.1064 67.2514 10.2816 67.1419 10.3984C67.0397 10.5078 66.8974 10.5626 66.7149 10.5626H63.8356ZM63.8575 7.738V6.40234H67.5032C67.547 6.46803 67.5871 6.55926 67.6236 6.67604C67.6601 6.79282 67.6783 6.9169 67.6783 7.04827C67.6783 7.28183 67.6236 7.457 67.5141 7.57378C67.4119 7.68326 67.2696 7.738 67.0871 7.738H63.8575ZM62.9707 9.66484H64.6348V13.0259C64.5691 13.0478 64.4633 13.066 64.3173 13.0806C64.1713 13.1025 64.0217 13.1135 63.8684 13.1135C63.54 13.1135 63.3064 13.0551 63.1678 12.9383C63.0364 12.8215 62.9707 12.6208 62.9707 12.3362V9.66484Z" fill="white"/>
<path d="M54.8223 8.39488H56.4426V12.9711C56.3769 12.9857 56.2747 13.004 56.136 13.0259C56.0046 13.0478 55.8623 13.0587 55.7091 13.0587C55.439 13.0587 55.2237 12.9784 55.0631 12.8179C54.9026 12.6573 54.8223 12.442 54.8223 12.1719V8.39488ZM56.4426 11.0443H54.8223V7.28913C54.8223 7.01178 54.9026 6.79647 55.0631 6.6432C55.2237 6.48263 55.439 6.40234 55.7091 6.40234C55.8623 6.40234 56.0046 6.41329 56.136 6.43519C56.2747 6.45708 56.3769 6.47533 56.4426 6.48993V11.0443ZM55.7091 10.3108V8.99702H59.0153C59.0591 9.07 59.0993 9.16124 59.1358 9.27072C59.1723 9.3802 59.1905 9.50062 59.1905 9.632C59.1905 9.86556 59.1358 10.0371 59.0263 10.1466C58.9241 10.256 58.7854 10.3108 58.6103 10.3108H55.7091ZM55.7091 13.0587V11.734H59.3766C59.4204 11.7997 59.4606 11.8909 59.4971 12.0077C59.5336 12.1245 59.5518 12.2486 59.5518 12.3799C59.5518 12.6135 59.4971 12.785 59.3876 12.8945C59.2854 13.004 59.1467 13.0587 58.9716 13.0587H55.7091ZM55.7091 7.7161V6.40234H59.3219C59.373 6.46803 59.4131 6.55562 59.4423 6.6651C59.4788 6.77458 59.4971 6.895 59.4971 7.02638C59.4971 7.25994 59.446 7.4351 59.3438 7.55188C59.2416 7.66136 59.0993 7.7161 58.9168 7.7161H55.7091Z" fill="white"/>
<path d="M47.5117 8.40593H49.1758V13.026C49.1101 13.0479 49.0043 13.0661 48.8583 13.0807C48.7123 13.1026 48.5627 13.1136 48.4095 13.1136C48.081 13.1136 47.8475 13.0552 47.7088 12.9384C47.5774 12.8216 47.5117 12.6173 47.5117 12.3253V8.40593ZM49.1758 10.5079H47.5117V6.38055C47.5847 6.36596 47.6942 6.34771 47.8402 6.32581C47.9934 6.30392 48.1394 6.29297 48.2781 6.29297C48.5992 6.29297 48.8291 6.34771 48.9678 6.45719C49.1065 6.56667 49.1758 6.77468 49.1758 7.08122V10.5079ZM51.5953 8.40593H53.2704V13.026C53.1974 13.0479 53.0879 13.0661 52.9419 13.0807C52.7959 13.1026 52.6463 13.1136 52.4931 13.1136C52.1646 13.1136 51.9311 13.0552 51.7924 12.9384C51.661 12.8216 51.5953 12.6173 51.5953 12.3253V8.40593ZM53.2704 10.5079H51.5953V6.38055C51.6756 6.36596 51.7887 6.34771 51.9347 6.32581C52.0807 6.30392 52.2267 6.29297 52.3726 6.29297C52.6865 6.29297 52.9127 6.35136 53.0514 6.46814C53.1974 6.57762 53.2704 6.78563 53.2704 7.09217V10.5079ZM52.5478 10.3656H48.2671V9.04091H52.5478V10.3656Z" fill="white"/>
<path d="M42.9586 7.738L42.9476 6.40234H46.3305C46.3743 6.46803 46.4145 6.55926 46.451 6.67604C46.4875 6.79282 46.5057 6.9169 46.5057 7.04827C46.5057 7.28183 46.451 7.457 46.3415 7.57378C46.2393 7.68326 46.097 7.738 45.9145 7.738H42.9586ZM44.5022 6.40234L44.5132 7.738H41.1302C41.0792 7.67231 41.0354 7.58108 40.9989 7.4643C40.9697 7.34752 40.9551 7.22344 40.9551 7.09207C40.9551 6.85121 41.0062 6.67604 41.1084 6.56656C41.2178 6.45708 41.3602 6.40234 41.5353 6.40234H44.5022ZM42.871 7.4424H44.546V13.0259C44.473 13.0478 44.3636 13.066 44.2176 13.0806C44.0716 13.1025 43.922 13.1135 43.7687 13.1135C43.4403 13.1135 43.2067 13.0551 43.068 12.9383C42.9367 12.8215 42.871 12.6172 42.871 12.3252V7.4424Z" fill="white"/>
</svg>
